<svg width="1176" height="718" viewBox="0 0 1176 718" fill="none" xmlns="http://www.w3.org/2000/svg">
<g clip-path="url(#clip0_2295_519)">
<rect width="1176" height="718" fill="white"/>
<rect x="0.470703" width="1174" height="721" fill="#958484"/>
<rect x="352.471" y="584.348" width="134.556" height="128" transform="rotate(-0.148085 352.471 584.348)" fill="#817272"/>
<rect x="352.471" y="584.348" width="134.556" height="128" transform="rotate(-0.148085 352.471 584.348)" fill="#817272"/>
<path d="M750.47 596.5L900.026 569L912.97 686.5L765.801 697.347L750.47 596.5Z" fill="#817272"/>
<path d="M750.47 596.5L900.026 569L912.97 686.5L765.801 697.347L750.47 596.5Z" fill="#817272"/>
<path d="M697.541 526.532L847.096 499.032L860.041 616.532L712.872 627.38L697.541 526.532Z" fill="#817272"/>
<path d="M697.541 526.532L847.096 499.032L860.041 616.532L712.872 627.38L697.541 526.532Z" fill="#817272"/>
<rect x="210.471" y="112" width="754" height="350" fill="#745C5C"/>
<rect x="210.471" y="152" width="754" height="20" fill="#5F4B4B"/>
<rect x="210.471" y="222" width="754" height="20" fill="#5F4B4B"/>
<rect x="210.471" y="309" width="754" height="20" fill="#5F4B4B"/>
<rect x="277.471" y="462" width="350" height="20" transform="rotate(-90 277.471 462)" fill="#5F4B4B"/>
<rect x="869.471" y="461" width="350" height="20" transform="rotate(-90 869.471 461)" fill="#5F4B4B"/>
<rect x="210.471" y="404" width="754" height="20" fill="#5F4B4B"/>
<path d="M0.470703 0L210.471 113.283V464.5L0.470703 721V0Z" fill="#534141"/>
<ellipse cx="571.471" cy="300" rx="81" ry="78" fill="#744E2F"/>
<path d="M1174.47 2L964.471 112.577V465.417L1174.47 721V2Z" fill="#534141"/>
<path fill-rule="evenodd" clip-rule="evenodd" d="M755.368 454V541.704L827.023 557.082V470.223L755.368 454Z" fill="#93735A"/>
<path fill-rule="evenodd" clip-rule="evenodd" d="M827.023 470.093V557.797L755.367 573.175V486.316L827.023 470.093Z" fill="#B7986E"/>
<path fill-rule="evenodd" clip-rule="evenodd" d="M755.367 454V541.704L683.711 557.082V470.223L755.367 454Z" fill="#B4A28B"/>
<path fill-rule="evenodd" clip-rule="evenodd" d="M683.711 470.093V557.797L755.367 573.175V486.316L683.711 470.093Z" fill="#D3BEAC"/>
<circle cx="571.471" cy="300" r="70" fill="#C7E1E7"/>
<rect x="567.471" y="227" width="8" height="151" fill="#744E2F"/>
<rect x="491.471" y="305" width="8" height="161" transform="rotate(-90 491.471 305)" fill="#744E2F"/>
<path d="M0.19157 393.32L210.471 308L210.471 331L0.1918 417.934L0.19157 393.32Z" fill="#453838"/>
<path d="M-1.02988 525.5L210.47 403.501L210.47 424L-1.02988 554L-1.02988 525.5Z" fill="#453838"/>
<path d="M-0.626404 250L210.374 222L210.374 242L-0.626404 274.5L-0.626404 250Z" fill="#453838"/>
<path d="M-0.530203 115L210.428 152.437L210.428 172L-0.530164 137.5L-0.530203 115Z" fill="#453838"/>
<path d="M1175.48 394.844L964.834 307.681L964.732 332.256L1175.38 419.93L1175.48 394.844Z" fill="#453838"/>
<path d="M1174.63 514.501L963.988 404L963.988 424L1174.63 542.5L1174.63 514.501Z" fill="#453838"/>
<path d="M1175.01 216.433L964.282 221.933L964.282 242L1175.01 239.433L1175.01 216.433Z" fill="#453838"/>
<path d="M1174.97 106L964.471 151.999L964.471 172.999L1175.47 129.5L1174.97 106Z" fill="#453838"/>
<path d="M87.4707 614.5L87.4707 47L107.471 57.5L107.471 590.5L87.4707 614.5Z" fill="#453838"/>
<path d="M1088.97 617L1089.47 46.4999L1069.47 56.9999V593L1088.97 617Z" fill="#453838"/>
</g>
<defs>
<clipPath id="clip0_2295_519">
<rect width="1176" height="718" fill="white"/>
</clipPath>
</defs>
</svg>
