<svg width="1174" height="717" viewBox="0 0 1174 717" fill="none" xmlns="http://www.w3.org/2000/svg">
<g clip-path="url(#clip0_1974_2)">
<rect width="1174" height="717" fill="#884646"/>
<rect x="0.469727" width="1174" height="717" fill="#958484"/>
<rect x="352.47" y="584.348" width="134.556" height="128" transform="rotate(-0.148085 352.47 584.348)" fill="#817272"/>
<rect x="352.47" y="584.348" width="134.556" height="128" transform="rotate(-0.148085 352.47 584.348)" fill="#817272"/>
<path d="M750.469 596.5L900.025 569L912.969 686.5L765.8 697.347L750.469 596.5Z" fill="#817272"/>
<path d="M750.469 596.5L900.025 569L912.969 686.5L765.8 697.347L750.469 596.5Z" fill="#817272"/>
<path d="M697.54 526.532L847.095 499.032L860.04 616.532L712.871 627.38L697.54 526.532Z" fill="#817272"/>
<path d="M697.54 526.532L847.095 499.032L860.04 616.532L712.871 627.38L697.54 526.532Z" fill="#817272"/>
<path fill-rule="evenodd" clip-rule="evenodd" d="M536.443 468.701V601.427L414.252 624.699V493.252L536.443 468.701Z" fill="#9D825D"/>
<path fill-rule="evenodd" clip-rule="evenodd" d="M414.251 493.003V625.729L474.194 649V517.553L414.251 493.003Z" fill="#B4A28B"/>
<path d="M521.808 533.73L613.667 554.225L622.714 625.486L571.718 675.155L473.969 645L521.808 533.73Z" fill="#817272"/>
<path d="M521.808 533.73L613.667 554.225L622.714 625.486L571.718 675.155L473.969 645L521.808 533.73Z" fill="#817272"/>
<path fill-rule="evenodd" clip-rule="evenodd" d="M536.444 468.701V601.427L597.155 624.699V493.252L536.444 468.701Z" fill="#B4A28B"/>
<path fill-rule="evenodd" clip-rule="evenodd" d="M597.923 493.003V625.729L474.194 649V517.553L597.923 493.003Z" fill="#CFBDA5"/>
<path fill-rule="evenodd" clip-rule="evenodd" d="M473.9 517.603L597.945 493.337L625.589 524.3L502.739 548.333L473.9 517.603Z" fill="#F7F7F7"/>
<path fill-rule="evenodd" clip-rule="evenodd" d="M474.346 517.668L412.974 492.68L389.921 521.747L450.701 546.493L474.346 517.668Z" fill="#F7F7F7"/>
<rect x="210.47" y="112" width="754" height="350" fill="#745C5C"/>
<rect x="210.47" y="152" width="754" height="20" fill="#5F4B4B"/>
<rect x="210.47" y="222" width="754" height="20" fill="#5F4B4B"/>
<rect x="210.47" y="309" width="754" height="20" fill="#5F4B4B"/>
<rect x="277.47" y="462" width="350" height="20" transform="rotate(-90 277.47 462)" fill="#5F4B4B"/>
<rect x="869.47" y="461" width="350" height="20" transform="rotate(-90 869.47 461)" fill="#5F4B4B"/>
<rect x="210.47" y="404" width="754" height="20" fill="#5F4B4B"/>
<path d="M0.469727 0L210.47 113.283V464.5L0.469727 721V0Z" fill="#534141"/>
<ellipse cx="571.47" cy="300" rx="81" ry="78" fill="#744E2F"/>
<path d="M1174.47 2L964.47 112.577V465.417L1174.47 721V2Z" fill="#534141"/>
<path fill-rule="evenodd" clip-rule="evenodd" d="M755.366 454V541.704L827.021 557.082V470.223L755.366 454Z" fill="#93735A"/>
<path fill-rule="evenodd" clip-rule="evenodd" d="M827.022 470.093V557.797L755.366 573.175V486.316L827.022 470.093Z" fill="#B7986E"/>
<path fill-rule="evenodd" clip-rule="evenodd" d="M755.366 454V541.704L683.71 557.082V470.223L755.366 454Z" fill="#B4A28B"/>
<path fill-rule="evenodd" clip-rule="evenodd" d="M683.71 470.093V557.797L755.366 573.175V486.316L683.71 470.093Z" fill="#D3BEAC"/>
<path fill-rule="evenodd" clip-rule="evenodd" d="M355.341 530.611V663.365L450.658 686.641V555.167L355.341 530.611Z" fill="#9D825D"/>
<path fill-rule="evenodd" clip-rule="evenodd" d="M450.658 554.97V687.723L355.341 711V579.525L450.658 554.97Z" fill="#B7986E"/>
<path fill-rule="evenodd" clip-rule="evenodd" d="M355.341 530.611V663.365L260.023 686.641V555.167L355.341 530.611Z" fill="#B7986E"/>
<path fill-rule="evenodd" clip-rule="evenodd" d="M260.023 554.97V687.723L355.341 711V579.525L260.023 554.97Z" fill="#CFBDA5"/>
<path fill-rule="evenodd" clip-rule="evenodd" d="M355.442 579.457L259.793 555.125L234.667 585.643L329.395 609.741L355.442 579.457Z" fill="#F7F7F7"/>
<path fill-rule="evenodd" clip-rule="evenodd" d="M355.353 580.021L450.555 554.859L475.908 585.152L381.623 610.072L355.353 580.021Z" fill="#E3DACD"/>
<path fill-rule="evenodd" clip-rule="evenodd" d="M716.847 547.38V657.521L826.653 676.833V567.753L716.847 547.38Z" fill="#866143"/>
<path fill-rule="evenodd" clip-rule="evenodd" d="M826.653 567.548V677.689L772.785 697.001V587.921L826.653 567.548Z" fill="#B88860"/>
<path fill-rule="evenodd" clip-rule="evenodd" d="M716.846 547.38V657.521L662.288 676.833V567.753L716.846 547.38Z" fill="#B88860"/>
<path fill-rule="evenodd" clip-rule="evenodd" d="M661.597 567.548V677.689L772.785 697.001V587.921L661.597 567.548Z" fill="#D3BEAC"/>
<path fill-rule="evenodd" clip-rule="evenodd" d="M773.051 587.962L661.578 567.825L636.736 593.52L747.135 613.463L773.051 587.962Z" fill="#F7F7F7"/>
<path fill-rule="evenodd" clip-rule="evenodd" d="M772.65 588.015L827.801 567.28L848.519 591.4L793.899 611.936L772.65 588.015Z" fill="#F5EBE3"/>
<circle cx="571.47" cy="300" r="70" fill="#C7E1E7"/>
<rect x="567.47" y="227" width="8" height="151" fill="#744E2F"/>
<rect x="491.47" y="305" width="8" height="161" transform="rotate(-90 491.47 305)" fill="#744E2F"/>
<path d="M0.190593 393.32L210.47 308L210.47 331L0.190823 417.934L0.190593 393.32Z" fill="#453838"/>
<path d="M-1.02988 525.5L210.47 403.501L210.47 424L-1.02988 554L-1.02988 525.5Z" fill="#453838"/>
<path d="M-0.627381 250L210.373 222L210.373 242L-0.627381 274.5L-0.627381 250Z" fill="#453838"/>
<path d="M-0.530203 115L210.428 152.437L210.428 172L-0.530164 137.5L-0.530203 115Z" fill="#453838"/>
<path d="M1175.48 394.844L964.833 307.681L964.731 332.256L1175.37 419.93L1175.48 394.844Z" fill="#453838"/>
<path d="M1174.63 514.501L963.987 404L963.987 424L1174.63 542.5L1174.63 514.501Z" fill="#453838"/>
<path d="M1175.01 216.433L964.28 221.933L964.28 242L1175.01 239.433L1175.01 216.433Z" fill="#453838"/>
<path d="M1174.97 106L964.47 151.999L964.47 172.999L1175.47 129.5L1174.97 106Z" fill="#453838"/>
<rect x="575.47" y="26" width="4" height="79" fill="#5F5E5E"/>
<ellipse cx="578.97" cy="24" rx="34.5" ry="12" fill="#5F5E5E"/>
<path fill-rule="evenodd" clip-rule="evenodd" d="M510.243 168.886C511.055 167.993 511.901 167.062 512.663 166.024C514.606 163.377 516.305 161.816 518.313 159.972C519.152 159.201 520.044 158.381 521.031 157.411C523.681 154.809 527.944 150.866 527.944 150.866C527.944 150.866 532.048 147.819 534.857 146.043C538.131 143.972 541.052 141.319 545.772 139.842C549.454 138.69 555.595 138.464 555.595 138.464C555.595 138.464 555.471 134.774 556.687 129.163C556.859 128.369 557.011 127.643 557.155 126.957C557.748 124.135 558.193 122.014 559.234 118.828C559.532 117.916 559.749 117.087 559.953 116.306C560.488 114.268 560.935 112.56 562.508 110.56C564.016 108.642 565.338 107.785 567.264 106.537C567.489 106.392 567.723 106.24 567.965 106.081C569.589 105.019 572.331 103.67 572.331 103.67C572.331 103.67 570.926 99.5324 571.968 97.4689C572.619 96.1786 572.549 95.5322 573.787 94.7129C575.371 93.6646 576.95 93.243 578.88 93.3349C580.541 93.4141 581.683 93.9666 582.882 95.0574C584.339 96.3823 584.338 97.8134 584.702 98.5024C584.702 98.5481 584.702 99.4896 584.702 99.5359C584.702 101.495 583.61 103.67 583.61 103.67C583.61 103.67 586.724 105.848 588.34 107.115C590.191 108.565 590.928 109.97 591.855 111.739C592.114 112.233 592.388 112.756 592.706 113.316C594.853 117.103 595.624 119.476 596.708 123.651C597.634 127.217 597.953 129.285 598.163 132.952C598.287 135.102 598.163 138.464 598.163 138.464C598.163 138.464 604.304 138.69 607.987 139.842C611.384 140.905 613.399 142.303 615.806 143.972C616.744 144.623 617.74 145.314 618.902 146.043C621.814 147.871 623.892 149.439 626.033 151.054C627.809 152.394 629.627 153.766 632 155.345C633.651 156.444 635.104 157.243 636.491 158.007C638.625 159.182 640.604 160.272 642.914 162.234C643.684 162.888 644.454 163.433 645.186 163.951C647.162 165.349 648.853 166.547 649.463 169.124C649.836 170.7 649.872 171.691 649.463 173.258C648.732 176.062 646.126 177.601 643.642 178.77C642.674 179.226 642.091 179.534 641.095 180.148C634.807 184.029 629.914 184.707 623.454 186.059C622.024 186.358 620.517 186.673 618.902 187.038C609.963 189.062 604.526 189.432 595.784 190.028C595.256 190.064 594.715 190.101 594.161 190.139C582.359 190.95 575.638 190.659 563.905 190.152L563.6 190.139C563.337 190.127 563.078 190.116 562.822 190.105C553.187 189.689 547.522 189.445 537.768 188.072C535.76 187.789 533.903 187.584 532.14 187.388C526.981 186.817 522.638 186.337 517.757 184.282C516.695 183.835 515.624 183.466 514.587 183.108C510.983 181.866 507.795 180.766 506.842 177.048C505.958 173.599 507.965 171.392 510.243 168.886Z" fill="#2E2E2E"/>
<ellipse cx="575.97" cy="173" rx="65.5" ry="13" fill="#9B997E"/>
<path fill-rule="evenodd" clip-rule="evenodd" d="M576.97 183C588.75 183 598.506 174.147 600.207 162.6C600.207 162.6 591.548 161.664 585.978 161.4C578.797 161.059 574.75 161.046 567.57 161.4C562.153 161.667 553.732 162.6 553.732 162.6C555.433 174.147 565.189 183 576.97 183Z" fill="#FFEDA3"/>
<path d="M87.4697 614.5L87.4697 47L107.47 57.5L107.47 590.5L87.4697 614.5Z" fill="#453838"/>
<path d="M1088.97 617L1089.47 46.4999L1069.47 56.9999V593L1088.97 617Z" fill="#453838"/>
<path d="M479.519 573.138C479.519 579.052 479.075 596.624 480.862 590.852C480.979 590.475 481.585 589.779 481.856 589.439C482.533 588.588 482.865 587.747 483.328 586.823C483.966 585.551 485.09 584.434 485.739 583.177C486.867 580.992 488.145 578.853 489.309 576.705C490.09 575.264 491.407 570.774 491.407 572.319C491.407 575.255 490.749 578.469 491.702 581.46C492.002 582.404 491.775 583.531 491.775 584.498C491.775 585.459 492.107 586.317 492.107 587.272C492.107 587.656 491.841 588.821 492.272 589.069C492.577 589.244 492.438 591.043 492.438 590.258" stroke="#9D825D" stroke-width="3" stroke-linecap="round"/>
<path d="M575.519 555.138C575.519 561.052 575.075 578.624 576.862 572.852C576.979 572.475 577.585 571.779 577.856 571.439C578.533 570.588 578.865 569.747 579.328 568.823C579.966 567.551 581.09 566.434 581.739 565.177C582.867 562.992 584.145 560.853 585.309 558.705C586.09 557.264 587.407 552.774 587.407 554.319C587.407 557.255 586.749 560.469 587.702 563.46C588.002 564.404 587.775 565.531 587.775 566.498C587.775 567.459 588.107 568.317 588.107 569.272C588.107 569.656 587.841 570.821 588.272 571.069C588.577 571.244 588.438 573.043 588.438 572.258" stroke="#9D825D" stroke-width="3" stroke-linecap="round"/>
<path d="M665.915 616.253C665.477 622.742 663.734 641.999 665.944 635.784C666.089 635.378 666.745 634.655 667.04 634.3C667.779 633.411 668.172 632.511 668.703 631.528C669.434 630.175 670.638 629.025 671.378 627.689C672.665 625.367 674.099 623.105 675.419 620.826C676.305 619.297 677.952 614.457 677.837 616.154C677.62 619.375 676.725 622.859 677.454 626.206C677.684 627.261 677.374 628.483 677.303 629.545C677.232 630.599 677.499 631.564 677.428 632.612C677.4 633.033 677.049 634.294 677.46 634.594C677.752 634.807 677.48 636.772 677.538 635.91" stroke="#9D825D" stroke-width="3" stroke-linecap="round"/>
<path d="M497.192 591.04C497.192 588.997 497.192 586.955 497.192 584.913C497.192 583.561 497.576 582.189 497.576 580.853C497.576 579.368 497.924 577.319 497.48 575.898C497.056 574.543 496.809 573.196 496.809 571.775C496.809 570.118 497.115 570.8 498.343 570.283C499.143 569.946 500.147 569.942 501.028 569.942C503.032 569.942 505.119 569.75 507.166 569.75" stroke="#9D825D" stroke-width="3" stroke-linecap="round"/>
<path d="M510.81 568.983C510.81 571.093 510.81 573.203 510.81 575.313C510.81 577.494 510.487 579.672 510.427 581.834C510.35 584.582 510.427 592.83 510.427 590.081" stroke="#9D825D" stroke-width="3" stroke-linecap="round"/>
<path d="M510.427 567.833C512.626 567.833 514.678 567.233 516.863 567.63C518.146 567.864 519.367 568.715 520.166 569.751C520.849 570.636 520.592 571.933 520.592 573C520.592 574.698 519.468 576.787 517.715 577.188C516.484 577.47 514.946 577.231 513.687 577.231C513.265 577.231 511.963 577.426 511.769 577.039" stroke="#9D825D" stroke-width="3" stroke-linecap="round"/>
<path d="M521.743 564.764C522.466 564.854 523.726 566.554 524.237 567.065C525.402 568.231 526.223 569.698 527.305 570.901C527.876 571.535 528.271 572.48 528.936 573.011C529.4 573.383 529.607 574.521 529.607 573.586" stroke="#9D825D" stroke-width="3" stroke-linecap="round"/>
<path d="M522.51 587.97C524.264 585.826 526.092 583.674 527.507 581.268C529.016 578.703 531.21 576.418 532.387 573.671C533.298 571.546 534.209 569.352 534.209 567.022C534.209 566.135 534.401 564.953 534.018 564.188" stroke="#9D825D" stroke-width="3" stroke-linecap="round"/>
<path d="M538.47 562.587C538.47 564.628 538.785 566.6 538.827 568.609C538.875 570.969 539.641 573.264 539.718 575.652C539.752 576.687 539.823 578.252 540.214 579.217C540.485 579.886 540.122 580 540.967 580C542.203 580 543.438 580 544.674 580C545.644 580 546.59 579.842 547.528 579.804C548.233 579.776 549.019 579.934 549.708 579.761C550.227 579.631 550.94 579.784 551.175 579.174C551.586 578.107 552.027 577.492 552.027 576.283C552.027 573.334 552.384 570.431 552.384 567.478C552.384 566.46 552.601 565.095 552.344 564.109C552.153 563.376 552.027 562.756 552.027 562" stroke="#9D825D" stroke-width="3" stroke-linecap="round"/>
<path d="M544.47 579C544.47 573.465 545.47 568.39 545.47 563" stroke="#9D825D" stroke-width="3" stroke-linecap="round"/>
<path d="M557.801 558.434C557.801 561.646 557.669 564.889 557.811 568.098C557.902 570.126 558.184 572.133 558.184 574.161C558.184 575.505 558.376 579.533 558.376 578.189" stroke="#9D825D" stroke-width="3" stroke-linecap="round"/>
<path d="M558.951 568.024C559.054 567.101 560.591 565.761 561.072 564.944C562.01 563.35 563.293 561.975 564.311 560.448C565.039 559.356 565.664 558.242 565.664 556.899" stroke="#9D825D" stroke-width="3" stroke-linecap="round"/>
<path d="M558.76 568.024C560.263 568.024 561.36 568.936 562.404 569.942C563.642 571.136 565.164 571.88 566.421 573.011C566.922 573.462 569.887 576.071 570.076 575.505" stroke="#9D825D" stroke-width="3" stroke-linecap="round"/>
<path d="M682.47 617C682.47 620.909 682.711 624.61 682.979 628.441C683.196 631.555 683.47 634.959 683.47 638" stroke="#9D825D" stroke-width="3" stroke-linecap="round"/>
<path d="M683.054 627.128C683.127 627.717 687.917 627.389 688.795 627.389" stroke="#9D825D" stroke-width="3" stroke-linecap="round"/>
<path d="M689.57 615.909C689.382 617.882 689.284 619.812 689.254 621.781C689.219 624.08 690.032 626.429 689.971 628.7C689.878 632.164 690.692 635.709 690.369 639.09" stroke="#9D825D" stroke-width="3" stroke-linecap="round"/>
<path d="M701.47 619C700.661 618.217 698.542 618 697.97 618C696.97 618 695.872 619.196 695.47 620C694.57 621.8 694.62 624.176 694.97 626C694.97 628.263 695.039 630.346 695.47 632.5C695.855 634.425 696.364 637.457 698.47 638.627C699.352 639.117 699.93 639.269 700.97 639.501C701.705 639.664 703.47 639 703.97 638.001" stroke="#9D825D" stroke-width="3" stroke-linecap="round"/>
<path d="M711.731 620C711.731 624.741 711.992 629.41 711.992 634.151C711.992 636.751 711.47 639.137 711.47 641.662" stroke="#9D825D" stroke-width="3" stroke-linecap="round"/>
<path d="M705.47 618C709.434 618 713.272 620.088 717.214 620.088" stroke="#9D825D" stroke-width="3" stroke-linecap="round"/>
<path d="M722.036 620C722.036 624.28 722.645 629.132 721.717 633.31C721.342 634.997 720.992 637.195 720.992 638.922C720.992 639.563 720.753 640.089 720.731 640.676C720.711 641.186 720.985 642.174 720.47 641.401" stroke="#9D825D" stroke-width="3" stroke-linecap="round"/>
<path d="M722.47 620C727.152 620 732.47 620.532 732.47 625.236C732.47 627.035 732.47 629.003 729.973 629.841C728.938 629.872 723.057 630.372 722.47 629.422" stroke="#9D825D" stroke-width="3" stroke-linecap="round"/>
<path d="M735.47 643C735.782 641.696 738.697 639.665 739.818 638.847C741.832 637.376 742.823 635.148 744.167 633.206C745.214 631.692 745.911 629.962 746.326 628.224C746.622 626.986 747.47 623.309 747.47 622" stroke="#9D825D" stroke-width="3" stroke-linecap="round"/>
<path d="M750.649 631.826C752.931 631.826 755.212 631.826 757.493 631.826C758.161 631.826 760.969 632.087 761.611 632.087" stroke="#9D825D" stroke-width="3" stroke-linecap="round"/>
<path d="M682.47 666.179C682.47 660.186 682.47 654.193 682.47 648.199C682.47 647.229 683.746 650.106 684.044 650.347C684.982 651.106 685.729 652.134 686.406 653.141C687.056 654.108 688.135 654.568 688.71 655.635C688.941 656.063 689.205 656.375 689.556 656.716C690.116 657.261 689.965 656.657 690.226 656.311C690.962 655.337 691.607 654.114 692.311 653.066C693.08 651.921 693.94 650.861 694.673 649.686C695.207 648.83 696.117 647.001 696.117 648.92C696.117 650.985 696.422 653.345 696.846 655.364C697.382 657.921 697.027 660.748 697.414 663.34C697.53 664.115 697.429 664.988 697.429 665.774C697.429 666.083 697.414 669.721 697.429 666.99" stroke="#9D825D" stroke-width="3" stroke-linecap="round"/>
<path d="M701.47 650C701.47 655.748 702.281 661.393 702.281 667.146C702.281 668.054 702.247 668.182 703.362 668.182C704.117 668.182 705.371 668.441 706.064 668.687C707.749 669.283 709.746 669.517 711.47 670" stroke="#9D825D" stroke-width="3" stroke-linecap="round"/>
<path d="M701.062 649.052C703.269 649.052 704.792 649.348 706.861 650.038C708.127 650.46 710.653 651.27 711.24 652.445" stroke="#9D825D" stroke-width="3" stroke-linecap="round"/>
<path d="M701.845 659.23C702.541 659.23 703.237 659.23 703.933 659.23C704.909 659.23 705.581 659.634 706.514 659.738C707.497 659.847 708.09 660.529 708.891 660.796" stroke="#9D825D" stroke-width="3" stroke-linecap="round"/>
<path d="M715.47 651C715.47 657.686 715.47 664.296 715.47 671" stroke="#9D825D" stroke-width="3" stroke-linecap="round"/>
<path d="M715.47 663.011C717.599 663.011 720.619 662.823 722.47 664" stroke="#9D825D" stroke-width="3" stroke-linecap="round"/>
<path d="M722.943 673C722.943 668.722 724.112 664.315 722.967 660.086C722.253 657.452 722.518 654.698 722.518 652" stroke="#9D825D" stroke-width="3" stroke-linecap="round"/>
<path d="M731.47 654C731.47 658.696 731.47 663.392 731.47 668.088C731.47 668.86 731.47 672.604 731.47 674" stroke="#9D825D" stroke-width="3" stroke-linecap="round"/>
<path d="M726.639 653.488C728.901 653.488 731.162 653.488 733.424 653.488C734.41 653.488 735.23 653.556 736.165 653.764C737.178 653.989 737.84 654.532 738.905 654.532" stroke="#9D825D" stroke-width="3" stroke-linecap="round"/>
<path d="M743.779 654C743.779 657.73 743.779 661.459 743.779 665.189C743.779 666.707 743.559 668.243 743.559 669.799C743.559 670.604 743.298 672.058 743.669 672.765C745.089 675.466 747.711 673.18 748.36 671.198C748.736 670.051 748.095 669.096 747.197 668.569C746.358 668.076 744.154 667.787 743.887 666.942" stroke="#9D825D" stroke-width="3" stroke-linecap="round"/>
<path d="M754.47 655C754.47 661.727 755.47 668.294 755.47 675" stroke="#9D825D" stroke-width="3" stroke-linecap="round"/>
<path d="M738.097 621.514C738.097 622.825 738.147 623.985 738.485 625.263C738.885 626.779 739.592 628.237 740.359 629.594C741.038 630.796 741.886 631.938 742.493 633.15" stroke="#9D825D" stroke-width="3" stroke-linecap="round"/>
<path d="M281.203 630.492C281.203 626.51 277.027 626.618 274.663 628.457C272.866 629.855 272.599 632.988 272.047 634.976C271.327 637.568 271.86 640.884 271.86 643.572C271.86 646.026 270.732 651.421 274.289 651.421C276.563 651.421 279.705 650.679 280.829 648.431" stroke="#9D825D" stroke-width="3" stroke-linecap="round"/>
<path d="M287.93 652.915C287.93 649.791 288.089 647.442 289.238 644.506C290.382 641.581 291.431 638.778 293.162 636.181C294.404 634.317 296.425 628.388 299.681 631.052C305.729 636 305.869 661.477 305.869 653.663" stroke="#9D825D" stroke-width="3" stroke-linecap="round"/>
<path d="M290.172 643.572H303.626" stroke="#9D825D" stroke-width="3" stroke-linecap="round"/>
<path d="M315.212 656.278C314.147 655.08 312.593 654.03 311.932 652.541C310.857 650.124 312.985 649.884 314.465 649.261C316.319 648.48 319.844 649.178 321.856 649.178C324.071 649.178 326.286 649.178 328.5 649.178C331.102 649.178 337.636 649.739 337.636 653.102C337.636 656.328 333.452 657.623 330.909 658.895" stroke="#9D825D" stroke-width="3" stroke-linecap="round"/>
<path d="M319.696 648.431C319.696 645.359 319.544 642.302 320.07 639.274C320.339 637.726 321.179 636.046 321.648 634.52C322.48 631.818 324.281 630.218 326.61 632.547C330.663 636.6 331.656 641.732 331.656 647.31" stroke="#9D825D" stroke-width="3" stroke-linecap="round"/>
<rect x="-1.53027" width="1176" height="718" fill="black" fill-opacity="0.6"/>
</g>
<defs>
<clipPath id="clip0_1974_2">
<rect width="1174" height="717" fill="white"/>
</clipPath>
</defs>
</svg>
