<svg width="1174" height="721" viewBox="0 0 1174 721" fill="none" xmlns="http://www.w3.org/2000/svg">
<g clip-path="url(#clip0_2052_429)">
<rect width="1174" height="721" fill="white"/>
<rect x="-3" width="1174" height="721" fill="#C1C9BF"/>
<rect x="114" y="40" width="6" height="433" fill="#EFEFEF"/>
<rect x="114" y="40" width="6" height="433" fill="#EFEFEF"/>
<rect x="114" y="40" width="6" height="433" fill="#EFEFEF"/>
<rect x="260" y="20" width="6" height="433" fill="#EFEFEF"/>
<rect x="260" y="20" width="6" height="433" fill="#EFEFEF"/>
<rect x="260" y="20" width="6" height="433" fill="#EFEFEF"/>
<rect x="-1" y="323" width="6" height="1170" transform="rotate(-90 -1 323)" fill="#EFEFEF"/>
<rect x="-1" y="323" width="6" height="1170" transform="rotate(-90 -1 323)" fill="#EFEFEF"/>
<rect x="-1" y="323" width="6" height="1170" transform="rotate(-90 -1 323)" fill="#EFEFEF"/>
<rect x="3" y="445" width="6" height="1170" transform="rotate(-90 3 445)" fill="#EFEFEF"/>
<rect x="3" y="445" width="6" height="1170" transform="rotate(-90 3 445)" fill="#EFEFEF"/>
<rect x="3" y="445" width="6" height="1170" transform="rotate(-90 3 445)" fill="#EFEFEF"/>
<rect x="-3" y="162" width="502" height="559" fill="#746D6D"/>
<rect x="-3" y="162" width="502" height="559" fill="#979797"/>
<rect x="553" width="6" height="433" fill="#EFEFEF"/>
<rect x="553" width="6" height="433" fill="#EFEFEF"/>
<rect x="553" width="6" height="433" fill="#EFEFEF"/>
<rect x="415" y="14" width="6" height="433" fill="#EFEFEF"/>
<rect x="415" y="14" width="6" height="433" fill="#EFEFEF"/>
<rect x="415" y="14" width="6" height="433" fill="#EFEFEF"/>
<rect x="-3" y="79" width="6" height="1170" transform="rotate(-90 -3 79)" fill="#EFEFEF"/>
<rect x="-3" y="79" width="6" height="1170" transform="rotate(-90 -3 79)" fill="#EFEFEF"/>
<rect x="-3" y="79" width="6" height="1170" transform="rotate(-90 -3 79)" fill="#EFEFEF"/>
<rect x="3" y="204" width="6" height="1170" transform="rotate(-90 3 204)" fill="#EFEFEF"/>
<rect x="3" y="204" width="6" height="1170" transform="rotate(-90 3 204)" fill="#EFEFEF"/>
<rect x="3" y="204" width="6" height="1170" transform="rotate(-90 3 204)" fill="#EFEFEF"/>
<rect x="684" width="6" height="433" fill="#EFEFEF"/>
<rect x="684" width="6" height="433" fill="#EFEFEF"/>
<rect x="684" width="6" height="433" fill="#EFEFEF"/>
<rect x="810" width="6" height="433" fill="#EFEFEF"/>
<rect x="810" width="6" height="433" fill="#EFEFEF"/>
<rect x="810" width="6" height="433" fill="#EFEFEF"/>
<rect x="932" width="6" height="433" fill="#EFEFEF"/>
<rect x="932" width="6" height="433" fill="#EFEFEF"/>
<rect x="932" width="6" height="433" fill="#EFEFEF"/>
<rect x="1060" width="6" height="433" fill="#EFEFEF"/>
<rect x="1060" width="6" height="433" fill="#EFEFEF"/>
<rect x="1060" width="6" height="433" fill="#EFEFEF"/>
<rect x="383" y="162" width="116" height="559" fill="#B1B1B1"/>
<path fill-rule="evenodd" clip-rule="evenodd" d="M1177.23 582H392C392 632.238 404.913 680.005 428.168 723.19H1162.34H1172.61H1177.23V582Z" fill="#BEBEBE"/>
<path fill-rule="evenodd" clip-rule="evenodd" d="M1177.23 582H392C392 564.236 393.615 546.78 396.73 529.727H1177.23V582Z" fill="#BEBEBE"/>
<path fill-rule="evenodd" clip-rule="evenodd" d="M483 541H1171V609.425C1171 609.425 1116.11 646.149 1075.75 659.973C1053.35 667.646 1035.48 669.709 1016.65 671.884C1002.87 673.476 988.571 675.128 971.59 679.082C962.959 681.092 959.94 683.397 955.143 687.096C950.347 693.877 952.131 696.141 955.143 700.658C959.255 706.822 987.351 719.767 987.351 719.767H653.181C653.181 719.767 689.674 705.589 693.375 700.041C696.664 695.11 696.801 688.329 696.116 685.863C694.745 683.397 692.532 680.553 690.633 679.699C686.522 677.849 668.412 672.544 653.181 670.458C635.64 668.055 618.479 665.704 596.753 659.973C591.41 658.563 586.577 657.401 582.033 656.309C567.863 652.903 556.505 650.173 541.247 642.712C527.135 635.812 518.867 629.255 508.826 621.292C505.148 618.376 501.233 615.27 496.705 611.89C484.5 602.779 468 574 468 574L483 541Z" fill="#D4D2D2"/>
<path fill-rule="evenodd" clip-rule="evenodd" d="M822.5 612C978.722 612 1102.4 598.642 1183.96 572V450C1102.4 423.358 978.722 411 822.5 411C572.039 411 369 455.995 369 511.5C369 567.005 572.039 612 822.5 612Z" fill="#B1A6A6"/>
<path fill-rule="evenodd" clip-rule="evenodd" d="M826 587C974.127 587 1104.33 574.015 1181.67 554V469C1104.33 448.985 974.127 436 826 436C588.518 436 396 469.803 396 511.5C396 553.197 588.518 587 826 587Z" fill="#C7E1E7"/>
<path fill-rule="evenodd" clip-rule="evenodd" d="M437.101 544.5L470.747 554.5L512.235 564L565.133 572L621.661 578L678.708 582.5L769.465 586.5H853.998L936.456 584.5L1025.14 579L1103.97 569.5L1176.57 556L1183.83 554V502.008C1105.06 488.416 992.868 480 868 480C639.864 480 453.03 508.45 437.101 544.5Z" fill="#A9DFEA"/>
<rect x="46" y="331" width="266" height="390" fill="#F7F7F7"/>
<path d="M-3 162H499L384.588 289H-3V162Z" fill="white"/>
<rect x="108" y="65" width="39" height="131" rx="10" fill="#A29D9D"/>
<rect x="108" y="65" width="39" height="131" rx="10" fill="#A29D9D"/>
<rect x="75" y="148" width="103" height="48" rx="10" fill="#A29D9D"/>
<rect x="75" y="148" width="103" height="48" rx="10" fill="#A29D9D"/>
<path fill-rule="evenodd" clip-rule="evenodd" d="M140 277C279.176 277 392 255.062 392 228C392 200.938 279.176 179 140 179C86.4591 179 36.818 182.247 -4.00001 187.783V268.217C36.818 273.753 86.4591 277 140 277Z" fill="#D9D9D9"/>
<path fill-rule="evenodd" clip-rule="evenodd" d="M125.5 261C255.563 261 361 246.449 361 228.5C361 210.551 255.563 196 125.5 196C75.4647 196 34.7774 198.328 -3.36802 202V256C34.7774 259.672 75.4647 261 125.5 261Z" fill="#C0BCBC"/>
<path fill-rule="evenodd" clip-rule="evenodd" d="M146 70.5L145.122 69.1831C144.383 68.0738 143.415 67.1345 142.285 66.4279V66.4279C140.792 65.4948 139.066 65 137.306 65H127H118.142C115.49 65 112.946 66.0536 111.071 67.9289L109 70L111.971 85.8429C112.857 90.5726 116.987 94 121.799 94H132.904C137.625 94 141.702 90.6985 142.685 86.0811L146 70.5Z" fill="#A29D9D"/>
<path fill-rule="evenodd" clip-rule="evenodd" d="M146 70.5L145.122 69.1831C144.383 68.0738 143.415 67.1345 142.285 66.4279V66.4279C140.792 65.4948 139.066 65 137.306 65H127H118.142C115.49 65 112.946 66.0536 111.071 67.9289L109 70L111.971 85.8429C112.857 90.5726 116.987 94 121.799 94H132.904C137.625 94 141.702 90.6985 142.685 86.0811L146 70.5Z" fill="#837B7B"/>
<rect width="20" height="7" rx="3.5" transform="matrix(1 0 0 -1 117 103)" fill="#A29D9D"/>
<rect width="20" height="7" rx="3.5" transform="matrix(1 0 0 -1 117 103)" fill="#D0CDCD"/>
<rect x="435.229" y="185.306" width="78.4568" height="87.8471" transform="rotate(-180 435.229 185.306)" fill="#97765A"/>
<ellipse cx="396" cy="97.2678" rx="48" ry="11.2673" transform="rotate(-180 396 97.2678)" fill="#97765A"/>
<ellipse cx="396" cy="185.306" rx="39.2284" ry="10.6944" transform="rotate(-180 396 185.306)" fill="#97765A"/>
<rect x="-3" width="475" height="48" fill="#999191"/>
<rect x="829" y="73" width="203" height="270" rx="2" fill="#746D6D"/>
<rect x="829" y="73" width="203" height="270" rx="2" fill="#7DC0B9"/>
<g filter="url(#filter0_d_2052_429)">
<rect x="762" y="83.2432" width="339" height="21.4326" rx="10.7163" fill="#846B6B"/>
</g>
<circle cx="643.5" cy="544.5" r="47.5" fill="white"/>
<circle cx="621.5" cy="485.5" r="47.5" fill="#F5F5F5"/>
<circle cx="708.5" cy="507.5" r="47.5" fill="white"/>
<ellipse cx="722" cy="542" rx="61" ry="62" fill="white"/>
<ellipse cx="798" cy="539" rx="61" ry="62" fill="white"/>
<ellipse cx="881" cy="552" rx="61" ry="62" fill="white"/>
<ellipse cx="904" cy="515" rx="61" ry="62" fill="white"/>
<ellipse cx="985.5" cy="547" rx="62.5" ry="62" fill="#F2F2F2"/>
<ellipse cx="1063" cy="522" rx="61" ry="62" fill="white"/>
<ellipse cx="571" cy="546.5" rx="41" ry="40.5" fill="#F1F1F1"/>
<ellipse cx="526" cy="541.5" rx="33" ry="30.5" fill="white"/>
<ellipse cx="1121" cy="537.5" rx="33" ry="30.5" fill="white"/>
<ellipse cx="474" cy="536.5" rx="33" ry="30.5" fill="white"/>
<ellipse cx="526" cy="513.5" rx="33" ry="30.5" fill="white"/>
<ellipse cx="592" cy="515.5" rx="33" ry="30.5" fill="white"/>
<path d="M357.56 9.5166L380.5 105" stroke="#D0A6A6" stroke-width="8"/>
<path d="M443.212 6.00011L410.5 103.5" stroke="#F8D68F" stroke-width="8"/>
<path d="M398.196 10.2145L393 104.5" stroke="#7DC0B9" stroke-width="8"/>
<path d="M351.001 10L356.601 30.454" stroke="white" stroke-width="8"/>
<path d="M449.693 8L444.093 24.3632" stroke="white" stroke-width="8"/>
<path d="M391.127 10L391.127 30.454" stroke="white" stroke-width="8"/>
<rect x="112" y="83" width="31" height="15" rx="5" fill="#A29D9D"/>
<rect x="112" y="83" width="31" height="15" rx="5" fill="#B8AFAF"/>
</g>
<defs>
<filter id="filter0_d_2052_429" x="758" y="83.2432" width="347" height="35.4326" filterUnits="userSpaceOnUse" color-interpolation-filters="sRGB">
<feFlood flood-opacity="0" result="BackgroundImageFix"/>
<feColorMatrix in="SourceAlpha" type="matrix" values="0 0 0 0 0 0 0 0 0 0 0 0 0 0 0 0 0 0 127 0" result="hardAlpha"/>
<feOffset dy="10"/>
<feGaussianBlur stdDeviation="2"/>
<feComposite in2="hardAlpha" operator="out"/>
<feColorMatrix type="matrix" values="0 0 0 0 0 0 0 0 0 0 0 0 0 0 0 0 0 0 0.35 0"/>
<feBlend mode="normal" in2="BackgroundImageFix" result="effect1_dropShadow_2052_429"/>
<feBlend mode="normal" in="SourceGraphic" in2="effect1_dropShadow_2052_429" result="shape"/>
</filter>
<clipPath id="clip0_2052_429">
<rect width="1174" height="721" fill="white"/>
</clipPath>
</defs>
</svg>
