<svg width="321" height="352" viewBox="0 0 321 352" fill="none" xmlns="http://www.w3.org/2000/svg">
<g clip-path="url(#clip0_1943_566)">
<rect width="321" height="352" fill="white"/>
<rect x="0.5" y="1.5" width="320" height="350" fill="white"/>
<rect x="0.5" y="1.5" width="320" height="350" fill="#D0A6A6"/>
<rect x="0.5" y="1.5" width="320" height="350" stroke="#D0A6A6"/>
<path fill-rule="evenodd" clip-rule="evenodd" d="M321 0H0V351L105.76 261.541H321V0Z" fill="#A2A1A1"/>
<path fill-rule="evenodd" clip-rule="evenodd" d="M321 0H0V351L105.76 261.541H321V0Z" fill="#C1C9BF"/>
<line x1="99.9956" y1="29" x2="321.005" y2="29" stroke="white" stroke-width="2"/>
<line x1="-0.175868" y1="47.0156" x2="100.578" y2="29.0157" stroke="#979696" stroke-width="2"/>
<line x1="-0.187105" y1="77.0177" x2="99.5664" y2="58.0178" stroke="#979696" stroke-width="2"/>
<line x1="-0.175868" y1="106.016" x2="100.578" y2="88.0157" stroke="#979696" stroke-width="2"/>
<line x1="-0.194704" y1="134.019" x2="100.559" y2="114.019" stroke="#979696" stroke-width="2"/>
<line x1="-0.185312" y1="161.017" x2="100.568" y2="142.017" stroke="#979696" stroke-width="2"/>
<line x1="-0.185312" y1="190.017" x2="100.568" y2="171.017" stroke="#979696" stroke-width="2"/>
<line x1="-0.185312" y1="218.017" x2="100.568" y2="199.017" stroke="#979696" stroke-width="2"/>
<line x1="-0.240826" y1="252.029" x2="100.513" y2="227.03" stroke="#979696" stroke-width="2"/>
<line x1="-0.376857" y1="298.074" x2="100.396" y2="257.074" stroke="#979696" stroke-width="2"/>
<line x1="99" y1="58" x2="320.009" y2="58" stroke="white" stroke-width="2"/>
<line x1="100" y1="87" x2="321.009" y2="87" stroke="white" stroke-width="2"/>
<line x1="100" y1="114" x2="321.009" y2="114" stroke="white" stroke-width="2"/>
<line x1="100" y1="143" x2="321.009" y2="143" stroke="white" stroke-width="2"/>
<line x1="100" y1="171" x2="321.009" y2="171" stroke="white" stroke-width="2"/>
<line x1="100" y1="199" x2="321.009" y2="199" stroke="white" stroke-width="2"/>
<line x1="100" y1="227" x2="321.009" y2="227" stroke="white" stroke-width="2"/>
<line x1="100" y1="258" x2="321.009" y2="258" stroke="white" stroke-width="2"/>
<rect width="8.2981" height="17.5627" rx="4.14905" transform="matrix(0.907316 -0.42045 0.424793 0.905291 258.753 300.572)" fill="#867E7E"/>
<line x1="293.517" y1="0.999023" x2="293.517" y2="261.001" stroke="white" stroke-width="2"/>
<line x1="263.5" y1="262.001" x2="263.5" y2="0.998932" stroke="white" stroke-width="2"/>
<line x1="236.483" y1="0.999023" x2="236.483" y2="261.001" stroke="white" stroke-width="2"/>
<line x1="207.5" y1="0.999023" x2="207.5" y2="260.001" stroke="white" stroke-width="2"/>
<line x1="179.5" y1="0.999023" x2="179.5" y2="259.001" stroke="white" stroke-width="2"/>
<line x1="151.483" y1="0.999023" x2="151.483" y2="261.001" stroke="white" stroke-width="2"/>
<line x1="126.5" y1="0.999023" x2="126.5" y2="259.001" stroke="white" stroke-width="2"/>
<line x1="100.251" y1="0.999023" x2="100.251" y2="270" stroke="white" stroke-width="2"/>
<line x1="78" y1="1" x2="78" y2="289" stroke="#979696" stroke-width="2"/>
<line x1="54" y1="1.00324" x2="53" y2="310.003" stroke="#979696" stroke-width="2"/>
<line x1="29" y1="1" x2="29" y2="332" stroke="#979696" stroke-width="2"/>
<rect x="238" y="130" width="37" height="52" rx="2" fill="#746D6D"/>
<rect x="238" y="130" width="37" height="52" rx="2" fill="#7DC0B9"/>
<g filter="url(#filter0_d_1943_566)">
<rect x="225.523" y="131.973" width="62.1739" height="4.12776" rx="2.06388" fill="#B3B3B3"/>
</g>
<rect x="109" y="63" width="66" height="81" fill="#746D6D"/>
<rect x="109" y="63" width="66" height="81" fill="#B3B3B3"/>
<rect x="112" y="66" width="29" height="75" fill="#746D6D"/>
<rect x="112" y="66" width="29" height="75" fill="white"/>
<rect x="144" y="66" width="28" height="75" fill="#746D6D"/>
<rect x="144" y="66" width="28" height="75" fill="white"/>
<rect x="133" y="111" width="4" height="9" fill="#B3B3B3"/>
<rect x="148" y="111" width="4" height="9" fill="#B3B3B3"/>
<rect x="109" y="182" width="66" height="95" fill="#746D6D"/>
<rect x="109" y="182" width="66" height="95" fill="#B3B3B3"/>
<rect x="112" y="185" width="60" height="25" fill="#746D6D"/>
<rect x="112" y="185" width="60" height="25" fill="white"/>
<rect x="112" y="213" width="60" height="61" fill="#746D6D"/>
<rect x="112" y="213" width="60" height="61" fill="white"/>
<path fill-rule="evenodd" clip-rule="evenodd" d="M53 55C35.3269 55 21 135.813 21 235.5L84.913 222.091C83.6968 128.666 69.8735 55 53 55Z" fill="#744E2F"/>
<path d="M73.4375 210.714L31.5002 221.85C31.5247 179.736 33.9256 141.635 37.7924 114.028C39.7362 100.15 42.0477 88.9452 44.6059 81.22C45.8861 77.354 47.2186 74.3893 48.5796 72.401C49.9544 70.3925 51.2731 69.5 52.5 69.5C53.6705 69.5 54.9254 70.3114 56.2365 72.1385C57.5363 73.95 58.8135 76.6557 60.0459 80.1944C62.5085 87.2654 64.7523 97.5434 66.6712 110.329C70.4954 135.808 73.0167 171.16 73.4375 210.714Z" fill="#CAE8EE" stroke="#979696"/>
<rect width="48.7941" height="6.19311" transform="matrix(0.981277 -0.1926 0.194933 0.980817 28.0835 146.018)" fill="#744E2F"/>
<rect x="50" y="222" width="155" height="6" transform="rotate(-90 50 222)" fill="#744E2F"/>
<path d="M92.2286 296.989C95.6296 290.25 102.535 286 110.084 286H213.818C229.111 286 238.746 302.467 231.253 315.799L220.575 334.799C217.034 341.1 210.368 345 203.14 345H100.495C85.5953 345 75.9273 329.292 82.6403 315.989L92.2286 296.989Z" fill="#F9F28A"/>
<path fill-rule="evenodd" clip-rule="evenodd" d="M220.331 308.434C265.638 308.434 302.366 277.479 302.366 239.294H138.296C138.296 277.479 175.025 308.434 220.331 308.434Z" fill="#D9D9D9"/>
<path d="M138.296 239.294H302.366C302.366 235.785 302.056 232.337 301.457 228.968H139.205C138.607 232.337 138.296 235.785 138.296 239.294Z" fill="#D9D9D9"/>
<rect width="8.2981" height="17.5627" rx="4.14905" transform="matrix(0.907316 0.42045 -0.424793 0.905291 174.737 297.082)" fill="#867E7E"/>
<path d="M87.2002 335.015C88.6191 333.596 91.4378 331.546 93.5613 331.546C96.0191 331.546 97.0185 333.276 99.1192 334.084C100.25 334.519 101.328 335.594 102.525 335.594C104.003 335.594 105.522 333.233 106.701 332.268C107.974 331.227 108.941 330.389 110.621 330.389C113.131 330.389 115.084 330.721 117.094 332.285C118.321 333.239 119.985 333.57 121.592 333.57C122.297 333.57 123.159 333.753 123.696 333.216C124.942 331.97 126.061 330.249 127.744 329.522C129.257 328.868 131.865 327.257 133.527 328.365C134.982 329.335 136.256 330.476 137.639 331.53C138.365 332.082 139.177 333.531 140.177 333.57C142.68 333.666 144.405 334.171 146.763 332.991C149.413 331.666 152.258 330.1 155.277 330.1C157.775 330.1 159.827 330.514 161.943 331.979C163.627 333.145 165.483 332.991 167.437 332.991C169.913 332.991 172.543 330.886 174.954 330.261C175.95 330.002 180.303 328.778 180.303 330.389" stroke="#F8D68F" stroke-width="3" stroke-linecap="round"/>
<path d="M180.593 330.1C182.522 330.1 183.418 331.135 185.091 331.996C185.995 332.461 187.393 333.382 188.4 332.767C189.068 332.358 189.359 331.207 189.91 330.614C190.646 329.821 191.33 328.844 192.383 328.43C193.922 327.825 195.211 327.921 196.512 328.815C198.518 330.195 200.246 331.928 202.567 332.831C204.179 333.458 206.424 334.244 208.061 333.425C209.975 332.469 211.868 331.407 213.828 330.55C214.585 330.219 217.355 330.018 217.603 329.522" stroke="#F8D68F" stroke-width="3" stroke-linecap="round"/>
<path d="M83.4414 322.872C86.4295 320.182 90.19 322.341 93.2079 323.386C94.0968 323.693 95.9442 324.118 96.7419 323.434C98.3112 322.089 99.8085 320.726 101.513 319.546C104.907 317.197 106.676 317.671 110.396 319.049C111.782 319.562 112.292 320.247 113.817 319.675C116.398 318.707 118.666 316.671 121.479 316.221C124.47 315.743 127.42 315.796 130.346 316.446C132.469 316.918 134.392 318.165 136.515 318.551C140.835 319.336 143.623 316.598 147.631 315.707C149.508 315.29 150.919 315.629 152.401 316.655C153.922 317.708 154.824 318.751 156.722 319.097C157.503 319.239 159.353 319.348 160.064 319.049C161.178 318.579 161.899 319.113 162.955 319.113" stroke="#F8D68F" stroke-width="3" stroke-linecap="round"/>
<path d="M162.376 319.113C163.624 319.113 164.872 319.113 166.119 319.113C167.582 319.113 167.84 319.611 168.738 320.559C170.432 322.348 173.228 323.27 175.677 322.808C178.338 322.305 180.426 319.158 182.022 317.234C183.653 315.267 185.152 312.916 187.596 311.884C191.704 310.15 195.734 311.172 199.451 313.33C202.258 314.96 204.111 316.317 207.193 314.776C209.468 313.639 212.341 312.174 214.936 312.174C217.265 312.174 218.515 313.786 220.494 314.776C222.708 315.883 224.61 315.354 226.855 315.354" stroke="#F8D68F" stroke-width="3" stroke-linecap="round"/>
<path d="M88.9351 310.149C93.5613 310.149 98.1876 310.149 102.814 310.149C105.237 310.149 107.224 310.276 109.4 308.992C112.227 307.324 113.872 305.812 117.271 305.812C119.125 305.812 120.745 305.906 122.54 306.39C123.735 306.713 125.16 307.061 126.411 306.952C129.749 306.662 132.387 304.366 135.792 304.366C138.183 304.366 140.255 305.234 142.571 305.234C145.065 305.234 147.461 304.655 149.96 304.655C152.102 304.655 156.321 306.374 158.04 304.655" stroke="#F8D68F" stroke-width="3" stroke-linecap="round"/>
<path d="M104.838 295.981C106.883 295.981 108.929 295.981 110.974 295.981C112.099 295.981 113.278 296.081 114.396 295.949C116.544 295.697 118.563 294.282 120.58 293.556C122.667 292.805 125.814 293.379 128.017 293.379C131.938 293.379 135.673 292.223 139.535 292.223C143.56 292.223 147.195 293.379 151.245 293.379C153.304 293.379 156.542 292.775 158.329 293.668" stroke="#F8D68F" stroke-width="3" stroke-linecap="round"/>
<rect x="137" y="193" width="4" height="9" transform="rotate(-90 137 193)" fill="#B3B3B3"/>
<path d="M118.5 167H181L175 182H109L118.5 167Z" fill="#F0E7E7"/>
<path d="M175 63L187.5 52V135.5L175 144V63Z" fill="#D9D9D9"/>
<path d="M121 52H187.5L175 63H109L121 52Z" fill="#F0E7E7"/>
<path d="M175 182L181 167V229H175V182Z" fill="#D9D9D9"/>
<ellipse cx="220" cy="229" rx="82" ry="15" fill="#B9B9B9"/>
<rect x="122" y="169" width="45" height="12" rx="6" fill="#D9D9D9"/>
<rect x="124" y="173" width="41" height="8" rx="4" fill="#BEBDBD"/>
<rect x="141" y="168" width="17" height="8" rx="4" transform="rotate(-90 141 168)" fill="#B3B3B3"/>
<rect x="136" y="162" width="18" height="7" rx="3.5" fill="#B3B3B3"/>
<path fill-rule="evenodd" clip-rule="evenodd" d="M147.846 153.507L147.635 152.942C147.571 152.772 147.476 152.616 147.355 152.481C147.08 152.175 146.688 152 146.276 152H144.923H144.495C143.524 152 142.629 152.524 142.154 153.37L142.623 157.83C142.75 159.034 143.765 159.948 144.976 159.948C146.175 159.948 147.184 159.052 147.326 157.862L147.846 153.507Z" fill="#A29D9D"/>
<path fill-rule="evenodd" clip-rule="evenodd" d="M147.846 153.507L147.635 152.942C147.571 152.772 147.476 152.616 147.355 152.481C147.08 152.175 146.688 152 146.276 152H144.923H144.495C143.524 152 142.629 152.524 142.154 153.37L142.623 157.83C142.75 159.034 143.765 159.948 144.976 159.948C146.175 159.948 147.184 159.052 147.326 157.862L147.846 153.507Z" fill="#A29999"/>
<rect x="143" y="157" width="4" height="4" rx="2" fill="#A29D9D"/>
<rect x="143" y="157" width="4" height="4" rx="2" fill="#D7D7D7"/>
<line x1="168.49" y1="150.902" x2="171.49" y2="165.902" stroke="#D0A6A6"/>
<path d="M176 150.5L172 167" stroke="#F8D68F"/>
<line x1="172.124" y1="151.02" x2="171.499" y2="166.305" stroke="#7DC0B9"/>
<rect x="176.086" y="170.736" width="8.17259" height="10.3823" transform="rotate(-180 176.086 170.736)" fill="#97765A"/>
<ellipse cx="172" cy="160.331" rx="5" ry="1.33165" transform="rotate(-180 172 160.331)" fill="#97765A"/>
<ellipse cx="172" cy="170.736" rx="4.08629" ry="1.26394" transform="rotate(-180 172 170.736)" fill="#97765A"/>
<path d="M167.5 151L168 153.5" stroke="white"/>
<path d="M176.865 151L176.365 153" stroke="white"/>
<path d="M171 151L171 153.5" stroke="white"/>
</g>
<defs>
<filter id="filter0_d_1943_566" x="221.523" y="131.973" width="70.1738" height="12.1279" filterUnits="userSpaceOnUse" color-interpolation-filters="sRGB">
<feFlood flood-opacity="0" result="BackgroundImageFix"/>
<feColorMatrix in="SourceAlpha" type="matrix" values="0 0 0 0 0 0 0 0 0 0 0 0 0 0 0 0 0 0 127 0" result="hardAlpha"/>
<feOffset dy="4"/>
<feGaussianBlur stdDeviation="2"/>
<feComposite in2="hardAlpha" operator="out"/>
<feColorMatrix type="matrix" values="0 0 0 0 0 0 0 0 0 0 0 0 0 0 0 0 0 0 0.25 0"/>
<feBlend mode="normal" in2="BackgroundImageFix" result="effect1_dropShadow_1943_566"/>
<feBlend mode="normal" in="SourceGraphic" in2="effect1_dropShadow_1943_566" result="shape"/>
</filter>
<clipPath id="clip0_1943_566">
<rect width="321" height="352" fill="white"/>
</clipPath>
</defs>
</svg>
