<svg width="208" height="150" viewBox="0 0 208 150" fill="none" xmlns="http://www.w3.org/2000/svg">
<g clip-path="url(#clip0_2342_341)">
<rect width="208" height="150" fill="white"/>
<rect width="208" height="150" fill="#B58080"/>
<rect width="208" height="150" fill="#FFEACA"/>
<rect y="11" width="208" height="139" fill="#A2A1A1"/>
<rect y="11" width="208" height="139" fill="#42555B"/>
<rect x="10" y="56" width="8" height="94" fill="#744E2F"/>
<rect x="124" y="56" width="7" height="94" fill="#744E2F"/>
<rect x="108" y="56" width="6" height="94" fill="#744E2F"/>
<rect x="25" y="56" width="7" height="94" fill="#744E2F"/>
<rect x="16" y="64" width="108" height="28" fill="#744E2F"/>
<rect x="17" y="106" width="108" height="15" fill="#5B3F27"/>
<rect x="151" y="23" width="35" height="35" fill="#884646"/>
<rect x="155" y="28" width="27" height="26" fill="#D0A6A6"/>
<path fill-rule="evenodd" clip-rule="evenodd" d="M207.566 56.7642L127.384 131.83C126.569 132.593 126.545 133.855 127.331 134.648V134.648C128.117 135.441 129.414 135.466 130.229 134.703L207.566 62.2997L207.566 56.7642Z" fill="#2E2E2E"/>
<rect x="158" y="96" width="5" height="47" rx="2.5" fill="#2E2E2E"/>
<path fill-rule="evenodd" clip-rule="evenodd" d="M146 115.5C146 113.567 144.433 112 142.5 112V112C140.567 112 139 113.567 139 115.5V150.759H146V115.5Z" fill="#2E2E2E"/>
<rect x="175" y="80" width="7" height="46" rx="3.5" fill="#2E2E2E"/>
<rect x="195" y="62" width="6" height="46" rx="3" fill="#2E2E2E"/>
<path fill-rule="evenodd" clip-rule="evenodd" d="M69.5349 134.145L63.9474 134.219L60.4651 134.145L50.6977 133.339L47.6744 132.667H44.7674C44.7674 132.667 42.9929 132.441 42.093 131.727C41.2687 131.073 40.9567 130.449 40.4651 129.443C40.0132 128.517 39.735 127.948 39.6512 126.89C39.5537 125.66 39.6864 124.861 40.2326 123.8C40.5775 123.129 41.3953 122.322 41.3953 122.322C41.3953 122.322 39.9531 115.838 38.9535 111.707C38.461 109.672 37.8752 108.005 37.3193 106.424C36.3774 103.745 35.5211 101.309 35.3488 97.7335C35.329 97.322 35.2804 96.9555 35.2345 96.6096C35.1285 95.8106 35.037 95.1214 35.3488 94.2401C35.7015 93.2435 36.2212 92.7904 36.8913 92.2063C37.0297 92.0856 37.1745 91.9594 37.3256 91.8216C38.3776 90.8622 39.105 90.5221 40.3469 89.9414L40.3488 89.9405C41.0052 89.6336 41.4958 89.4837 42.0445 89.316C42.3419 89.2251 42.6562 89.1291 43.0233 89H52.2093C53.2227 89.1736 53.7886 89.3222 54.7674 89.6718C56.5917 90.3234 59.186 92.0903 59.186 92.0903C59.186 92.0903 60.5846 93.5287 61.2791 94.6432C62.2009 96.1224 62.4837 97.3916 62.808 98.8469C62.9622 99.5391 63.1259 100.273 63.3721 101.093C63.8348 102.632 64.1457 103.837 64.4601 105.056C64.751 106.184 65.045 107.324 65.4651 108.751C66.3997 111.926 68.0233 116.813 68.0233 116.813C68.0233 116.813 72.381 117.802 75.1163 118.694C75.818 118.923 76.455 119.058 77.0557 119.186C78.3833 119.468 79.5336 119.713 80.814 120.844C81.8356 121.746 82.4641 122.327 83.0233 123.665C83.4687 124.731 83.6533 125.439 83.6047 126.621C83.5644 127.6 83.4775 128.212 83.0233 129.04C82.8895 129.283 82.7604 129.437 82.6223 129.601C82.5289 129.712 82.4314 129.828 82.3256 129.98C82.041 130.389 81.6279 131.055 81.6279 131.055L78.7209 133.205C78.7209 133.205 78.002 133.924 77.4419 134.145C76.9403 134.344 76.5527 134.285 76.1193 134.219C75.8844 134.183 75.6361 134.145 75.3488 134.145H72.2093H69.5349Z" fill="#D0A6A6"/>
<path d="M42.3762 131.38L47.5847 132.139L44.7604 150.701L39.2751 150.701L42.3762 131.38Z" fill="#2E2E2E"/>
<path d="M49.6169 131.403L54.8254 132.162L52.0012 150.724L46.5159 150.724L49.6169 131.403Z" fill="#2E2E2E"/>
<path d="M73.7232 132.455L78.9477 131.81L81.4027 150.701L76.1368 150.701L73.7232 132.455Z" fill="#2E2E2E"/>
<path d="M66.2631 132.457L71.4877 131.812L73.9426 150.703L68.6767 150.703L66.2631 132.457Z" fill="#2E2E2E"/>
<ellipse cx="61" cy="127.5" rx="22" ry="8.5" fill="#D0A6A6"/>
<path fill-rule="evenodd" clip-rule="evenodd" d="M121.189 80C122.742 80 124 78.7416 124 77.1892V77.1892L123.865 76.8885C123.377 75.8025 122.678 74.8241 121.809 74.01L118.972 71.3514L116.546 69.0565C114.875 67.4756 112.661 66.5946 110.361 66.5946H28.6332C26.4114 66.5946 24.2681 67.4164 22.6159 68.9019L20.3725 70.9189L16 75.2432V75.2432C16 77.8703 18.1297 80 20.7568 80H121.189Z" fill="#97765A"/>
<path fill-rule="evenodd" clip-rule="evenodd" d="M95.579 73.967H20.4496C17.9922 73.967 16 71.9748 16 69.5173V69.5173L20.3725 65.4722L22.6708 63.5392C24.2928 62.1751 26.3217 61.4271 28.4412 61.4271C38.5267 61.4271 69.8332 61.4271 91.2065 61.4271C94.1583 61.2905 95.7152 64.4725 96.4153 66.5546C96.7973 67.6905 97.2661 68.8087 97.6979 69.9268C97.9683 70.627 98.2024 71.4832 98.2024 72.3489C98.2024 74.3715 95.579 73.967 95.579 73.967Z" fill="#F8D68F"/>
<path fill-rule="evenodd" clip-rule="evenodd" d="M124 73.1892V73.1892C124 74.7416 122.742 76 121.189 76H106.073C106.073 76 104.984 75.3749 104.324 74.9189C100.919 72.5683 97.8954 67.12 96.9654 65.3347C96.7646 64.9494 96.5887 64.5501 96.5438 64.118C96.5125 63.8172 96.5232 63.4747 96.6721 63.2432C96.9796 62.7654 97.9838 62.5946 97.9838 62.5946C97.9838 62.5946 108.591 59.4366 113.943 62.5946C115.722 63.6441 117.711 65.8574 118.556 66.8505C118.838 67.1817 119.131 67.5006 119.448 67.7979L121.809 70.01C122.678 70.8241 123.377 71.8025 123.865 72.8885L124 73.1892Z" fill="#F8D68F"/>
<path fill-rule="evenodd" clip-rule="evenodd" d="M208 102V150H153V134.438H171.257V118.438H188.83V102H208Z" fill="#6C4040"/>
<circle cx="153.5" cy="81.5" r="1.5" fill="white"/>
<circle cx="164.5" cy="71.5" r="1.5" fill="white"/>
<ellipse cx="136" cy="104" rx="2" ry="1" fill="white"/>
<ellipse cx="134.5" cy="138" rx="1.5" ry="1" fill="white"/>
<circle cx="88" cy="126" r="1" fill="white"/>
<ellipse cx="100" cy="127.5" rx="1" ry="0.5" fill="white"/>
<ellipse cx="95" cy="136.5" rx="1" ry="1.5" fill="white"/>
<ellipse cx="71.5" cy="100.5" rx="1.5" ry="0.5" fill="white"/>
<circle cx="119" cy="126" r="1" fill="white"/>
<circle cx="120" cy="98" r="1" fill="white"/>
<circle cx="124" cy="42" r="1" fill="white"/>
<circle cx="138" cy="46" r="1" fill="white"/>
<circle cx="138" cy="28" r="1" fill="white"/>
<ellipse cx="95.5" cy="26" rx="0.5" ry="1" fill="white"/>
<circle cx="108" cy="22" r="1" fill="white"/>
<circle cx="105" cy="35" r="1" fill="white"/>
<circle cx="120" cy="28" r="1" fill="white"/>
<ellipse cx="110" cy="43.5" rx="1" ry="1.5" fill="white"/>
<circle cx="118" cy="53" r="1" fill="white"/>
<circle cx="77.5" cy="50.5" r="1.5" fill="white"/>
<ellipse cx="65" cy="54.5" rx="1" ry="1.5" fill="white"/>
<circle cx="65" cy="38" r="1" fill="white"/>
<circle cx="74" cy="22" r="1" fill="white"/>
<circle cx="53" cy="26" r="1" fill="white"/>
<ellipse cx="46.5" cy="44" rx="1.5" ry="1" fill="white"/>
<ellipse cx="51.5" cy="53" rx="1.5" ry="1" fill="white"/>
<circle cx="39" cy="53" r="1" fill="white"/>
<ellipse cx="26.5" cy="40" rx="1.5" ry="1" fill="white"/>
<circle cx="4" cy="68" r="1" fill="white"/>
<ellipse cx="5.5" cy="89" rx="0.5" ry="1" fill="white"/>
<circle cx="4" cy="112" r="1" fill="white"/>
<ellipse cx="5.5" cy="132" rx="0.5" ry="1" fill="white"/>
<circle cx="36.5" cy="136.5" r="1.5" fill="white"/>
<ellipse cx="13" cy="47.5" rx="1" ry="1.5" fill="white"/>
<ellipse cx="5.5" cy="24" rx="0.5" ry="1" fill="white"/>
<ellipse cx="23" cy="22.5" rx="1" ry="1.5" fill="white"/>
<ellipse cx="39.5" cy="31" rx="1.5" ry="1" fill="white"/>
<circle cx="95" cy="56" r="1" fill="white"/>
<circle cx="94" cy="42" r="1" fill="white"/>
<circle cx="79" cy="35" r="1" fill="white"/>
<ellipse cx="146.5" cy="18" rx="0.5" ry="1" fill="white"/>
<circle cx="171" cy="18" r="1" fill="white"/>
<circle cx="87" cy="95" r="1" fill="white"/>
<ellipse cx="166" cy="85.5" rx="1" ry="1.5" fill="white"/>
<ellipse cx="143.5" cy="66" rx="1.5" ry="1" fill="white"/>
<circle cx="138" cy="79" r="1" fill="white"/>
<ellipse cx="143.5" cy="96" rx="1.5" ry="1" fill="white"/>
<circle cx="152" cy="102" r="1" fill="white"/>
<circle cx="180" cy="70" r="1" fill="white"/>
<circle cx="198" cy="52" r="1" fill="white"/>
<circle cx="193" cy="37" r="1" fill="white"/>
<circle cx="201" cy="29" r="1" fill="white"/>
<circle cx="194" cy="20" r="1" fill="white"/>
<circle cx="156" cy="63" r="1" fill="white"/>
<circle cx="152" cy="126" r="1" fill="white"/>
<ellipse cx="171" cy="108.5" rx="1" ry="1.5" fill="white"/>
<ellipse cx="167.5" cy="125" rx="1.5" ry="1" fill="white"/>
<ellipse cx="185.5" cy="86.5" rx="0.5" ry="1.5" fill="white"/>
<ellipse cx="190" cy="94.5" rx="2" ry="0.5" fill="white"/>
<ellipse cx="204.5" cy="94.5" rx="1.5" ry="0.5" fill="#B58080"/>
<ellipse cx="204.5" cy="73.5" rx="1.5" ry="0.5" fill="#B58080"/>
<rect x="101" y="80" width="15" height="69" stroke="white" stroke-width="2"/>
<rect x="101" y="80" width="15" height="8" stroke="white" stroke-width="2"/>
<rect x="101" y="80" width="15" height="16" stroke="white" stroke-width="2"/>
<rect x="101" y="80" width="15" height="25" stroke="white" stroke-width="2"/>
<rect x="101" y="80" width="15" height="34" stroke="white" stroke-width="2"/>
<rect x="101" y="80" width="15" height="43" stroke="white" stroke-width="2"/>
<rect x="101" y="80" width="15" height="52" stroke="white" stroke-width="2"/>
<rect x="101" y="80" width="15" height="61" stroke="white" stroke-width="2"/>
<path d="M156 34.5989C156.522 34.1192 156.912 33.4507 157.383 32.9193C157.842 32.4025 158.542 31.812 158.888 31.2397C159.174 30.7657 160.371 31.933 160.694 32.1527C161.435 32.6569 162.227 33.2914 162.796 33.9634C163.081 34.2996 163.464 34.7438 163.85 34.9973C163.897 35.0279 163.977 34.7854 164.009 34.73C164.244 34.3357 164.651 34.0044 164.992 33.691C165.715 33.0265 166.49 32.3572 167.161 31.6483C167.385 31.4111 167.798 30.7524 168.154 31.0985C169.205 32.121 170.599 32.9076 171.711 33.8726C171.796 33.946 172.407 34.3952 172.458 34.3618C173.093 33.9451 173.782 33.6015 174.401 33.1463C174.794 32.8574 176.912 30.9742 177.245 31.2801C178.38 32.3233 179.868 33.0137 181 34.0542" stroke="#F8D68F" stroke-width="4" stroke-linecap="round"/>
<path d="M156 40.8652C156.466 40.8166 157.048 39.8808 157.358 39.5892C157.689 39.2782 157.977 38.9325 158.307 38.6218C158.399 38.536 158.614 38.2465 158.751 38.2465C158.818 38.2465 158.951 38.4291 158.991 38.4633C159.444 38.8557 160.095 39.0611 160.615 39.364C161.326 39.7791 161.968 40.3093 162.629 40.7902C162.914 40.9972 163.117 41.2719 163.41 41.4657C163.549 41.5575 163.757 41.9078 163.943 41.9078C163.969 41.9078 164.293 41.5055 164.351 41.4616C164.72 41.1846 165.07 40.8861 165.429 40.5984C166.211 39.9719 167.167 39.3406 167.821 38.5967C167.984 38.4111 168.12 38.1827 168.3 38.0129C168.394 37.9248 168.488 38.3125 168.558 38.4049C169.259 39.3343 170.318 40.1137 171.256 40.8235C171.743 41.1927 172.326 41.4322 172.809 41.8035C173.021 41.9667 173.05 42.0991 173.27 41.8994C174.047 41.1957 174.789 40.4722 175.551 39.756C175.638 39.6744 176.588 38.7354 176.687 38.8052C176.78 38.8707 176.826 38.9792 176.891 39.068C177.117 39.377 177.514 39.6366 177.81 39.8853C178.78 40.7012 179.932 41.2471 181 41.9161" stroke="#F8D68F" stroke-width="4" stroke-linecap="round"/>
<path d="M156 48.8879C156.031 48.5225 156.305 48.215 156.486 47.9232C156.717 47.5518 156.91 47.1581 157.135 46.783C157.336 46.447 157.465 45.7375 157.801 46.1009C158.132 46.4585 158.622 46.6532 159.035 46.8707C159.81 47.2783 160.623 47.5933 161.395 48.0109C162.081 48.3823 162.809 48.7661 163.417 49.2777C163.691 49.5084 164.035 49.0746 164.313 48.8879C164.958 48.4544 165.623 48.0272 166.254 47.5724C166.811 47.1702 167.347 46.7497 167.875 46.3056C167.966 46.2291 169.292 47.4685 169.455 47.5918C170.286 48.2181 171.159 48.8911 172.049 49.4141C172.357 49.5952 172.706 49.7422 173.004 49.9403C173.422 50.2189 174.189 49.4434 174.562 49.2387C175.375 48.7928 176.043 48.1921 176.71 47.5236C176.848 47.3848 177.389 46.5297 177.606 46.5297C177.726 46.5297 177.895 46.7985 177.975 46.8756C178.287 47.1757 178.67 47.3745 179.02 47.6162C179.814 48.165 180.597 48.6529 181.479 49.0146C181.741 49.122 182.248 49.3323 181.857 49.5018" stroke="#F8D68F" stroke-width="4" stroke-linecap="round"/>
</g>
<defs>
<clipPath id="clip0_2342_341">
<rect width="208" height="150" fill="white"/>
</clipPath>
</defs>
</svg>
