<svg width="473" height="351" viewBox="0 0 473 351" fill="none" xmlns="http://www.w3.org/2000/svg">
<g clip-path="url(#clip0_1853_4777)">
<rect width="473" height="351" fill="white"/>
<rect width="473" height="351" fill="#B58080"/>
<rect width="473" height="351" fill="#FFEACA"/>
<rect y="26" width="473" height="325" fill="#A2A1A1"/>
<rect y="26" width="473" height="325" fill="#42555B"/>
<rect x="24" y="129" width="16" height="222" fill="#744E2F"/>
<rect x="283" y="129" width="15" height="222" fill="#744E2F"/>
<rect x="245" y="129" width="16" height="222" fill="#744E2F"/>
<rect x="58" y="129" width="16" height="222" fill="#744E2F"/>
<rect x="37" y="149" width="247" height="65" fill="#744E2F"/>
<rect x="39" y="246" width="247" height="36" fill="#5B3F27"/>
<rect x="343" y="54" width="83" height="82" fill="#884646"/>
<rect x="353" y="64" width="63" height="62" fill="#D0A6A6"/>
<path fill-rule="evenodd" clip-rule="evenodd" d="M473 132.21L290.285 307.045C288.427 308.824 288.371 311.763 290.161 313.611C291.951 315.458 294.909 315.514 296.768 313.736L473 145.103L473 132.21Z" fill="#2E2E2E"/>
<rect x="358" y="224" width="15" height="108" rx="7.5" fill="#2E2E2E"/>
<path fill-rule="evenodd" clip-rule="evenodd" d="M331 268C331 263.582 327.418 260 323 260C318.582 260 315 263.582 315 268V351H331V268Z" fill="#2E2E2E"/>
<rect x="400" y="186" width="16" height="108" rx="8" fill="#2E2E2E"/>
<rect x="443" y="143" width="15" height="109" rx="7.5" fill="#2E2E2E"/>
<path fill-rule="evenodd" clip-rule="evenodd" d="M157.74 312.573L145 312.746L137.06 312.573L114.791 310.67L107.898 309.084H101.27C101.27 309.084 97.2238 308.55 95.1721 306.863C93.2927 305.319 92.5812 303.847 91.4605 301.471C90.43 299.287 89.7959 297.943 89.6047 295.445C89.3824 292.542 89.6849 290.656 90.9302 288.15C91.7168 286.567 93.5814 284.661 93.5814 284.661C93.5814 284.661 90.293 269.355 88.014 259.604C86.891 254.799 85.5555 250.865 84.288 247.132C82.1404 240.807 80.188 235.057 79.7953 226.617C79.7502 225.645 79.6393 224.78 79.5346 223.964C79.2929 222.077 79.0844 220.45 79.7953 218.37C80.5994 216.017 81.7844 214.948 83.3121 213.569C83.6277 213.284 83.9579 212.986 84.3023 212.661C86.701 210.396 88.3595 209.593 91.1909 208.222L91.1953 208.22C92.6919 207.496 93.8105 207.142 95.0616 206.746C95.7394 206.531 96.4562 206.305 97.293 206H118.237C120.548 206.41 121.838 206.761 124.07 207.586C128.229 209.124 134.144 213.295 134.144 213.295C134.144 213.295 137.333 216.691 138.916 219.322C141.018 222.813 141.663 225.81 142.402 229.245C142.754 230.879 143.127 232.613 143.688 234.546C144.743 238.179 145.452 241.025 146.169 243.903C146.832 246.566 147.503 249.257 148.46 252.626C150.591 260.12 154.293 271.656 154.293 271.656C154.293 271.656 164.229 273.992 170.465 276.097C172.065 276.637 173.517 276.957 174.887 277.258C177.914 277.925 180.537 278.502 183.456 281.172C185.785 283.302 187.218 284.674 188.493 287.833C189.509 290.349 189.929 292.019 189.819 294.811C189.727 297.122 189.529 298.566 188.493 300.52C188.188 301.095 187.894 301.458 187.579 301.845C187.366 302.107 187.144 302.381 186.902 302.74C186.253 303.705 185.312 305.278 185.312 305.278L178.684 310.352C178.684 310.352 177.045 312.05 175.767 312.573C174.624 313.041 173.74 312.902 172.752 312.746C172.216 312.662 171.65 312.573 170.995 312.573H163.837H157.74Z" fill="#D0A6A6"/>
<path d="M96.5668 306L108.436 307.768L102 351L89.5001 351L96.5668 306Z" fill="#2E2E2E"/>
<path d="M113.067 306.053L124.936 307.821L118.5 351.053L106 351.053L113.067 306.053Z" fill="#2E2E2E"/>
<path d="M168 308.502L179.906 307L185.5 351L173.5 351L168 308.502Z" fill="#2E2E2E"/>
<path d="M151 308.508L162.906 307.006L168.5 351.006L156.5 351.006L151 308.508Z" fill="#2E2E2E"/>
<ellipse cx="139" cy="297.5" rx="49" ry="22.5" fill="#D0A6A6"/>
<path fill-rule="evenodd" clip-rule="evenodd" d="M277.5 186C281.09 186 284 183.09 284 179.5L282.73 176.642C282.248 175.558 281.557 174.58 280.695 173.764L272.5 166L263.61 157.496C261.935 155.894 259.706 155 257.389 155H61.4795C59.2406 155 57.0821 155.834 55.4254 157.341L47 165L37 175V177C37 181.971 41.0294 186 46 186H277.5Z" fill="#97765A"/>
<path fill-rule="evenodd" clip-rule="evenodd" d="M219 174H46C41.0294 174 37 169.971 37 165V163L47 153L55.4254 145.341C57.0821 143.834 59.1893 143 61.4282 143C78.6306 143 156.779 143 209 143C217.087 142.596 220.596 153.963 221.643 158.327C221.907 159.429 222.309 160.493 222.801 161.514C223.689 163.361 225 166.652 225 170C225 175 219 174 219 174Z" fill="#F8D68F"/>
<path fill-rule="evenodd" clip-rule="evenodd" d="M284 170.5C284 174.09 281.09 177 277.5 177H243C243 177 240.51 175.554 239 174.5C230.642 168.665 223.287 154.576 221.781 151.57C221.588 151.185 221.431 150.795 221.342 150.373C221.177 149.596 221.006 148.277 221.5 147.5C222.203 146.395 224.5 146 224.5 146C224.5 146 248.759 138.697 261 146C265.519 148.696 270.631 154.714 272.091 156.494C272.367 156.83 272.658 157.15 272.974 157.449L280.695 164.764C281.557 165.58 282.248 166.558 282.73 167.642L284 170.5Z" fill="#F8D68F"/>
<path fill-rule="evenodd" clip-rule="evenodd" d="M474 238V351H349V314.365H390.494V276.699H430.432V238H474Z" fill="#6C4040"/>
<circle cx="349.5" cy="189.5" r="2.5" fill="white"/>
<circle cx="375.5" cy="166.5" r="2.5" fill="white"/>
<circle cx="310.5" cy="242.5" r="2.5" fill="white"/>
<circle cx="306.5" cy="321.5" r="2.5" fill="white"/>
<circle cx="199.5" cy="293.5" r="2.5" fill="white"/>
<circle cx="228.5" cy="297.5" r="2.5" fill="white"/>
<circle cx="214.5" cy="317.5" r="2.5" fill="white"/>
<circle cx="164.5" cy="234.5" r="2.5" fill="white"/>
<circle cx="270.5" cy="293.5" r="2.5" fill="white"/>
<circle cx="273.5" cy="228.5" r="2.5" fill="white"/>
<circle cx="283.5" cy="98.5" r="2.5" fill="white"/>
<circle cx="313.5" cy="107.5" r="2.5" fill="white"/>
<circle cx="313.5" cy="64.5" r="2.5" fill="white"/>
<circle cx="217.5" cy="59.5" r="2.5" fill="white"/>
<circle cx="245.5" cy="51.5" r="2.5" fill="white"/>
<circle cx="238.5" cy="81.5" r="2.5" fill="white"/>
<circle cx="273.5" cy="64.5" r="2.5" fill="white"/>
<circle cx="250.5" cy="101.5" r="2.5" fill="white"/>
<circle cx="268.5" cy="123.5" r="2.5" fill="white"/>
<circle cx="177.5" cy="117.5" r="2.5" fill="white"/>
<circle cx="148.5" cy="126.5" r="2.5" fill="white"/>
<circle cx="148.5" cy="88.5" r="2.5" fill="white"/>
<circle cx="170.5" cy="51.5" r="2.5" fill="white"/>
<circle cx="120.5" cy="59.5" r="2.5" fill="white"/>
<circle cx="106.5" cy="102.5" r="2.5" fill="white"/>
<circle cx="117.5" cy="123.5" r="2.5" fill="white"/>
<circle cx="87.5" cy="122.5" r="2.5" fill="white"/>
<circle cx="59.5" cy="93.5" r="2.5" fill="white"/>
<circle cx="8.5" cy="158.5" r="2.5" fill="white"/>
<circle cx="13.5" cy="206.5" r="2.5" fill="white"/>
<circle cx="8.5" cy="260.5" r="2.5" fill="white"/>
<circle cx="13.5" cy="308.5" r="2.5" fill="white"/>
<circle cx="82.5" cy="317.5" r="2.5" fill="white"/>
<circle cx="29.5" cy="111.5" r="2.5" fill="white"/>
<circle cx="13.5" cy="56.5" r="2.5" fill="white"/>
<circle cx="53.5" cy="52.5" r="2.5" fill="white"/>
<circle cx="89.5" cy="72.5" r="2.5" fill="white"/>
<circle cx="214.5" cy="129.5" r="2.5" fill="white"/>
<circle cx="212.5" cy="98.5" r="2.5" fill="white"/>
<circle cx="180.5" cy="81.5" r="2.5" fill="white"/>
<circle cx="333.5" cy="42.5" r="2.5" fill="white"/>
<circle cx="390.5" cy="42.5" r="2.5" fill="white"/>
<circle cx="197.5" cy="221.5" r="2.5" fill="white"/>
<circle cx="378.5" cy="199.5" r="2.5" fill="white"/>
<circle cx="325.5" cy="153.5" r="2.5" fill="white"/>
<circle cx="313.5" cy="183.5" r="2.5" fill="white"/>
<circle cx="325.5" cy="223.5" r="2.5" fill="white"/>
<circle cx="346.5" cy="237.5" r="2.5" fill="white"/>
<circle cx="410.5" cy="163.5" r="2.5" fill="white"/>
<circle cx="450.5" cy="120.5" r="2.5" fill="white"/>
<circle cx="438.5" cy="86.5" r="2.5" fill="white"/>
<circle cx="457.5" cy="67.5" r="2.5" fill="white"/>
<circle cx="440.5" cy="47.5" r="2.5" fill="white"/>
<circle cx="354.5" cy="146.5" r="2.5" fill="white"/>
<circle cx="346.5" cy="293.5" r="2.5" fill="white"/>
<circle cx="388.5" cy="252.5" r="2.5" fill="white"/>
<circle cx="381.5" cy="291.5" r="2.5" fill="white"/>
<circle cx="423.5" cy="201.5" r="2.5" fill="white"/>
<circle cx="433.5" cy="220.5" r="2.5" fill="white"/>
<rect x="229" y="184" width="37" height="166" stroke="white" stroke-width="2"/>
<rect x="229" y="184" width="37" height="21" stroke="white" stroke-width="2"/>
<rect x="229" y="184" width="37" height="41" stroke="white" stroke-width="2"/>
<rect x="229" y="184" width="37" height="61" stroke="white" stroke-width="2"/>
<rect x="229" y="184" width="37" height="82" stroke="white" stroke-width="2"/>
<rect x="229" y="184" width="37" height="104" stroke="white" stroke-width="2"/>
<rect x="229" y="184" width="37" height="125" stroke="white" stroke-width="2"/>
<rect x="229" y="184" width="37" height="145" stroke="white" stroke-width="2"/>
<path d="M355.423 81.2621C356.625 80.0601 357.523 78.3851 358.608 77.0535C359.663 75.7585 361.274 74.2788 362.071 72.8449C362.731 71.657 365.486 74.582 366.229 75.1324C367.934 76.3959 369.76 77.9858 371.069 79.6696C371.725 80.5123 372.606 81.6252 373.496 82.2605C373.603 82.3371 373.787 81.7296 373.862 81.5907C374.401 80.6025 375.339 79.7725 376.125 78.9872C377.79 77.3219 379.572 75.645 381.117 73.8686C381.634 73.2743 382.585 71.6236 383.404 72.491C385.824 75.0532 389.034 77.024 391.594 79.4421C391.789 79.6261 393.196 80.7518 393.313 80.6681C394.775 79.6239 396.361 78.7628 397.787 77.6222C398.692 76.8984 403.567 72.1795 404.334 72.946C406.948 75.5599 410.371 77.29 412.978 79.8971" stroke="#F8D68F" stroke-width="4" stroke-linecap="round"/>
<path d="M354.917 95.9905C356.013 95.8688 357.383 93.5247 358.114 92.7942C358.893 92.0151 359.571 91.1493 360.349 90.3709C360.564 90.156 361.07 89.4308 361.394 89.4308C361.552 89.4308 361.865 89.8884 361.958 89.974C363.025 90.957 364.558 91.4713 365.781 92.2302C367.456 93.2699 368.965 94.5979 370.523 95.8025C371.193 96.321 371.671 97.0092 372.361 97.4946C372.688 97.7245 373.177 98.6019 373.615 98.6019C373.677 98.6019 374.438 97.5944 374.576 97.4842C375.443 96.7904 376.269 96.0427 377.114 95.322C378.954 93.7528 381.205 92.1716 382.744 90.3082C383.128 89.8431 383.447 89.271 383.872 88.8459C384.093 88.6252 384.314 89.5963 384.478 89.8277C386.13 92.1556 388.621 94.1079 390.829 95.8861C391.977 96.8107 393.348 97.4107 394.485 98.3407C394.984 98.7494 395.052 99.0811 395.571 98.581C397.399 96.8182 399.146 95.006 400.94 93.212C401.144 93.0077 403.381 90.6555 403.614 90.8305C403.833 90.9945 403.941 91.2662 404.094 91.4885C404.627 92.2628 405.56 92.9129 406.257 93.5358C408.541 95.5797 411.253 96.9469 413.767 98.6227" stroke="#F8D68F" stroke-width="4" stroke-linecap="round"/>
<path d="M355.293 113.476C355.365 112.693 356.001 112.034 356.422 111.408C356.957 110.612 357.405 109.768 357.926 108.964C358.393 108.243 358.693 106.722 359.472 107.502C360.238 108.268 361.375 108.686 362.334 109.152C364.13 110.026 366.017 110.701 367.807 111.596C369.4 112.392 371.087 113.215 372.497 114.312C373.133 114.807 373.931 113.877 374.576 113.476C376.073 112.547 377.615 111.631 379.078 110.656C380.371 109.794 381.614 108.892 382.838 107.94C383.049 107.776 386.125 110.433 386.504 110.698C388.432 112.04 390.455 113.483 392.521 114.604C393.236 114.993 394.045 115.308 394.735 115.732C395.706 116.33 397.484 114.667 398.349 114.228C400.234 113.273 401.784 111.985 403.332 110.552C403.653 110.254 404.907 108.421 405.41 108.421C405.689 108.421 406.081 108.997 406.267 109.162C406.991 109.806 407.879 110.232 408.69 110.75C410.532 111.927 412.349 112.972 414.393 113.748C415.001 113.978 412.408 112.054 411.5 112.418" stroke="#F8D68F" stroke-width="4" stroke-linecap="round"/>
</g>
<defs>
<clipPath id="clip0_1853_4777">
<rect width="473" height="351" fill="white"/>
</clipPath>
</defs>
</svg>
