<svg width="489" height="382" viewBox="0 0 489 382" fill="none" xmlns="http://www.w3.org/2000/svg">
<g clip-path="url(#clip0_2342_341)">
<rect width="489" height="382" fill="white"/>
<rect width="492" height="382" fill="#B58080"/>
<rect width="492" height="382" fill="#FFEACA"/>
<rect y="27" width="492" height="355" fill="#A2A1A1"/>
<rect y="27" width="492" height="355" fill="#42555B"/>
<rect x="24" y="143" width="19" height="239" fill="#744E2F"/>
<rect x="293" y="143" width="17" height="239" fill="#744E2F"/>
<rect x="255" y="143" width="15" height="239" fill="#744E2F"/>
<rect x="59" y="143" width="17" height="239" fill="#744E2F"/>
<rect x="38" y="164" width="255" height="69" fill="#744E2F"/>
<rect x="40" y="269" width="256" height="39" fill="#5B3F27"/>
<rect x="356" y="58" width="83" height="90" fill="#884646"/>
<rect x="367" y="72" width="63" height="66" fill="#D0A6A6"/>
<path fill-rule="evenodd" clip-rule="evenodd" d="M490.697 144.425L301.153 335.407C299.221 337.353 299.16 340.567 301.018 342.585V342.585C302.875 344.603 305.946 344.661 307.878 342.715L490.697 158.509L490.697 144.425Z" fill="#2E2E2E"/>
<rect x="374" y="244" width="12" height="121" rx="6" fill="#2E2E2E"/>
<path fill-rule="evenodd" clip-rule="evenodd" d="M344 291.5C344 287.358 340.642 284 336.5 284V284C332.358 284 329 287.358 329 291.5V383.426H344V291.5Z" fill="#2E2E2E"/>
<rect x="413" y="203" width="17" height="117" rx="8.5" fill="#2E2E2E"/>
<rect x="461" y="158" width="14" height="116" rx="7" fill="#2E2E2E"/>
<path fill-rule="evenodd" clip-rule="evenodd" d="M164.502 341.714L151.316 341.9L143.098 341.714L120.047 339.665L112.912 337.958H106.051C106.051 337.958 101.863 337.383 99.7395 335.568C97.7942 333.906 97.0577 332.321 95.8977 329.764C94.8311 327.413 94.1747 325.966 93.9767 323.278C93.7466 320.152 94.0598 318.123 95.3488 315.425C96.163 313.721 98.093 311.67 98.093 311.67C98.093 311.67 94.6892 295.194 92.3302 284.698C91.1679 279.526 89.7855 275.293 88.4735 271.274C86.2506 264.466 84.2297 258.276 83.8233 249.192C83.7765 248.146 83.6617 247.215 83.5534 246.336C83.3032 244.306 83.0873 242.554 83.8233 240.315C84.6555 237.783 85.8821 236.631 87.4634 235.147C87.79 234.84 88.1318 234.52 88.4884 234.17C90.9712 231.732 92.6879 230.868 95.6186 229.392L95.6233 229.39C97.1723 228.61 98.3302 228.229 99.6251 227.803C100.327 227.572 101.069 227.328 101.935 227H123.614C126.006 227.441 127.341 227.819 129.651 228.707C133.956 230.363 140.079 234.852 140.079 234.852C140.079 234.852 143.38 238.507 145.019 241.339C147.194 245.098 147.862 248.323 148.627 252.021C148.991 253.78 149.377 255.646 149.958 257.727C151.05 261.637 151.784 264.7 152.526 267.799C153.212 270.665 153.906 273.561 154.898 277.187C157.103 285.254 160.935 297.672 160.935 297.672C160.935 297.672 171.219 300.186 177.674 302.452C179.331 303.033 180.834 303.377 182.251 303.702C185.385 304.419 188.099 305.041 191.121 307.914C193.532 310.207 195.015 311.684 196.335 315.084C197.386 317.792 197.822 319.59 197.707 322.595C197.612 325.083 197.407 326.636 196.335 328.74C196.019 329.359 195.715 329.749 195.389 330.167C195.168 330.449 194.938 330.744 194.688 331.13C194.017 332.169 193.042 333.861 193.042 333.861L186.181 339.324C186.181 339.324 184.485 341.151 183.163 341.714C181.979 342.218 181.064 342.068 180.042 341.9C179.487 341.81 178.901 341.714 178.223 341.714H170.814H164.502Z" fill="#D0A6A6"/>
<path d="M100.18 334.271L112.493 336.202L105.816 383.428L92.8485 383.428L100.18 334.271Z" fill="#2E2E2E"/>
<path d="M117.297 334.33L129.61 336.261L122.933 383.487L109.966 383.487L117.297 334.33Z" fill="#2E2E2E"/>
<path d="M174.286 337.005L186.637 335.364L192.44 383.429L179.991 383.429L174.286 337.005Z" fill="#2E2E2E"/>
<path d="M156.65 337.011L169.001 335.37L174.804 383.435L162.356 383.435L156.65 337.011Z" fill="#2E2E2E"/>
<ellipse cx="144.5" cy="324.5" rx="51.5" ry="21.5" fill="#D0A6A6"/>
<path fill-rule="evenodd" clip-rule="evenodd" d="M286.149 203C289.933 203 293 199.933 293 196.149V196.149L291.647 193.042C291.177 191.961 290.499 190.984 289.653 190.165L281.128 181.919L271.878 172.885C270.196 171.244 267.939 170.324 265.589 170.324H63.2133C60.9422 170.324 58.7552 171.183 57.0906 172.728L48.3239 180.865L38 191.405V194C38 198.971 42.0294 203 47 203H286.149Z" fill="#97765A"/>
<path fill-rule="evenodd" clip-rule="evenodd" d="M225.895 188.914H47C42.0294 188.914 38 184.885 38 179.914V177.345L48.3239 166.828L57.0922 158.707C58.7559 157.166 60.8846 156.31 63.1522 156.31C80.7744 156.31 161.59 156.31 215.571 156.31C223.986 155.882 227.599 168.03 228.648 172.538C228.901 173.626 229.291 174.678 229.773 175.686C230.69 177.608 232.089 181.127 232.089 184.707C232.089 189.966 225.895 188.914 225.895 188.914Z" fill="#F8D68F"/>
<path fill-rule="evenodd" clip-rule="evenodd" d="M293 186.797V186.797C293 190.775 289.775 194 285.797 194H250.672C250.672 194 248.102 192.398 246.543 191.23C237.84 184.709 230.191 168.885 228.728 165.739C228.555 165.368 228.416 164.994 228.333 164.593C228.158 163.748 227.945 162.205 228.476 161.311C229.202 160.086 231.573 159.649 231.573 159.649C231.573 159.649 256.617 151.556 269.255 159.649C273.959 162.661 279.285 169.415 280.742 171.325C281.003 171.668 281.279 171.992 281.581 172.299L289.707 180.562C290.518 181.387 291.163 182.36 291.605 183.429L293 186.797Z" fill="#F8D68F"/>
<path fill-rule="evenodd" clip-rule="evenodd" d="M492 259V382H362V342.123H405.154V301.123H446.689V259H492Z" fill="#6C4040"/>
<ellipse cx="363.5" cy="207" rx="3.5" ry="4" fill="white"/>
<ellipse cx="389" cy="182.5" rx="3" ry="3.5" fill="white"/>
<ellipse cx="322" cy="264.5" rx="5" ry="2.5" fill="white"/>
<ellipse cx="318.5" cy="351.5" rx="3.5" ry="2.5" fill="white"/>
<circle cx="207.5" cy="321.5" r="2.5" fill="white"/>
<ellipse cx="236.5" cy="324.5" rx="2.5" ry="0.5" fill="white"/>
<ellipse cx="224.5" cy="347.5" rx="2.5" ry="3.5" fill="white"/>
<ellipse cx="168.5" cy="255.5" rx="3.5" ry="1.5" fill="white"/>
<circle cx="281.5" cy="321.5" r="2.5" fill="white"/>
<circle cx="283.5" cy="249.5" r="2.5" fill="white"/>
<circle cx="293.5" cy="106.5" r="2.5" fill="white"/>
<circle cx="326.5" cy="116.5" r="2.5" fill="white"/>
<circle cx="326.5" cy="70.5" r="2.5" fill="white"/>
<ellipse cx="225.5" cy="65.5" rx="1.5" ry="2.5" fill="white"/>
<circle cx="255.5" cy="55.5" r="2.5" fill="white"/>
<circle cx="248.5" cy="89.5" r="2.5" fill="white"/>
<circle cx="283.5" cy="70.5" r="2.5" fill="white"/>
<ellipse cx="260" cy="110.5" rx="2" ry="3.5" fill="white"/>
<ellipse cx="279" cy="135.5" rx="2" ry="2.5" fill="white"/>
<ellipse cx="182.5" cy="128.5" rx="3.5" ry="4.5" fill="white"/>
<ellipse cx="154" cy="139" rx="3" ry="4" fill="white"/>
<ellipse cx="154" cy="96.5" rx="3" ry="2.5" fill="white"/>
<circle cx="174.5" cy="55.5" r="2.5" fill="white"/>
<circle cx="124.5" cy="65.5" r="2.5" fill="white"/>
<ellipse cx="110.5" cy="111.5" rx="3.5" ry="2.5" fill="white"/>
<ellipse cx="122.5" cy="135.5" rx="3.5" ry="2.5" fill="white"/>
<circle cx="92.5" cy="135.5" r="2.5" fill="white"/>
<ellipse cx="62" cy="101.5" rx="3" ry="2.5" fill="white"/>
<circle cx="9.5" cy="172.5" r="2.5" fill="white"/>
<ellipse cx="13" cy="225.5" rx="1" ry="2.5" fill="white"/>
<circle cx="9.5" cy="285.5" r="2.5" fill="white"/>
<ellipse cx="13" cy="336.5" rx="1" ry="2.5" fill="white"/>
<circle cx="86.5" cy="347.5" r="3.5" fill="white"/>
<ellipse cx="30.5" cy="121" rx="2.5" ry="3" fill="white"/>
<ellipse cx="13" cy="60.5" rx="1" ry="2.5" fill="white"/>
<ellipse cx="54.5" cy="57" rx="2.5" ry="4" fill="white"/>
<ellipse cx="93" cy="79.5" rx="3" ry="2.5" fill="white"/>
<circle cx="224.5" cy="142.5" r="2.5" fill="white"/>
<ellipse cx="222" cy="106.5" rx="2" ry="2.5" fill="white"/>
<circle cx="186.5" cy="89.5" r="2.5" fill="white"/>
<ellipse cx="346" cy="45.5" rx="2" ry="2.5" fill="white"/>
<circle cx="403.5" cy="45.5" r="2.5" fill="white"/>
<ellipse cx="205.5" cy="241" rx="2.5" ry="3" fill="white"/>
<ellipse cx="392.5" cy="217" rx="1.5" ry="4" fill="white"/>
<ellipse cx="339.5" cy="167.5" rx="3.5" ry="2.5" fill="white"/>
<ellipse cx="326.5" cy="201" rx="2.5" ry="2" fill="white"/>
<ellipse cx="339.5" cy="244.5" rx="3.5" ry="2.5" fill="white"/>
<ellipse cx="359" cy="259.5" rx="3" ry="2.5" fill="white"/>
<circle cx="426" cy="178" r="3" fill="white"/>
<ellipse cx="468.5" cy="132" rx="1.5" ry="3" fill="white"/>
<ellipse cx="456" cy="94.5" rx="2" ry="2.5" fill="white"/>
<ellipse cx="475" cy="74.5" rx="2" ry="2.5" fill="white"/>
<circle cx="458.5" cy="50.5" r="2.5" fill="white"/>
<ellipse cx="369.5" cy="161" rx="2.5" ry="3" fill="white"/>
<ellipse cx="359" cy="321.5" rx="3" ry="2.5" fill="white"/>
<ellipse cx="403.5" cy="276" rx="2.5" ry="3" fill="white"/>
<ellipse cx="395.5" cy="317.5" rx="3.5" ry="2.5" fill="white"/>
<ellipse cx="438" cy="219.5" rx="1" ry="3.5" fill="white"/>
<ellipse cx="449" cy="240" rx="5" ry="2" fill="white"/>
<ellipse cx="483.5" cy="240" rx="3.5" ry="2" fill="#B58080"/>
<ellipse cx="483.5" cy="187.5" rx="3.5" ry="1.5" fill="#B58080"/>
<rect x="237" y="202" width="39" height="179" stroke="white" stroke-width="2"/>
<rect x="237" y="202" width="39" height="24" stroke="white" stroke-width="2"/>
<rect x="237" y="202" width="39" height="44" stroke="white" stroke-width="2"/>
<rect x="237" y="202" width="39" height="66" stroke="white" stroke-width="2"/>
<rect x="237" y="202" width="39" height="90" stroke="white" stroke-width="2"/>
<rect x="237" y="202" width="39" height="112" stroke="white" stroke-width="2"/>
<rect x="237" y="202" width="39" height="136" stroke="white" stroke-width="2"/>
<rect x="237" y="202" width="39" height="158" stroke="white" stroke-width="2"/>
<path d="M368 87.8969C369.274 86.5778 370.226 84.7395 371.375 83.2781C372.494 81.8569 374.201 80.233 375.046 78.6593C375.745 77.3556 378.665 80.5657 379.453 81.1698C381.26 82.5564 383.195 84.3013 384.583 86.1493C385.277 87.074 386.212 88.2954 387.155 88.9927C387.268 89.0768 387.463 88.41 387.543 88.2576C388.114 87.173 389.108 86.2622 389.941 85.4003C391.706 83.5727 393.595 81.7323 395.232 79.7828C395.779 79.1305 396.788 77.319 397.656 78.2709C400.221 81.0829 403.622 83.2458 406.336 85.8996C406.542 86.1015 408.033 87.3369 408.158 87.245C409.707 86.099 411.388 85.1541 412.899 83.9023C413.858 83.108 419.026 77.9291 419.838 78.7702C422.608 81.639 426.237 83.5377 429 86.3989" stroke="#F8D68F" stroke-width="4" stroke-linecap="round"/>
<path d="M368 104.163C369.136 104.042 370.556 101.702 371.313 100.973C372.121 100.195 372.823 99.3313 373.63 98.5544C373.853 98.3399 374.377 97.6161 374.713 97.6161C374.877 97.6161 375.201 98.0728 375.297 98.1582C376.404 99.1393 377.993 99.6527 379.26 100.41C380.997 101.448 382.561 102.773 384.176 103.975C384.871 104.493 385.366 105.18 386.081 105.664C386.42 105.894 386.926 106.769 387.381 106.769C387.445 106.769 388.234 105.764 388.377 105.654C389.276 104.961 390.132 104.215 391.008 103.496C392.915 101.93 395.248 100.352 396.843 98.4918C397.242 98.0277 397.572 97.4566 398.013 97.0323C398.242 96.8121 398.471 97.7813 398.641 98.0123C400.353 100.336 402.936 102.284 405.224 104.059C406.413 104.982 407.835 105.581 409.013 106.509C409.531 106.917 409.602 107.248 410.139 106.749C412.034 104.989 413.845 103.18 415.704 101.39C415.916 101.186 418.234 98.8384 418.476 99.0131C418.703 99.1768 418.816 99.4479 418.974 99.6699C419.526 100.443 420.494 101.091 421.215 101.713C423.583 103.753 426.394 105.118 429 106.79" stroke="#F8D68F" stroke-width="4" stroke-linecap="round"/>
<path d="M368 125.22C368.073 124.306 368.727 123.537 369.16 122.808C369.71 121.879 370.17 120.895 370.706 119.958C371.186 119.118 371.494 117.344 372.295 118.252C373.083 119.146 374.252 119.633 375.238 120.177C377.085 121.196 379.024 121.983 380.864 123.027C382.502 123.956 384.236 124.915 385.686 126.194C386.34 126.771 387.16 125.686 387.823 125.22C389.362 124.136 390.947 123.068 392.451 121.931C393.78 120.926 395.058 119.874 396.317 118.764C396.533 118.573 399.696 121.671 400.086 121.98C402.067 123.545 404.148 125.228 406.271 126.535C407.006 126.988 407.838 127.356 408.547 127.851C409.545 128.547 411.373 126.609 412.263 126.097C414.201 124.982 415.794 123.48 417.385 121.809C417.716 121.462 419.004 119.324 419.522 119.324C419.808 119.324 420.211 119.996 420.402 120.189C421.146 120.939 422.06 121.436 422.894 122.041C424.787 123.413 426.655 124.632 428.757 125.536C429.381 125.805 430.592 126.331 429.659 126.754" stroke="#F8D68F" stroke-width="4" stroke-linecap="round"/>
</g>
<defs>
<clipPath id="clip0_2342_341">
<rect width="489" height="382" fill="white"/>
</clipPath>
</defs>
</svg>
