<svg width="255" height="221" viewBox="0 0 255 221" fill="none" xmlns="http://www.w3.org/2000/svg">
<path fill-rule="evenodd" clip-rule="evenodd" d="M147.443 0.701172V133.427L25.252 156.699V25.2516L147.443 0.701172Z" fill="#9D825D"/>
<path fill-rule="evenodd" clip-rule="evenodd" d="M25.2515 25.0029V157.729L85.1943 181V49.5534L25.2515 25.0029Z" fill="#B4A28B"/>
<path d="M132.808 65.7299L224.667 86.2246L233.714 157.486L182.718 207.155L84.9695 177L132.808 65.7299Z" fill="#817272"/>
<path d="M132.808 65.7299L224.667 86.2246L233.714 157.486L182.718 207.155L84.9695 177L132.808 65.7299Z" fill="#817272"/>
<path fill-rule="evenodd" clip-rule="evenodd" d="M147.444 0.701172V133.427L208.155 156.699V25.2516L147.444 0.701172Z" fill="#B4A28B"/>
<path fill-rule="evenodd" clip-rule="evenodd" d="M208.923 25.0029V157.729L85.1943 181V49.5534L208.923 25.0029Z" fill="#CFBDA5"/>
<path fill-rule="evenodd" clip-rule="evenodd" d="M84.8997 49.6034L208.945 25.3373L236.589 56.3004L113.739 80.3328L84.8997 49.6034Z" fill="#F7F7F7"/>
<path fill-rule="evenodd" clip-rule="evenodd" d="M85.3459 49.6676L23.9744 24.6802L0.920581 53.7466L61.7008 78.4933L85.3459 49.6676Z" fill="#F7F7F7"/>
<path d="M92.0489 112.138C92.0489 118.052 91.6051 135.624 93.3923 129.852C93.5092 129.475 94.1153 128.779 94.3861 128.439C95.0637 127.588 95.3951 126.747 95.8584 125.823C96.4965 124.551 97.6207 123.434 98.2693 122.177C99.3969 119.992 100.676 117.853 101.84 115.705C102.62 114.264 103.938 109.774 103.938 111.319C103.938 114.255 103.279 117.469 104.232 120.46C104.533 121.404 104.306 122.531 104.306 123.498C104.306 124.459 104.637 125.317 104.637 126.272C104.637 126.656 104.371 127.821 104.803 128.069C105.108 128.244 104.968 130.043 104.968 129.258" stroke="#9D825D" stroke-width="3" stroke-linecap="round"/>
<path d="M188.049 94.1383C188.049 100.052 187.605 117.624 189.392 111.852C189.509 111.475 190.115 110.779 190.386 110.439C191.064 109.588 191.395 108.747 191.858 107.823C192.497 106.551 193.621 105.434 194.269 104.177C195.397 101.992 196.676 99.853 197.84 97.7048C198.62 96.2643 199.938 91.7737 199.938 93.3193C199.938 96.2546 199.279 99.4689 200.232 102.46C200.533 103.404 200.306 104.531 200.306 105.498C200.306 106.459 200.637 107.317 200.637 108.272C200.637 108.656 200.371 109.821 200.803 110.069C201.108 110.244 200.968 112.043 200.968 111.258" stroke="#9D825D" stroke-width="3" stroke-linecap="round"/>
<path d="M109.722 130.04C109.722 127.997 109.722 125.955 109.722 123.913C109.722 122.561 110.106 121.189 110.106 119.853C110.106 118.368 110.454 116.319 110.01 114.898C109.587 113.543 109.339 112.196 109.339 110.775C109.339 109.118 109.645 109.8 110.873 109.283C111.673 108.946 112.677 108.942 113.558 108.942C115.563 108.942 117.649 108.75 119.696 108.75" stroke="#9D825D" stroke-width="3" stroke-linecap="round"/>
<path d="M123.34 107.983C123.34 110.093 123.34 112.203 123.34 114.313C123.34 116.494 123.017 118.672 122.957 120.834C122.88 123.582 122.957 131.83 122.957 129.081" stroke="#9D825D" stroke-width="3" stroke-linecap="round"/>
<path d="M122.957 106.833C125.156 106.833 127.208 106.233 129.393 106.63C130.677 106.864 131.898 107.715 132.696 108.751C133.379 109.636 133.122 110.933 133.122 112C133.122 113.698 131.998 115.787 130.245 116.188C129.014 116.47 127.476 116.231 126.218 116.231C125.795 116.231 124.493 116.426 124.3 116.039" stroke="#9D825D" stroke-width="3" stroke-linecap="round"/>
<path d="M134.273 103.764C134.996 103.854 136.256 105.554 136.767 106.065C137.932 107.231 138.753 108.698 139.836 109.901C140.406 110.535 140.802 111.48 141.466 112.011C141.931 112.383 142.137 113.521 142.137 112.586" stroke="#9D825D" stroke-width="3" stroke-linecap="round"/>
<path d="M135.04 126.97C136.795 124.826 138.622 122.674 140.037 120.268C141.547 117.703 143.74 115.418 144.918 112.671C145.828 110.546 146.74 108.352 146.74 106.022C146.74 105.135 146.931 103.953 146.548 103.188" stroke="#9D825D" stroke-width="3" stroke-linecap="round"/>
<path d="M151 101.587C151 103.628 151.315 105.6 151.357 107.609C151.406 109.969 152.171 112.264 152.249 114.652C152.282 115.687 152.353 117.252 152.744 118.217C153.015 118.886 152.653 119 153.497 119C154.733 119 155.968 119 157.204 119C158.174 119 159.121 118.842 160.058 118.804C160.764 118.776 161.549 118.934 162.238 118.761C162.758 118.631 163.47 118.784 163.705 118.174C164.117 117.107 164.557 116.492 164.557 115.283C164.557 112.334 164.914 109.431 164.914 106.478C164.914 105.46 165.131 104.095 164.875 103.109C164.684 102.376 164.557 101.756 164.557 101" stroke="#9D825D" stroke-width="3" stroke-linecap="round"/>
<path d="M157 118C157 112.465 158 107.39 158 102" stroke="#9D825D" stroke-width="3" stroke-linecap="round"/>
<path d="M170.331 97.4336C170.331 100.646 170.199 103.889 170.342 107.098C170.432 109.126 170.715 111.133 170.715 113.161C170.715 114.505 170.906 118.533 170.906 117.189" stroke="#9D825D" stroke-width="3" stroke-linecap="round"/>
<path d="M171.481 107.024C171.584 106.101 173.122 104.761 173.602 103.944C174.54 102.35 175.823 100.975 176.841 99.4477C177.569 98.3555 178.194 97.242 178.194 95.8994" stroke="#9D825D" stroke-width="3" stroke-linecap="round"/>
<path d="M171.29 107.024C172.793 107.024 173.891 107.936 174.934 108.942C176.172 110.136 177.694 110.88 178.951 112.011C179.453 112.462 182.417 115.071 182.606 114.505" stroke="#9D825D" stroke-width="3" stroke-linecap="round"/>
</svg>
