<svg width="237" height="181" viewBox="0 0 237 181" fill="none" xmlns="http://www.w3.org/2000/svg">
<path fill-rule="evenodd" clip-rule="evenodd" d="M146.973 0.701172V133.427L24.7812 156.699V25.2516L146.973 0.701172Z" fill="#9D825D"/>
<path fill-rule="evenodd" clip-rule="evenodd" d="M24.7817 25.0029V157.729L84.7246 181V49.5534L24.7817 25.0029Z" fill="#B4A28B"/>
<path fill-rule="evenodd" clip-rule="evenodd" d="M146.974 0.701172V133.427L207.686 156.699V25.2516L146.974 0.701172Z" fill="#B4A28B"/>
<path fill-rule="evenodd" clip-rule="evenodd" d="M208.453 25.0029V157.729L84.7246 181V49.5534L208.453 25.0029Z" fill="#CFBDA5"/>
<path fill-rule="evenodd" clip-rule="evenodd" d="M84.43 49.6034L208.475 25.3373L236.119 56.3004L113.269 80.3328L84.43 49.6034Z" fill="#F7F7F7"/>
<path fill-rule="evenodd" clip-rule="evenodd" d="M84.8761 49.6681L23.5047 24.6807L0.450854 53.7471L61.2311 78.4938L84.8761 49.6681Z" fill="#F7F7F7"/>
<path d="M90.0489 105.138C90.0489 111.052 89.6051 128.624 91.3923 122.852C91.5092 122.475 92.1153 121.779 92.3861 121.439C93.0637 120.588 93.3951 119.747 93.8584 118.823C94.4965 117.551 95.6207 116.434 96.2693 115.177C97.3969 112.992 98.6757 110.853 99.8396 108.705C100.62 107.264 101.938 102.774 101.938 104.319C101.938 107.255 101.279 110.469 102.232 113.46C102.533 114.404 102.306 115.531 102.306 116.498C102.306 117.459 102.637 118.317 102.637 119.272C102.637 119.656 102.371 120.821 102.803 121.069C103.108 121.244 102.968 123.043 102.968 122.258" stroke="#9D825D" stroke-width="3" stroke-linecap="round"/>
<path d="M186.049 87.1383C186.049 93.0516 185.605 110.624 187.392 104.852C187.509 104.475 188.115 103.779 188.386 103.439C189.064 102.588 189.395 101.747 189.858 100.823C190.497 99.5509 191.621 98.4343 192.269 97.1774C193.397 94.9921 194.676 92.853 195.84 90.7048C196.62 89.2643 197.938 84.7737 197.938 86.3193C197.938 89.2546 197.279 92.4689 198.232 95.4602C198.533 96.4037 198.306 97.5311 198.306 98.4983C198.306 99.4587 198.637 100.317 198.637 101.272C198.637 101.656 198.371 102.821 198.803 103.069C199.108 103.244 198.968 105.043 198.968 104.258" stroke="#9D825D" stroke-width="3" stroke-linecap="round"/>
<path d="M107.722 123.04C107.722 120.997 107.722 118.955 107.722 116.913C107.722 115.561 108.106 114.189 108.106 112.853C108.106 111.368 108.454 109.319 108.01 107.898C107.587 106.543 107.339 105.196 107.339 103.775C107.339 102.118 107.645 102.8 108.873 102.283C109.673 101.946 110.677 101.942 111.558 101.942C113.563 101.942 115.649 101.75 117.696 101.75" stroke="#9D825D" stroke-width="3" stroke-linecap="round"/>
<path d="M121.34 100.983C121.34 103.093 121.34 105.203 121.34 107.313C121.34 109.494 121.017 111.672 120.957 113.834C120.88 116.582 120.957 124.83 120.957 122.081" stroke="#9D825D" stroke-width="3" stroke-linecap="round"/>
<path d="M120.957 99.8326C123.156 99.8326 125.208 99.2328 127.393 99.6301C128.677 99.8635 129.898 100.715 130.696 101.751C131.379 102.636 131.122 103.933 131.122 105C131.122 106.698 129.998 108.787 128.245 109.188C127.014 109.47 125.476 109.231 124.218 109.231C123.795 109.231 122.493 109.426 122.3 109.039" stroke="#9D825D" stroke-width="3" stroke-linecap="round"/>
<path d="M132.273 96.7637C132.996 96.854 134.256 98.5545 134.767 99.0652C135.932 100.231 136.753 101.698 137.836 102.901C138.406 103.535 138.802 104.48 139.466 105.011C139.931 105.383 140.137 106.521 140.137 105.586" stroke="#9D825D" stroke-width="3" stroke-linecap="round"/>
<path d="M133.04 119.97C134.795 117.826 136.622 115.674 138.037 113.268C139.547 110.703 141.74 108.418 142.918 105.671C143.828 103.546 144.74 101.352 144.74 99.0219C144.74 98.135 144.931 96.9532 144.548 96.1875" stroke="#9D825D" stroke-width="3" stroke-linecap="round"/>
<path d="M149 94.587C149 96.6278 149.315 98.6 149.357 100.609C149.406 102.969 150.171 105.264 150.249 107.652C150.282 108.687 150.353 110.252 150.744 111.217C151.015 111.886 150.653 112 151.497 112C152.733 112 153.968 112 155.204 112C156.174 112 157.121 111.842 158.058 111.804C158.764 111.776 159.549 111.934 160.238 111.761C160.758 111.631 161.47 111.784 161.705 111.174C162.117 110.107 162.557 109.492 162.557 108.283C162.557 105.334 162.914 102.431 162.914 99.4783C162.914 98.4598 163.131 97.0947 162.875 96.1087C162.684 95.3759 162.557 94.7562 162.557 94" stroke="#9D825D" stroke-width="3" stroke-linecap="round"/>
<path d="M155 111C155 105.465 156 100.39 156 95" stroke="#9D825D" stroke-width="3" stroke-linecap="round"/>
<path d="M168.331 90.4336C168.331 93.6463 168.199 96.8888 168.342 100.098C168.432 102.126 168.715 104.133 168.715 106.161C168.715 107.505 168.906 111.533 168.906 110.189" stroke="#9D825D" stroke-width="3" stroke-linecap="round"/>
<path d="M169.481 100.024C169.584 99.1011 171.122 97.7607 171.602 96.9443C172.54 95.3495 173.823 93.9746 174.841 92.4477C175.569 91.3555 176.194 90.242 176.194 88.8994" stroke="#9D825D" stroke-width="3" stroke-linecap="round"/>
<path d="M169.29 100.024C170.793 100.024 171.891 100.936 172.934 101.942C174.172 103.136 175.694 103.88 176.951 105.011C177.453 105.462 180.417 108.071 180.606 107.505" stroke="#9D825D" stroke-width="3" stroke-linecap="round"/>
<path d="M130.849 150.663C129.265 150.663 126.439 149.415 125.043 148.556C124.637 148.306 120.314 145.606 122.631 145.606C127.038 145.606 130.994 142.766 135.157 141.485C138.22 140.543 143.339 138.789 146.63 139.729C147.533 139.987 145.282 143.565 144.968 144.131C144.34 145.259 143.492 149.004 143.492 147.713" stroke="#9D825D" stroke-width="3" stroke-linecap="round"/>
<path d="M129.164 143.92C129.164 141.206 128.768 138.208 129.491 135.585C129.738 134.69 130.151 129.301 131.271 129.17C133.21 128.941 138.857 137.456 138.857 139.284" stroke="#9D825D" stroke-width="3" stroke-linecap="round"/>
<path d="M152.343 140.969C152.343 142.837 154.874 143.922 156.042 144.856C157.815 146.274 160.38 142.264 161.1 140.969C163.284 137.038 163.91 131.488 160.959 127.694C159.849 126.266 158.008 124.39 155.949 124.978C154.63 125.355 153.186 128.547 153.186 129.801C153.186 131.678 151.079 133.381 151.079 135.28C151.079 136.995 150.537 139.946 151.5 141.391" stroke="#9D825D" stroke-width="3" stroke-linecap="round"/>
<path d="M169.622 144.762C169.622 137.473 171.308 130.487 171.308 123.175C171.308 120.871 172.14 124.587 172.572 125.282C173.663 127.039 174.554 128.942 175.733 130.644C176.069 131.129 177.54 133.336 178.262 133.336C178.587 133.336 178.468 132.339 178.566 132.119C178.892 131.386 179.375 130.668 179.643 129.918C180.067 128.73 180.58 127.474 180.58 126.219C180.58 125.099 181.422 124.156 181.422 123.058C181.422 120.586 182.251 124.133 182.499 124.744C183.753 127.821 185.874 130.506 187.838 133.149C188.674 134.275 189.438 135.629 190.366 136.661C191.035 137.405 190.984 138.673 191.748 139.284C192.481 139.87 193.106 144.927 193.644 142.234" stroke="#9D825D" stroke-width="3" stroke-linecap="round"/>
<path d="M109.785 135.33C118.691 135.33 127.603 135.23 136.508 135.33C146.084 135.437 156.208 137.112 165.785 137.954C176.256 138.874 186.918 140.301 197.411 140.301" stroke="#866143" stroke-width="2" stroke-linecap="round"/>
<path d="M110.406 164.538C114.023 164.136 119.18 159.71 122.214 157.84C130.85 152.517 139.05 146.393 147.107 140.232C155.208 134.037 163.954 128.905 172.207 122.935C177.421 119.163 183.031 115.796 188.71 112.957" stroke="#866143" stroke-width="2" stroke-linecap="round"/>
</svg>
