<svg width="237" height="181" viewBox="0 0 237 181" fill="none" xmlns="http://www.w3.org/2000/svg">
<path fill-rule="evenodd" clip-rule="evenodd" d="M146.973 0.701172V133.427L24.7815 156.699V25.2516L146.973 0.701172Z" fill="#9D825D"/>
<path fill-rule="evenodd" clip-rule="evenodd" d="M24.782 25.0029V157.729L84.7249 181V49.5534L24.782 25.0029Z" fill="#B4A28B"/>
<path fill-rule="evenodd" clip-rule="evenodd" d="M146.974 0.701172V133.427L207.685 156.699V25.2516L146.974 0.701172Z" fill="#B4A28B"/>
<path fill-rule="evenodd" clip-rule="evenodd" d="M208.453 25.0029V157.729L84.7249 181V49.5534L208.453 25.0029Z" fill="#CFBDA5"/>
<path fill-rule="evenodd" clip-rule="evenodd" d="M84.43 49.6034L208.475 25.3373L236.119 56.3004L113.269 80.3328L84.43 49.6034Z" fill="#F7F7F7"/>
<path fill-rule="evenodd" clip-rule="evenodd" d="M84.8761 49.6676L23.5047 24.6802L0.450854 53.7466L61.2311 78.4933L84.8761 49.6676Z" fill="#F7F7F7"/>
<path d="M90.0489 105.138C90.0489 111.052 89.6051 128.624 91.3923 122.852C91.5092 122.475 92.1153 121.779 92.3861 121.439C93.0637 120.588 93.3951 119.747 93.8584 118.823C94.4965 117.551 95.6207 116.434 96.2693 115.177C97.3969 112.992 98.6757 110.853 99.8396 108.705C100.62 107.264 101.938 102.774 101.938 104.319C101.938 107.255 101.279 110.469 102.232 113.46C102.533 114.404 102.306 115.531 102.306 116.498C102.306 117.459 102.637 118.317 102.637 119.272C102.637 119.656 102.371 120.821 102.803 121.069C103.108 121.244 102.968 123.043 102.968 122.258" stroke="#9D825D" stroke-width="3" stroke-linecap="round"/>
<path d="M186.049 87.1383C186.049 93.0516 185.605 110.624 187.392 104.852C187.509 104.475 188.115 103.779 188.386 103.439C189.064 102.588 189.395 101.747 189.858 100.823C190.497 99.5509 191.621 98.4343 192.269 97.1774C193.397 94.9921 194.676 92.853 195.84 90.7048C196.62 89.2643 197.938 84.7737 197.938 86.3193C197.938 89.2546 197.279 92.4689 198.232 95.4602C198.533 96.4037 198.306 97.5311 198.306 98.4983C198.306 99.4587 198.637 100.317 198.637 101.272C198.637 101.656 198.371 102.821 198.803 103.069C199.108 103.244 198.968 105.043 198.968 104.258" stroke="#9D825D" stroke-width="3" stroke-linecap="round"/>
<path d="M107.723 123.04C107.723 120.997 107.723 118.955 107.723 116.913C107.723 115.561 108.107 114.189 108.107 112.853C108.107 111.368 108.455 109.319 108.011 107.898C107.587 106.543 107.339 105.196 107.339 103.775C107.339 102.118 107.646 102.8 108.874 102.283C109.674 101.946 110.677 101.942 111.559 101.942C113.563 101.942 115.65 101.75 117.696 101.75" stroke="#9D825D" stroke-width="3" stroke-linecap="round"/>
<path d="M121.34 100.983C121.34 103.093 121.34 105.203 121.34 107.313C121.34 109.494 121.017 111.672 120.957 113.834C120.88 116.582 120.957 124.83 120.957 122.081" stroke="#9D825D" stroke-width="3" stroke-linecap="round"/>
<path d="M120.957 99.8326C123.156 99.8326 125.208 99.2328 127.393 99.6301C128.677 99.8635 129.898 100.715 130.696 101.751C131.379 102.636 131.122 103.933 131.122 105C131.122 106.698 129.998 108.787 128.245 109.188C127.014 109.47 125.476 109.231 124.218 109.231C123.795 109.231 122.493 109.426 122.3 109.039" stroke="#9D825D" stroke-width="3" stroke-linecap="round"/>
<path d="M132.273 96.7637C132.996 96.854 134.256 98.5545 134.766 99.0652C135.932 100.231 136.752 101.698 137.835 102.901C138.406 103.535 138.801 104.48 139.465 105.011C139.93 105.383 140.137 106.521 140.137 105.586" stroke="#9D825D" stroke-width="3" stroke-linecap="round"/>
<path d="M133.04 119.97C134.795 117.826 136.622 115.674 138.037 113.268C139.547 110.703 141.74 108.418 142.918 105.671C143.828 103.546 144.74 101.352 144.74 99.0219C144.74 98.135 144.931 96.9532 144.548 96.1875" stroke="#9D825D" stroke-width="3" stroke-linecap="round"/>
<path d="M149 94.587C149 96.6278 149.315 98.6 149.357 100.609C149.406 102.969 150.171 105.264 150.249 107.652C150.282 108.687 150.353 110.252 150.744 111.217C151.015 111.886 150.653 112 151.497 112C152.733 112 153.968 112 155.204 112C156.174 112 157.121 111.842 158.058 111.804C158.764 111.776 159.549 111.934 160.238 111.761C160.758 111.631 161.47 111.784 161.705 111.174C162.117 110.107 162.557 109.492 162.557 108.283C162.557 105.334 162.914 102.431 162.914 99.4783C162.914 98.4598 163.131 97.0947 162.875 96.1087C162.684 95.3759 162.557 94.7562 162.557 94" stroke="#9D825D" stroke-width="3" stroke-linecap="round"/>
<path d="M155 111C155 105.465 156 100.39 156 95" stroke="#9D825D" stroke-width="3" stroke-linecap="round"/>
<path d="M168.331 90.4336C168.331 93.6463 168.199 96.8888 168.342 100.098C168.432 102.126 168.715 104.133 168.715 106.161C168.715 107.505 168.906 111.533 168.906 110.189" stroke="#9D825D" stroke-width="3" stroke-linecap="round"/>
<path d="M169.482 100.024C169.584 99.1011 171.122 97.7607 171.602 96.9443C172.54 95.3495 173.824 93.9746 174.842 92.4477C175.57 91.3555 176.195 90.242 176.195 88.8994" stroke="#9D825D" stroke-width="3" stroke-linecap="round"/>
<path d="M169.29 100.024C170.793 100.024 171.891 100.936 172.934 101.942C174.172 103.136 175.694 103.88 176.951 105.011C177.453 105.462 180.417 108.071 180.606 107.505" stroke="#9D825D" stroke-width="3" stroke-linecap="round"/>
</svg>
