<svg width="242" height="181" viewBox="0 0 242 181" fill="none" xmlns="http://www.w3.org/2000/svg">
<path fill-rule="evenodd" clip-rule="evenodd" d="M120.871 0.611328V133.365L216.188 156.641V25.1669L120.871 0.611328Z" fill="#9D825D"/>
<path fill-rule="evenodd" clip-rule="evenodd" d="M216.188 24.9697V157.723L120.871 181V49.5253L216.188 24.9697Z" fill="#B7986E"/>
<path fill-rule="evenodd" clip-rule="evenodd" d="M120.871 0.611328V133.365L25.5538 156.641V25.1669L120.871 0.611328Z" fill="#B7986E"/>
<path fill-rule="evenodd" clip-rule="evenodd" d="M25.5537 24.9697V157.723L120.871 181V49.5253L25.5537 24.9697Z" fill="#CFBDA5"/>
<path fill-rule="evenodd" clip-rule="evenodd" d="M120.972 49.4573L25.3231 25.1248L0.19724 55.6433L94.925 79.7414L120.972 49.4573Z" fill="#F7F7F7"/>
<path fill-rule="evenodd" clip-rule="evenodd" d="M120.883 50.021L216.086 24.8586L241.439 55.1522L147.154 80.0722L120.883 50.021Z" fill="#E3DACD"/>
<path d="M46.7331 100.492C46.7331 96.5096 42.5567 96.6185 40.1929 98.457C38.3961 99.8545 38.1292 102.988 37.5768 104.976C36.857 107.568 37.39 110.884 37.39 113.572C37.39 116.026 36.262 121.421 39.8192 121.421C42.0933 121.421 45.2353 120.679 46.3594 118.431" stroke="#9D825D" stroke-width="3" stroke-linecap="round"/>
<path d="M53.4602 122.915C53.4602 119.791 53.6194 117.442 54.7683 114.506C55.9129 111.581 56.9611 108.778 58.6924 106.181C59.9345 104.317 61.9558 98.3881 65.2119 101.052C71.2595 106 71.3991 131.477 71.3991 123.663" stroke="#9D825D" stroke-width="3" stroke-linecap="round"/>
<path d="M55.7026 113.572H69.1568" stroke="#9D825D" stroke-width="3" stroke-linecap="round"/>
<path d="M80.7424 126.278C79.6771 125.08 78.1237 124.03 77.4619 122.541C76.3877 120.124 78.5154 119.884 79.9949 119.261C81.8497 118.48 85.3742 119.178 87.3864 119.178C89.6011 119.178 91.8158 119.178 94.0305 119.178C96.6327 119.178 103.166 119.739 103.166 123.102C103.166 126.328 98.9825 127.623 96.4389 128.895" stroke="#9D825D" stroke-width="3" stroke-linecap="round"/>
<path d="M85.2271 118.431C85.2271 115.359 85.0744 112.302 85.6009 109.274C85.8701 107.726 86.7093 106.046 87.1788 104.52C88.0103 101.818 89.8119 100.218 92.1411 102.547C96.1942 106.6 97.1864 111.732 97.1864 117.31" stroke="#9D825D" stroke-width="3" stroke-linecap="round"/>
</svg>
