<svg width="213" height="150" viewBox="0 0 213 150" fill="none" xmlns="http://www.w3.org/2000/svg">
<path fill-rule="evenodd" clip-rule="evenodd" d="M80.3766 0.379883V110.521L190.183 129.833V20.7528L80.3766 0.379883Z" fill="#866143"/>
<path fill-rule="evenodd" clip-rule="evenodd" d="M190.183 20.5479V130.689L136.315 150.001V40.9208L190.183 20.5479Z" fill="#B88860"/>
<path fill-rule="evenodd" clip-rule="evenodd" d="M80.3767 0.379883V110.521L25.8186 129.833V20.7528L80.3767 0.379883Z" fill="#B88860"/>
<path fill-rule="evenodd" clip-rule="evenodd" d="M25.1274 20.5479V130.689L136.315 150.001V40.9208L25.1274 20.5479Z" fill="#D3BEAC"/>
<path fill-rule="evenodd" clip-rule="evenodd" d="M136.581 40.9624L25.1081 20.8254L0.265987 46.5198L110.665 66.4627L136.581 40.9624Z" fill="#F7F7F7"/>
<path fill-rule="evenodd" clip-rule="evenodd" d="M136.181 41.0153L191.332 20.2798L212.049 44.4003L157.429 64.936L136.181 41.0153Z" fill="#F5EBE3"/>
<path d="M29.445 69.2526C29.0073 75.7425 27.2639 94.9989 29.4743 88.7838C29.6188 88.3775 30.2751 87.6546 30.5704 87.2995C31.3094 86.4111 31.7024 85.5107 32.233 84.5281C32.9638 83.1748 34.1681 82.025 34.9082 80.6891C36.1951 78.3666 37.6293 76.105 38.9495 73.8256C39.8349 72.2972 41.4818 67.4574 41.3674 69.1537C41.1501 72.3752 40.2556 75.8586 40.9846 79.2057C41.2146 80.2614 40.9048 81.4835 40.8332 82.545C40.7621 83.599 41.029 84.5638 40.9584 85.6117C40.93 86.033 40.5788 87.2938 40.9907 87.5945C41.2821 87.8072 41.0098 89.7724 41.0679 88.9104" stroke="#9D825D" stroke-width="3" stroke-linecap="round"/>
<path d="M46 70C46 73.9089 46.2417 77.6099 46.5093 81.4413C46.7267 84.5546 47 87.9594 47 91" stroke="#9D825D" stroke-width="3" stroke-linecap="round"/>
<path d="M46.5837 80.1279C46.6573 80.7167 51.447 80.3889 52.3255 80.3889" stroke="#9D825D" stroke-width="3" stroke-linecap="round"/>
<path d="M53.1006 68.9092C52.9121 70.8817 52.8142 72.8121 52.7844 74.7807C52.7495 77.0801 53.5627 79.4291 53.5014 81.6997C53.4079 85.1642 54.2227 88.7093 53.8997 92.0902" stroke="#9D825D" stroke-width="3" stroke-linecap="round"/>
<path d="M65.0001 72C64.1911 71.217 62.0721 71 61.5001 71C60.5001 71 59.4023 72.1957 59.0001 73C58.1004 74.7995 58.1499 77.1764 58.5001 79C58.5001 81.2634 58.5693 83.3459 59.0001 85.5C59.3852 87.4253 59.8942 90.4567 62.0001 91.6266C62.8821 92.1166 63.4602 92.2695 64.5001 92.5005C65.2354 92.6639 67.0001 92 67.5001 91.0005" stroke="#9D825D" stroke-width="3" stroke-linecap="round"/>
<path d="M75.261 73C75.261 77.7415 75.522 82.4101 75.522 87.1514C75.522 89.7509 75 92.1374 75 94.6622" stroke="#9D825D" stroke-width="3" stroke-linecap="round"/>
<path d="M69 71C72.9641 71 76.802 73.0879 80.7445 73.0879" stroke="#9D825D" stroke-width="3" stroke-linecap="round"/>
<path d="M85.5659 73C85.5659 77.2799 86.1755 82.1321 85.247 86.3105C84.8722 87.9968 84.522 90.1945 84.522 91.9218C84.522 92.5626 84.2836 93.0892 84.261 93.6762C84.2414 94.1863 84.5153 95.1741 84 94.4012" stroke="#9D825D" stroke-width="3" stroke-linecap="round"/>
<path d="M86 73C90.6824 73 96 73.5324 96 78.2362C96 80.0349 96 82.0032 93.5035 82.8411C92.4679 82.8721 86.5869 83.3719 86 82.4221" stroke="#9D825D" stroke-width="3" stroke-linecap="round"/>
<path d="M99 96C99.3118 94.6962 102.228 92.665 103.349 91.8465C105.362 90.3761 106.354 88.1478 107.697 86.2056C108.744 84.692 109.441 82.9618 109.856 81.2242C110.152 79.9859 111 76.309 111 75" stroke="#9D825D" stroke-width="3" stroke-linecap="round"/>
<path d="M114.18 84.8262C116.461 84.8262 118.742 84.8262 121.024 84.8262C121.691 84.8262 124.5 85.0873 125.142 85.0872" stroke="#9D825D" stroke-width="3" stroke-linecap="round"/>
<path d="M46 119.179C46 113.186 46 107.193 46 101.199C46 100.229 47.2767 103.106 47.5746 103.347C48.5123 104.106 49.2596 105.134 49.9366 106.141C50.5864 107.108 51.665 107.568 52.2402 108.635C52.4712 109.063 52.7354 109.375 53.0859 109.716C53.6462 110.261 53.495 109.657 53.7566 109.311C54.4918 108.337 55.1371 107.114 55.8415 106.066C56.6108 104.921 57.4704 103.861 58.2035 102.686C58.7376 101.83 59.6469 100.001 59.6469 101.92C59.6469 103.985 59.952 106.345 60.3759 108.364C60.9124 110.921 60.5574 113.748 60.9445 116.34C61.0602 117.115 60.9591 117.988 60.9591 118.774C60.9591 119.083 60.9445 122.721 60.9591 119.99" stroke="#9D825D" stroke-width="3" stroke-linecap="round"/>
<path d="M65 103C65 108.748 65.8108 114.393 65.8108 120.146C65.8108 121.054 65.7772 121.182 66.8919 121.182C67.6472 121.182 68.9012 121.441 69.5946 121.687C71.2789 122.283 73.276 122.517 75 123" stroke="#9D825D" stroke-width="3" stroke-linecap="round"/>
<path d="M64.592 102.052C66.7992 102.052 68.3227 102.348 70.3918 103.038C71.6578 103.46 74.1834 104.27 74.7706 105.445" stroke="#9D825D" stroke-width="3" stroke-linecap="round"/>
<path d="M65.375 112.23C66.071 112.23 66.7669 112.23 67.4629 112.23C68.4388 112.23 69.1112 112.634 70.0438 112.738C71.0275 112.847 71.6204 113.529 72.4217 113.796" stroke="#9D825D" stroke-width="3" stroke-linecap="round"/>
<path d="M79 104C79 110.686 79 117.296 79 124" stroke="#9D825D" stroke-width="3" stroke-linecap="round"/>
<path d="M79 116.011C81.1295 116.011 84.1494 115.823 86 117" stroke="#9D825D" stroke-width="3" stroke-linecap="round"/>
<path d="M86.4732 126C86.4732 121.722 87.6426 117.315 86.4968 113.086C85.7832 110.452 86.0481 107.698 86.0481 105" stroke="#9D825D" stroke-width="3" stroke-linecap="round"/>
<path d="M95 107C95 111.696 95 116.392 95 121.088C95 121.86 95 125.604 95 127" stroke="#9D825D" stroke-width="3" stroke-linecap="round"/>
<path d="M90.1689 106.488C92.4309 106.488 94.6928 106.488 96.9547 106.488C97.9406 106.488 98.7605 106.556 99.6951 106.764C100.709 106.989 101.37 107.532 102.435 107.532" stroke="#9D825D" stroke-width="3" stroke-linecap="round"/>
<path d="M107.31 107C107.31 110.73 107.31 114.459 107.31 118.189C107.31 119.707 107.089 121.243 107.089 122.799C107.089 123.604 106.828 125.058 107.2 125.765C108.619 128.466 111.242 126.18 111.891 124.198C112.266 123.051 111.625 122.096 110.727 121.569C109.888 121.076 107.684 120.787 107.418 119.942" stroke="#9D825D" stroke-width="3" stroke-linecap="round"/>
<path d="M118 108C118 114.727 119 121.294 119 128" stroke="#9D825D" stroke-width="3" stroke-linecap="round"/>
<path d="M101.626 74.5137C101.626 75.8246 101.677 76.9849 102.014 78.2631C102.414 79.7791 103.122 81.237 103.889 82.5943C104.568 83.7958 105.416 84.9376 106.022 86.1497" stroke="#9D825D" stroke-width="3" stroke-linecap="round"/>
</svg>
