<svg width="213" height="150" viewBox="0 0 213 150" fill="none" xmlns="http://www.w3.org/2000/svg">
<path fill-rule="evenodd" clip-rule="evenodd" d="M80.846 0.379883V110.521L190.653 129.833V20.7528L80.846 0.379883Z" fill="#866143"/>
<path fill-rule="evenodd" clip-rule="evenodd" d="M190.652 20.5479V130.689L136.785 150.001V40.9208L190.652 20.5479Z" fill="#B88860"/>
<path fill-rule="evenodd" clip-rule="evenodd" d="M80.8462 0.379883V110.521L26.2881 129.833V20.7528L80.8462 0.379883Z" fill="#B88860"/>
<path fill-rule="evenodd" clip-rule="evenodd" d="M25.5966 20.5479V130.689L136.785 150.001V40.9208L25.5966 20.5479Z" fill="#D3BEAC"/>
<path fill-rule="evenodd" clip-rule="evenodd" d="M137.05 40.9624L25.5774 20.8254L0.735222 46.5198L111.134 66.4627L137.05 40.9624Z" fill="#F7F7F7"/>
<path fill-rule="evenodd" clip-rule="evenodd" d="M136.65 41.0153L191.801 20.2798L212.519 44.4003L157.899 64.936L136.65 41.0153Z" fill="#F5EBE3"/>
<path d="M29.9147 69.2526C29.477 75.7425 27.7336 94.9989 29.944 88.7838C30.0885 88.3775 30.7448 87.6546 31.0402 87.2995C31.7792 86.4111 32.1721 85.5107 32.7027 84.5281C33.4335 83.1748 34.6378 82.025 35.378 80.6891C36.6648 78.3666 38.099 76.105 39.4192 73.8256C40.3046 72.2972 41.9515 67.4574 41.8371 69.1537C41.6198 72.3752 40.7253 75.8586 41.4543 79.2057C41.6843 80.2614 41.3745 81.4835 41.3029 82.545C41.2318 83.599 41.4988 84.5638 41.4281 85.6117C41.3997 86.033 41.0486 87.2938 41.4604 87.5945C41.7518 87.8072 41.4795 89.7724 41.5377 88.9104" stroke="#9D825D" stroke-width="3" stroke-linecap="round"/>
<path d="M46.4697 70C46.4697 73.9089 46.7114 77.6099 46.979 81.4413C47.1964 84.5546 47.4697 87.9594 47.4697 91" stroke="#9D825D" stroke-width="3" stroke-linecap="round"/>
<path d="M47.0537 80.1279C47.1273 80.7167 51.917 80.3889 52.7955 80.3889" stroke="#9D825D" stroke-width="3" stroke-linecap="round"/>
<path d="M53.5703 68.9092C53.3819 70.8817 53.2839 72.8121 53.2541 74.7807C53.2193 77.0801 54.0324 79.4291 53.9711 81.6997C53.8777 85.1642 54.6924 88.7093 54.3694 92.0902" stroke="#9D825D" stroke-width="3" stroke-linecap="round"/>
<path d="M65.4698 72C64.6608 71.217 62.5418 71 61.9698 71C60.9698 71 59.872 72.1957 59.4698 73C58.5701 74.7995 58.6196 77.1764 58.9698 79C58.9698 81.2634 59.039 83.3459 59.4698 85.5C59.8549 87.4253 60.3639 90.4567 62.4698 91.6266C63.3518 92.1166 63.93 92.2695 64.9698 92.5005C65.7052 92.6639 67.4698 92 67.9698 91.0005" stroke="#9D825D" stroke-width="3" stroke-linecap="round"/>
<path d="M75.7307 73C75.7307 77.7415 75.9917 82.4101 75.9917 87.1514C75.9917 89.7509 75.4697 92.1374 75.4697 94.6622" stroke="#9D825D" stroke-width="3" stroke-linecap="round"/>
<path d="M69.4697 71C73.4339 71 77.2718 73.0879 81.2143 73.0879" stroke="#9D825D" stroke-width="3" stroke-linecap="round"/>
<path d="M86.0357 73C86.0357 77.2799 86.6452 82.1321 85.7167 86.3105C85.3419 87.9968 84.9917 90.1945 84.9917 91.9218C84.9917 92.5626 84.7533 93.0892 84.7307 93.6762C84.7111 94.1863 84.985 95.1741 84.4697 94.4012" stroke="#9D825D" stroke-width="3" stroke-linecap="round"/>
<path d="M86.4697 73C91.1521 73 96.4697 73.5324 96.4697 78.2362C96.4697 80.0349 96.4697 82.0032 93.9732 82.8411C92.9377 82.8721 87.0567 83.3719 86.4697 82.4221" stroke="#9D825D" stroke-width="3" stroke-linecap="round"/>
<path d="M99.4697 96C99.7815 94.6962 102.697 92.665 103.818 91.8465C105.832 90.3761 106.823 88.1478 108.167 86.2056C109.214 84.692 109.911 82.9618 110.326 81.2242C110.622 79.9859 111.47 76.309 111.47 75" stroke="#9D825D" stroke-width="3" stroke-linecap="round"/>
<path d="M114.649 84.8262C116.931 84.8262 119.212 84.8262 121.493 84.8262C122.161 84.8262 124.969 85.0873 125.611 85.0872" stroke="#9D825D" stroke-width="3" stroke-linecap="round"/>
<path d="M46.4697 119.179C46.4697 113.186 46.4697 107.193 46.4697 101.199C46.4697 100.229 47.7465 103.106 48.0444 103.347C48.9821 104.106 49.7293 105.134 50.4063 106.141C51.0561 107.108 52.1347 107.568 52.71 108.635C52.9409 109.063 53.2051 109.375 53.5556 109.716C54.1159 110.261 53.9647 109.657 54.2263 109.311C54.9615 108.337 55.6068 107.114 56.3112 106.066C57.0805 104.921 57.9401 103.861 58.6732 102.686C59.2073 101.83 60.1166 100.001 60.1166 101.92C60.1166 103.985 60.4218 106.345 60.8456 108.364C61.3821 110.921 61.0272 113.748 61.4142 116.34C61.5299 117.115 61.4288 117.988 61.4288 118.774C61.4288 119.083 61.4142 122.721 61.4288 119.99" stroke="#9D825D" stroke-width="3" stroke-linecap="round"/>
<path d="M65.4697 103C65.4697 108.748 66.2805 114.393 66.2805 120.146C66.2805 121.054 66.2469 121.182 67.3616 121.182C68.1169 121.182 69.371 121.441 70.0643 121.687C71.7487 122.283 73.7457 122.517 75.4697 123" stroke="#9D825D" stroke-width="3" stroke-linecap="round"/>
<path d="M65.0615 102.052C67.2687 102.052 68.7922 102.348 70.8613 103.038C72.1273 103.46 74.6529 104.27 75.2401 105.445" stroke="#9D825D" stroke-width="3" stroke-linecap="round"/>
<path d="M65.8447 112.23C66.5407 112.23 67.2367 112.23 67.9326 112.23C68.9085 112.23 69.581 112.634 70.5135 112.738C71.4973 112.847 72.0901 113.529 72.8915 113.796" stroke="#9D825D" stroke-width="3" stroke-linecap="round"/>
<path d="M79.4697 104C79.4697 110.686 79.4697 117.296 79.4697 124" stroke="#9D825D" stroke-width="3" stroke-linecap="round"/>
<path d="M79.4697 116.011C81.5992 116.011 84.6191 115.823 86.4697 117" stroke="#9D825D" stroke-width="3" stroke-linecap="round"/>
<path d="M86.9429 126C86.9429 121.722 88.1123 117.315 86.9665 113.086C86.2529 110.452 86.5178 107.698 86.5178 105" stroke="#9D825D" stroke-width="3" stroke-linecap="round"/>
<path d="M95.4697 107C95.4697 111.696 95.4697 116.392 95.4697 121.088C95.4697 121.86 95.4697 125.604 95.4697 127" stroke="#9D825D" stroke-width="3" stroke-linecap="round"/>
<path d="M90.6387 106.488C92.9006 106.488 95.1625 106.488 97.4244 106.488C98.4103 106.488 99.2303 106.556 100.165 106.764C101.178 106.989 101.84 107.532 102.905 107.532" stroke="#9D825D" stroke-width="3" stroke-linecap="round"/>
<path d="M107.779 107C107.779 110.73 107.779 114.459 107.779 118.189C107.779 119.707 107.559 121.243 107.559 122.799C107.559 123.604 107.298 125.058 107.669 125.765C109.089 128.466 111.711 126.18 112.36 124.198C112.736 123.051 112.095 122.096 111.197 121.569C110.358 121.076 108.154 120.787 107.887 119.942" stroke="#9D825D" stroke-width="3" stroke-linecap="round"/>
<path d="M118.47 108C118.47 114.727 119.47 121.294 119.47 128" stroke="#9D825D" stroke-width="3" stroke-linecap="round"/>
<path d="M102.097 74.5137C102.097 75.8246 102.147 76.9849 102.485 78.2631C102.885 79.7791 103.592 81.237 104.359 82.5943C105.038 83.7958 105.886 84.9376 106.493 86.1497" stroke="#9D825D" stroke-width="3" stroke-linecap="round"/>
</svg>
