<svg width="105" height="111" viewBox="0 0 105 111" fill="none" xmlns="http://www.w3.org/2000/svg">
<path d="M38.2981 65.1482C38.2981 71.6908 39.4097 79.3581 37.5821 85.6532C35.5291 92.7246 31.7612 99.5443 30.1612 106.744C28.0671 116.168 40.4046 90.327 46.435 82.789C49.5067 78.9495 50.4689 72.6321 55.288 77.4512C59.3188 81.4821 64.3168 83.9529 68.7627 87.4108C70.9378 89.1026 73.2713 90.5321 75.5326 92.0977C75.9467 92.3844 79.1779 95.1843 79.1779 94.8968C79.1779 88.6411 72.98 79.0917 70.5202 73.4153C70.0165 72.2528 64.2925 61.8163 67.591 61.6331C74.8367 61.2306 81.5207 59.1596 88.6818 57.8576C93.3522 57.0084 105.839 50.9858 102.482 54.3424C101.541 55.2837 95.7123 54.8359 94.5404 54.3424C91.0322 52.8653 87.3693 52.7688 83.995 51.348C82.012 50.5131 77.9261 48.9952 75.793 48.7442C68.884 47.9314 65.8799 45.739 68.7627 37.9384C71.4454 30.6792 72.3497 23.1164 75.142 15.9362C76.6788 11.9844 76.9647 6.81289 76.9647 2.59172C76.9647 1.0548 75.6494 5.42015 74.6212 6.56253C72.6296 8.77549 71.4741 11.6492 69.9344 14.1787C66.0277 20.5968 61.9015 26.7581 57.6314 32.9261C56.6706 34.3139 53.0752 41.377 50.536 39.7611C39.4642 32.7154 33.3706 15.0936 19.0299 12.4862C15.5691 11.8569 20.3902 20.1992 20.7224 21.8599C22.2762 29.6289 25.6879 35.9891 29.4452 42.8206C30.2539 44.291 36.1879 50.9742 33.3509 51.0877C25.6773 51.3946 18.8005 56.3508 12.5204 60.4614C11.0783 61.4053 -1.31684 69.9838 3.14668 67.752C6.10387 66.2735 10.0346 65.0144 12.5204 62.8048C16.9695 58.85 23.36 58.4271 28.9244 58.118C32.8819 57.8981 31.7828 57.297 34.5226 60.7218C35.8516 62.383 33.2835 67.9833 35.9547 63.9765" stroke="white" stroke-width="3" stroke-linecap="round"/>
</svg>
