<svg width="49" height="48" viewBox="0 0 49 48" fill="none" xmlns="http://www.w3.org/2000/svg">
<path fill-rule="evenodd" clip-rule="evenodd" d="M11.9623 32.3065C11.9623 32.3065 15.1482 31.5063 17.2264 31.1774C21.065 30.5699 23.2806 30.5453 27.1698 30.6129C28.6587 30.6388 29.8152 30.767 30.9717 30.8952C32.1282 31.0233 33.2847 31.1515 34.7736 31.1774C35.6871 31.1933 37.1132 31.1774 37.1132 31.1774L42.9623 18.7581C42.9623 18.7581 45.2205 15.1276 45.3019 12.5484C45.366 10.5168 45.2784 9.17277 44.1321 7.46774C43.161 6.02334 42.3592 5.03953 40.6226 4.64516C38.637 4.19423 37.3649 5.28336 35.9163 6.52371C35.5514 6.83619 35.1752 7.15827 34.7736 7.46774C30.9039 10.4496 29.3539 17.9772 29.0046 19.9644C29.2886 18.1429 30.1662 11.6257 28.9245 7.46774C28.7429 6.85969 28.6114 6.27462 28.4858 5.71585C28.0826 3.92246 27.7402 2.39997 26 1.25806C24.6248 0.355696 23.5494 -0.114025 21.9057 0.129032C19.824 0.436841 18.3221 1.5443 17.8113 3.51613C17.432 4.98067 17.5447 6.1375 17.6708 7.43133C17.7391 8.13236 17.8113 8.87361 17.8113 9.72581V23.8387C17.8113 23.8387 12.998 12.6763 6.69811 12.5484C6.34944 12.5413 6.00759 12.5237 5.67394 12.5066C3.99286 12.4201 2.52018 12.3443 1.43396 13.6774C0.368559 14.985 0.748053 16.3161 1.18487 17.8482C1.26909 18.1436 1.35543 18.4465 1.43396 18.7581C2.24377 21.9712 6.69811 25.5323 6.69811 25.5323L11.9623 32.3065Z" fill="#AFCAA1"/>
<path d="M6.69811 37.9516C6.30344 38.7621 6.06784 39.4965 5.9224 40.2097H47.6415C47.3015 39.2951 46.9389 38.5737 46.5208 37.9516H6.69811Z" fill="#FA9082"/>
<path fill-rule="evenodd" clip-rule="evenodd" d="M48.2264 46.9839C48.2264 46.9839 48.2617 46.5399 48.2787 45.8548H46.282C47.4548 46.4916 48.2264 46.9839 48.2264 46.9839ZM17.6708 47.8922L11.9623 45.8548H18.5031C17.9744 46.923 17.6708 47.8922 17.6708 47.8922ZM9.03773 45.8548L5.37092 47.8033C5.39469 47.1307 5.42963 46.4741 5.47861 45.8548H9.03773Z" fill="#FA9082"/>
<path fill-rule="evenodd" clip-rule="evenodd" d="M5.5283 45.2903C5.51033 45.4745 5.4938 45.6629 5.47861 45.8548H9.03773H11.9623H18.5031C19.1519 44.5439 20.1396 43.084 21.3209 43.084C22.0743 43.084 22.7318 42.9837 23.3535 42.8887C24.5011 42.7135 25.5271 42.5568 26.8106 43.084C28.376 43.7271 30.1205 45.8548 30.1205 45.8548C30.1205 45.8548 33.1746 43.084 34.7736 43.084C35.3355 43.084 35.8119 43.0619 36.2625 43.041C37.0941 43.0024 37.8376 42.9678 38.8679 43.084C41.3222 43.3609 44.3477 44.8045 46.282 45.8548H48.2787C48.3146 44.4116 48.2692 41.8982 47.6415 40.2097H5.9224C5.7281 41.1624 5.69471 42.0771 5.65795 43.084C5.63313 43.764 5.60678 44.4861 5.5283 45.2903ZM46.5208 37.9516C45.6626 36.6747 44.5709 35.8162 42.9623 34.5645C40.8885 32.9509 37.1132 31.1774 37.1132 31.1774C37.1132 31.1774 35.6871 31.1933 34.7736 31.1774C33.2847 31.1515 32.1282 31.0233 30.9717 30.8952C29.8152 30.767 28.6587 30.6388 27.1698 30.6129C23.2806 30.5453 21.065 30.5699 17.2264 31.1774C15.1482 31.5063 11.9623 32.3065 11.9623 32.3065C11.9623 32.3065 8.00527 35.2674 6.69811 37.9516H46.5208Z" fill="#D16356"/>
</svg>
