<svg width="42" height="55" viewBox="0 0 42 55" fill="none" xmlns="http://www.w3.org/2000/svg">
<path fill-rule="evenodd" clip-rule="evenodd" d="M10.5 29.5C10.5 29.5 13.2235 28.7913 15 28.5C18.2814 27.9619 20.1753 27.9401 23.5 28C24.7727 28.0229 25.7614 28.1365 26.75 28.25C27.7386 28.3635 28.7273 28.4771 30 28.5C30.7809 28.5141 32 28.5 32 28.5L37 17.5C37 17.5 38.9305 14.2844 39 12C39.0548 10.2006 38.9799 9.01017 38 7.5C37.1699 6.22067 36.4845 5.3493 35 5C33.3026 4.6006 32.2152 5.56526 30.9768 6.66386C30.6649 6.94063 30.3433 7.2259 30 7.5C26.6921 10.1411 25.367 16.8084 25.0684 18.5685C25.3112 16.9552 26.0614 11.1827 25 7.5C24.8448 6.96144 24.7323 6.44324 24.6249 5.94832C24.2802 4.35989 23.9876 3.0114 22.5 2C21.3244 1.20076 20.4051 0.784721 19 1C17.2205 1.27263 15.9366 2.25352 15.5 4C15.1757 5.29716 15.2721 6.32179 15.3799 7.46775C15.4383 8.08866 15.5 8.74519 15.5 9.5V22C15.5 22 11.3854 12.1133 6 12C5.70194 11.9937 5.40971 11.9782 5.1245 11.963C3.68745 11.8864 2.42854 11.8193 1.5 13C0.589252 14.1581 0.913658 15.3371 1.28707 16.6941C1.35906 16.9558 1.43287 17.224 1.5 17.5C2.19226 20.3459 6 23.5 6 23.5L10.5 29.5Z" fill="#AFCAA1"/>
<path d="M6 34.5C5.66262 35.2178 5.46122 35.8684 5.33689 36.5H41C40.7094 35.69 40.3993 35.051 40.0419 34.5H6Z" fill="#FA9082"/>
<path d="M41.5 42.5C41.5 42.5 41.5302 42.1068 41.5447 41.5H4.95752C4.91565 42.0485 4.88578 42.6301 4.86546 43.2258L41.5 43.5V42.5Z" fill="#FA9082"/>
<path fill-rule="evenodd" clip-rule="evenodd" d="M8 51.5C6.8477 51.2884 5 51.5 5 51.5C5 51.5 4.93904 50.4825 4.88995 49L18.5002 49.1859C17.02 49.8542 15.5 51.5 15.5 51.5L13 54.5C13 54.5 10.2397 51.9114 8 51.5ZM23.1929 49.25C25.4748 50.3116 27.5 53.5 27.5 53.5C27.5 53.5 28.7458 51.1173 30 50C30.2682 49.761 30.5167 49.5465 30.7586 49.3533L23.1929 49.25ZM39.0919 49.4671C40.578 51.1256 41.5 53.5 41.5 53.5V49.5L39.0919 49.4671ZM41.5 47.5L4.84426 47.2061C4.82226 45.9464 4.82026 44.5509 4.86546 43.2258L41.5 43.5V47.5ZM5 41C4.98464 41.1631 4.9705 41.33 4.95752 41.5H41.5447C41.5754 40.2217 41.5366 37.9955 41 36.5H5.33689C5.17079 37.3438 5.14225 38.154 5.11083 39.0459C5.08961 39.6481 5.06708 40.2876 5 41ZM40.0419 34.5C39.3084 33.3691 38.3751 32.6086 37 31.5C35.2272 30.0708 32 28.5 32 28.5C32 28.5 30.7809 28.5141 30 28.5C28.7273 28.4771 27.7386 28.3635 26.75 28.25C25.7614 28.1365 24.7727 28.0229 23.5 28C20.1753 27.9401 18.2814 27.9619 15 28.5C13.2235 28.7913 10.5 29.5 10.5 29.5C10.5 29.5 7.11741 32.1225 6 34.5H40.0419Z" fill="#D16356"/>
<path d="M19 49C20.3146 48.6259 21.1743 48.6673 22.5 49C22.7324 49.0583 22.9639 49.1434 23.1929 49.25L30.7586 49.3533C31.5768 48.6998 32.3201 48.2898 33.5 48C34.8274 47.674 35.6875 47.6186 37 48C37.7759 48.2255 38.4815 48.7859 39.0919 49.4671L41.5 49.5V47.5L4.84426 47.2061C4.85549 47.8485 4.87192 48.4556 4.88995 49L18.5002 49.1859C18.668 49.1101 18.8354 49.0468 19 49Z" fill="#FA9082"/>
</svg>
