<svg width="40" height="30" viewBox="0 0 40 30" fill="none" xmlns="http://www.w3.org/2000/svg">
<path fill-rule="evenodd" clip-rule="evenodd" d="M10.0472 29.9758C10.0472 29.9758 12.8734 29.2557 14.717 28.9597C18.1222 28.4129 20.0876 28.3907 23.5377 28.4516C24.8585 28.4749 25.8844 28.5903 26.9104 28.7056C27.9363 28.821 28.9622 28.9364 30.283 28.9597C31.0934 28.974 32.3585 28.9597 32.3585 28.9597L37.5472 17.7823C37.5472 17.7823 39.5505 14.5148 39.6226 12.1935C39.6795 10.3651 39.6018 9.15549 38.5849 7.62097C37.7235 6.32101 37.0122 5.43557 35.4717 5.08065C33.7102 4.67481 32.5818 5.65502 31.2967 6.77134C30.973 7.05257 30.6393 7.34244 30.283 7.62097C26.8503 10.3046 25.4752 17.0795 25.1654 18.868C25.4173 17.2286 26.1958 11.3631 25.0943 7.62097C24.9333 7.07372 24.8166 6.54716 24.7051 6.04426C24.3474 4.43021 24.0438 3.05997 22.5 2.03226C21.2801 1.22013 20.3261 0.797377 18.8679 1.01613C17.0213 1.29316 15.6889 2.28987 15.2358 4.06452C14.8993 5.3826 14.9993 6.42375 15.1112 7.5882C15.1718 8.21912 15.2358 8.88624 15.2358 9.65323V22.3548C15.2358 22.3548 10.9659 12.3086 5.37736 12.1935C5.06805 12.1872 4.7648 12.1714 4.46882 12.1559C2.97754 12.0781 1.67113 12.0099 0.707547 13.2097C-0.237569 14.3865 0.0990791 15.5845 0.486582 16.9634C0.561287 17.2292 0.637882 17.5018 0.707547 17.7823C1.42593 20.6741 5.37736 23.879 5.37736 23.879L10.0472 29.9758Z" fill="#AFCAA1"/>
</svg>
