<svg width="210" height="133" viewBox="0 0 210 133" fill="none" xmlns="http://www.w3.org/2000/svg">
<ellipse cx="105" cy="100.5" rx="105" ry="32.5" fill="#D9D9D9"/>
<ellipse cx="104.5" cy="105" rx="73.5" ry="16" fill="#AFABAB"/>
<path d="M142.755 101.697C140.397 111.355 131.092 117.378 121.971 115.151C112.85 112.924 107.368 103.29 109.726 93.6325C112.084 83.9751 121.281 77.9256 129.443 84.5503C140.592 83.1554 145.114 92.04 142.755 101.697Z" fill="#8A1625"/>
<path d="M101.99 94.3718C102.266 104.309 94.881 112.576 85.4958 112.837C76.1106 113.097 68.2787 105.253 68.0029 95.3152C67.727 85.3779 75.0005 77.1144 84.6217 81.3487C95.0067 77.0592 101.714 84.4345 101.99 94.3718Z" fill="#8A1625"/>
<path d="M99.9969 94.6675C100.224 102.853 96.6042 109.594 91.9116 109.724C87.219 109.855 83.2307 103.325 83.0034 95.1392C82.7762 86.9539 87.7886 87.3303 91.1916 83.7877C96.3481 80.3487 99.7697 86.4821 99.9969 94.6675Z" fill="#9B3D49"/>
<path d="M99.9969 94.6675C100.224 102.853 96.6042 109.594 91.9116 109.724C87.219 109.855 83.2307 103.325 83.0034 95.1392C82.7762 86.9539 87.7886 87.3303 91.1916 83.7877C96.3481 80.3487 99.7697 86.4821 99.9969 94.6675Z" fill="#9B3D49"/>
<path d="M112.105 98.4024C112.334 106.635 116.099 113.209 120.516 113.087C124.933 112.964 128.328 106.191 128.099 97.9584C127.871 89.7259 123.181 90.3746 119.792 87.0007C114.761 83.8256 111.877 90.1699 112.105 98.4024Z" fill="#9B3D49"/>
<path d="M112.105 98.4024C112.334 106.635 116.099 113.209 120.516 113.087C124.933 112.964 128.328 106.191 128.099 97.9584C127.871 89.7259 123.181 90.3746 119.792 87.0007C114.761 83.8256 111.877 90.1699 112.105 98.4024Z" fill="#9B3D49"/>
<path d="M83.9658 82.491C85.7896 81.3664 87.4929 79.8958 89.2493 78.6595C93.0428 75.9894 96.7038 73.1725 100.248 70.1793C107.987 63.6443 115.017 56.2718 119.644 47.1529C122.102 42.3082 124.653 37.6518 126.455 32.5086C127.459 29.6436 127.939 26.9576 128.293 23.9796C128.393 23.1412 128.205 22.2591 128.441 21.4463C128.464 21.3641 128.262 22.7867 128.224 23.1953C127.745 28.313 127.697 33.4152 126.916 38.5109C125.99 44.5497 125.831 50.5775 126.255 56.6693C126.563 61.107 127.27 65.5032 127.693 69.9289C128.037 73.5227 128.514 77.1649 129.186 80.7147C129.564 82.7133 130.062 84.6292 130.119 86.666" stroke="#311A1D" stroke-width="3" stroke-linecap="round"/>
<path d="M174.158 103.385C168.575 111.61 157.751 114.004 149.983 108.731C142.214 103.459 140.443 92.5162 146.025 84.2908C151.608 76.0654 162.34 73.6096 167.673 82.6678C178.607 85.2552 179.74 95.1595 174.158 103.385Z" fill="#8A1625"/>
<path d="M138.518 82.2821C135.305 91.6898 125.498 96.8566 116.613 93.8225C107.728 90.7884 103.13 80.7022 106.342 71.2945C109.555 61.8868 119.257 56.6844 126.793 64.0127C138.022 63.6209 141.73 72.8744 138.518 82.2821Z" fill="#8A1625"/>
<path d="M136.548 81.8629C133.901 89.612 128.155 94.6641 123.712 93.147C119.27 91.63 117.813 84.1182 120.46 76.3691C123.106 68.6199 127.671 70.7235 132.097 68.5927C138.13 67.1715 139.194 74.1137 136.548 81.8629Z" fill="#9B3D49"/>
<path d="M136.548 81.8629C133.901 89.612 128.155 94.6641 123.712 93.147C119.27 91.63 117.813 84.1182 120.46 76.3691C123.106 68.6199 127.671 70.7235 132.097 68.5927C138.13 67.1715 139.194 74.1137 136.548 81.8629Z" fill="#9B3D49"/>
<path d="M146.589 89.5911C143.927 97.3848 145.159 104.86 149.341 106.288C153.522 107.716 159.069 102.555 161.73 94.7617C164.392 86.9679 159.771 85.9377 157.774 81.5925C154.169 76.86 149.25 81.7973 146.589 89.5911Z" fill="#9B3D49"/>
<path d="M146.589 89.5911C143.927 97.3848 145.159 104.86 149.341 106.288C153.522 107.716 159.069 102.555 161.73 94.7617C164.392 86.9679 159.771 85.9377 157.774 81.5925C154.169 76.86 149.25 81.7973 146.589 89.5911Z" fill="#9B3D49"/>
<path d="M125.779 64.8537C127.881 64.437 129.991 63.654 132.069 63.1091C136.556 61.9322 140.97 60.5716 145.337 59.005C154.871 55.5848 164.034 51.1323 171.554 44.2038C175.549 40.5228 179.567 37.0511 183.052 32.8613C184.993 30.5273 186.381 28.1783 187.753 25.5114C188.139 24.7606 188.271 23.8686 188.776 23.1892C188.827 23.1205 188.14 24.3828 187.962 24.7524C185.726 29.3805 183.898 34.1443 181.386 38.6463C178.41 43.9813 176.155 49.574 174.424 55.43C173.163 59.6958 172.29 64.062 171.14 68.3568C170.207 71.8443 169.382 75.4237 168.772 78.9847C168.428 80.9896 168.225 82.9586 167.567 84.8869" stroke="#311A1D" stroke-width="3" stroke-linecap="round"/>
<path d="M52.7589 91.9654C56.933 100.964 66.9716 105.042 75.1808 101.073C83.3899 97.1038 86.6609 86.5911 82.4867 77.5922C78.3126 68.5932 68.3713 64.469 61.9543 72.5582C51.0943 73.3765 48.5847 82.9665 52.7589 91.9654Z" fill="#8A1625"/>
<path d="M89.9771 76.8006C91.7078 86.5899 100.373 93.2417 109.332 91.6579C118.291 90.074 124.15 80.8543 122.42 71.065C120.689 61.2756 112.13 54.6054 103.848 60.6389C93.1328 58.4717 88.2464 67.0113 89.9771 76.8006Z" fill="#8A1625"/>
<path d="M91.9268 76.6992C93.3524 84.7627 98.1393 90.6574 102.619 89.8655C107.098 89.0736 109.574 81.8949 108.148 73.8314C106.722 65.7679 102.041 67.1189 98.1015 64.3152C92.5185 61.9566 90.5012 68.6357 91.9268 76.6992Z" fill="#9B3D49"/>
<path d="M91.9268 76.6992C93.3524 84.7627 98.1393 90.6574 102.619 89.8655C107.098 89.0736 109.574 81.8949 108.148 73.8314C106.722 65.7679 102.041 67.1189 98.1015 64.3152C92.5185 61.9566 90.5012 68.6357 91.9268 76.6992Z" fill="#9B3D49"/>
<path d="M81.185 82.7307C82.6188 90.8406 80.3634 98.0192 76.1475 98.7645C71.9317 99.5098 67.3517 93.5397 65.9179 85.4298C64.4842 77.3199 69.0647 77.0365 71.6044 73.0671C75.7424 68.9706 79.7512 74.6208 81.185 82.7307Z" fill="#9B3D49"/>
<path d="M81.185 82.7307C82.6188 90.8406 80.3634 98.0192 76.1475 98.7645C71.9317 99.5098 67.3517 93.5397 65.9179 85.4298C64.4842 77.3199 69.0647 77.0365 71.6044 73.0671C75.7424 68.9706 79.7512 74.6208 81.185 82.7307Z" fill="#9B3D49"/>
<path d="M104.699 61.6293C102.743 60.8849 100.832 59.778 98.9169 58.911C94.7815 57.0385 90.7424 54.9963 86.7785 52.7586C78.1242 47.8729 69.9744 42.0279 63.7555 34.001C60.4515 29.7364 57.0964 25.6747 54.3551 20.9892C52.8281 18.3791 51.8339 15.8418 50.901 12.9937C50.6384 12.1919 50.6395 11.291 50.2531 10.5408C50.214 10.465 50.6912 11.819 50.8094 12.2118C52.2898 17.1316 53.3588 22.1205 55.1218 26.9597C57.2111 32.6943 58.5704 38.5684 59.39 44.6193C59.987 49.0272 60.1977 53.4725 60.6835 57.8912C61.078 61.4793 61.3553 65.1409 61.4293 68.7502C61.4709 70.7824 61.3829 72.7568 61.7376 74.7633" stroke="#311A1D" stroke-width="3" stroke-linecap="round"/>
<path d="M163.797 85.0562C157.661 92.8891 146.588 94.5278 139.066 88.7163C131.544 82.9048 130.42 71.8438 136.557 64.0109C142.693 56.178 153.677 54.4709 158.51 63.8966C169.392 67.2444 169.934 77.2233 163.797 85.0562Z" fill="#8A1625"/>
<path d="M138.169 69.529C135.008 77.1339 135.797 84.692 139.931 86.4104C144.066 88.1289 149.98 83.357 153.141 75.7521C156.302 68.1472 151.699 66.7955 149.947 62.3131C146.595 57.3316 141.33 61.9241 138.169 69.529Z" fill="#9B3D49"/>
<path d="M138.169 69.529C135.008 77.1339 135.797 84.692 139.931 86.4104C144.066 88.1289 149.98 83.357 153.141 75.7521C156.302 68.1472 151.699 66.7955 149.947 62.3131C146.595 57.3316 141.33 61.9241 138.169 69.529Z" fill="#9B3D49"/>
</svg>
