<svg width="977" height="504" viewBox="0 0 977 504" fill="none" xmlns="http://www.w3.org/2000/svg">
<path d="M488.5 0.0664062L911.553 377.316H65.4466L488.5 0.0664062Z" fill="#745C5C"/>
<path d="M214 250H768L788 267H214V250Z" fill="#5F4B4B"/>
<path d="M300 171H680L699 188H300V171Z" fill="#5F4B4B"/>
<path d="M384 93.5H592.5L609 108H368L384 93.5Z" fill="#5F4B4B"/>
<rect x="627" y="261" width="65" height="58" rx="10" fill="#8D8D8D"/>
<rect x="627" y="261" width="65" height="58" rx="10" fill="#8D8D8D"/>
<rect x="627" y="261" width="65" height="58" rx="10" fill="#BDA176"/>
<ellipse cx="487.5" cy="220.066" rx="103.5" ry="103" fill="#744E2F"/>
<ellipse cx="487.5" cy="220.066" rx="93.5" ry="93" fill="#CAE8EE"/>
<rect x="386" y="223.066" width="10" height="203" transform="rotate(-90 386 223.066)" fill="#744E2F"/>
<rect x="482" y="117.066" width="11" height="202" fill="#744E2F"/>
<rect x="295" y="242.066" width="70" height="61" rx="10" fill="#8D8D8D"/>
<rect x="295" y="242.066" width="70" height="61" rx="10" fill="#8D8D8D"/>
<rect x="295" y="242.066" width="70" height="61" rx="10" fill="#BDA176"/>
<path fill-rule="evenodd" clip-rule="evenodd" d="M452.407 71.3953C452.834 70.924 453.279 70.4327 453.681 69.8846C454.703 68.4875 455.597 67.6639 456.654 66.6904C457.095 66.2837 457.565 65.8509 458.085 65.3391C459.479 63.9655 461.723 61.8846 461.723 61.8846C461.723 61.8846 463.883 60.2765 465.361 59.3391C467.085 58.2463 468.622 56.8458 471.106 56.0664C473.044 55.4583 476.276 55.3391 476.276 55.3391C476.276 55.3391 476.211 53.3917 476.851 50.43C476.941 50.0114 477.022 49.6279 477.097 49.2662C477.409 47.7766 477.644 46.6569 478.191 44.9755C478.348 44.4941 478.462 44.0566 478.57 43.6447C478.851 42.5689 479.087 41.6674 479.915 40.6119C480.708 39.5998 481.404 39.1475 482.418 38.4889C482.536 38.4119 482.659 38.3321 482.787 38.2482C483.642 37.6875 485.085 36.9755 485.085 36.9755C485.085 36.9755 484.345 34.7919 484.893 33.7028C485.236 33.0218 485.199 32.6806 485.851 32.2482C486.684 31.6949 487.516 31.4724 488.532 31.521C489.406 31.5627 490.007 31.8544 490.638 32.43C491.405 33.1293 491.404 33.8846 491.596 34.2482C491.595 34.2724 491.596 34.7693 491.596 34.7937C491.596 35.8275 491.021 36.9755 491.021 36.9755C491.021 36.9755 492.66 38.1253 493.51 38.7937C494.485 39.5592 494.872 40.3006 495.361 41.2343C495.497 41.4951 495.641 41.7709 495.808 42.0664C496.938 44.0655 497.344 45.3178 497.915 47.521C498.402 49.4029 498.57 50.4949 498.681 52.43C498.746 53.5644 498.681 55.3391 498.681 55.3391C498.681 55.3391 501.913 55.4583 503.851 56.0664C505.639 56.6274 506.699 57.365 507.966 58.2463C508.46 58.5894 508.984 58.9544 509.596 59.3391C511.128 60.3041 512.222 61.1317 513.349 61.9837C514.283 62.6909 515.241 63.4149 516.489 64.2482C517.358 64.8284 518.123 65.2505 518.853 65.6536C519.976 66.2735 521.018 66.8486 522.234 67.8846C522.639 68.2294 523.044 68.5173 523.429 68.7906C524.469 69.5286 525.36 70.1605 525.681 71.521C525.877 72.3524 525.896 72.8756 525.681 73.7028C525.296 75.1825 523.924 75.9945 522.617 76.6119C522.107 76.8525 521.801 77.0148 521.276 77.3391C517.967 79.387 515.392 79.7453 511.991 80.4584C511.239 80.6162 510.446 80.7825 509.596 80.9755C504.891 82.0433 502.029 82.2389 497.429 82.5533C497.15 82.5723 496.866 82.5918 496.574 82.6119C490.363 83.0399 486.825 82.8865 480.65 82.6188L480.489 82.6119C480.351 82.6059 480.215 82.6 480.08 82.5941C475.009 82.3747 472.027 82.2457 466.893 81.521C465.837 81.3718 464.859 81.2633 463.932 81.1603C461.216 80.8588 458.931 80.6051 456.361 79.521C455.802 79.2851 455.239 79.0901 454.693 78.9014C452.796 78.2454 451.119 77.6651 450.617 75.7028C450.151 73.8828 451.208 72.7178 452.407 71.3953Z" fill="#E7E7E7"/>
<path fill-rule="evenodd" clip-rule="evenodd" d="M487.5 79.0664C493.766 79.0664 498.955 74.271 499.86 68.0164C499.86 68.0164 495.254 67.5095 492.291 67.3664C488.472 67.1819 486.319 67.1744 482.5 67.3664C479.618 67.5112 475.139 68.0164 475.139 68.0164C476.044 74.271 481.233 79.0664 487.5 79.0664Z" fill="white"/>
<ellipse cx="487" cy="73.0664" rx="34" ry="7" fill="#D9D9D9"/>
<rect x="487" y="1" width="2" height="36" fill="#5F5E5E"/>
<path fill-rule="evenodd" clip-rule="evenodd" d="M452.407 71.3953C452.834 70.924 453.279 70.4327 453.681 69.8846C454.703 68.4875 455.597 67.6639 456.654 66.6904C457.095 66.2837 457.565 65.8509 458.085 65.3391C459.479 63.9655 461.723 61.8846 461.723 61.8846C461.723 61.8846 463.883 60.2765 465.361 59.3391C467.085 58.2463 468.622 56.8458 471.106 56.0664C473.044 55.4583 476.276 55.3391 476.276 55.3391C476.276 55.3391 476.211 53.3917 476.851 50.43C476.941 50.0114 477.022 49.6279 477.097 49.2662C477.409 47.7766 477.644 46.6569 478.191 44.9755C478.348 44.4941 478.462 44.0566 478.57 43.6447C478.851 42.5689 479.087 41.6674 479.915 40.6119C480.708 39.5998 481.404 39.1475 482.418 38.4889C482.536 38.4119 482.659 38.3321 482.787 38.2482C483.642 37.6875 485.085 36.9755 485.085 36.9755C485.085 36.9755 484.345 34.7919 484.893 33.7028C485.236 33.0218 485.199 32.6806 485.851 32.2482C486.684 31.6949 487.516 31.4724 488.532 31.521C489.406 31.5627 490.007 31.8544 490.638 32.43C491.405 33.1293 491.404 33.8846 491.596 34.2482C491.595 34.2724 491.596 34.7693 491.596 34.7937C491.596 35.8275 491.021 36.9755 491.021 36.9755C491.021 36.9755 492.66 38.1253 493.51 38.7937C494.485 39.5592 494.872 40.3006 495.361 41.2343C495.497 41.4951 495.641 41.7709 495.808 42.0664C496.938 44.0655 497.344 45.3178 497.915 47.521C498.402 49.4029 498.57 50.4949 498.681 52.43C498.746 53.5644 498.681 55.3391 498.681 55.3391C498.681 55.3391 501.913 55.4583 503.851 56.0664C505.639 56.6274 506.699 57.365 507.966 58.2463C508.46 58.5894 508.984 58.9544 509.596 59.3391C511.128 60.3041 512.222 61.1317 513.349 61.9837C514.283 62.6909 515.241 63.4149 516.489 64.2482C517.358 64.8284 518.123 65.2505 518.853 65.6536C519.976 66.2735 521.018 66.8486 522.234 67.8846C522.639 68.2294 523.044 68.5173 523.429 68.7906C524.469 69.5286 525.36 70.1605 525.681 71.521C525.877 72.3524 525.896 72.8756 525.681 73.7028C525.296 75.1825 523.924 75.9945 522.617 76.6119C522.107 76.8525 521.801 77.0148 521.276 77.3391C517.967 79.387 515.392 79.7453 511.991 80.4584C511.239 80.6162 510.446 80.7825 509.596 80.9755C504.891 82.0433 502.029 82.2389 497.429 82.5533C497.15 82.5723 496.866 82.5918 496.574 82.6119C490.363 83.0399 486.825 82.8865 480.65 82.6188L480.489 82.6119C480.351 82.6059 480.215 82.6 480.08 82.5941C475.009 82.3747 472.027 82.2457 466.893 81.521C465.837 81.3718 464.859 81.2633 463.932 81.1603C461.216 80.8588 458.931 80.6051 456.361 79.521C455.802 79.2851 455.239 79.0901 454.693 78.9014C452.796 78.2454 451.119 77.6651 450.617 75.7028C450.151 73.8828 451.208 72.7178 452.407 71.3953Z" fill="#2E2E2E"/>
<ellipse cx="487" cy="73.0664" rx="34" ry="7" fill="#9B997E"/>
<path fill-rule="evenodd" clip-rule="evenodd" d="M487.5 79.0664C493.766 79.0664 498.955 74.271 499.86 68.0164C499.86 68.0164 495.254 67.5095 492.291 67.3664C488.472 67.1819 486.319 67.1744 482.5 67.3664C479.618 67.5112 475.139 68.0164 475.139 68.0164C476.044 74.271 481.233 79.0664 487.5 79.0664Z" fill="#FFEDA3"/>
<path d="M133.783 327.5L852.162 325L871 342H118L133.783 327.5Z" fill="#5F4B4B"/>
<path fill-rule="evenodd" clip-rule="evenodd" d="M77.9999 377.067L66.5 377.066L355.5 119.001L217 377.067L77.9999 377.067Z" fill="#5F4B4B"/>
<rect x="602" y="319" width="65" height="58" rx="10" fill="#8D8D8D"/>
<rect x="602" y="319" width="65" height="58" rx="10" fill="#8D8D8D"/>
<rect x="602" y="319" width="65" height="58" rx="10" fill="#867457"/>
<rect x="671" y="319" width="58" height="58" rx="10" fill="#8D8D8D"/>
<rect x="671" y="319" width="58" height="58" rx="10" fill="#8D8D8D"/>
<rect x="671" y="319" width="58" height="58" rx="10" fill="#744E2F"/>
<rect x="453" y="326.066" width="65" height="52" rx="10" fill="#8D8D8D"/>
<rect x="453" y="326.066" width="65" height="52" rx="10" fill="#8D8D8D"/>
<rect x="453" y="326.066" width="65" height="52" rx="10" fill="#96876E"/>
<rect width="81" height="72" rx="10" transform="matrix(-1 0 0 1 419 306.066)" fill="#8D8D8D"/>
<rect width="81" height="72" rx="10" transform="matrix(-1 0 0 1 419 306.066)" fill="#8D8D8D"/>
<rect width="81" height="72" rx="10" transform="matrix(-1 0 0 1 419 306.066)" fill="#744E2F"/>
<rect x="256" y="306.066" width="78" height="72" rx="10" fill="#8D8D8D"/>
<rect x="256" y="306.066" width="78" height="72" rx="10" fill="#8D8D8D"/>
<rect x="256" y="306.066" width="78" height="72" rx="10" fill="#9A835E"/>
<path fill-rule="evenodd" clip-rule="evenodd" d="M758.5 377.5L622.5 120L913 377.5H758.5Z" fill="#5F4B4B"/>
</svg>
