<svg width="169" height="122" viewBox="0 0 169 122" fill="none" xmlns="http://www.w3.org/2000/svg">
<path d="M107.755 101.697C105.397 111.355 96.0919 117.378 86.971 115.151C77.8501 112.924 72.3678 103.29 74.7258 93.6325C77.0839 83.9751 86.2814 77.9256 94.4429 84.5503C105.592 83.1554 110.114 92.04 107.755 101.697Z" fill="#8A1625"/>
<path d="M66.9898 94.3718C67.2656 104.309 59.881 112.576 50.4958 112.837C41.1106 113.097 33.2787 105.253 33.0029 95.3152C32.727 85.3779 40.0005 77.1144 49.6217 81.3487C60.0067 77.0592 66.7139 84.4345 66.9898 94.3718Z" fill="#8A1625"/>
<path d="M64.9969 94.6675C65.2241 102.853 61.6042 109.594 56.9116 109.724C52.219 109.855 48.2307 103.325 48.0034 95.1392C47.7762 86.9539 52.7886 87.3303 56.1916 83.7877C61.3481 80.3487 64.7697 86.4821 64.9969 94.6675Z" fill="#9B3D49"/>
<path d="M64.9969 94.6675C65.2241 102.853 61.6042 109.594 56.9116 109.724C52.219 109.855 48.2307 103.325 48.0034 95.1392C47.7762 86.9539 52.7886 87.3303 56.1916 83.7877C61.3481 80.3487 64.7697 86.4821 64.9969 94.6675Z" fill="#9B3D49"/>
<path d="M77.1053 98.4024C77.3338 106.635 81.0994 113.209 85.516 113.087C89.9326 112.964 93.3276 106.191 93.0991 97.9584C92.8706 89.7259 88.1809 90.3746 84.7918 87.0007C79.7606 83.8256 76.8767 90.1699 77.1053 98.4024Z" fill="#9B3D49"/>
<path d="M77.1053 98.4024C77.3338 106.635 81.0994 113.209 85.516 113.087C89.9326 112.964 93.3276 106.191 93.0991 97.9584C92.8706 89.7259 88.1809 90.3746 84.7918 87.0007C79.7606 83.8256 76.8767 90.1699 77.1053 98.4024Z" fill="#9B3D49"/>
<path d="M48.9658 82.491C50.7896 81.3664 52.4929 79.8958 54.2493 78.6595C58.0428 75.9894 61.7038 73.1725 65.2484 70.1793C72.9872 63.6443 80.0173 56.2718 84.6438 47.1529C87.1017 42.3082 89.6535 37.6518 91.4554 32.5086C92.4591 29.6436 92.9393 26.9576 93.2931 23.9796C93.3927 23.1412 93.2052 22.2591 93.4407 21.4463C93.4645 21.3641 93.2622 22.7867 93.224 23.1953C92.7452 28.313 92.6968 33.4152 91.9157 38.5109C90.99 44.5497 90.8312 50.5775 91.2546 56.6693C91.563 61.107 92.2699 65.5032 92.6931 69.9289C93.0367 73.5227 93.514 77.1649 94.186 80.7147C94.5644 82.7133 95.062 84.6292 95.1185 86.666" stroke="#311A1D" stroke-width="3" stroke-linecap="round"/>
<path d="M139.158 103.385C133.575 111.61 122.751 114.004 114.983 108.731C107.214 103.459 105.443 92.5162 111.025 84.2908C116.608 76.0654 127.34 73.6096 132.673 82.6678C143.607 85.2552 144.74 95.1595 139.158 103.385Z" fill="#8A1625"/>
<path d="M103.518 82.2821C100.305 91.6898 90.4981 96.8566 81.613 93.8225C72.728 90.7884 68.1295 80.7022 71.3422 71.2945C74.5548 61.8868 84.2565 56.6844 91.7927 64.0127C103.022 63.6209 106.73 72.8744 103.518 82.2821Z" fill="#8A1625"/>
<path d="M101.548 81.8629C98.9013 89.612 93.1547 94.6641 88.7122 93.147C84.2697 91.63 82.8135 84.1182 85.4597 76.3691C88.1059 68.6199 92.6711 70.7235 97.0972 68.5927C103.13 67.1715 104.194 74.1137 101.548 81.8629Z" fill="#9B3D49"/>
<path d="M101.548 81.8629C98.9013 89.612 93.1547 94.6641 88.7122 93.147C84.2697 91.63 82.8135 84.1182 85.4597 76.3691C88.1059 68.6199 92.6711 70.7235 97.0972 68.5927C103.13 67.1715 104.194 74.1137 101.548 81.8629Z" fill="#9B3D49"/>
<path d="M111.589 89.5911C108.927 97.3848 110.159 104.86 114.341 106.288C118.522 107.716 124.069 102.555 126.73 94.7617C129.392 86.9679 124.771 85.9377 122.774 81.5925C119.169 76.86 114.25 81.7973 111.589 89.5911Z" fill="#9B3D49"/>
<path d="M111.589 89.5911C108.927 97.3848 110.159 104.86 114.341 106.288C118.522 107.716 124.069 102.555 126.73 94.7617C129.392 86.9679 124.771 85.9377 122.774 81.5925C119.169 76.86 114.25 81.7973 111.589 89.5911Z" fill="#9B3D49"/>
<path d="M90.7795 64.8537C92.8813 64.437 94.991 63.654 97.0686 63.1091C101.556 61.9322 105.97 60.5716 110.337 59.005C119.871 55.5848 129.034 51.1323 136.554 44.2038C140.549 40.5228 144.567 37.0511 148.052 32.8613C149.993 30.5273 151.381 28.1783 152.753 25.5114C153.139 24.7606 153.271 23.8686 153.776 23.1892C153.827 23.1205 153.14 24.3828 152.962 24.7524C150.726 29.3805 148.898 34.1443 146.386 38.6463C143.41 43.9813 141.155 49.574 139.424 55.43C138.163 59.6958 137.29 64.062 136.14 68.3568C135.207 71.8443 134.382 75.4237 133.772 78.9847C133.428 80.9896 133.225 82.9586 132.567 84.8869" stroke="#311A1D" stroke-width="3" stroke-linecap="round"/>
<path d="M17.7589 91.9654C21.933 100.964 31.9716 105.042 40.1808 101.073C48.3899 97.1038 51.6609 86.5911 47.4867 77.5922C43.3126 68.5932 33.3713 64.469 26.9543 72.5582C16.0943 73.3765 13.5847 82.9665 17.7589 91.9654Z" fill="#8A1625"/>
<path d="M54.9771 76.8006C56.7078 86.5899 65.3733 93.2417 74.332 91.6579C83.2908 90.074 89.1503 80.8543 87.4196 71.065C85.6889 61.2756 77.1295 54.6054 68.8481 60.6389C58.1328 58.4717 53.2464 67.0113 54.9771 76.8006Z" fill="#8A1625"/>
<path d="M56.9268 76.6992C58.3524 84.7627 63.1393 90.6574 67.6187 89.8655C72.098 89.0736 74.5736 81.8949 73.1481 73.8314C71.7225 65.7679 67.0413 67.1189 63.1015 64.3152C57.5185 61.9566 55.5012 68.6357 56.9268 76.6992Z" fill="#9B3D49"/>
<path d="M56.9268 76.6992C58.3524 84.7627 63.1393 90.6574 67.6187 89.8655C72.098 89.0736 74.5736 81.8949 73.1481 73.8314C71.7225 65.7679 67.0413 67.1189 63.1015 64.3152C57.5185 61.9566 55.5012 68.6357 56.9268 76.6992Z" fill="#9B3D49"/>
<path d="M46.185 82.7307C47.6188 90.8406 45.3634 98.0192 41.1475 98.7645C36.9317 99.5098 32.3517 93.5397 30.9179 85.4298C29.4842 77.3199 34.0647 77.0365 36.6044 73.0671C40.7424 68.9706 44.7512 74.6208 46.185 82.7307Z" fill="#9B3D49"/>
<path d="M46.185 82.7307C47.6188 90.8406 45.3634 98.0192 41.1475 98.7645C36.9317 99.5098 32.3517 93.5397 30.9179 85.4298C29.4842 77.3199 34.0647 77.0365 36.6044 73.0671C40.7424 68.9706 44.7512 74.6208 46.185 82.7307Z" fill="#9B3D49"/>
<path d="M69.6992 61.6293C67.7429 60.8849 65.8316 59.778 63.9169 58.911C59.7815 57.0385 55.7424 54.9963 51.7785 52.7586C43.1242 47.8729 34.9744 42.0279 28.7555 34.001C25.4515 29.7364 22.0964 25.6747 19.3551 20.9892C17.8281 18.3791 16.8339 15.8418 15.901 12.9937C15.6384 12.1919 15.6395 11.291 15.2531 10.5408C15.214 10.465 15.6912 11.819 15.8094 12.2118C17.2898 17.1316 18.3588 22.1205 20.1218 26.9597C22.2111 32.6943 23.5704 38.5684 24.39 44.6193C24.987 49.0272 25.1977 53.4725 25.6835 57.8912C26.078 61.4793 26.3553 65.1409 26.4293 68.7502C26.4709 70.7824 26.3829 72.7568 26.7376 74.7633" stroke="#311A1D" stroke-width="3" stroke-linecap="round"/>
<path d="M128.797 85.0562C122.661 92.8891 111.588 94.5278 104.066 88.7163C96.5435 82.9048 95.4202 71.8438 101.557 64.0109C107.693 56.178 118.677 54.4709 123.51 63.8966C134.392 67.2444 134.934 77.2233 128.797 85.0562Z" fill="#8A1625"/>
<path d="M103.169 69.529C100.008 77.1339 100.797 84.692 104.931 86.4105C109.066 88.1289 114.98 83.357 118.141 75.7521C121.302 68.1472 116.699 66.7955 114.947 62.3131C111.595 57.3316 106.33 61.9241 103.169 69.529Z" fill="#9B3D49"/>
<path d="M103.169 69.529C100.008 77.1339 100.797 84.692 104.931 86.4105C109.066 88.1289 114.98 83.357 118.141 75.7521C121.302 68.1472 116.699 66.7955 114.947 62.3131C111.595 57.3316 106.33 61.9241 103.169 69.529Z" fill="#9B3D49"/>
</svg>
