<svg width="393" height="348" viewBox="0 0 393 348" fill="none" xmlns="http://www.w3.org/2000/svg">
<path d="M4.5 92.5C4.5 76.926 -2.69202 28.1516 24.1535 28.1516C32.9612 28.1516 40.5031 34.1046 45.934 41.0872C49.2272 45.3213 48.3101 62.1885 44.6073 65.5211C37.0317 72.3391 28.6232 67.1038 29.1288 58.003C29.4732 51.8026 31.2583 46.1298 34.5 41.0872C39.2154 33.7521 42.9688 23.787 51.1304 19.1962C59.4483 14.5173 91.2639 6 96.7919 19.1962C99.5 28.1516 101.536 55.6178 91.2639 56.0129C79.7434 56.456 81.7124 41.7698 84.4091 33.6796C86.8268 26.4265 87.8712 18.5284 92.3695 12.2308C99.2256 2.63229 105.24 4.27047 116.693 4.27047C141.708 4.27047 168.416 8.28401 175.401 36.2225C177.464 44.4759 177.318 54.8573 174.406 62.8677C171.869 69.8427 163.381 75 157.5 75C140.735 75 150.797 41.0663 156.052 34.1219C175.095 8.95809 197.752 -3.27445 229.023 8.36122C244.339 14.0602 253.12 24.4636 253.899 41.1978C254.652 57.403 255.572 84.7606 250 100.237C247.334 107.644 227.606 123.195 221.726 106.207C214.928 86.5698 219.619 74.2902 229.023 56.5C250.86 15.1868 309.444 41.91 318.466 80.0046C320.957 90.5199 323.5 103.793 323.5 114.5C323.5 129.095 320.791 142.711 318.466 157.176C315.686 174.477 305.423 193.676 288 199C271.486 204.046 252.608 206.319 235.435 202.174C219.769 198.393 212.002 176.062 209.5 162.815C205.741 142.911 207.858 117.344 220.62 100.237C237.844 77.149 281.859 79.6059 305.309 86.7488C333.972 95.4793 344.047 127.779 349.092 153.97C355.386 186.651 353.171 229.038 340.357 259.887C333.92 275.385 320.994 301.604 304.536 309.529C291.595 315.759 269.426 316.181 257.105 308.534C241.636 298.932 238.252 280.309 235.103 263.867C229.642 235.348 231.896 200.658 246.049 174.755C258.667 151.661 289.288 155.223 310.616 162.815C340.072 173.299 367.901 196.969 367.445 230.257C367.209 247.474 348.42 255.757 335.161 261.877C320.034 268.859 305.532 275.015 288.725 276.471C280.846 277.153 261.026 280.188 255.336 272.601C247.145 261.68 251.554 238.337 263.186 231.583C279.965 221.84 311.709 230.587 325.321 242.197C340.689 255.305 337.593 278.866 337.593 296.814C337.593 310.38 342.826 334.778 327.643 342.586C318.473 347.302 314.317 342.907 313.27 333.741C310.41 308.72 324.289 281.813 345.111 267.847C361.853 256.618 379.199 263.358 386.903 281.336C391.119 291.171 391.25 304.344 382.481 311.519C368.628 322.853 363.464 305.66 363.464 293.94C363.464 286.342 363.019 283.329 368.44 277.908C373.77 272.578 374.535 263.852 379.385 259.002" stroke="#202020" stroke-width="6" stroke-linecap="round"/>
</svg>
