<svg width="408" height="205" viewBox="0 0 408 205" fill="none" xmlns="http://www.w3.org/2000/svg">
<path d="M4.00001 87.1155C3.31402 88.5 2.5 88.5 4.00001 87.1155ZM4.00001 87.1155C5.04819 85 3.35143 81.6134 13.1987 77.0657C23.1629 72.4639 33.365 77.1903 37.6321 84.4708C39.7779 88.1319 42.6549 95.6224 41.1953 99.7512C38.3777 107.721 26.7631 96.1599 24.2518 93.1689C19.2568 87.2196 21.5515 79.0297 26.8697 73.657C38.3253 62.084 53.6067 58.9268 71.2279 62.8431C84.3212 65.7532 90.4107 75.1657 89.6984 85.5287C88.9125 96.9607 65.2238 76.7518 63.5926 74.3622C55.4661 62.458 59.5451 45.1086 76.6818 40.6278C95.3135 35.756 125.04 44.7013 125.04 63.0782C125.04 65.9291 120.371 69.6548 116.604 68.1325C104.431 63.2133 98.8782 47.698 96.3885 37.9243C91.6499 19.3228 99.221 2.43487 125.04 3.0145C142.442 3.40518 163.583 26.8732 148.6 38.9822C145.468 41.5133 139.011 43.8135 135.22 40.8629C129.134 36.126 132.705 34.9559 139.292 34.163C165.467 31.0124 194.246 31.9346 217.974 42.2146C233.729 49.0409 242.859 63.1471 234.408 77.0657C219.779 101.158 163.169 116.111 147.509 84.4708C145.813 81.0435 140.192 67.3797 151.364 70.4833C164.18 74.0439 166.471 89.5254 166.853 98.6345C167.882 123.187 139.279 127.175 115.441 119.381C107.34 116.732 90.0707 109.337 94.4978 100.104C98.032 92.7327 110.073 89.4314 118.422 87.2918C141.709 81.3243 167.351 81.9064 190.777 87.1155C220.94 93.8226 253.294 112.81 258.914 139.363C261.252 150.409 258.276 163.882 243.134 167.573C233.672 169.879 228.332 163.904 226.118 157.229C221.556 143.472 230.691 132.016 244.734 124.317C267.571 111.798 294.142 120.095 314.253 132.075C330.057 141.49 355.109 157.761 348.503 176.447C344.32 188.279 327.825 196.899 314.325 200.778C296.375 205.936 288.825 193.884 282.693 181.09C268.984 152.489 276.312 119.157 303.49 97.5179C312.147 90.6253 323.651 83.9967 336.214 83.3541C348.611 82.72 355.985 90.9267 361.738 98.6345C363.322 100.757 375.679 118.35 367.483 119.674C359.528 120.96 349.68 111.549 345.376 107.744C330.121 94.2547 317.264 78.4277 306.181 62.5493C299.906 53.5587 276.402 21.0912 299.564 15.8265C308.835 13.7191 319.683 13.04 329.233 14.0634C348.354 16.1126 362.578 28.8334 374.464 40.0401C384.897 49.878 393.658 60.5454 399.624 72.5991C402.224 77.8519 405.748 84.502 404.86 90.3479C403.527 99.1207 390.737 89.3857 388.062 86.9392C382.035 81.4272 368.603 71.7611 369.882 63.4896C370.259 61.0512 381.529 62.2554 384.208 62.2554" stroke="#202020" stroke-width="6" stroke-linecap="round"/>
</svg>
