<svg width="192" height="211" viewBox="0 0 192 211" fill="none" xmlns="http://www.w3.org/2000/svg">
<path d="M67.5 171C69.0224 173.141 72.5 175.5 72.5 175.5C72.5 175.5 79.7665 179.974 85 181C89.5987 181.902 92.4113 181.952 97 181C102.048 179.953 104.895 178.618 109 175.5C112.19 173.077 116 168 116 168C116 168 117.507 163.491 118 160.5C118.172 159.457 118.38 158.476 118.579 157.537C119.336 153.969 119.964 151.007 118 147.5C117.778 147.104 117.593 146.837 117.387 146.539C117.274 146.377 117.156 146.206 117.022 146C114.905 141.846 113.448 139.612 110.5 136C107.707 132.577 105.923 130.793 102.5 128C97.3712 126.779 94.1288 126.779 89 128C87.6073 128.331 86.0282 128.944 84.543 129.613C81.5854 130.945 79 132.5 79 132.5L75.04 138L70 145L65.5 157C65.5 157 64.2994 166.499 67.5 171Z" fill="#CF997C"/>
<path d="M65.5 157L70 145L75.04 138L72.5 134V125.5C72.5 125.5 72.4761 118.577 71 114.5C70.8603 114.114 70.7275 113.739 70.5982 113.374L70.5975 113.372C69.4303 110.074 68.5551 107.601 65.5 105.5C62.2186 103.243 59.378 102.593 55.5 103.5C54.7783 103.669 54.2877 103.875 53.739 104.106C53.4417 104.231 53.1274 104.363 52.75 104.5C51.67 104.873 51.0676 105.092 50 105.5C49.1935 105.808 48.4641 106.062 47.7785 106.302C45.7557 107.007 44.1142 107.58 42 109C39.1393 110.921 37.7286 112.858 36.016 115.208C35.4081 116.043 34.7623 116.929 34 117.886C33.5104 118.5 33.0572 119.052 32.6303 119.572C31.0641 121.479 29.8526 122.955 28.5 125.5C25.6551 130.854 24.5 140.5 24.5 140.5C24.5 140.5 24.4632 145.176 25.5 147.903C27.228 152.448 34 157 34 157C34 157 39.4823 161.25 43.5 161C46.2144 160.831 47.708 159.964 50 158.5C51.4736 157.559 52.1727 156.125 52.8425 154.751C53.6567 153.08 54.4276 151.499 56.494 151C57.8938 150.662 58.7959 150.779 60.1409 150.954C60.2571 150.969 60.3766 150.984 60.5 151C62.5223 151.257 65.5 152.5 65.5 152.5V157Z" fill="#E7C3A1"/>
<path d="M55.5 103.5C59.378 102.593 62.2186 103.243 65.5 105.5C68.5551 107.601 69.4303 110.074 70.5975 113.372L70.5982 113.374C70.7275 113.739 70.8603 114.114 71 114.5C72.4761 118.577 72.5 125.5 72.5 125.5L84 109C84 109 86.7699 101.028 91 98.5C92.375 97.6781 93.5047 97.4096 94.7681 97.1093C95.4527 96.9465 96.1766 96.7745 97 96.5L97.75 92.75C97.75 92.75 97.0784 91.4914 97 90C96.8175 86.5282 95.4189 84.497 93 82C92.5634 81.5493 92.1671 81.1235 91.7913 80.7196C90.1757 78.9836 88.9384 77.654 86.5 76.5C82.4394 74.5782 79.4616 74.7056 75.04 75.5C70.2991 76.3517 67.6824 77.895 64 81C60.1465 84.2492 58.7071 86.9713 56.494 91.5C54.9895 94.5786 54.4767 96.9967 53.9031 99.7012C53.5924 101.167 53.2638 102.716 52.75 104.5C53.1274 104.363 53.4417 104.231 53.739 104.106C54.2877 103.875 54.7783 103.669 55.5 103.5Z" fill="#DC947B"/>
<path d="M102.5 128C105.923 130.793 107.707 132.577 110.5 136C113.448 139.612 114.905 141.846 117.022 146C117.979 146 118.791 146.039 119.56 146.076C120.977 146.143 122.244 146.204 124 146L124.224 145.974C127.717 145.569 129.922 145.313 133 143.5C136.403 141.496 137.766 139.413 139.906 136.144L140 136C142.641 131.965 143.566 129.231 144.5 124.5C145.521 119.328 145.853 116.095 144.5 111C143.039 105.498 141.606 101.846 137 98.5C133.801 96.1762 131.448 95.2128 127.5 95C124.326 94.8289 122.24 94.8895 119.5 96.5C118.185 97.2727 116.5 99 116.5 99C116.5 99 114.664 100.515 113.5 101.5C110.12 104.359 108.257 106.002 105 109C103.579 112.313 103.015 114.318 102.5 117.886C102.134 120.421 102.243 122.261 102.364 124.318C102.43 125.433 102.5 126.612 102.5 128Z" fill="#E3B19D"/>
<path fill-rule="evenodd" clip-rule="evenodd" d="M60.5 75.5L7.5 134C7.5 134 6.26382 137.599 6 140L10 147.903L28.5 160.5L81 189.698C81 189.698 85.7495 191.947 89 192C91.3047 192.038 92.8302 191.477 94.641 190.812C95.3601 190.547 96.1243 190.266 97 190C101.198 188.723 107.5 186 107.5 186L152 138L154.5 128L156.5 125.5L155.903 121.024L161 115L164.5 109.5V102.5L165.5 96.5L173 90L175 68.5L170.5 66L173 60V38L164.5 32.5L78 8.0907C77.0156 8.73395 76.0348 9.50811 75 10.5C72.263 13.1235 70.8066 14.941 69.5 18.5C67.6831 23.4491 66.9557 27.3825 69.5 32C70.9659 34.6604 75 37.5 75 37.5C75 37.5 78.5903 48.6492 75 54C72.2199 58.1434 64 60.5 64 60.5V74L60.5 75.5ZM72.5 175.5C72.5 175.5 69.0224 173.141 67.5 171C64.2994 166.499 65.5 157 65.5 157V152.5C65.5 152.5 62.5223 151.257 60.5 151C60.3766 150.984 60.2571 150.969 60.1409 150.954C58.7959 150.779 57.8938 150.662 56.494 151C54.4276 151.499 53.6567 153.08 52.8425 154.751C52.1727 156.125 51.4736 157.559 50 158.5C47.708 159.964 46.2144 160.831 43.5 161C39.4823 161.25 34 157 34 157C34 157 27.228 152.448 25.5 147.903C24.4632 145.176 24.5 140.5 24.5 140.5C24.5 140.5 25.6551 130.854 28.5 125.5C29.8526 122.955 31.0641 121.479 32.6303 119.572C33.0572 119.052 33.5104 118.5 34 117.886C34.7623 116.929 35.4081 116.043 36.016 115.208C37.7286 112.858 39.1393 110.921 42 109C44.1142 107.58 45.7557 107.007 47.7785 106.302C48.4641 106.062 49.1935 105.808 50 105.5C51.0676 105.092 51.67 104.873 52.75 104.5C53.2638 102.716 53.5924 101.167 53.9031 99.7012C54.4767 96.9967 54.9895 94.5786 56.494 91.5C58.7071 86.9713 60.1465 84.2492 64 81C67.6824 77.895 70.2991 76.3517 75.04 75.5C79.4616 74.7056 82.4394 74.5782 86.5 76.5C88.9384 77.654 90.1757 78.9836 91.7913 80.7196C92.1671 81.1235 92.5634 81.5493 93 82C95.4189 84.497 96.8175 86.5282 97 90C97.0784 91.4914 97.75 92.75 97.75 92.75C97.75 92.75 100.582 89.7075 103 89C105.061 88.3969 106.467 88.3082 108.5 89C110.987 89.8461 113.5 93.5 113.5 93.5L116.5 99C116.5 99 118.185 97.2727 119.5 96.5C122.24 94.8895 124.326 94.8289 127.5 95C131.448 95.2128 133.801 96.1762 137 98.5C141.606 101.846 143.039 105.498 144.5 111C145.853 116.095 145.521 119.328 144.5 124.5C143.566 129.231 142.641 131.965 140 136L139.906 136.144C137.766 139.413 136.403 141.496 133 143.5C129.922 145.313 127.717 145.569 124.224 145.974L124 146C122.244 146.204 120.977 146.143 119.56 146.076C118.791 146.039 117.979 146 117.022 146C117.156 146.206 117.274 146.377 117.387 146.539C117.593 146.837 117.778 147.104 118 147.5C119.964 151.007 119.336 153.969 118.579 157.537C118.38 158.476 118.172 159.457 118 160.5C117.507 163.491 116 168 116 168C116 168 112.19 173.077 109 175.5C104.895 178.618 102.048 179.953 97 181C92.4113 181.952 89.5987 181.902 85 181C79.7665 179.974 72.5 175.5 72.5 175.5Z" fill="#DDE3E9"/>
<path d="M159 140.5C159.069 134.562 156.5 125.5 156.5 125.5L154.5 128L152 138L107.5 186C107.5 186 101.198 188.723 97 190C96.1243 190.266 95.3601 190.547 94.641 190.812C92.8302 191.477 91.3047 192.038 89 192C85.7495 191.947 81 189.698 81 189.698L28.5 160.5L10 147.903L6 140C5.6532 143.156 6.1744 145.306 6.80368 147.903C7.03372 148.852 7.2782 149.861 7.5 151C8.26927 154.951 10 161 10 161L36.5 183C36.5 183 43.0349 181.955 47 183C49.7034 183.713 51.3156 184.255 53.5 186C54.9843 187.186 55.6969 188.372 56.494 189.698C56.9258 190.417 57.3824 191.177 58 192L64 200L72.5 206C72.5 206 79.98 209.047 85 209C89.8303 208.954 97 206 97 206L120.5 190C120.5 190 123.954 185.982 125.5 183C126.208 181.634 126.326 180.221 126.437 178.882C126.593 176.997 126.738 175.259 128.5 174C129.553 173.248 130.461 173.063 131.519 172.846C131.977 172.753 132.462 172.653 133 172.5C134.211 172.155 135.217 172.007 136.197 171.863C137.394 171.687 138.553 171.517 140 171C148.582 167.937 156.5 154.5 156.5 154.5C156.5 154.5 158.936 146.053 159 140.5Z" fill="#CDCED2"/>
<path fill-rule="evenodd" clip-rule="evenodd" d="M113.5 101.5C114.664 100.515 116.5 99 116.5 99L113.5 93.5C113.5 93.5 110.987 89.8461 108.5 89C106.467 88.3082 105.061 88.3969 103 89C100.582 89.7075 97.75 92.75 97.75 92.75L97 96.5C96.1766 96.7745 95.4527 96.9465 94.7681 97.1093C93.5047 97.4096 92.375 97.6781 91 98.5C86.7699 101.028 84 109 84 109L72.5 125.5V134L75.04 138L79 132.5C79 132.5 81.5854 130.945 84.543 129.613C86.0282 128.944 87.6073 128.331 89 128C94.1288 126.779 97.3712 126.779 102.5 128C102.5 126.612 102.43 125.433 102.364 124.318C102.243 122.261 102.134 120.421 102.5 117.886C103.015 114.318 103.579 112.313 105 109C108.257 106.002 110.12 104.359 113.5 101.5Z" fill="#D9D9D9"/>
<path d="M92.5 2.5C92.5 2.5 88.477 3.54191 86 4.5C85.495 4.69531 85.0104 4.8794 84.543 5.05695C82.0234 6.01402 80.0043 6.78101 78 8.0907L164.5 32.5L173 38V60L170.5 66L175 68.5L173 90L165.5 96.5L164.5 102.5V109.5L161 115L155.903 121.024L156.5 125.5C156.5 125.5 159.194 123.005 161 121.5C162.918 119.902 164.692 118.877 166.408 117.886C168.64 116.596 170.774 115.363 173 113C176.082 109.728 179.5 103.5 179.5 103.5L185 35.5L176.5 26L92.5 2.5Z" fill="#9D9EA2"/>
<path d="M81.001 152.5C77.7813 163.77 85.1146 174.975 79.0077 173.23C72.9007 171.486 70.5601 160.935 73.7797 149.665C76.9993 138.395 84.56 130.673 90.667 132.418C96.774 134.162 84.2206 141.23 81.001 152.5Z" fill="#CEB3A5"/>
<path d="M39.0518 134.241C35.8321 145.511 43.1654 156.716 37.0585 154.972C30.9515 153.227 28.6109 142.676 31.8305 131.406C35.0501 120.136 42.6108 112.414 48.7178 114.159C54.8247 115.904 42.2714 122.971 39.0518 134.241Z" fill="#EBDBCB"/>
<path d="M140.999 117.5C140.999 126.06 137.865 133 133.999 133C130.133 133 134 127.56 134 119C134 110.44 130.133 102 133.999 102C137.865 102 140.999 108.94 140.999 117.5Z" fill="#ECD2C8"/>
<path d="M91.5 89.5C91.5 98.0604 85.866 102 82 102C80.5 100.5 79.7187 103.56 79.7187 95C79.7187 86.4396 75.8521 78 79.7181 78C83.584 78 91.5 80.9396 91.5 89.5Z" fill="#E0A793"/>
<path d="M94.7595 42.233C95.6517 36.2738 101.572 32.4512 107.371 34.091L155.168 47.6085C159.729 48.8986 162.758 53.2139 162.421 57.9422L160.668 82.5379C160.212 88.928 153.95 93.2477 147.814 91.4035L98.2933 76.5181C93.5329 75.0872 90.5462 70.3768 91.2822 65.4608L94.7595 42.233Z" fill="#CDCED2"/>
</svg>
