<svg width="160" height="213" viewBox="0 0 160 213" fill="none" xmlns="http://www.w3.org/2000/svg">
<path d="M139.254 212.813C150.3 212.813 159.254 203.859 159.254 192.813V48.6777C159.254 42.9727 156.817 37.5392 152.558 33.7443L143.242 25.4451L137.555 29.185C132.512 32.5019 131.799 39.3818 135 44.5V44.5C135.446 45.2128 135.929 46.0626 136.39 46.9089C137.84 49.5689 138.5 52.5741 138.5 55.6035V212.813H139.254Z" fill="#C1BC9D"/>
<path d="M3.02929 26.9872C2.69553 28.3933 2.11988 30.0867 1.55943 31.5894C0.595542 34.1738 0 36.8928 0 39.651V51C0 51 1.71294 46.8487 3.33146 44.5C4.7386 42.458 5.62041 41.3274 7.5 39.7097V39.7097C10.5013 37.1266 11.4468 32.4165 8.44311 29.8362L3.33146 25.4451C3.24826 25.972 3.14803 26.4869 3.02929 26.9872Z" fill="#E9E3BC"/>
<path d="M30.5 35.4689C30.5 35.4689 24.0587 40.6238 20.5 44.5C19.0577 46.071 17.4395 48.1393 16.0379 50.0245C13.663 53.2186 12.5 57.1262 12.5 61.1064V185.587C12.5 185.862 12.4941 186.133 12.491 186.409C12.473 188.033 12.5763 194.082 15 197C16.7502 199.107 20.3945 200.406 22.626 201.037C23.8632 201.387 25.1474 201.5 26.4332 201.5H104.722C106.893 201.5 109.066 201.18 111.032 200.26C112.739 199.462 114.768 198.327 116 197C118.369 194.449 119.449 189.404 119.83 187.143C119.958 186.382 120 185.613 120 184.841V64.1412C120 58.3359 117.474 52.8218 113.106 48.9986C111.35 47.4624 109.529 45.8613 108 44.5C104.069 41.0013 105 37 105 36C78.6396 36 30.5 35.4689 30.5 35.4689Z" fill="white"/>
<path fill-rule="evenodd" clip-rule="evenodd" d="M129.5 0V0C142.428 0 150.293 14.2405 143.407 25.1827L143.242 25.4451L137.555 29.185C132.512 32.5019 131.799 39.3818 135 44.5V44.5C135.446 45.2128 135.929 46.0626 136.39 46.9089C137.84 49.5689 138.5 52.5741 138.5 55.6035V212.813H20C8.95431 212.813 0 203.859 0 192.813V51C0 51 1.71294 46.8487 3.33146 44.5C4.7386 42.458 5.62041 41.3274 7.5 39.7097V39.7097C10.5013 37.1266 11.4468 32.4165 8.44311 29.8362L3.33146 25.4451V25.4451C5.31789 12.8657 13.1193 0 25.8546 0H35C35 0 28.9293 6.98952 27.5 12.5C26.2308 17.3934 26.5024 20.4891 27.5 25.4451C27.8127 26.9987 28.4136 28.167 28.9968 29.3008C29.7165 30.6999 30.4092 32.0465 30.5 34C30.5266 34.573 30.5 35.4689 30.5 35.4689C30.5 35.4689 24.0587 40.6238 20.5 44.5C19.0577 46.071 17.4395 48.1393 16.0379 50.0245C13.663 53.2186 12.5 57.1262 12.5 61.1064V185.587C12.5 185.862 12.4941 186.133 12.491 186.409C12.473 188.033 12.5763 194.082 15 197C16.7502 199.107 20.3945 200.406 22.626 201.037C23.8632 201.387 25.1474 201.5 26.4332 201.5H104.722C106.893 201.5 109.066 201.18 111.032 200.26C112.739 199.462 114.768 198.327 116 197C118.369 194.449 119.449 189.404 119.83 187.143C119.958 186.382 120 185.613 120 184.841V64.1412C120 58.3359 117.474 52.8218 113.106 48.9986C111.35 47.4624 109.529 45.8613 108 44.5C104.069 41.0013 105 37 105 36C105 35 106.967 31.9596 109.5 26.9872C112.068 21.9459 113.659 17.6505 116 12.5C118.5 7 129.5 0 129.5 0Z" fill="#E9E3BC"/>
<path d="M30.5 35.4689C30.5 35.4689 78.6396 36 105 36C105 35 106.967 31.9596 109.5 26.9872C112.068 21.9459 113.659 17.6505 116 12.5C118.5 7 129.5 0 129.5 0H35C35 0 28.9293 6.98952 27.5 12.5C26.2308 17.3934 26.5024 20.4891 27.5 25.4451C27.8127 26.9987 28.4136 28.167 28.9968 29.3008C29.7165 30.6999 30.4092 32.0465 30.5 34C30.5266 34.573 30.5 35.4689 30.5 35.4689Z" fill="#E9E3BC"/>
</svg>
