<svg width="42" height="49" viewBox="0 0 42 49" fill="none" xmlns="http://www.w3.org/2000/svg">
<path fill-rule="evenodd" clip-rule="evenodd" d="M13.4717 29.1731V32.5721H15.8491V32.0393H18.2264V30.1546H15.8491V29.1731H13.4717Z" fill="#FEFAE0"/>
<path fill-rule="evenodd" clip-rule="evenodd" d="M15.8491 27.4735H13.4717V24.0745H18.2264V26.4449H15.8491V27.4735Z" fill="#FEFAE0"/>
<path fill-rule="evenodd" clip-rule="evenodd" d="M20.6038 24.0745V27.4735H22.1887V26.4449H25.3585V24.0745H20.6038Z" fill="#FEFAE0"/>
<path fill-rule="evenodd" clip-rule="evenodd" d="M0 17.2764H42V49.0009H0V17.2764ZM13.4717 29.1731V32.5721H15.8491V35.7782H19.8113V32.0393H18.2264V30.1546H19.8113V26.4449H18.2264V24.0745H13.4717V27.4735H15.8491V29.1731H13.4717ZM20.6038 27.4735V24.0745H25.3585V26.4449H26.1509V30.1546H25.3585V32.0393H26.1509V35.7782H22.1887V32.5721H20.6038V29.1731H22.1887V27.4735H20.6038Z" fill="#FEFAE0"/>
<path fill-rule="evenodd" clip-rule="evenodd" d="M20.6038 29.1731V32.5721H22.1887V32.0393H25.3585V30.1546H22.1887V29.1731H20.6038Z" fill="#FEFAE0"/>
<path d="M20.2075 0L42 17.2757H0L20.2075 0Z" fill="#FEFAE0"/>
<rect x="27.7358" y="2.5127" width="7.13208" height="12.5642" fill="#FEFAE0"/>
</svg>
