<svg width="45" height="45" viewBox="0 0 45 45" fill="none" xmlns="http://www.w3.org/2000/svg">
<path fill-rule="evenodd" clip-rule="evenodd" d="M14.434 26.7916V29.9131H16.9811V29.4237H19.5283V27.693H16.9811V26.7916H14.434Z" fill="#FEFAE0"/>
<path fill-rule="evenodd" clip-rule="evenodd" d="M16.9811 25.2308H14.434V22.1093H19.5283V24.2861H16.9811V25.2308Z" fill="#FEFAE0"/>
<path fill-rule="evenodd" clip-rule="evenodd" d="M22.0755 22.1093V25.2308H23.7736V24.2861H27.1698V22.1093H22.0755Z" fill="#FEFAE0"/>
<path fill-rule="evenodd" clip-rule="evenodd" d="M0 15.8662H45V45.0004H0V15.8662ZM14.434 26.7916V29.9131H16.9811V32.8574H21.2264V29.4237H19.5283V27.693H21.2264V24.2861H19.5283V22.1093H14.434V25.2308H16.9811V26.7916H14.434ZM22.0755 25.2308V22.1093H27.1698V24.2861H28.0188V27.693H27.1698V29.4237H28.0188V32.8574H23.7736V29.9131H22.0755V26.7916H23.7736V25.2308H22.0755Z" fill="#FEFAE0"/>
<path fill-rule="evenodd" clip-rule="evenodd" d="M22.0755 26.7916V29.9131H23.7736V29.4237H27.1698V27.693H23.7736V26.7916H22.0755Z" fill="#FEFAE0"/>
<path d="M21.6509 0L45 15.8652H0L21.6509 0Z" fill="#FEFAE0"/>
<rect x="29.717" y="2.30762" width="7.6415" height="11.5383" fill="#FEFAE0"/>
</svg>
