<svg width="29" height="78" viewBox="0 0 29 78" fill="none" xmlns="http://www.w3.org/2000/svg">
<path fill-rule="evenodd" clip-rule="evenodd" d="M18.6387 77.6361H0V41.0579L24.1511 41.971C24.0596 46.5216 23.9236 51.1444 23.7727 56.2749C23.7088 58.4453 23.6423 60.7066 23.5753 63.092C23.2901 73.2519 21.8358 76.6449 20.5789 77.6361H18.6387Z" fill="#976257"/>
<path d="M29 77.6361V42.1544L24.1511 41.971C24.0596 46.5216 23.9236 51.1444 23.7727 56.2749C23.7088 58.4453 23.6423 60.7066 23.5753 63.092C23.2901 73.2519 21.8358 76.6449 20.5789 77.6361H29Z" fill="#7D463B"/>
<path fill-rule="evenodd" clip-rule="evenodd" d="M17.0201 0.698242H20.703C22.2425 2.03394 23.7387 5.63975 24.0067 14.4093C24.2277 21.6419 24.294 27.7201 24.2629 33.4891L0 32.8267V0.698242H17.0201Z" fill="#566F5D"/>
<path d="M29 33.6184V0.698242H20.703C22.2425 2.03394 23.7387 5.63975 24.0067 14.4093C24.2277 21.6419 24.294 27.7201 24.2629 33.4891L29 33.6184Z" fill="#3B4E41"/>
<path fill-rule="evenodd" clip-rule="evenodd" d="M0 41.0579L24.1511 41.971C24.2078 39.1509 24.2474 36.3582 24.2629 33.4891L0 32.8267V41.0579Z" fill="#D9D9D9"/>
<path d="M29 42.1544V33.6184L24.2629 33.4891C24.2474 36.3582 24.2078 39.1509 24.1511 41.971L29 42.1544Z" fill="#B2A4A4"/>
</svg>
