<svg width="79" height="113" viewBox="0 0 79 113" fill="none" xmlns="http://www.w3.org/2000/svg">
<path fill-rule="evenodd" clip-rule="evenodd" d="M17.7833 109.798L11.4669 106.649C1.58162 101.721 -2.43669 89.7119 2.49173 79.8266L18.1677 48.3843L48.9304 65.2594C45.7512 71.3385 42.466 77.4853 38.8196 84.3082L38.8191 84.3091C37.2765 87.1954 35.6693 90.2027 33.9781 93.377C26.7747 106.897 22.6034 110.532 20.3039 111.055L17.7833 109.798Z" fill="#976257"/>
<path d="M20.3039 111.055C26.3463 114.067 33.6866 111.611 36.6991 105.569L55.1068 68.6475L48.9304 65.2594C45.7512 71.3385 42.466 77.4853 38.8196 84.3082L38.8191 84.3091C37.2765 87.1954 35.6693 90.2027 33.9781 93.377C26.7747 106.897 22.6034 110.532 20.3039 111.055V111.055Z" fill="#7D463B"/>
<path fill-rule="evenodd" clip-rule="evenodd" d="M67.4228 4.96663L72.2077 7.35218C73.3094 10.1511 72.8283 15.9842 67.2787 27.9872C62.7017 37.8865 58.7002 46.1285 54.7799 53.8903L23.7034 37.2811L36.3868 11.8411C41.3152 1.95582 53.3241 -2.06248 63.2093 2.86594L67.4228 4.96663Z" fill="#566F5D"/>
<path d="M60.8474 57.1331L77.6128 23.5057C80.5809 17.5524 78.1609 10.3202 72.2077 7.35218V7.35218C73.3094 10.1511 72.8283 15.9842 67.2787 27.9872C62.7017 37.8865 58.7002 46.1285 54.7799 53.8903L60.8474 57.1331Z" fill="#3B4E41"/>
<path fill-rule="evenodd" clip-rule="evenodd" d="M18.1677 48.3843L48.9304 65.2594C50.9006 61.4919 52.8302 57.7505 54.7799 53.8903L23.7034 37.2811L18.1677 48.3843Z" fill="#D9D9D9"/>
<path d="M55.1068 68.6475L60.8474 57.1331L54.7799 53.8903C52.8302 57.7505 50.9006 61.4919 48.9304 65.2594L55.1068 68.6475Z" fill="#B2A4A4"/>
</svg>
