<svg width="98" height="89" viewBox="0 0 98 89" fill="none" xmlns="http://www.w3.org/2000/svg">
<ellipse cx="45.5" cy="42" rx="41.5" ry="42" fill="#C7DDB7"/>
<ellipse cx="39" cy="47.5" rx="35" ry="36.5" fill="#B5CAA6"/>
<ellipse cx="51.5" cy="47.5" rx="35.5" ry="36.5" fill="#9AAE8B"/>
<ellipse cx="35.5" cy="54.5" rx="35.5" ry="29.5" fill="#849677"/>
<ellipse cx="35.5" cy="54.5" rx="35.5" ry="29.5" fill="#849677"/>
<ellipse cx="59.5" cy="54.5" rx="35.5" ry="29.5" fill="#849677"/>
<ellipse cx="59.5" cy="54.5" rx="35.5" ry="29.5" fill="#738467"/>
<ellipse cx="35.5" cy="69.5" rx="35.5" ry="19.5" fill="#849677"/>
<ellipse cx="35.5" cy="69.5" rx="35.5" ry="19.5" fill="#69775F"/>
<ellipse cx="62.5" cy="69.5" rx="35.5" ry="19.5" fill="#849677"/>
<ellipse cx="62.5" cy="69.5" rx="35.5" ry="19.5" fill="#69775F"/>
<ellipse cx="47" cy="64" rx="25" ry="20" transform="rotate(-90 47 64)" fill="#849677"/>
<ellipse cx="47" cy="64" rx="25" ry="20" transform="rotate(-90 47 64)" fill="#627156"/>
</svg>
