<svg width="506" height="364" viewBox="0 0 506 364" fill="none" xmlns="http://www.w3.org/2000/svg">
<g clip-path="url(#clip0_1853_4776)">
<rect width="506" height="364" fill="white"/>
<rect y="-0.352051" width="506" height="365" fill="white"/>
<rect y="-0.352051" width="506" height="365" fill="#FFEACA"/>
<path fill-rule="evenodd" clip-rule="evenodd" d="M506 -0.352051H0V350.648L65.2225 232.158L184.096 236.629H506V-0.352051Z" fill="#EAC790"/>
<path fill-rule="evenodd" clip-rule="evenodd" d="M459 134.648H251.9L241 155.648L459 157.648V134.648Z" fill="#8DA598"/>
<path fill-rule="evenodd" clip-rule="evenodd" d="M218.452 208.648C220.115 197.921 221 186.664 221 175.059C221 101.93 185.854 42.6479 142.5 42.6479C99.1456 42.6479 64 101.93 64 175.059C64 186.664 64.8852 197.921 66.548 208.648H218.452Z" fill="#744E2F"/>
<path fill-rule="evenodd" clip-rule="evenodd" d="M207.793 198.648C209.233 189.343 210 179.578 210 169.51C210 106.073 179.555 54.6479 142 54.6479C104.445 54.6479 74 106.073 74 169.51C74 179.578 74.7668 189.343 76.2072 198.648H207.793Z" fill="white"/>
<rect x="72" y="130.648" width="140" height="8" fill="#744E2F"/>
<rect x="138" y="190.648" width="140" height="9" transform="rotate(-90 138 190.648)" fill="#744E2F"/>
<rect x="69" y="227.648" width="10" height="72" fill="#B96E3B"/>
<rect x="205" y="227.648" width="10" height="72" fill="#B96E3B"/>
<rect x="99" y="215.648" width="10" height="104" fill="#B96E3B"/>
<rect x="251" y="50.6479" width="107" height="48" fill="#76837C"/>
<rect x="256" y="56.6479" width="97" height="37" fill="#8DA598"/>
<rect x="289" y="87.6479" width="33" height="2" fill="#898989"/>
<rect x="289" y="87.6479" width="33" height="2" fill="#898989"/>
<rect x="241" y="155.648" width="193" height="89" fill="#76837C"/>
<rect x="366" y="50.6479" width="99" height="48" fill="#76837C"/>
<rect x="371" y="56.6479" width="88" height="37" fill="#8DA598"/>
<rect x="402" y="87.6479" width="32" height="2" fill="#898989"/>
<rect x="355" y="103.648" width="16" height="119" rx="8" fill="#2E2E2E"/>
<rect x="395" y="68.6479" width="15" height="108" rx="7.5" fill="#2E2E2E"/>
<rect x="174" y="215.648" width="10" height="104" fill="#B96E3B"/>
<rect x="434" y="34.6479" width="16" height="108" rx="8" fill="#2E2E2E"/>
<rect x="272" y="176.648" width="16" height="118" rx="8" fill="#2E2E2E"/>
<path d="M49 216.648H230V265.648C230 265.648 177.074 278.813 142.5 279.148C105.609 279.505 49 265.648 49 265.648V216.648Z" fill="#CE6B42"/>
<rect x="314" y="142.648" width="15" height="121" rx="7.5" fill="#2E2E2E"/>
<rect x="478" y="-0.352051" width="15" height="108" rx="7.5" fill="#2E2E2E"/>
<ellipse cx="139.5" cy="219.648" rx="90.5" ry="34" fill="#DC8143"/>
<path fill-rule="evenodd" clip-rule="evenodd" d="M243.616 312.148L239.82 284.072C239.82 284.072 241.36 283.87 242.152 283.257C243.017 282.587 243.785 280.81 243.785 280.81C243.785 280.81 248.429 256.452 248.916 240.577C249.018 237.274 248.988 234.91 248.954 232.266C248.936 230.834 249.157 229.439 249.157 227.648C249.157 226.865 249.094 226.429 249.157 225.792C249.274 224.616 249.268 223.207 248.916 221.82C248.235 219.132 247.1 217.805 245.184 216.111C243.581 214.694 242.197 214.34 240.52 213.911C239.94 213.763 239.325 213.606 238.653 213.393C230.827 210.907 222.641 211.501 217.895 212.577C215.813 213.049 214.788 213.977 212.996 215.296C210.758 216.944 209.515 218.047 207.865 220.461C205.187 224.377 203.9 232.422 203.9 232.422L201.101 248.732L197.836 277.004C197.836 277.004 184.54 277.276 183.608 278.092C182.675 278.907 182.527 280.192 182.675 281.626C182.782 282.664 183.007 283.296 183.608 284.072C184.235 284.884 185.707 285.431 185.707 285.431L178 332.648H183.911L192.004 285.975H203.667L196.5 332.648H203.667L210.431 285.975H232.822L239.353 312.148H243.616ZM218.361 276.189H227.224L233.522 220.189H226.058L223.959 233.509L218.361 276.189ZM212.763 276.189H204.366L211.83 228.888C211.83 228.888 212.64 225.836 213.696 224.266C214.653 222.844 215.345 222.095 216.728 221.276C218.068 220.483 220.46 220.189 220.46 220.189H220.927L212.763 276.189ZM239.353 276.189H232.822L237.954 220.732C237.954 220.732 241.134 221.489 242.385 223.179C243.367 224.505 243.48 225.78 243.616 227.311C243.66 227.806 243.706 228.328 243.785 228.888C244.376 233.083 243.318 239.762 243.318 239.762L242.152 252.266L239.353 276.189Z" fill="#5A5757"/>
<rect x="232" y="211.648" width="15" height="118" rx="7.5" fill="#2E2E2E"/>
<path fill-rule="evenodd" clip-rule="evenodd" d="M506 364.648V91.9715H462.38V132.229H422.395V171.413H380.853V209.523H338.791V248.707H297.767V285.744H258.302V320.633H218.836V364.648H506Z" fill="#6C4040"/>
<path d="M63.5 203.148C65 204.148 66.1086 204.535 67.9904 206.045C70.589 208.13 73.0118 210.381 75.6714 212.396C80.3239 215.92 84.3147 219.908 88.6518 223.789C94.1503 228.708 100.218 233.081 105.43 238.292C107.571 240.433 109.295 242.565 111.5 244.648C112.915 245.985 114 247.648 115 249.148" stroke="#CC6328" stroke-width="3" stroke-linecap="round"/>
<path d="M86 194.648C88 196.148 89.6086 198.035 91.4904 199.545C94.089 201.63 96.5118 203.881 99.1714 205.896C103.824 209.42 107.815 213.408 112.152 217.289C117.65 222.208 123.718 226.581 128.93 231.792C131.071 233.933 133.483 235.695 135.688 237.778C137.104 239.115 146.5 250.148 148 251.648" stroke="#CC6328" stroke-width="3" stroke-linecap="round"/>
<path d="M111.5 189.148C113.5 190.648 116.609 193.035 118.49 194.545C121.089 196.63 123.512 198.881 126.171 200.896C130.824 204.42 134.815 208.408 139.152 212.289C144.65 217.208 150.718 221.581 155.93 226.792C158.071 228.933 160.483 230.695 162.688 232.778C164.104 234.115 176.86 246.729 177.5 248.648" stroke="#CC6328" stroke-width="3" stroke-linecap="round"/>
<path d="M205 198.648C203.367 200.513 183.419 207.29 181.199 208.234C178.134 209.538 175.004 210.608 171.971 211.999C166.666 214.432 161.265 216.063 155.795 218.05C148.86 220.569 142.138 223.848 135.082 225.976C132.183 226.851 129.49 228.143 126.612 229.101C124.765 229.716 87.493 243.992 85.5 243.648" stroke="#CC6328" stroke-width="3" stroke-linecap="round"/>
<path d="M184.5 192.375C182.867 194.24 162.919 201.017 160.699 201.961C157.634 203.266 154.504 204.336 151.471 205.727C146.166 208.16 140.765 209.791 135.295 211.778C128.36 214.297 121.638 217.576 114.582 219.704C111.683 220.578 108.99 221.87 106.112 222.829C104.265 223.444 68.9929 236.992 67 236.648" stroke="#CC6328" stroke-width="3" stroke-linecap="round"/>
<path d="M168 189.648C166.459 191.337 147.08 196.982 144.93 197.788C141.961 198.902 138.921 199.794 135.987 200.99C130.855 203.082 125.601 204.42 120.291 206.088C113.56 208.203 107.064 211.038 100.199 212.783C97.3792 213.499 94.7759 214.615 91.9791 215.411C90.1843 215.922 55.9722 227.369 54 226.977" stroke="#CC6328" stroke-width="3" stroke-linecap="round"/>
<path d="M145 187.648C142.5 188.648 134.15 190.842 132 191.648C129.031 192.761 125.921 192.945 122.987 194.141C117.855 196.233 112.601 197.57 107.291 199.238C100.56 201.353 94.0644 204.188 87.1993 205.933C84.3792 206.65 81.7759 207.765 78.9791 208.562C77.1843 209.073 52.9721 216.04 51 215.648" stroke="#CC6328" stroke-width="3" stroke-linecap="round"/>
<path d="M221.5 208.375C219.867 210.24 199.919 217.017 197.699 217.961C194.634 219.266 191.504 220.336 188.471 221.727C183.166 224.16 177.765 225.791 172.295 227.778C165.36 230.297 158.638 233.576 151.582 235.704C148.683 236.578 145.99 237.87 143.112 238.829C141.265 239.444 117.493 249.992 115.5 249.648" stroke="#CC6328" stroke-width="3" stroke-linecap="round"/>
<path d="M201 233.148C199.367 235.012 193.72 236.023 191.5 236.967C188.435 238.271 204.033 231.757 201 233.148ZM201 233.148C195.694 235.581 192.266 236.635 186.796 238.622C179.861 241.14 173.139 244.42 166.082 246.548C163.184 247.422 160.49 248.714 157.612 249.673C155.765 250.288 150 251.648 148 252.148" stroke="#CC6328" stroke-width="3" stroke-linecap="round"/>
<path d="M145 187.648C147 189.148 147.76 190.134 149.75 191.75C152.499 193.982 155.062 196.392 157.876 198.55C162.798 202.323 167.019 206.593 171.607 210.748C177.424 216.015 183.843 220.697 189.356 226.277C191.621 228.569 194.173 230.456 196.506 232.686C198.003 234.117 200.323 235.594 201 237.648" stroke="#CC6328" stroke-width="3" stroke-linecap="round"/>
<path d="M168 189.648C169.688 190.05 169.823 190.648 171.139 191.737C172.955 193.24 174.648 194.863 176.507 196.316C179.759 198.858 182.548 201.733 185.58 204.531C189.423 208.079 193.664 211.232 197.307 214.99C198.803 216.534 200.489 217.804 202.031 219.306C203.02 220.27 204.553 221.265 205 222.648" stroke="#CC6328" stroke-width="3" stroke-linecap="round"/>
<path fill-rule="evenodd" clip-rule="evenodd" d="M39 332.648L52.1679 284.072C52.1679 284.072 50.5026 283.87 49.6463 283.257C48.7112 282.587 47.8812 280.81 47.8812 280.81C47.8812 280.81 42.8609 256.452 42.3337 240.577C42.224 237.274 42.2566 234.91 42.2931 232.266C42.3128 230.834 42.0734 229.439 42.0734 227.648C42.0734 226.865 42.1418 226.429 42.0734 225.792C41.9472 224.616 41.9539 223.207 42.3337 221.82C43.0699 219.132 44.297 217.805 46.3682 216.111C48.1015 214.694 49.5975 214.34 51.4108 213.911C52.0379 213.763 52.7028 213.606 53.4286 213.393C61.8892 210.907 70.7398 211.501 75.8707 212.577C78.1206 213.049 79.2296 213.977 81.166 215.296C83.586 216.944 84.9295 218.047 86.7134 220.461C89.6082 224.377 91.0001 232.422 91.0001 232.422L94.026 248.732L97.5562 277.004C97.5562 277.004 111.929 277.276 112.938 278.092C113.946 278.907 114.106 280.192 113.946 281.626C113.831 282.664 113.587 283.296 112.938 284.072C112.259 284.884 110.668 285.431 110.668 285.431L119 332.648H112.61L103.86 285.975H91.2523L99 332.648H91.2523L83.9397 285.975H59.7326L46.5 332.648H39ZM75.3663 276.189H65.7843L58.9761 220.189H67.0451L69.3145 233.509L75.3663 276.189ZM81.4181 276.189H90.4958L82.4267 228.888C82.4267 228.888 81.5509 225.836 80.4095 224.266C79.3749 222.844 78.6266 222.095 77.1314 221.276C75.6834 220.483 73.0969 220.189 73.0969 220.189H72.5926L81.4181 276.189ZM52.6722 276.189H59.7326L54.1851 220.732C54.1851 220.732 50.7467 221.489 49.3941 223.179C48.3326 224.505 48.2105 225.78 48.0639 227.311C48.0164 227.806 47.9664 228.328 47.8811 228.888C47.2417 233.083 48.3855 239.762 48.3855 239.762L49.6463 252.266L52.6722 276.189Z" fill="#5A5757"/>
<rect x="44" y="31.6479" width="71" height="147" fill="#DC8143" fill-opacity="0.5"/>
<rect x="165" y="31.6479" width="71" height="147" fill="#DC8143" fill-opacity="0.5"/>
<rect x="24" y="33.6479" width="232" height="6" fill="#744E2F"/>
<rect width="435.55" height="9.31208" rx="4.65604" transform="matrix(0.762555 -0.646923 0.651621 0.758545 173.603 269.767)" fill="#2E2E2E"/>
<ellipse cx="284" cy="144.648" rx="26" ry="8" fill="#76837C"/>
<rect x="280" y="120.648" width="7" height="16" rx="1" fill="#AFA4A4"/>
<rect x="277" y="131.648" width="13" height="5" rx="1" fill="#AFA4A4"/>
<rect width="3" height="4" rx="1" transform="matrix(1 0 0 -1 282 126.648)" fill="#898989"/>
</g>
<defs>
<clipPath id="clip0_1853_4776">
<rect width="506" height="364" fill="white"/>
</clipPath>
</defs>
</svg>
