<svg width="1173" height="719" viewBox="0 0 1173 719" fill="none" xmlns="http://www.w3.org/2000/svg">
<g clip-path="url(#clip0_2057_4704)">
<rect width="1173" height="719" fill="#854848"/>
<rect x="-1" y="-2" width="1174" height="721" fill="#F3E5C9"/>
<rect x="337" y="-2" width="496" height="499" fill="#C7E1E7"/>
<rect x="335" y="160" width="27" height="498" transform="rotate(-90 335 160)" fill="#744E2F"/>
<rect x="310" y="-4" width="27" height="489" fill="#744E2F"/>
<rect x="833" y="-2" width="27" height="489" fill="#744E2F"/>
<path fill-rule="evenodd" clip-rule="evenodd" d="M338 -2H-1V719H21.5L32 567.104C32 567.104 101.296 511.438 137.5 467.865C179.009 417.907 196.197 384.507 225 326.096C236.695 302.379 243.67 284.339 251.236 264.771C255.987 252.486 260.97 239.598 267.5 224.325C274.611 207.694 281.418 194.113 287.883 181.213C298.785 159.459 308.717 139.643 317.5 110.403C330.329 67.6967 338 -2 338 -2Z" fill="white"/>
<path fill-rule="evenodd" clip-rule="evenodd" d="M338 -2H-1V719H21.5L32 567.104C32 567.104 101.296 511.438 137.5 467.865C179.009 417.907 196.197 384.507 225 326.096C236.695 302.379 243.67 284.339 251.236 264.771C255.987 252.486 260.97 239.598 267.5 224.325C274.611 207.694 281.418 194.113 287.883 181.213C298.785 159.459 308.717 139.643 317.5 110.403C330.329 67.6967 338 -2 338 -2Z" fill="#AEAEAE"/>
<path fill-rule="evenodd" clip-rule="evenodd" d="M338 -2H-1V719H21.5L32 567.104C32 567.104 101.296 511.438 137.5 467.865C179.009 417.907 196.197 384.507 225 326.096C236.695 302.379 243.67 284.339 251.236 264.771C255.987 252.486 260.97 239.598 267.5 224.325C274.611 207.694 281.418 194.113 287.883 181.213C298.785 159.459 308.717 139.643 317.5 110.403C330.329 67.6967 338 -2 338 -2Z" fill="#78443C"/>
<rect x="279" y="591" width="601" height="128" fill="white"/>
<rect x="279" y="591" width="601" height="128" fill="#AEAEAE"/>
<rect x="279" y="591" width="601" height="128" fill="#63433D"/>
<path fill-rule="evenodd" clip-rule="evenodd" d="M1175 -2H807C807 -2 816.982 48.1262 830.91 77.4923C838.908 94.3568 846.821 105.23 855.694 117.422C860.445 123.95 865.471 130.857 870.932 139.263C882.138 156.512 891.075 171.551 899.517 185.756C915.597 212.814 929.879 236.846 954.616 267.362C985.26 305.167 1007.99 326.071 1039.94 355.459C1045.65 360.71 1051.65 366.233 1058.05 372.171C1083.02 395.349 1097.08 408.342 1123.54 429.891C1143.17 445.876 1175 469.384 1175 469.384V-2Z" fill="white"/>
<path fill-rule="evenodd" clip-rule="evenodd" d="M1175 -2H807C807 -2 816.982 48.1262 830.91 77.4923C838.908 94.3568 846.821 105.23 855.694 117.422C860.445 123.95 865.471 130.857 870.932 139.263C882.138 156.512 891.075 171.551 899.517 185.756C915.597 212.814 929.879 236.846 954.616 267.362C985.26 305.167 1007.99 326.071 1039.94 355.459C1045.65 360.71 1051.65 366.233 1058.05 372.171C1083.02 395.349 1097.08 408.342 1123.54 429.891C1143.17 445.876 1175 469.384 1175 469.384V-2Z" fill="#AEAEAE"/>
<path fill-rule="evenodd" clip-rule="evenodd" d="M1175 -2H807C807 -2 816.982 48.1262 830.91 77.4923C838.908 94.3568 846.821 105.23 855.694 117.422C860.445 123.95 865.471 130.857 870.932 139.263C882.138 156.512 891.075 171.551 899.517 185.756C915.597 212.814 929.879 236.846 954.616 267.362C985.26 305.167 1007.99 326.071 1039.94 355.459C1045.65 360.71 1051.65 366.233 1058.05 372.171C1083.02 395.349 1097.08 408.342 1123.54 429.891C1143.17 445.876 1175 469.384 1175 469.384V-2Z" fill="#78443C"/>
<rect x="572" y="-3" width="27" height="499" fill="#744E2F"/>
<path d="M880.161 509.929V143.229C880.161 141.573 878.818 140.229 877.161 140.229H424.026L415.934 145.672L279.646 216.825V587.735C279.646 589.392 280.99 590.735 282.646 590.735H818.652L880.161 509.929Z" fill="#977676"/>
<rect x="279.082" y="224.721" width="537.963" height="365.992" rx="4" fill="#E0C3C3"/>
<rect x="312" y="259" width="354.063" height="282.008" rx="4" fill="#B9B5B5"/>
<rect x="312" y="259" width="354.063" height="282.008" rx="4" fill="#686767"/>
<rect x="705" y="257" width="79" height="226" rx="4" fill="#3A3939"/>
<rect x="705" y="257" width="79" height="226" rx="4" fill="#686767"/>
<rect x="537.494" y="172.124" width="83.1221" height="37.8755" rx="18.9378" fill="#8A8282"/>
<path fill-rule="evenodd" clip-rule="evenodd" d="M511.536 -1.78418L563.908 184.457L573.343 180.905L522.157 -1.60603L511.536 -1.78418Z" fill="#686767"/>
<path fill-rule="evenodd" clip-rule="evenodd" d="M593.018 184.467L645.218 -1.75824L634.739 -1.58289L583.584 180.914L593.018 184.467Z" fill="#686767"/>
<rect x="542.584" y="172.124" width="71.2475" height="17.941" rx="8.97052" fill="#A8A0A0"/>
<path d="M812 580.024C812 579.36 812.22 578.715 812.626 578.19L874.626 497.954C876.376 495.69 880 496.928 880 499.789V600.966C880 601.672 879.751 602.355 879.297 602.896L817.297 676.695C815.496 678.839 812 677.565 812 674.765V580.024Z" fill="#BCBCBC"/>
<rect x="279" y="577" width="538" height="106" rx="3" fill="#D9D9D9"/>
<rect x="325" y="588" width="300" height="81" rx="3" fill="#C0BCBC"/>
<rect x="325" y="588" width="300" height="81" rx="3" fill="#C0BCBC"/>
<path fill-rule="evenodd" clip-rule="evenodd" d="M622 669C623.657 669 625 667.657 625 666V641.686H368.144C367.566 641.686 367.001 641.853 366.516 642.167L325 669H622Z" fill="#C0BCBC"/>
<path fill-rule="evenodd" clip-rule="evenodd" d="M622 669C623.657 669 625 667.657 625 666V641.686H368.144C367.566 641.686 367.001 641.853 366.516 642.167L325 669H622Z" fill="#B4B2B2"/>
<path d="M214 683V417H158.5L103 449.871V683H214Z" fill="#7C9390"/>
<rect x="103" y="449" width="65" height="270" fill="#83ABA7"/>
<path d="M279 719V417H223.5L168 454.319V719H279Z" fill="#6E7C86"/>
<rect x="168" y="449" width="61" height="270" fill="#7599B2"/>
<path fill-rule="evenodd" clip-rule="evenodd" d="M986 425H922.5L859 457.723V719H986V425Z" fill="#634C48"/>
<rect x="859" y="456" width="68" height="263" fill="#8A564B"/>
<path fill-rule="evenodd" clip-rule="evenodd" d="M1055 427H991.5L928 459.5V719H1055V427Z" fill="#9E6F53"/>
<rect x="928" y="456" width="68" height="263" fill="#BD7D55"/>
<path fill-rule="evenodd" clip-rule="evenodd" d="M1160 427H1078L996 459.723V721H1160V427Z" fill="#A29E7C"/>
<path fill-rule="evenodd" clip-rule="evenodd" d="M1160 427L1063 457L996 459.723V721H1160V427Z" fill="#B5AE6B"/>
<rect x="996" y="457" width="67" height="263" fill="#D5CC7B"/>
<path d="M844.631 32.0654C847.711 35.5301 846.178 41.1337 847.388 45.4551C850.375 56.1239 856.55 66.0364 862.352 75.3849C877.462 99.7283 892.064 124.457 908.33 148.044C920.886 166.25 933.381 184.464 946.038 202.587C957.774 219.39 968.853 237.479 983.253 252.207C1002.74 272.14 1023.09 290.716 1046.66 305.864C1054.55 310.939 1069.07 326.244 1078.56 326.244" stroke="#AB7F79" stroke-width="10" stroke-linecap="round"/>
<path d="M904.885 30.2939C904.885 75.1843 943.899 112.463 971.242 143.712C987.477 162.266 1006.36 178.167 1022.24 196.877C1030.02 206.043 1040.58 215.012 1050.6 221.687C1062.47 229.6 1072.46 241.299 1084.66 248.27C1093.71 253.442 1106.76 260.429 1112.23 269.536" stroke="#AB7F79" stroke-width="10" stroke-linecap="round"/>
<path d="M991.721 35.6104C991.721 47.2676 1004.15 62.0662 1011.21 70.6598C1025.45 87.9673 1045.18 104.157 1063 117.524C1084.1 133.347 1106.46 146.953 1128.18 161.434" stroke="#AB7F79" stroke-width="10" stroke-linecap="round"/>
<path d="M42.2725 398.989C57.302 403.035 76.1217 392.499 88.7279 385.146C105.431 375.402 125.931 365.565 139.407 351.477C155.896 334.238 173.89 318.05 190.789 301.15C210.749 281.191 225.545 257.306 241.82 234.4C279.043 182.011 293.554 120.469 293.554 56.9072" stroke="#AB7F79" stroke-width="10" stroke-linecap="round"/>
<path d="M27.4912 352.533C58.2597 352.533 88.2656 317.906 109.023 298.335C123.678 284.517 137.152 269.644 148.909 253.287C159.61 238.399 172.376 225.349 179.997 208.474C190.521 185.17 207.044 164.072 211.202 138.087C214.416 117.993 217.536 100.8 217.536 80.1348" stroke="#AB7F79" stroke-width="10" stroke-linecap="round"/>
<path d="M33.8262 242.729C47.0552 241.951 56.424 228.007 63.5061 218.446C78.8868 197.682 97.6272 177.58 105.621 152.399C112.365 131.155 122.843 112.472 127.793 90.6933C130.232 79.9611 130.96 65.6597 130.96 54.7959" stroke="#AB7F79" stroke-width="10" stroke-linecap="round"/>
<path d="M27.4912 141.372C31.3801 140.886 39.4704 108.135 41.0994 103.48C46.4746 88.1226 48.6073 70.9289 48.6073 54.7959" stroke="#AB7F79" stroke-width="10" stroke-linecap="round"/>
<path d="M116.347 653.347C116.347 651.354 116.676 649.633 117.335 648.183C117.98 646.733 118.874 645.539 120.016 644.602C121.159 643.649 122.499 642.946 124.037 642.492C125.575 642.038 127.223 641.811 128.981 641.811C129.992 641.811 131.01 641.899 132.035 642.075C133.046 642.25 134.027 642.529 134.979 642.91C135.917 643.291 136.796 643.781 137.616 644.382C138.437 644.982 139.154 645.708 139.77 646.557C140.37 647.407 140.846 648.396 141.198 649.523C141.549 650.651 141.725 651.926 141.725 653.347C141.725 654.797 141.542 656.167 141.176 657.456C140.81 658.745 140.216 659.895 139.396 660.905C138.561 661.901 137.47 662.729 136.122 663.388C134.774 664.047 133.112 664.479 131.134 664.685V668.815H141V675.034H117.05V668.815H126.454V664.685C124.696 664.421 123.18 663.959 121.906 663.3C120.631 662.641 119.584 661.821 118.764 660.839C117.929 659.858 117.321 658.737 116.94 657.478C116.544 656.203 116.347 654.826 116.347 653.347ZM131.947 658.181C132.855 657.99 133.639 657.69 134.298 657.28C134.958 656.87 135.478 656.342 135.858 655.698C136.225 655.039 136.408 654.255 136.408 653.347C136.408 652.438 136.225 651.662 135.858 651.018C135.478 650.373 134.958 649.853 134.298 649.458C133.639 649.047 132.863 648.754 131.969 648.579C131.061 648.388 130.08 648.293 129.025 648.293C127.985 648.293 127.018 648.388 126.125 648.579C125.216 648.754 124.433 649.047 123.773 649.458C123.114 649.853 122.594 650.373 122.213 651.018C121.833 651.662 121.642 652.438 121.642 653.347C121.642 654.255 121.833 655.039 122.213 655.698C122.594 656.342 123.114 656.87 123.773 657.28C124.433 657.69 125.216 657.99 126.125 658.181C127.018 658.371 127.985 658.466 129.025 658.466C130.08 658.466 131.054 658.371 131.947 658.181ZM130.739 621.289V630.43H141V636.648H117.05V630.43H125.707L125.707 621.289H117.05V615.093H141V621.289H130.739ZM140.78 602.526C140.15 604.034 139.271 605.324 138.144 606.393C137.016 607.448 135.675 608.261 134.123 608.832C132.57 609.388 130.871 609.667 129.025 609.667C127.179 609.667 125.48 609.388 123.927 608.832C122.375 608.261 121.042 607.448 119.928 606.393C118.8 605.324 117.921 604.034 117.292 602.526C116.662 601.017 116.347 599.318 116.347 597.428C116.347 595.509 116.662 593.795 117.292 592.286C117.921 590.763 118.8 589.481 119.928 588.441C121.042 587.387 122.375 586.581 123.927 586.024C125.48 585.468 127.179 585.189 129.025 585.189C130.871 585.189 132.57 585.468 134.123 586.024C135.675 586.581 137.016 587.387 138.144 588.441C139.271 589.481 140.15 590.763 140.78 592.286C141.41 593.795 141.725 595.509 141.725 597.428C141.725 599.318 141.41 601.017 140.78 602.526ZM131.706 602.877C132.599 602.687 133.397 602.365 134.101 601.91C134.789 601.456 135.346 600.863 135.771 600.131C136.195 599.398 136.408 598.497 136.408 597.428C136.408 596.315 136.203 595.392 135.792 594.659C135.368 593.912 134.818 593.319 134.145 592.88C133.456 592.44 132.672 592.133 131.793 591.957C130.9 591.766 129.977 591.671 129.025 591.671C128.087 591.671 127.172 591.766 126.278 591.957C125.385 592.133 124.601 592.44 123.927 592.88C123.239 593.319 122.689 593.912 122.279 594.659C121.854 595.392 121.642 596.315 121.642 597.428C121.642 598.497 121.854 599.398 122.279 600.131C122.704 600.863 123.268 601.456 123.971 601.91C124.66 602.365 125.451 602.694 126.344 602.899C127.223 603.09 128.117 603.185 129.025 603.185C129.933 603.185 130.827 603.082 131.706 602.877ZM136.408 569.963C136.408 569.245 136.269 568.623 135.99 568.095C135.697 567.568 135.338 567.129 134.914 566.777C134.489 566.425 134.035 566.169 133.551 566.008C133.068 565.832 132.628 565.744 132.233 565.744V559.262C132.628 559.262 133.141 559.336 133.771 559.482C134.401 559.614 135.067 559.841 135.771 560.163C136.474 560.486 137.184 560.918 137.902 561.46C138.605 561.987 139.242 562.654 139.813 563.459C140.37 564.25 140.824 565.18 141.176 566.25C141.542 567.319 141.725 568.557 141.725 569.963C141.725 571.794 141.447 573.413 140.89 574.819C140.333 576.211 139.521 577.383 138.451 578.335C137.367 579.272 136.034 579.99 134.452 580.488C132.87 580.971 131.061 581.213 129.025 581.213C126.989 581.213 125.187 580.949 123.62 580.422C122.038 579.88 120.712 579.118 119.643 578.137C118.559 577.155 117.738 575.976 117.182 574.599C116.625 573.208 116.347 571.662 116.347 569.963C116.347 569.231 116.405 568.476 116.522 567.7C116.64 566.909 116.845 566.133 117.138 565.371C117.416 564.609 117.782 563.884 118.236 563.196C118.69 562.492 119.262 561.87 119.95 561.328C120.624 560.771 121.422 560.317 122.345 559.966C123.253 559.599 124.308 559.365 125.509 559.262V565.744C124.879 565.862 124.33 566.023 123.861 566.228C123.378 566.433 122.975 566.704 122.653 567.041C122.316 567.363 122.067 567.766 121.906 568.249C121.73 568.718 121.642 569.289 121.642 569.963C121.642 571.003 121.884 571.838 122.367 572.468C122.851 573.083 123.458 573.559 124.191 573.896C124.923 574.233 125.722 574.46 126.586 574.577C127.45 574.68 128.263 574.731 129.025 574.731C129.816 574.731 130.651 574.687 131.53 574.599C132.394 574.511 133.192 574.306 133.925 573.984C134.643 573.662 135.236 573.186 135.705 572.556C136.173 571.926 136.408 571.062 136.408 569.963ZM117.05 535.203H122.104V542.454H141V548.65H122.104V555.901H117.05V535.203ZM140.934 515.978C140.978 516.535 141 516.959 141 517.252V530.48H117.05V524.262H125.377V517.912C125.377 516.432 125.531 515.114 125.839 513.957C126.146 512.785 126.623 511.796 127.267 510.99C127.912 510.185 128.732 509.569 129.728 509.145C130.709 508.72 131.874 508.507 133.222 508.507C134.438 508.507 135.478 508.683 136.342 509.035C137.206 509.386 137.931 509.84 138.517 510.397C139.088 510.939 139.542 511.547 139.879 512.221C140.202 512.895 140.451 513.554 140.626 514.198C140.788 514.843 140.89 515.436 140.934 515.978ZM130.695 516.33C130.46 516.754 130.299 517.245 130.211 517.802C130.109 518.344 130.058 518.922 130.058 519.538V524.262H136.32V519.01C136.32 518.527 136.283 518.051 136.21 517.582C136.122 517.099 135.968 516.667 135.749 516.286C135.514 515.89 135.199 515.575 134.804 515.341C134.394 515.106 133.866 514.989 133.222 514.989C132.592 514.989 132.072 515.114 131.662 515.363C131.251 515.597 130.929 515.919 130.695 516.33Z" fill="#C9D3D2"/>
<path d="M946.335 657.289C945.999 656.717 945.75 656.087 945.588 655.399C945.427 654.696 945.347 653.905 945.347 653.026C945.347 652.293 945.435 651.539 945.61 650.763C945.786 649.986 946.072 649.232 946.467 648.5C946.848 647.752 947.354 647.049 947.983 646.39C948.599 645.731 949.36 645.152 950.269 644.654C951.177 644.156 952.239 643.761 953.455 643.468C954.656 643.175 956.033 643.028 957.585 643.028C959.519 643.028 961.292 643.241 962.903 643.666C964.514 644.076 965.898 644.706 967.056 645.555C968.213 646.39 969.114 647.452 969.758 648.741C970.403 650.016 970.725 651.517 970.725 653.246C970.725 653.846 970.667 654.454 970.549 655.069C970.432 655.685 970.234 656.285 969.956 656.871C969.678 657.457 969.304 658.014 968.835 658.541C968.352 659.054 967.751 659.508 967.034 659.903V659.991H979.272V666.209H946.05V660.277H949.478V660.189C948.76 659.764 948.145 659.317 947.632 658.849C947.104 658.38 946.672 657.86 946.335 657.289ZM964.089 658.277C964.485 657.882 964.807 657.406 965.056 656.849C965.291 656.292 965.408 655.633 965.408 654.872C965.408 654.11 965.291 653.451 965.056 652.894C964.807 652.337 964.485 651.861 964.089 651.466C963.694 651.07 963.24 650.748 962.727 650.499C962.214 650.235 961.687 650.03 961.145 649.884C960.588 649.737 960.046 649.642 959.519 649.598C958.977 649.54 958.479 649.51 958.025 649.51C957.19 649.51 956.348 649.605 955.498 649.796C954.648 649.986 953.887 650.294 953.213 650.719C952.539 651.129 951.99 651.678 951.565 652.367C951.14 653.055 950.928 653.89 950.928 654.872C950.928 655.868 951.14 656.71 951.565 657.398C951.99 658.072 952.539 658.622 953.213 659.046C953.887 659.457 954.648 659.757 955.498 659.947C956.348 660.138 957.19 660.233 958.025 660.233C958.479 660.233 958.977 660.211 959.519 660.167C960.046 660.108 960.588 660.006 961.145 659.859C961.687 659.713 962.214 659.515 962.727 659.266C963.24 659.002 963.694 658.673 964.089 658.277ZM970.022 632.372C969.539 633.779 968.784 635.009 967.759 636.064C966.719 637.104 965.378 637.924 963.738 638.525C962.097 639.125 960.105 639.426 957.761 639.426C956.135 639.426 954.575 639.213 953.081 638.788C951.572 638.349 950.247 637.675 949.104 636.767C947.961 635.844 947.053 634.672 946.379 633.251C945.691 631.816 945.347 630.095 945.347 628.088C945.347 625.964 945.698 624.177 946.401 622.726C947.09 621.276 948.071 620.112 949.346 619.233C950.62 618.339 952.158 617.702 953.96 617.321C955.762 616.94 957.761 616.75 959.958 616.75V633.163C960.178 633.163 960.471 633.142 960.837 633.098C961.204 633.054 961.599 632.966 962.024 632.834C962.449 632.702 962.881 632.512 963.32 632.263C963.745 632.014 964.133 631.684 964.485 631.274C964.836 630.849 965.122 630.336 965.342 629.736C965.562 629.121 965.671 628.388 965.671 627.538C965.671 627.099 965.613 626.667 965.496 626.242C965.364 625.803 965.181 625.4 964.946 625.034C964.697 624.667 964.404 624.352 964.067 624.089C963.716 623.81 963.32 623.613 962.881 623.496V617.058C963.32 617.058 963.826 617.153 964.397 617.343C964.954 617.534 965.525 617.827 966.111 618.222C966.682 618.603 967.246 619.086 967.803 619.672C968.359 620.258 968.857 620.954 969.297 621.76C969.722 622.565 970.066 623.481 970.33 624.506C970.593 625.517 970.725 626.645 970.725 627.89C970.725 629.487 970.491 630.981 970.022 632.372ZM951.499 631.274C951.924 631.757 952.488 632.16 953.191 632.482C953.894 632.79 954.773 632.944 955.828 632.944V623.21C954.773 623.21 953.894 623.371 953.191 623.693C952.488 624.001 951.931 624.396 951.521 624.88C951.096 625.349 950.803 625.869 950.642 626.44C950.466 627.011 950.378 627.56 950.378 628.088C950.378 628.6 950.466 629.142 950.642 629.714C950.803 630.285 951.089 630.805 951.499 631.274ZM960.903 599.876C961.035 600.33 961.152 600.835 961.255 601.392C961.357 601.934 961.438 602.505 961.497 603.106C961.555 603.692 961.584 604.256 961.584 604.798C961.584 606.16 961.467 607.368 961.233 608.423C960.984 609.478 960.588 610.364 960.046 611.082C959.504 611.8 958.801 612.342 957.937 612.708C957.058 613.074 955.981 613.257 954.707 613.257H946.05V607.039H953.477C954.165 607.039 954.729 606.958 955.168 606.797C955.608 606.621 955.959 606.358 956.223 606.006C956.487 605.655 956.67 605.215 956.772 604.688C956.875 604.16 956.926 603.538 956.926 602.82C956.926 601.751 956.831 600.901 956.641 600.271C956.436 599.641 956.208 599.151 955.959 598.799H946.05V592.581H970V598.799H960.552C960.669 599.063 960.786 599.422 960.903 599.876ZM970 561.688V569.796L959.893 576.827L962.419 579.332H970V585.55H946.05V579.332H955.146L946.05 570.367V562.106L956.003 571.993L970 561.688ZM955.059 546.374C955.029 546.154 954.985 545.92 954.927 545.671C954.868 545.407 954.773 545.166 954.641 544.946C954.495 544.726 954.304 544.543 954.07 544.397C953.821 544.25 953.491 544.177 953.081 544.177C952.686 544.177 952.327 544.243 952.004 544.375C951.667 544.492 951.382 544.697 951.147 544.99C950.898 545.283 950.708 545.678 950.576 546.176C950.444 546.66 950.378 547.268 950.378 548C950.378 548.835 950.466 549.509 950.642 550.022C950.803 550.52 951.038 550.915 951.345 551.208C951.638 551.501 951.99 551.713 952.4 551.845C952.795 551.977 953.22 552.072 953.674 552.131V558.349C953.381 558.349 952.979 558.305 952.466 558.217C951.938 558.115 951.367 557.939 950.752 557.69C950.137 557.426 949.514 557.067 948.884 556.613C948.254 556.145 947.683 555.537 947.17 554.79C946.643 554.028 946.211 553.105 945.874 552.021C945.537 550.937 945.361 549.641 945.347 548.132C945.347 545.993 945.566 544.265 946.006 542.946C946.431 541.613 946.995 540.581 947.698 539.848C948.386 539.101 949.163 538.603 950.027 538.354C950.876 538.09 951.726 537.959 952.576 537.959H965.276C965.994 537.959 966.587 537.922 967.056 537.849C967.51 537.761 967.876 537.651 968.154 537.519C968.418 537.387 968.616 537.241 968.748 537.08C968.865 536.904 968.953 536.721 969.011 536.53H970V543.408C969.722 543.525 969.355 543.657 968.901 543.803C968.433 543.935 967.869 544.001 967.209 544.001C967.708 544.484 968.169 544.961 968.594 545.429C969.019 545.883 969.392 546.396 969.714 546.967C970.022 547.539 970.264 548.198 970.439 548.945C970.63 549.692 970.725 550.593 970.725 551.648C970.725 552.717 970.564 553.706 970.242 554.614C969.934 555.507 969.473 556.284 968.857 556.943C968.242 557.602 967.473 558.115 966.55 558.481C965.627 558.847 964.558 559.03 963.342 559.03C962.361 559.03 961.453 558.877 960.618 558.569C959.768 558.261 959.028 557.829 958.398 557.273C957.754 556.701 957.227 556.013 956.816 555.207C956.392 554.387 956.106 553.471 955.959 552.461L955.059 546.374ZM966.133 550.9C966.25 550.52 966.309 550.109 966.309 549.67C966.309 549.436 966.287 549.135 966.243 548.769C966.184 548.403 966.082 548.015 965.935 547.605C965.789 547.194 965.591 546.784 965.342 546.374C965.078 545.964 964.741 545.598 964.331 545.275C963.921 544.953 963.423 544.69 962.837 544.484C962.236 544.279 961.533 544.177 960.728 544.177H958.311C958.516 544.558 958.706 544.939 958.882 545.319C959.043 545.7 959.182 546.206 959.299 546.836L959.607 548.483C959.739 549.201 959.893 549.831 960.068 550.373C960.244 550.915 960.479 551.369 960.771 551.735C961.05 552.087 961.394 552.358 961.804 552.548C962.214 552.724 962.727 552.812 963.342 552.812C963.855 552.812 964.302 552.732 964.683 552.57C965.049 552.409 965.356 552.19 965.605 551.911C965.84 551.618 966.016 551.281 966.133 550.9Z" fill="#E4AD8A"/>
<path d="M187.05 634.437H211V666.034H187.05V659.815H205.968V653.333H187.05V647.137H205.968V640.655H187.05V634.437ZM211 603.566V611.674L200.893 618.705L203.419 621.21H211V627.429H187.05V621.21H196.146L187.05 612.246V603.984L197.003 613.871L211 603.566ZM210.78 593.482C210.15 594.991 209.271 596.28 208.144 597.349C207.016 598.404 205.675 599.217 204.123 599.788C202.57 600.345 200.871 600.623 199.025 600.623C197.179 600.623 195.48 600.345 193.927 599.788C192.375 599.217 191.042 598.404 189.928 597.349C188.8 596.28 187.921 594.991 187.292 593.482C186.662 591.973 186.347 590.274 186.347 588.384C186.347 586.465 186.662 584.751 187.292 583.242C187.921 581.719 188.8 580.437 189.928 579.397C191.042 578.343 192.375 577.537 193.927 576.98C195.48 576.424 197.179 576.145 199.025 576.145C200.871 576.145 202.57 576.424 204.123 576.98C205.675 577.537 207.016 578.343 208.144 579.397C209.271 580.437 210.15 581.719 210.78 583.242C211.41 584.751 211.725 586.465 211.725 588.384C211.725 590.274 211.41 591.973 210.78 593.482ZM201.706 593.833C202.599 593.643 203.397 593.321 204.101 592.867C204.789 592.412 205.346 591.819 205.771 591.087C206.195 590.354 206.408 589.453 206.408 588.384C206.408 587.271 206.203 586.348 205.792 585.616C205.368 584.868 204.818 584.275 204.145 583.836C203.456 583.396 202.672 583.089 201.793 582.913C200.9 582.722 199.977 582.627 199.025 582.627C198.087 582.627 197.172 582.722 196.278 582.913C195.385 583.089 194.601 583.396 193.927 583.836C193.239 584.275 192.689 584.868 192.279 585.616C191.854 586.348 191.642 587.271 191.642 588.384C191.642 589.453 191.854 590.354 192.279 591.087C192.704 591.819 193.268 592.412 193.971 592.867C194.66 593.321 195.451 593.65 196.344 593.855C197.223 594.046 198.117 594.141 199.025 594.141C199.933 594.141 200.827 594.038 201.706 593.833ZM192.104 561.446L196.564 561.578C199.069 561.652 201.266 561.813 203.156 562.062C205.045 562.311 206.627 562.721 207.902 563.292C209.162 563.849 210.114 564.611 210.758 565.577C211.403 566.529 211.725 567.753 211.725 569.247C211.725 569.95 211.681 570.565 211.593 571.092C211.52 571.62 211.41 572.052 211.264 572.389H206.056C206.144 572.184 206.225 571.927 206.298 571.62C206.371 571.298 206.408 570.909 206.408 570.455C206.408 569.987 206.269 569.569 205.99 569.203C205.697 568.837 205.177 568.522 204.43 568.258C203.668 567.994 202.621 567.789 201.288 567.643C199.955 567.496 198.234 567.401 196.125 567.357L187.05 567.181V547.911H211V554.108H192.104V561.446ZM196.059 529.543C196.029 529.323 195.985 529.089 195.927 528.84C195.868 528.576 195.773 528.335 195.641 528.115C195.495 527.895 195.304 527.712 195.07 527.566C194.821 527.419 194.491 527.346 194.081 527.346C193.686 527.346 193.327 527.412 193.004 527.544C192.667 527.661 192.382 527.866 192.147 528.159C191.898 528.452 191.708 528.847 191.576 529.345C191.444 529.829 191.378 530.437 191.378 531.169C191.378 532.004 191.466 532.678 191.642 533.191C191.803 533.689 192.038 534.084 192.345 534.377C192.638 534.67 192.99 534.882 193.4 535.014C193.795 535.146 194.22 535.241 194.674 535.3V541.518C194.381 541.518 193.979 541.474 193.466 541.386C192.938 541.284 192.367 541.108 191.752 540.859C191.137 540.595 190.514 540.236 189.884 539.782C189.254 539.314 188.683 538.706 188.17 537.959C187.643 537.197 187.211 536.274 186.874 535.19C186.537 534.106 186.361 532.81 186.347 531.301C186.347 529.162 186.566 527.434 187.006 526.115C187.431 524.782 187.995 523.75 188.698 523.017C189.386 522.27 190.163 521.772 191.027 521.523C191.876 521.259 192.726 521.128 193.576 521.128H206.276C206.994 521.128 207.587 521.091 208.056 521.018C208.51 520.93 208.876 520.82 209.154 520.688C209.418 520.556 209.616 520.41 209.748 520.249C209.865 520.073 209.953 519.89 210.011 519.699H211V526.577C210.722 526.694 210.355 526.826 209.901 526.972C209.433 527.104 208.869 527.17 208.209 527.17C208.708 527.653 209.169 528.129 209.594 528.598C210.019 529.052 210.392 529.565 210.714 530.136C211.022 530.708 211.264 531.367 211.439 532.114C211.63 532.861 211.725 533.762 211.725 534.817C211.725 535.886 211.564 536.875 211.242 537.783C210.934 538.676 210.473 539.453 209.857 540.112C209.242 540.771 208.473 541.284 207.55 541.65C206.627 542.016 205.558 542.199 204.342 542.199C203.361 542.199 202.453 542.046 201.618 541.738C200.768 541.43 200.028 540.998 199.398 540.442C198.754 539.87 198.227 539.182 197.816 538.376C197.392 537.556 197.106 536.64 196.959 535.629L196.059 529.543ZM207.133 534.069C207.25 533.689 207.309 533.278 207.309 532.839C207.309 532.605 207.287 532.304 207.243 531.938C207.184 531.572 207.082 531.184 206.935 530.774C206.789 530.363 206.591 529.953 206.342 529.543C206.078 529.133 205.741 528.767 205.331 528.444C204.921 528.122 204.423 527.858 203.837 527.653C203.236 527.448 202.533 527.346 201.728 527.346H199.311C199.516 527.727 199.706 528.108 199.882 528.488C200.043 528.869 200.182 529.375 200.299 530.004L200.607 531.652C200.739 532.37 200.893 533 201.068 533.542C201.244 534.084 201.479 534.538 201.771 534.904C202.05 535.256 202.394 535.527 202.804 535.717C203.214 535.893 203.727 535.981 204.342 535.981C204.855 535.981 205.302 535.9 205.683 535.739C206.049 535.578 206.356 535.358 206.605 535.08C206.84 534.787 207.016 534.45 207.133 534.069Z" fill="#BED4E3"/>
<path d="M901 628.544V644.254H906.757V650.099H895.968V647.616C894.87 647.03 893.72 646.547 892.519 646.166C891.303 645.771 890.08 645.456 888.849 645.221C887.619 644.987 886.417 644.818 885.246 644.716C884.059 644.613 882.946 644.54 881.906 644.496C880.866 644.452 879.928 644.438 879.093 644.452C878.258 644.452 877.577 644.445 877.05 644.43V625.709H895.968V622.699H906.757V628.544H901ZM893.595 640.409C894.445 640.673 895.236 640.995 895.968 641.376V631.906H882.104V639.025C882.543 639.025 883.085 639.032 883.729 639.047C884.374 639.047 885.092 639.076 885.883 639.135C886.659 639.179 887.487 639.252 888.366 639.354C889.245 639.442 890.124 639.582 891.002 639.772C891.881 639.948 892.746 640.16 893.595 640.409ZM886.059 607.407C886.029 607.187 885.985 606.953 885.927 606.704C885.868 606.44 885.773 606.199 885.641 605.979C885.495 605.759 885.304 605.576 885.07 605.43C884.821 605.283 884.491 605.21 884.081 605.21C883.686 605.21 883.327 605.276 883.004 605.408C882.667 605.525 882.382 605.73 882.147 606.023C881.898 606.316 881.708 606.711 881.576 607.209C881.444 607.693 881.378 608.301 881.378 609.033C881.378 609.868 881.466 610.542 881.642 611.055C881.803 611.553 882.038 611.948 882.345 612.241C882.638 612.534 882.99 612.746 883.4 612.878C883.795 613.01 884.22 613.105 884.674 613.164V619.382C884.381 619.382 883.979 619.338 883.466 619.25C882.938 619.148 882.367 618.972 881.752 618.723C881.137 618.459 880.514 618.1 879.884 617.646C879.254 617.178 878.683 616.57 878.17 615.823C877.643 615.061 877.211 614.138 876.874 613.054C876.537 611.97 876.361 610.674 876.347 609.165C876.347 607.026 876.566 605.298 877.006 603.979C877.431 602.646 877.995 601.614 878.698 600.881C879.386 600.134 880.163 599.636 881.027 599.387C881.876 599.123 882.726 598.992 883.576 598.992H896.276C896.994 598.992 897.587 598.955 898.056 598.882C898.51 598.794 898.876 598.684 899.154 598.552C899.418 598.42 899.616 598.274 899.748 598.113C899.865 597.937 899.953 597.754 900.011 597.563H901V604.441C900.722 604.558 900.355 604.69 899.901 604.836C899.433 604.968 898.869 605.034 898.209 605.034C898.708 605.517 899.169 605.994 899.594 606.462C900.019 606.916 900.392 607.429 900.714 608C901.022 608.572 901.264 609.231 901.439 609.978C901.63 610.725 901.725 611.626 901.725 612.681C901.725 613.75 901.564 614.739 901.242 615.647C900.934 616.54 900.473 617.317 899.857 617.976C899.242 618.635 898.473 619.148 897.55 619.514C896.627 619.88 895.558 620.063 894.342 620.063C893.361 620.063 892.453 619.91 891.618 619.602C890.768 619.294 890.028 618.862 889.398 618.306C888.754 617.734 888.227 617.046 887.816 616.24C887.392 615.42 887.106 614.504 886.959 613.494L886.059 607.407ZM897.133 611.933C897.25 611.553 897.309 611.142 897.309 610.703C897.309 610.469 897.287 610.168 897.243 609.802C897.184 609.436 897.082 609.048 896.935 608.638C896.789 608.227 896.591 607.817 896.342 607.407C896.078 606.997 895.741 606.631 895.331 606.308C894.921 605.986 894.423 605.723 893.837 605.517C893.236 605.312 892.533 605.21 891.728 605.21H889.311C889.516 605.591 889.706 605.972 889.882 606.352C890.043 606.733 890.182 607.239 890.299 607.869L890.607 609.517C890.739 610.234 890.893 610.864 891.068 611.406C891.244 611.948 891.479 612.402 891.771 612.768C892.05 613.12 892.394 613.391 892.804 613.581C893.214 613.757 893.727 613.845 894.342 613.845C894.855 613.845 895.302 613.765 895.683 613.603C896.049 613.442 896.356 613.223 896.605 612.944C896.84 612.651 897.016 612.314 897.133 611.933ZM891.903 580.601C892.035 581.055 892.152 581.561 892.255 582.117C892.357 582.659 892.438 583.231 892.497 583.831C892.555 584.417 892.584 584.981 892.584 585.523C892.584 586.886 892.467 588.094 892.233 589.149C891.984 590.203 891.588 591.09 891.046 591.807C890.504 592.525 889.801 593.067 888.937 593.433C888.058 593.8 886.981 593.983 885.707 593.983H877.05V587.764H884.477C885.165 587.764 885.729 587.684 886.168 587.523C886.608 587.347 886.959 587.083 887.223 586.732C887.487 586.38 887.67 585.941 887.772 585.413C887.875 584.886 887.926 584.263 887.926 583.546C887.926 582.476 887.831 581.627 887.641 580.997C887.436 580.367 887.208 579.876 886.959 579.525H877.05V573.306H901V579.525H891.552C891.669 579.788 891.786 580.147 891.903 580.601ZM886.059 555.509C886.029 555.29 885.985 555.055 885.927 554.806C885.868 554.543 885.773 554.301 885.641 554.081C885.495 553.862 885.304 553.678 885.07 553.532C884.821 553.385 884.491 553.312 884.081 553.312C883.686 553.312 883.327 553.378 883.004 553.51C882.667 553.627 882.382 553.832 882.147 554.125C881.898 554.418 881.708 554.814 881.576 555.312C881.444 555.795 881.378 556.403 881.378 557.135C881.378 557.97 881.466 558.644 881.642 559.157C881.803 559.655 882.038 560.05 882.345 560.343C882.638 560.636 882.99 560.849 883.4 560.981C883.795 561.113 884.22 561.208 884.674 561.266V567.485C884.381 567.485 883.979 567.441 883.466 567.353C882.938 567.25 882.367 567.074 881.752 566.825C881.137 566.562 880.514 566.203 879.884 565.749C879.254 565.28 878.683 564.672 878.17 563.925C877.643 563.163 877.211 562.24 876.874 561.156C876.537 560.072 876.361 558.776 876.347 557.267C876.347 555.129 876.566 553.4 877.006 552.082C877.431 550.749 877.995 549.716 878.698 548.984C879.386 548.237 880.163 547.738 881.027 547.489C881.876 547.226 882.726 547.094 883.576 547.094H896.276C896.994 547.094 897.587 547.057 898.056 546.984C898.51 546.896 898.876 546.786 899.154 546.654C899.418 546.523 899.616 546.376 899.748 546.215C899.865 546.039 899.953 545.856 900.011 545.666H901V552.543C900.722 552.66 900.355 552.792 899.901 552.939C899.433 553.071 898.869 553.136 898.209 553.136C898.708 553.62 899.169 554.096 899.594 554.565C900.019 555.019 900.392 555.531 900.714 556.103C901.022 556.674 901.264 557.333 901.439 558.08C901.63 558.827 901.725 559.728 901.725 560.783C901.725 561.852 901.564 562.841 901.242 563.749C900.934 564.643 900.473 565.419 899.857 566.078C899.242 566.738 898.473 567.25 897.55 567.616C896.627 567.983 895.558 568.166 894.342 568.166C893.361 568.166 892.453 568.012 891.618 567.704C890.768 567.397 890.028 566.965 889.398 566.408C888.754 565.837 888.227 565.148 887.816 564.342C887.392 563.522 887.106 562.607 886.959 561.596L886.059 555.509ZM897.133 560.036C897.25 559.655 897.309 559.245 897.309 558.805C897.309 558.571 897.287 558.271 897.243 557.904C897.184 557.538 897.082 557.15 896.935 556.74C896.789 556.33 896.591 555.92 896.342 555.509C896.078 555.099 895.741 554.733 895.331 554.411C894.921 554.089 894.423 553.825 893.837 553.62C893.236 553.415 892.533 553.312 891.728 553.312H889.311C889.516 553.693 889.706 554.074 889.882 554.455C890.043 554.836 890.182 555.341 890.299 555.971L890.607 557.619C890.739 558.337 890.893 558.967 891.068 559.508C891.244 560.05 891.479 560.505 891.771 560.871C892.05 561.222 892.394 561.493 892.804 561.684C893.214 561.86 893.727 561.947 894.342 561.947C894.855 561.947 895.302 561.867 895.683 561.706C896.049 561.545 896.356 561.325 896.605 561.047C896.84 560.754 897.016 560.417 897.133 560.036Z" fill="#C69186"/>
<path d="M1030.69 668.168L1013.05 663.268V656.61L1036.6 664.85C1037.98 665.319 1039.18 665.744 1040.19 666.125C1041.21 666.505 1042.09 666.886 1042.82 667.267C1043.57 667.633 1044.18 668.029 1044.65 668.454C1045.13 668.864 1045.51 669.347 1045.79 669.904C1046.07 670.46 1046.26 671.112 1046.36 671.859C1046.48 672.606 1046.54 673.493 1046.54 674.518C1046.54 674.928 1046.52 675.316 1046.49 675.683C1046.48 676.034 1046.45 676.459 1046.4 676.957H1041.37C1041.4 676.708 1041.43 676.4 1041.46 676.034C1041.49 675.668 1041.5 675.36 1041.5 675.111C1041.5 674.452 1041.38 673.896 1041.13 673.441C1040.88 672.987 1040.58 672.628 1040.23 672.365C1039.89 672.086 1039.54 671.889 1039.18 671.771C1038.81 671.654 1038.5 671.596 1038.25 671.596L1013.05 680.363V673.397L1030.69 668.256V668.168ZM1026.74 636.726V645.867H1037V652.085H1013.05V645.867H1021.71V636.726H1013.05V630.53H1037V636.726H1026.74ZM1037 608.316H1022.56V608.426L1037 616.886V623.675H1013.05V617.457H1027.82V617.369L1013.05 608.646V602.12H1037V608.316ZM1037 581.664V595.09H1013.05V582.697C1013.05 581.598 1013.15 580.544 1013.34 579.533C1013.53 578.508 1013.86 577.607 1014.35 576.83C1014.81 576.054 1015.46 575.439 1016.28 574.985C1017.09 574.516 1018.11 574.281 1019.36 574.281C1020.07 574.281 1020.7 574.362 1021.22 574.523C1021.75 574.67 1022.21 574.875 1022.59 575.138C1022.95 575.402 1023.27 575.71 1023.53 576.061C1023.78 576.398 1023.99 576.75 1024.17 577.116C1024.59 575.915 1025.27 574.999 1026.21 574.369C1027.13 573.739 1028.24 573.425 1029.53 573.425C1030.66 573.425 1031.68 573.622 1032.61 574.018C1033.51 574.399 1034.3 574.948 1034.96 575.666C1035.6 576.369 1036.11 577.233 1036.47 578.258C1036.82 579.269 1037 580.404 1037 581.664ZM1026.74 582.148C1026.65 582.69 1026.61 583.334 1026.61 584.081V588.871H1032.58V584.081C1032.58 583.188 1032.49 582.47 1032.3 581.928C1032.11 581.371 1031.87 580.946 1031.57 580.654C1031.28 580.346 1030.96 580.148 1030.61 580.06C1030.25 579.958 1029.92 579.906 1029.62 579.906C1029.03 579.906 1028.55 579.987 1028.17 580.148C1027.77 580.295 1027.46 580.536 1027.22 580.873C1026.99 581.196 1026.83 581.62 1026.74 582.148ZM1021.79 581.203C1021.59 580.939 1021.33 580.756 1021.03 580.654C1020.7 580.536 1020.33 580.478 1019.91 580.478C1019.55 580.478 1019.23 580.536 1018.94 580.654C1018.63 580.756 1018.37 580.939 1018.17 581.203C1017.95 581.467 1017.78 581.818 1017.66 582.258C1017.53 582.697 1017.47 583.246 1017.47 583.905V588.871H1022.45V584.081C1022.45 583.378 1022.4 582.792 1022.3 582.323C1022.18 581.855 1022.01 581.481 1021.79 581.203ZM1037.02 562.263C1036.54 563.67 1035.78 564.9 1034.76 565.955C1033.72 566.995 1032.38 567.815 1030.74 568.416C1029.1 569.016 1027.1 569.317 1024.76 569.317C1023.14 569.317 1021.58 569.104 1020.08 568.679C1018.57 568.24 1017.25 567.566 1016.1 566.658C1014.96 565.735 1014.05 564.563 1013.38 563.142C1012.69 561.707 1012.35 559.985 1012.35 557.979C1012.35 555.855 1012.7 554.067 1013.4 552.617C1014.09 551.167 1015.07 550.003 1016.35 549.124C1017.62 548.23 1019.16 547.593 1020.96 547.212C1022.76 546.831 1024.76 546.641 1026.96 546.641V563.054C1027.18 563.054 1027.47 563.032 1027.84 562.988C1028.2 562.944 1028.6 562.857 1029.02 562.725C1029.45 562.593 1029.88 562.402 1030.32 562.153C1030.75 561.904 1031.13 561.575 1031.48 561.165C1031.84 560.74 1032.12 560.227 1032.34 559.627C1032.56 559.011 1032.67 558.279 1032.67 557.429C1032.67 556.99 1032.61 556.558 1032.5 556.133C1032.36 555.693 1032.18 555.291 1031.95 554.924C1031.7 554.558 1031.4 554.243 1031.07 553.98C1030.72 553.701 1030.32 553.504 1029.88 553.386V546.948C1030.32 546.948 1030.83 547.044 1031.4 547.234C1031.95 547.424 1032.52 547.717 1033.11 548.113C1033.68 548.494 1034.25 548.977 1034.8 549.563C1035.36 550.149 1035.86 550.845 1036.3 551.65C1036.72 552.456 1037.07 553.372 1037.33 554.397C1037.59 555.408 1037.73 556.536 1037.73 557.781C1037.73 559.378 1037.49 560.872 1037.02 562.263ZM1018.5 561.165C1018.92 561.648 1019.49 562.051 1020.19 562.373C1020.89 562.681 1021.77 562.835 1022.83 562.835V553.101C1021.77 553.101 1020.89 553.262 1020.19 553.584C1019.49 553.892 1018.93 554.287 1018.52 554.771C1018.1 555.239 1017.8 555.759 1017.64 556.331C1017.47 556.902 1017.38 557.451 1017.38 557.979C1017.38 558.491 1017.47 559.033 1017.64 559.605C1017.8 560.176 1018.09 560.696 1018.5 561.165ZM1013.34 532.821C1013 532.25 1012.75 531.62 1012.59 530.931C1012.43 530.228 1012.35 529.437 1012.35 528.558C1012.35 527.826 1012.43 527.071 1012.61 526.295C1012.79 525.519 1013.07 524.764 1013.47 524.032C1013.85 523.285 1014.35 522.582 1014.98 521.922C1015.6 521.263 1016.36 520.685 1017.27 520.187C1018.18 519.688 1019.24 519.293 1020.45 519C1021.66 518.707 1023.03 518.561 1024.59 518.561C1026.52 518.561 1028.29 518.773 1029.9 519.198C1031.51 519.608 1032.9 520.238 1034.06 521.087C1035.21 521.922 1036.11 522.984 1036.76 524.273C1037.4 525.548 1037.73 527.049 1037.73 528.778C1037.73 529.378 1037.67 529.986 1037.55 530.602C1037.43 531.217 1037.23 531.817 1036.96 532.403C1036.68 532.989 1036.3 533.546 1035.84 534.073C1035.35 534.586 1034.75 535.04 1034.03 535.436V535.523H1046.27V541.742H1013.05V535.809H1016.48V535.721C1015.76 535.296 1015.14 534.85 1014.63 534.381C1014.1 533.912 1013.67 533.392 1013.34 532.821ZM1031.09 533.81C1031.48 533.414 1031.81 532.938 1032.06 532.381C1032.29 531.825 1032.41 531.166 1032.41 530.404C1032.41 529.642 1032.29 528.983 1032.06 528.426C1031.81 527.87 1031.48 527.394 1031.09 526.998C1030.69 526.603 1030.24 526.28 1029.73 526.031C1029.21 525.768 1028.69 525.562 1028.15 525.416C1027.59 525.27 1027.05 525.174 1026.52 525.13C1025.98 525.072 1025.48 525.042 1025.02 525.042C1024.19 525.042 1023.35 525.138 1022.5 525.328C1021.65 525.519 1020.89 525.826 1020.21 526.251C1019.54 526.661 1018.99 527.21 1018.56 527.899C1018.14 528.587 1017.93 529.422 1017.93 530.404C1017.93 531.4 1018.14 532.242 1018.56 532.931C1018.99 533.604 1019.54 534.154 1020.21 534.579C1020.89 534.989 1021.65 535.289 1022.5 535.479C1023.35 535.67 1024.19 535.765 1025.02 535.765C1025.48 535.765 1025.98 535.743 1026.52 535.699C1027.05 535.641 1027.59 535.538 1028.15 535.392C1028.69 535.245 1029.21 535.047 1029.73 534.798C1030.24 534.535 1030.69 534.205 1031.09 533.81Z" fill="#F3EFCE"/>
<path d="M660 633.232C658.667 632.462 658.667 630.538 660 629.768L699.75 606.818C701.083 606.048 702.75 607.011 702.75 608.55V654.45C702.75 655.989 701.083 656.952 699.75 656.182L660 633.232Z" fill="#949494"/>
<path d="M778 629.768C779.333 630.538 779.333 632.462 778 633.232L738.25 656.182C736.917 656.952 735.25 655.989 735.25 654.45V608.55C735.25 607.011 736.917 606.048 738.25 606.818L778 629.768Z" fill="#949494"/>
<rect x="348" y="598" width="258" height="64" fill="#859B7F"/>
<ellipse cx="745" cy="531" rx="25" ry="24" fill="#884646"/>
<path d="M731.786 535H727.908V528.081H731.488C731.805 528.081 732.11 528.109 732.402 528.164C732.698 528.219 732.958 528.316 733.183 528.456C733.407 528.591 733.585 528.777 733.716 529.014C733.851 529.247 733.919 529.543 733.919 529.903C733.919 530.11 733.896 530.29 733.849 530.442C733.807 530.595 733.748 530.726 733.671 530.836C733.595 530.942 733.506 531.033 733.405 531.109C733.307 531.181 733.206 531.242 733.1 531.293C733.447 531.416 733.712 531.612 733.894 531.883C734.076 532.15 734.167 532.469 734.167 532.842C734.167 533.168 734.109 533.464 733.995 533.73C733.885 533.993 733.726 534.219 733.519 534.41C733.316 534.596 733.066 534.742 732.77 534.848C732.478 534.949 732.15 535 731.786 535ZM731.646 532.036C731.49 532.01 731.304 531.998 731.088 531.998H729.704V533.724H731.088C731.346 533.724 731.553 533.697 731.71 533.642C731.871 533.587 731.993 533.517 732.078 533.432C732.167 533.347 732.224 533.254 732.25 533.153C732.279 533.051 732.294 532.956 732.294 532.867C732.294 532.698 732.271 532.558 732.224 532.448C732.182 532.334 732.112 532.243 732.015 532.175C731.922 532.108 731.799 532.061 731.646 532.036ZM731.919 530.607C731.996 530.548 732.049 530.474 732.078 530.385C732.112 530.292 732.129 530.184 732.129 530.062C732.129 529.96 732.112 529.867 732.078 529.782C732.049 529.693 731.996 529.619 731.919 529.56C731.843 529.497 731.742 529.448 731.615 529.414C731.488 529.376 731.329 529.357 731.139 529.357H729.704V530.798H731.088C731.291 530.798 731.46 530.783 731.596 530.753C731.731 530.72 731.839 530.671 731.919 530.607ZM740.45 530.62C740.785 530.709 741.068 530.847 741.301 531.033C741.534 531.219 741.711 531.456 741.834 531.744C741.957 532.027 742.018 532.364 742.018 532.753C742.018 533.104 741.968 533.405 741.866 533.654C741.764 533.904 741.633 534.113 741.472 534.283C741.316 534.448 741.14 534.579 740.946 534.676C740.751 534.769 740.56 534.841 740.374 534.892C740.188 534.939 740.015 534.968 739.854 534.981C739.697 534.994 739.577 535 739.492 535H735.874V528.081H737.67V530.487H739.302C739.729 530.487 740.112 530.531 740.45 530.62ZM744.608 528.081V535H742.812V528.081H744.608ZM738.832 531.839H737.67V533.648H738.984C739.124 533.648 739.261 533.637 739.397 533.616C739.536 533.591 739.661 533.546 739.771 533.483C739.885 533.415 739.976 533.324 740.044 533.21C740.112 533.091 740.146 532.939 740.146 532.753C740.146 532.571 740.11 532.421 740.038 532.302C739.97 532.184 739.875 532.091 739.752 532.023C739.634 531.955 739.494 531.909 739.333 531.883C739.177 531.854 739.01 531.839 738.832 531.839ZM753.526 535H751.184L749.153 532.08L748.429 532.81V535H746.633V528.081H748.429V530.709L751.019 528.081H753.406L750.549 530.957L753.526 535ZM757.474 529.541L757.436 530.83C757.415 531.553 757.369 532.188 757.297 532.734C757.225 533.28 757.106 533.737 756.941 534.105C756.78 534.469 756.56 534.744 756.281 534.93C756.006 535.116 755.653 535.209 755.221 535.209C755.018 535.209 754.84 535.197 754.688 535.171C754.535 535.15 754.411 535.118 754.313 535.076V533.572C754.372 533.597 754.447 533.62 754.535 533.642C754.628 533.663 754.741 533.673 754.872 533.673C755.007 533.673 755.128 533.633 755.234 533.553C755.339 533.468 755.43 533.318 755.507 533.102C755.583 532.882 755.642 532.579 755.684 532.194C755.727 531.809 755.754 531.312 755.767 530.703L755.818 528.081H761.384V535H759.594V529.541H757.474Z" fill="white"/>
<path d="M407.456 644H391.746V649.757H385.901V638.968H388.384C388.97 637.87 389.453 636.72 389.834 635.519C390.229 634.303 390.544 633.08 390.779 631.849C391.013 630.619 391.182 629.417 391.284 628.246C391.387 627.059 391.46 625.946 391.504 624.906C391.548 623.866 391.562 622.928 391.548 622.093C391.548 621.258 391.555 620.577 391.57 620.05H410.291V638.968H413.301V649.757H407.456V644ZM395.591 636.595C395.327 637.445 395.005 638.236 394.624 638.968H404.094V625.104H396.975C396.975 625.543 396.968 626.085 396.953 626.729C396.953 627.374 396.924 628.092 396.865 628.883C396.821 629.659 396.748 630.487 396.646 631.366C396.558 632.245 396.418 633.124 396.228 634.002C396.052 634.881 395.84 635.746 395.591 636.595ZM422.902 644.022C421.496 643.539 420.265 642.784 419.211 641.759C418.171 640.719 417.35 639.378 416.75 637.738C416.149 636.097 415.849 634.105 415.849 631.761C415.849 630.135 416.061 628.575 416.486 627.081C416.925 625.572 417.599 624.247 418.507 623.104C419.43 621.961 420.602 621.053 422.023 620.379C423.459 619.691 425.18 619.347 427.187 619.347C429.311 619.347 431.098 619.698 432.548 620.401C433.998 621.09 435.163 622.071 436.042 623.346C436.935 624.62 437.572 626.158 437.953 627.96C438.334 629.762 438.525 631.761 438.525 633.958H422.111C422.111 634.178 422.133 634.471 422.177 634.837C422.221 635.204 422.309 635.599 422.441 636.024C422.572 636.449 422.763 636.881 423.012 637.32C423.261 637.745 423.59 638.133 424.001 638.485C424.425 638.836 424.938 639.122 425.539 639.342C426.154 639.562 426.886 639.671 427.736 639.671C428.175 639.671 428.608 639.613 429.032 639.496C429.472 639.364 429.875 639.181 430.241 638.946C430.607 638.697 430.922 638.404 431.186 638.067C431.464 637.716 431.662 637.32 431.779 636.881H438.217C438.217 637.32 438.122 637.826 437.931 638.397C437.741 638.954 437.448 639.525 437.052 640.111C436.671 640.682 436.188 641.246 435.602 641.803C435.016 642.359 434.32 642.857 433.515 643.297C432.709 643.722 431.794 644.066 430.768 644.33C429.757 644.593 428.629 644.725 427.384 644.725C425.788 644.725 424.294 644.491 422.902 644.022ZM424.001 625.499C423.517 625.924 423.114 626.488 422.792 627.191C422.484 627.894 422.331 628.773 422.331 629.828H432.065C432.065 628.773 431.903 627.894 431.581 627.191C431.274 626.488 430.878 625.931 430.395 625.521C429.926 625.096 429.406 624.803 428.835 624.642C428.263 624.466 427.714 624.378 427.187 624.378C426.674 624.378 426.132 624.466 425.561 624.642C424.989 624.803 424.469 625.089 424.001 625.499ZM462.232 620.05V625.104H454.981V644H448.785V625.104H441.534V620.05H462.232ZM476.821 639.408C477.539 639.408 478.161 639.269 478.689 638.99C479.216 638.697 479.656 638.338 480.007 637.914C480.359 637.489 480.615 637.035 480.776 636.551C480.952 636.068 481.04 635.628 481.04 635.233H487.522C487.522 635.628 487.449 636.141 487.302 636.771C487.17 637.401 486.943 638.067 486.621 638.771C486.299 639.474 485.867 640.184 485.325 640.902C484.797 641.605 484.131 642.242 483.325 642.813C482.534 643.37 481.604 643.824 480.534 644.176C479.465 644.542 478.227 644.725 476.821 644.725C474.99 644.725 473.371 644.447 471.965 643.89C470.574 643.333 469.402 642.521 468.45 641.451C467.512 640.367 466.794 639.034 466.296 637.452C465.813 635.87 465.571 634.061 465.571 632.025C465.571 629.989 465.835 628.187 466.362 626.62C466.904 625.038 467.666 623.712 468.647 622.643C469.629 621.559 470.808 620.738 472.185 620.182C473.576 619.625 475.122 619.347 476.821 619.347C477.554 619.347 478.308 619.405 479.084 619.522C479.875 619.64 480.652 619.845 481.413 620.138C482.175 620.416 482.9 620.782 483.589 621.236C484.292 621.69 484.914 622.262 485.456 622.95C486.013 623.624 486.467 624.422 486.819 625.345C487.185 626.253 487.419 627.308 487.522 628.509H481.04C480.923 627.879 480.762 627.33 480.556 626.861C480.351 626.378 480.08 625.975 479.743 625.653C479.421 625.316 479.018 625.067 478.535 624.906C478.066 624.73 477.495 624.642 476.821 624.642C475.781 624.642 474.946 624.884 474.316 625.367C473.701 625.851 473.225 626.458 472.888 627.191C472.551 627.923 472.324 628.722 472.207 629.586C472.104 630.45 472.053 631.263 472.053 632.025C472.053 632.816 472.097 633.651 472.185 634.53C472.273 635.394 472.478 636.192 472.8 636.925C473.122 637.643 473.598 638.236 474.228 638.705C474.858 639.173 475.722 639.408 476.821 639.408ZM511.581 620.05V625.104H504.33V644H498.134V625.104H490.883V620.05H511.581ZM529.949 644H516.524V620.05H528.917C530.015 620.05 531.07 620.145 532.081 620.335C533.106 620.526 534.007 620.863 534.783 621.346C535.56 621.815 536.175 622.459 536.629 623.28C537.098 624.085 537.332 625.111 537.332 626.356C537.332 627.074 537.251 627.696 537.09 628.224C536.944 628.751 536.739 629.205 536.475 629.586C536.211 629.952 535.904 630.267 535.552 630.531C535.215 630.78 534.864 630.992 534.498 631.168C535.699 631.593 536.614 632.274 537.244 633.211C537.874 634.134 538.189 635.24 538.189 636.529C538.189 637.657 537.991 638.683 537.596 639.605C537.215 640.514 536.666 641.297 535.948 641.957C535.245 642.601 534.38 643.106 533.355 643.473C532.344 643.824 531.209 644 529.949 644ZM529.466 633.739C528.924 633.651 528.279 633.607 527.532 633.607H522.742V639.583H527.532C528.426 639.583 529.144 639.488 529.686 639.298C530.242 639.107 530.667 638.866 530.96 638.573C531.268 638.28 531.465 637.958 531.553 637.606C531.656 637.254 531.707 636.925 531.707 636.617C531.707 636.031 531.626 635.548 531.465 635.167C531.319 634.771 531.077 634.457 530.74 634.222C530.418 633.988 529.993 633.827 529.466 633.739ZM530.411 628.795C530.674 628.59 530.857 628.333 530.96 628.026C531.077 627.704 531.136 627.33 531.136 626.905C531.136 626.554 531.077 626.231 530.96 625.938C530.857 625.631 530.674 625.375 530.411 625.169C530.147 624.95 529.795 624.781 529.356 624.664C528.917 624.532 528.367 624.466 527.708 624.466H522.742V629.454H527.532C528.235 629.454 528.821 629.403 529.29 629.3C529.759 629.183 530.132 629.015 530.411 628.795ZM549.812 643.78C548.303 643.15 547.014 642.271 545.944 641.144C544.89 640.016 544.077 638.675 543.505 637.123C542.949 635.57 542.671 633.871 542.671 632.025C542.671 630.179 542.949 628.48 543.505 626.927C544.077 625.375 544.89 624.042 545.944 622.928C547.014 621.8 548.303 620.921 549.812 620.292C551.32 619.662 553.02 619.347 554.909 619.347C556.828 619.347 558.542 619.662 560.051 620.292C561.574 620.921 562.856 621.8 563.896 622.928C564.951 624.042 565.756 625.375 566.313 626.927C566.87 628.48 567.148 630.179 567.148 632.025C567.148 633.871 566.87 635.57 566.313 637.123C565.756 638.675 564.951 640.016 563.896 641.144C562.856 642.271 561.574 643.15 560.051 643.78C558.542 644.41 556.828 644.725 554.909 644.725C553.02 644.725 551.32 644.41 549.812 643.78ZM549.46 634.706C549.65 635.599 549.973 636.397 550.427 637.101C550.881 637.789 551.474 638.346 552.207 638.771C552.939 639.195 553.84 639.408 554.909 639.408C556.023 639.408 556.945 639.203 557.678 638.792C558.425 638.368 559.018 637.818 559.458 637.145C559.897 636.456 560.205 635.672 560.38 634.793C560.571 633.9 560.666 632.977 560.666 632.025C560.666 631.087 560.571 630.172 560.38 629.278C560.205 628.385 559.897 627.601 559.458 626.927C559.018 626.239 558.425 625.689 557.678 625.279C556.945 624.854 556.023 624.642 554.909 624.642C553.84 624.642 552.939 624.854 552.207 625.279C551.474 625.704 550.881 626.268 550.427 626.971C549.973 627.66 549.643 628.451 549.438 629.344C549.248 630.223 549.152 631.117 549.152 632.025C549.152 632.933 549.255 633.827 549.46 634.706Z" fill="#B9CCB4"/>
</g>
<defs>
<clipPath id="clip0_2057_4704">
<rect width="1173" height="719" fill="white"/>
</clipPath>
</defs>
</svg>
