<svg width="290" height="367" viewBox="0 0 290 367" fill="none" xmlns="http://www.w3.org/2000/svg">
<g clip-path="url(#clip0_1853_4775)">
<rect width="290" height="367" fill="white"/>
<rect y="225" width="290" height="142" fill="#803222"/>
<path fill-rule="evenodd" clip-rule="evenodd" d="M290 0H0V237.441H155.394L290 267.896V0Z" fill="#F3E5C9"/>
<path d="M216.661 3C213.32 6.16746 207.167 12.0613 211.481 17.1742C214.357 20.5828 218.688 24.1209 218.688 29.1622C218.688 32.0452 218.207 33.3845 216.976 35.8649C215.945 37.9417 213.925 40.2389 213.44 42.5676C212.901 45.1587 212.013 47.9525 213.103 50.5676C213.877 52.4275 215.873 55.652 217.472 56.7177C219.035 57.7604 221.102 61.401 221.503 63.3243C222.243 66.8769 220.9 70.6912 219.093 73.5826C216.26 78.1152 211.796 82.6345 211.796 88.4054C211.796 91.5013 213.821 93.1362 215.76 95.2042C217.674 97.2461 218.807 99.3149 220.106 101.811C221.328 104.156 221.225 109.988 219.904 112.309C218.491 114.792 216.223 117.628 213.867 119.024C212.069 121.9 214.382 117.932 213.328 119.853C212.594 121.19 211.334 122.734 211.008 124.297C210.491 126.78 212.333 129.644 213.823 131.432C215.478 133.418 216.172 136.043 217.697 138.135C219.25 140.265 220.309 142.882 220.309 145.511C220.309 148.523 218.369 150.176 216.751 152.285C215.079 154.465 213.262 157.644 212.202 160.189C211.229 162.524 212.185 164.904 213.733 166.556C215.995 168.969 217.99 170.039 219.183 173.474C220.41 177.008 222.842 180.856 221.705 184.838C220.972 187.408 218.809 190.108 217.291 192.189C215.797 194.239 214.53 195.601 212.292 197.066C209.447 198.928 209.76 202.323 210.783 205.378C211.274 206.845 212.438 207.853 213.103 209.27C213.864 210.896 214.421 212.661 215.219 214.243C216.491 216.762 216.8 219.428 216.661 222.243C216.59 223.685 215.166 225.568 214.229 226.568C213.124 227.746 213.524 229.481 212.404 230.676C210.222 233.004 212.607 234.456 212.607 236.946C212.607 239.876 215.445 240.433 215.445 243" stroke="#E1C488" stroke-width="4" stroke-linecap="round"/>
<path d="M242.661 3C239.32 6.28624 233.167 12.4011 237.481 17.7057C240.357 21.2422 244.688 24.9129 244.688 30.1432C244.688 33.1344 244.207 34.524 242.976 37.0973C241.945 39.252 239.925 41.6353 239.44 44.0513C238.901 46.7397 238.013 49.6382 239.103 52.3513C239.877 54.281 241.873 57.6264 243.472 58.7321C245.035 59.8139 247.102 63.591 247.503 65.5865C248.243 69.2722 246.9 73.2296 245.093 76.2294C242.26 80.932 237.796 85.6208 237.796 91.6081C237.796 94.8201 239.821 96.5163 241.76 98.6619C243.674 100.78 244.807 102.927 246.106 105.516C247.328 107.949 247.225 114 245.904 116.408C244.491 118.984 242.223 121.927 239.867 123.375C238.069 126.358 240.382 122.242 239.328 124.235C238.594 125.622 237.334 127.224 237.008 128.846C236.491 131.421 238.333 134.394 239.823 136.249C241.478 138.309 242.172 141.033 243.697 143.203C245.25 145.413 246.309 148.128 246.309 150.855C246.309 153.981 244.369 155.695 242.751 157.883C241.079 160.145 239.262 163.443 238.202 166.084C237.229 168.506 238.185 170.975 239.733 172.689C241.995 175.192 243.99 176.303 245.183 179.867C246.41 183.533 248.842 187.525 247.705 191.657C246.972 194.323 244.809 197.125 243.291 199.284C241.797 201.41 240.53 202.823 238.292 204.344C235.447 206.276 235.76 209.797 236.783 212.968C237.274 214.489 238.438 215.535 239.103 217.005C239.864 218.692 240.421 220.524 241.219 222.165C242.491 224.778 242.8 227.544 242.661 230.465C242.59 231.961 241.166 233.914 240.229 234.951C239.124 236.173 239.524 237.974 238.404 239.214C236.222 241.629 238.607 243.135 238.607 245.719C238.607 248.759 241.445 249.337 241.445 252" stroke="#E1C488" stroke-width="4" stroke-linecap="round"/>
<path d="M263.661 3C260.32 6.36542 254.167 12.6277 258.481 18.0601C261.357 21.6818 265.688 25.4409 265.688 30.7973C265.688 33.8605 265.207 35.2836 263.976 37.9189C262.945 40.1256 260.925 42.5663 260.44 45.0405C259.901 47.7937 259.013 50.762 260.103 53.5405C260.877 55.5167 262.873 58.9427 264.472 60.0751C266.035 61.1829 268.102 65.051 268.503 67.0946C269.243 70.8692 267.9 74.9219 266.093 77.994C263.26 82.8099 258.796 87.6117 258.796 93.7432C258.796 97.0326 260.821 98.7697 262.76 100.967C264.674 103.137 265.807 105.335 267.106 107.986C268.328 110.478 268.225 116.675 266.904 119.141C265.491 121.779 263.223 124.792 260.867 126.276C259.069 129.331 261.382 125.115 260.328 127.156C259.594 128.576 258.334 130.217 258.008 131.878C257.491 134.516 259.333 137.56 260.823 139.459C262.478 141.57 263.172 144.359 264.697 146.581C266.25 148.844 267.309 151.625 267.309 154.417C267.309 157.619 265.369 159.374 263.751 161.616C262.079 163.931 260.262 167.309 259.202 170.014C258.229 172.494 259.185 175.023 260.733 176.778C262.995 179.342 264.99 180.479 266.183 184.129C267.41 187.884 269.842 191.972 268.705 196.203C267.972 198.934 265.809 201.803 264.291 204.014C262.797 206.191 261.53 207.638 259.292 209.195C256.447 211.174 256.76 214.781 257.783 218.027C258.274 219.585 259.438 220.657 260.103 222.162C260.864 223.889 261.421 225.765 262.219 227.446C263.491 230.122 263.8 232.955 263.661 235.946C263.59 237.478 262.166 239.479 261.229 240.541C260.124 241.792 260.524 243.636 259.404 244.905C257.222 247.379 259.607 248.922 259.607 251.568C259.607 254.681 262.445 255.273 262.445 258" stroke="#E1C488" stroke-width="4" stroke-linecap="round"/>
<path d="M282.661 3C279.32 6.41822 273.167 12.7787 277.481 18.2963C280.357 21.9748 284.688 25.793 284.688 31.2333C284.688 34.3446 284.207 35.79 282.976 38.4667C281.945 40.708 279.925 43.1869 279.44 45.7C278.901 48.4963 278.013 51.5112 279.103 54.3333C279.877 56.3405 281.873 59.8203 283.472 60.9704C285.035 62.0956 287.102 66.0244 287.503 68.1C288.243 71.9338 286.9 76.0501 285.093 79.1704C282.26 84.0618 277.796 88.9389 277.796 95.1667C277.796 98.5076 279.821 100.272 281.76 102.504C283.674 104.707 284.807 106.94 286.106 109.633C287.328 112.164 287.225 118.458 285.904 120.963C284.491 123.642 282.223 126.703 279.867 128.21C278.069 131.313 280.382 127.03 279.328 129.104C278.594 130.546 277.334 132.213 277.008 133.9C276.491 136.579 278.333 139.67 279.823 141.6C281.478 143.743 282.172 146.576 283.697 148.833C285.25 151.132 286.309 153.956 286.309 156.793C286.309 160.044 284.369 161.827 282.751 164.104C281.079 166.456 279.262 169.886 278.202 172.633C277.229 175.153 278.185 177.721 279.733 179.504C281.995 182.108 283.99 183.263 285.183 186.97C286.41 190.784 288.842 194.936 287.705 199.233C286.972 202.007 284.809 204.921 283.291 207.167C281.797 209.379 280.53 210.848 278.292 212.43C275.447 214.439 275.76 218.103 276.783 221.4C277.274 222.982 278.438 224.071 279.103 225.6C279.864 227.354 280.421 229.26 281.219 230.967C282.491 233.685 282.8 236.562 282.661 239.6C282.59 241.156 281.166 243.188 280.229 244.267C279.124 245.538 279.524 247.411 278.404 248.7C276.222 251.213 278.607 252.779 278.607 255.467C278.607 258.629 281.445 259.23 281.445 262" stroke="#E1C488" stroke-width="4" stroke-linecap="round"/>
<path fill-rule="evenodd" clip-rule="evenodd" d="M234.249 35.8203C253.461 35.8203 269.036 116.673 269.036 216.41L199.557 202.995C200.879 109.523 215.906 35.8203 234.249 35.8203Z" fill="#744E2F"/>
<path fill-rule="evenodd" clip-rule="evenodd" d="M234.81 50.2676C247.515 50.2676 257.814 118.877 257.814 203.511L211.868 192.127C212.743 112.809 222.68 50.2676 234.81 50.2676Z" fill="#CAE8EE"/>
<rect width="154.791" height="6.73295" transform="matrix(0 -1 -1 0 237.616 202.995)" fill="#744E2F"/>
<rect width="52.5884" height="6.21282" transform="matrix(-0.983903 -0.178704 -0.209985 0.977705 261.333 127.261)" fill="#744E2F"/>
<rect x="60" y="306" width="190" height="35" rx="15" fill="#EBEBEB"/>
<rect x="60" y="306" width="190" height="35" rx="15" fill="#D4D4D4"/>
<rect x="60" y="306" width="190" height="35" rx="15" fill="#C18838"/>
<path d="M167.89 3C164.434 6.07125 158.07 11.7861 162.532 16.7436C165.507 20.0488 169.986 23.4793 169.986 28.3675C169.986 31.1629 169.489 32.4616 168.216 34.8666C167.15 36.8804 165.06 39.1077 164.559 41.3657C164 43.8782 163.082 46.587 164.209 49.1227C165.011 50.9261 167.075 54.0527 168.728 55.086C170.346 56.097 172.483 59.627 172.898 61.492C173.663 64.9366 172.274 68.6351 170.405 71.4386C167.475 75.8336 162.858 80.2156 162.858 85.8112C162.858 88.813 164.953 90.3982 166.958 92.4035C168.938 94.3834 170.109 96.3893 171.454 98.8094C172.717 101.083 172.61 106.739 171.244 108.989C169.782 111.396 167.437 114.146 165 115.5C163.14 118.288 165.532 114.441 164.442 116.303C163.683 117.599 162.38 119.097 162.043 120.613C161.508 123.02 163.413 125.798 164.955 127.531C166.666 129.457 167.384 132.002 168.961 134.03C170.567 136.096 171.663 138.633 171.663 141.182C171.663 144.103 169.656 145.705 167.983 147.751C166.254 149.864 164.374 152.946 163.277 155.415C162.271 157.678 163.26 159.986 164.861 161.588C167.201 163.927 169.265 164.965 170.499 168.296C171.768 171.723 174.283 175.453 173.108 179.314C172.349 181.807 170.111 184.425 168.542 186.443C166.996 188.43 165.686 189.75 163.371 191.171C160.428 192.977 160.752 196.268 161.81 199.231C162.318 200.653 163.522 201.631 164.209 203.005C164.997 204.581 165.573 206.293 166.399 207.827C167.714 210.269 168.033 212.854 167.89 215.584C167.816 216.982 166.343 218.807 165.374 219.777C164.232 220.919 164.645 222.602 163.487 223.76C161.229 226.018 163.697 227.425 163.697 229.84C163.697 232.681 166.632 233.221 166.632 235.71" stroke="#E1C488" stroke-width="4" stroke-linecap="round"/>
<path d="M190.661 3C187.32 6.16746 181.167 12.0613 185.481 17.1742C188.357 20.5828 192.688 24.1209 192.688 29.1622C192.688 32.0452 192.207 33.3845 190.976 35.8649C189.945 37.9417 187.925 40.2389 187.44 42.5676C186.901 45.1587 186.013 47.9525 187.103 50.5676C187.877 52.4275 189.873 55.652 191.472 56.7177C193.035 57.7604 195.102 61.401 195.503 63.3243C196.243 66.8769 194.9 70.6912 193.093 73.5826C190.26 78.1152 185.796 82.6345 185.796 88.4054C185.796 91.5013 187.821 93.1362 189.76 95.2042C191.674 97.2461 192.807 99.3149 194.106 101.811C195.328 104.156 195.225 109.988 193.904 112.309C192.491 114.792 190.223 117.628 187.867 119.024C186.069 121.9 188.382 117.932 187.328 119.853C186.594 121.19 185.334 122.734 185.008 124.297C184.491 126.78 186.333 129.644 187.823 131.432C189.478 133.418 190.172 136.043 191.697 138.135C193.25 140.265 194.309 142.882 194.309 145.511C194.309 148.523 192.369 150.176 190.751 152.285C189.079 154.465 187.262 157.644 186.202 160.189C185.229 162.524 186.185 164.904 187.733 166.556C189.995 168.969 191.99 170.039 193.183 173.474C194.41 177.008 196.842 180.856 195.705 184.838C194.972 187.408 192.809 190.108 191.291 192.189C189.797 194.239 188.53 195.601 186.292 197.066C183.447 198.928 183.76 202.323 184.783 205.378C185.274 206.845 186.438 207.853 187.103 209.27C187.864 210.896 188.421 212.661 189.219 214.243C190.491 216.762 190.8 219.428 190.661 222.243C190.59 223.685 189.166 225.568 188.229 226.568C187.124 227.746 187.524 229.481 186.404 230.676C184.222 233.004 186.607 234.456 186.607 236.946C186.607 239.876 189.445 240.433 189.445 243" stroke="#E1C488" stroke-width="4" stroke-linecap="round"/>
<rect x="161.97" y="23.4287" width="128.284" height="6" transform="rotate(3.61938 161.97 23.4287)" fill="#5A5757"/>
<circle cx="116" cy="183" r="4" fill="#686767"/>
<path fill-rule="evenodd" clip-rule="evenodd" d="M171.5 24.068L228.5 27.6019C228.5 27.6019 226.146 49.5434 222 62.9417C220.876 66.5734 219.916 69.9315 218.994 73.156C216.623 81.4512 214.504 88.8631 210.5 97.7767C205.752 108.345 202.056 114.032 196.926 121.923C195.427 124.229 193.806 126.723 192 129.583C188.094 135.767 181 144.728 181 144.728L198 199.252L165 194.709L171.5 24.068Z" fill="#591C19" fill-opacity="0.8"/>
<path d="M279.329 160.849L279.449 161.059L279.359 161.283L256.886 217.201L289.523 217.177L289.654 33.0107L246.647 30.0895C246.645 30.2471 246.643 30.4386 246.641 30.6617C246.635 31.3726 246.629 32.4049 246.63 33.6901C246.632 36.2605 246.66 39.8415 246.767 43.8832C246.982 51.9741 247.51 61.884 248.76 69.2315C249.443 73.24 249.996 76.9379 250.527 80.4839L250.528 80.4853C251.894 89.6103 253.111 97.7327 255.986 107.652C259.398 119.418 262.338 125.861 266.434 134.833L266.434 134.833C267.632 137.456 268.928 140.296 270.363 143.546C271.904 147.039 274.144 151.362 276.003 154.819C276.931 156.546 277.763 158.054 278.363 159.13C278.662 159.668 278.904 160.098 279.071 160.394C279.154 160.541 279.219 160.655 279.263 160.732L279.312 160.82L279.325 160.842L279.328 160.847L279.329 160.849L279.329 160.849C279.329 160.849 279.329 160.849 278.895 161.097L279.329 160.849Z" fill="#591C19" fill-opacity="0.8" stroke="#B58080"/>
<path d="M180.259 128.634C180.399 127.37 181.948 126.31 182.639 125.308C184.712 122.303 186.249 118.97 187.889 115.722C192.66 106.268 196.778 96.7616 200.801 86.9619C204.408 78.1773 205.497 70.5057 205.497 61.1367" stroke="#AB7F79" stroke-width="3" stroke-linecap="round"/>
<path d="M179.085 114.548C179.085 110.073 178.696 105.439 179.672 101.049C181.036 94.9109 182.852 88.8797 184.693 82.8537C186.407 77.2437 187.302 72.2858 187.302 66.3869C187.302 62.6596 188.834 54.9246 186.715 51.7461" stroke="#AB7F79" stroke-width="3" stroke-linecap="round"/>
<path d="M252.993 46.6006C252.993 56.5188 252.843 66.759 256.436 76.1323C258.996 82.8116 261.411 89.3384 265.126 95.4619C268.254 100.616 271.69 105.603 274.618 110.874C275.696 112.816 276.726 114.651 278.061 116.431C278.385 116.863 279.555 119.059 279.555 118.089" stroke="#AB7F79" stroke-width="3" stroke-linecap="round"/>
<path d="M261.519 48.8965C261.519 52.9971 260.895 57.6314 261.92 61.6128C263.436 67.5053 266.604 72.9348 269.535 78.2096C273.326 85.033 278.344 91.3005 283.818 96.774" stroke="#AB7F79" stroke-width="3" stroke-linecap="round"/>
<path d="M273.652 48.8965C273.652 54.5736 275.458 59.7669 278.17 64.7099C279.388 66.9279 280.681 69.0433 281.996 71.1956C282.5 72.0194 282.864 72.8452 283.818 73.1632" stroke="#AB7F79" stroke-width="3" stroke-linecap="round"/>
<path d="M173.962 158.424C174.959 158.548 174.265 172.323 174.29 174.164C174.36 179.189 176.914 183.933 176.914 188.921" stroke="#AB7F79" stroke-width="3" stroke-linecap="round"/>
<path d="M179.865 163.343C179.865 167.725 180.713 171.832 183.144 175.549C185.198 178.69 186.751 182.564 186.751 186.298" stroke="#AB7F79" stroke-width="3" stroke-linecap="round"/>
<path d="M272.668 211.22C272.668 211.309 272.689 208.867 272.741 208.305C272.891 206.714 273.582 205.19 273.652 203.605C273.768 200.993 275.443 198.386 276.932 196.318C278.125 194.661 279.669 192.834 280.357 190.871C281.03 188.945 280.867 186.677 280.867 184.658" stroke="#AB7F79" stroke-width="3" stroke-linecap="round"/>
<path d="M182.16 144.651C180.336 146.273 175.614 144.301 173.707 143.595C172.622 143.193 171.389 142.946 170.355 142.429C169.553 142.028 168.639 141.372 167.731 141.372" stroke="#E29A34" stroke-width="6" stroke-linecap="round"/>
<path d="M10.8896 3C7.43446 6.07125 1.07014 11.7861 5.53193 16.7436C8.50654 20.0488 12.9861 23.4793 12.9861 28.3675C12.9861 31.1629 12.489 32.4616 11.2157 34.8666C10.1496 36.8804 8.06031 39.1077 7.55853 41.3657C7.00021 43.8782 6.08217 46.587 7.20912 49.1227C8.01064 50.9261 10.0748 54.0527 11.7282 55.086C13.3458 56.097 15.4835 59.627 15.8979 61.492C16.6634 64.9366 15.2744 68.6351 13.4054 71.4386C10.4754 75.8336 5.85805 80.2156 5.85805 85.8112C5.85805 88.813 7.95261 90.3982 9.95785 92.4035C11.9378 94.3834 13.1092 96.3893 14.4536 98.8094C15.7167 101.083 15.6103 106.739 14.244 108.989C12.7824 111.396 10.3913 114.271 7.95454 115.625C6.24666 118.125 8.53249 114.441 7.44206 116.303C6.68339 117.599 5.37961 119.097 5.04275 120.613C4.50786 123.02 6.41349 125.798 7.95454 127.531C9.66624 129.457 10.3837 132.002 11.9612 134.03C13.5675 136.096 14.6633 138.633 14.6633 141.182C14.6633 144.103 12.6565 145.705 10.9828 147.751C9.25375 149.864 7.37438 152.946 6.27735 155.415C5.27134 157.678 6.26004 159.986 7.86136 161.588C10.2011 163.927 12.2648 164.965 13.4986 168.296C14.7676 171.723 17.2826 175.453 16.1075 179.314C15.3491 181.807 13.1111 184.425 11.5419 186.443C9.99597 188.43 8.68598 189.75 6.37053 191.171C3.428 192.977 3.7517 196.268 4.80981 199.231C5.31761 200.653 6.52212 201.631 7.20912 203.005C7.9972 204.581 8.57288 206.293 9.39878 207.827C10.7138 210.269 11.0333 212.854 10.8896 215.584C10.816 216.982 9.343 218.807 8.37383 219.777C7.23164 220.919 7.6454 222.602 6.487 223.76C4.22939 226.018 6.69665 227.425 6.69665 229.84C6.69665 232.681 9.63173 233.221 9.63173 235.71" stroke="#F8D68F" stroke-width="4" stroke-linecap="round"/>
<path d="M33.8896 3C30.4345 6.07125 24.0701 11.7861 28.5319 16.7436C31.5065 20.0488 35.9861 23.4793 35.9861 28.3675C35.9861 31.1629 35.489 32.4616 34.2157 34.8666C33.1496 36.8804 31.0603 39.1077 30.5585 41.3657C30.0002 43.8782 29.0822 46.587 30.2091 49.1227C31.0106 50.9261 33.0748 54.0527 34.7282 55.086C36.3458 56.097 38.4835 59.627 38.8979 61.492C39.6634 64.9366 38.2744 68.6351 36.4054 71.4386C33.4754 75.8336 28.8581 80.2156 28.8581 85.8112C28.8581 88.813 30.9526 90.3982 32.9578 92.4035C34.9378 94.3834 36.1092 96.3893 37.4536 98.8094C38.7167 101.083 38.6103 106.739 37.244 108.989C35.7824 111.396 33.3913 114.146 30.9545 115.5C29 118.509 31.5325 114.441 30.4421 116.303C29.6834 117.599 28.3796 119.097 28.0428 120.613C27.5079 123.02 29.4135 125.798 30.9545 127.531C32.6662 129.457 33.3837 132.002 34.9612 134.03C36.5675 136.096 37.6633 138.633 37.6633 141.182C37.6633 144.103 35.6565 145.705 33.9828 147.751C32.2537 149.864 30.3744 152.946 29.2773 155.415C28.2713 157.678 29.26 159.986 30.8614 161.588C33.2011 163.927 35.2648 164.965 36.4986 168.296C37.7676 171.723 40.2826 175.453 39.1075 179.314C38.3491 181.807 36.1111 184.425 34.5419 186.443C32.996 188.43 31.686 189.75 29.3705 191.171C26.428 192.977 26.7517 196.268 27.8098 199.231C28.3176 200.653 29.5221 201.631 30.2091 203.005C30.9972 204.581 31.5729 206.293 32.3988 207.827C33.7138 210.269 34.0333 212.854 33.8896 215.584C33.816 216.982 32.343 218.807 31.3738 219.777C30.2316 220.919 30.6454 222.602 29.487 223.76C27.2294 226.018 29.6966 227.425 29.6966 229.84C29.6966 232.681 32.6317 233.221 32.6317 235.71" stroke="#F8D68F" stroke-width="4" stroke-linecap="round"/>
<path d="M55.8896 3C52.4345 6.07125 46.0701 11.7861 50.5319 16.7436C53.5065 20.0488 57.9861 23.4793 57.9861 28.3675C57.9861 31.1629 57.489 32.4616 56.2157 34.8666C55.1496 36.8804 53.0603 39.1077 52.5585 41.3657C52.0002 43.8782 51.0822 46.587 52.2091 49.1227C53.0106 50.9261 55.0748 54.0527 56.7282 55.086C58.3458 56.097 60.4835 59.627 60.8979 61.492C61.6634 64.9366 60.2744 68.6351 58.4054 71.4386C55.4754 75.8336 50.8581 80.2156 50.8581 85.8112C50.8581 88.813 52.9526 90.3982 54.9578 92.4035C56.9378 94.3834 58.1092 96.3893 59.4536 98.8094C60.7167 101.083 60.6103 106.739 59.244 108.989C57.7824 111.396 55.4368 114.146 53 115.5C51.1404 118.288 53.5325 114.441 52.4421 116.303C51.6834 117.599 50.3796 119.097 50.0428 120.613C49.5079 123.02 51.4135 125.798 52.9545 127.531C54.6662 129.457 55.3837 132.002 56.9612 134.03C58.5675 136.096 59.6633 138.633 59.6633 141.182C59.6633 144.103 57.6565 145.705 55.9828 147.751C54.2537 149.864 52.3744 152.946 51.2773 155.415C50.2713 157.678 51.26 159.986 52.8614 161.588C55.2011 163.927 57.2648 164.965 58.4986 168.296C59.7676 171.723 62.2826 175.453 61.1075 179.314C60.3491 181.807 58.1111 184.425 56.5419 186.443C54.996 188.43 53.686 189.75 51.3705 191.171C48.428 192.977 48.7517 196.268 49.8098 199.231C50.3176 200.653 51.5221 201.631 52.2091 203.005C52.9972 204.581 53.5729 206.293 54.3988 207.827C55.7138 210.269 56.0333 212.854 55.8896 215.584C55.816 216.982 54.343 218.807 53.3738 219.777C52.2316 220.919 52.6454 222.602 51.487 223.76C49.2294 226.018 51.6966 227.425 51.6966 229.84C51.6966 232.681 54.6317 233.221 54.6317 235.71" stroke="#F8D68F" stroke-width="4" stroke-linecap="round"/>
<path d="M78.8896 3C75.4345 6.07125 69.0701 11.7861 73.5319 16.7436C76.5065 20.0488 80.9861 23.4793 80.9861 28.3675C80.9861 31.1629 80.489 32.4616 79.2157 34.8666C78.1496 36.8804 76.0603 39.1077 75.5585 41.3657C75.0002 43.8782 74.0822 46.587 75.2091 49.1227C76.0106 50.9261 78.0748 54.0527 79.7282 55.086C81.3458 56.097 83.4835 59.627 83.8979 61.492C84.6634 64.9366 83.2744 68.6351 81.4054 71.4386C78.4754 75.8336 73.8581 80.2156 73.8581 85.8112C73.8581 88.813 75.9526 90.3982 77.9578 92.4035C79.9378 94.3834 81.1092 96.3893 82.4536 98.8094C83.7167 101.083 83.6103 106.739 82.244 108.989C80.7824 111.396 78.4368 114.146 76 115.5C74.1404 118.288 76.5325 114.441 75.4421 116.303C74.6834 117.599 73.3796 119.097 73.0428 120.613C72.5079 123.02 74.4135 125.798 75.9545 127.531C77.6662 129.457 78.3837 132.002 79.9612 134.03C81.5675 136.096 82.6633 138.633 82.6633 141.182C82.6633 144.103 80.6565 145.705 78.9828 147.751C77.2537 149.864 75.3744 152.946 74.2773 155.415C73.2713 157.678 74.26 159.986 75.8614 161.588C78.2011 163.927 80.2648 164.965 81.4986 168.296C82.7676 171.723 85.2826 175.453 84.1075 179.314C83.3491 181.807 81.1111 184.425 79.5419 186.443C77.996 188.43 76.686 189.75 74.3705 191.171C71.428 192.977 71.7517 196.268 72.8098 199.231C73.3176 200.653 74.5221 201.631 75.2091 203.005C75.9972 204.581 76.5729 206.293 77.3988 207.827C78.7138 210.269 79.0333 212.854 78.8896 215.584C78.816 216.982 77.343 218.807 76.3738 219.777C75.2316 220.919 75.6454 222.602 74.487 223.76C72.2294 226.018 74.6966 227.425 74.6966 229.84C74.6966 232.681 77.6317 233.221 77.6317 235.71" stroke="#F8D68F" stroke-width="4" stroke-linecap="round"/>
<path d="M100.89 3C97.4345 6.07125 91.0701 11.7861 95.5319 16.7436C98.5065 20.0488 102.986 23.4793 102.986 28.3675C102.986 31.1629 102.489 32.4616 101.216 34.8666C100.15 36.8804 98.0603 39.1077 97.5585 41.3657C97.0002 43.8782 96.0822 46.587 97.2091 49.1227C98.0106 50.9261 100.075 54.0527 101.728 55.086C103.346 56.097 105.483 59.627 105.898 61.492C106.663 64.9366 105.274 68.6351 103.405 71.4386C100.475 75.8336 95.8581 80.2156 95.8581 85.8112C95.8581 88.813 97.9526 90.3982 99.9578 92.4035C101.938 94.3834 103.109 96.3893 104.454 98.8094C105.717 101.083 105.61 106.739 104.244 108.989C102.782 111.396 100.437 114.146 98 115.5C96.1404 118.288 98.5325 114.441 97.4421 116.303C96.6834 117.599 95.3796 119.097 95.0428 120.613C94.5079 123.02 96.4135 125.798 97.9545 127.531C99.6662 129.457 100.384 132.002 101.961 134.03C103.567 136.096 104.663 138.633 104.663 141.182C104.663 144.103 102.656 145.705 100.983 147.751C99.2537 149.864 97.3744 152.946 96.2773 155.415C95.2713 157.678 96.26 159.986 97.8614 161.588C100.201 163.927 102.265 164.965 103.499 168.296C104.768 171.723 107.283 175.453 106.108 179.314C105.349 181.807 103.111 184.425 101.542 186.443C99.996 188.43 98.686 189.75 96.3705 191.171C93.428 192.977 93.7517 196.268 94.8098 199.231C95.3176 200.653 96.5221 201.631 97.2091 203.005C97.9972 204.581 98.5729 206.293 99.3988 207.827C100.714 210.269 101.033 212.854 100.89 215.584C100.816 216.982 99.343 218.807 98.3738 219.777C97.2316 220.919 97.6454 222.602 96.487 223.76C94.2294 226.018 96.6966 227.425 96.6966 229.84C96.6966 232.681 99.6317 233.221 99.6317 235.71" stroke="#F8D68F" stroke-width="4" stroke-linecap="round"/>
<path d="M122.89 3C119.434 6.07125 113.07 11.7861 117.532 16.7436C120.507 20.0488 124.986 23.4793 124.986 28.3675C124.986 31.1629 124.489 32.4616 123.216 34.8666C122.15 36.8804 120.06 39.1077 119.559 41.3657C119 43.8782 118.082 46.587 119.209 49.1227C120.011 50.9261 122.075 54.0527 123.728 55.086C125.346 56.097 127.483 59.627 127.898 61.492C128.663 64.9366 127.274 68.6351 125.405 71.4386C122.475 75.8336 117.858 80.2156 117.858 85.8112C117.858 88.813 119.953 90.3982 121.958 92.4035C123.938 94.3834 125.109 96.3893 126.454 98.8094C127.717 101.083 127.61 106.739 126.244 108.989C124.782 111.396 122.437 114.146 120 115.5C118.14 118.288 120.532 114.441 119.442 116.303C118.683 117.599 117.38 119.097 117.043 120.613C116.508 123.02 118.413 125.798 119.955 127.531C121.666 129.457 122.384 132.002 123.961 134.03C125.567 136.096 126.663 138.633 126.663 141.182C126.663 144.103 124.656 145.705 122.983 147.751C121.254 149.864 119.374 152.946 118.277 155.415C117.271 157.678 118.26 159.986 119.861 161.588C122.201 163.927 124.265 164.965 125.499 168.296C126.768 171.723 129.283 175.453 128.108 179.314C127.349 181.807 125.111 184.425 123.542 186.443C121.996 188.43 120.686 189.75 118.371 191.171C115.428 192.977 115.752 196.268 116.81 199.231C117.318 200.653 118.522 201.631 119.209 203.005C119.997 204.581 120.573 206.293 121.399 207.827C122.714 210.269 123.033 212.854 122.89 215.584C122.816 216.982 121.343 218.807 120.374 219.777C119.232 220.919 119.645 222.602 118.487 223.76C116.229 226.018 118.697 227.425 118.697 229.84C118.697 232.681 121.632 233.221 121.632 235.71" stroke="#F8D68F" stroke-width="4" stroke-linecap="round"/>
<path d="M146.89 3C143.434 6.07125 137.07 11.7861 141.532 16.7436C144.507 20.0488 148.986 23.4793 148.986 28.3675C148.986 31.1629 148.489 32.4616 147.216 34.8666C146.15 36.8804 144.06 39.1077 143.559 41.3657C143 43.8782 142.082 46.587 143.209 49.1227C144.011 50.9261 146.075 54.0527 147.728 55.086C149.346 56.097 151.483 59.627 151.898 61.492C152.663 64.9366 151.274 68.6351 149.405 71.4386C146.475 75.8336 141.858 80.2156 141.858 85.8112C141.858 88.813 143.953 90.3982 145.958 92.4035C147.938 94.3834 149.109 96.3893 150.454 98.8094C151.717 101.083 151.61 106.739 150.244 108.989C148.782 111.396 146.437 114.146 144 115.5C142.14 118.288 144.532 114.441 143.442 116.303C142.683 117.599 141.38 119.097 141.043 120.613C140.508 123.02 142.413 125.798 143.955 127.531C145.666 129.457 146.384 132.002 147.961 134.03C149.567 136.096 150.663 138.633 150.663 141.182C150.663 144.103 148.656 145.705 146.983 147.751C145.254 149.864 143.374 152.946 142.277 155.415C141.271 157.678 142.26 159.986 143.861 161.588C146.201 163.927 148.265 164.965 149.499 168.296C150.768 171.723 153.283 175.453 152.108 179.314C151.349 181.807 149.111 184.425 147.542 186.443C145.996 188.43 144.686 189.75 142.371 191.171C139.428 192.977 139.752 196.268 140.81 199.231C141.318 200.653 142.522 201.631 143.209 203.005C143.997 204.581 144.573 206.293 145.399 207.827C146.714 210.269 147.033 212.854 146.89 215.584C146.816 216.982 145.343 218.807 144.374 219.777C143.232 220.919 143.645 222.602 142.487 223.76C140.229 226.018 142.697 227.425 142.697 229.84C142.697 232.681 145.632 233.221 145.632 235.71" stroke="#F8D68F" stroke-width="4" stroke-linecap="round"/>
<rect x="4" y="179" width="159" height="42" fill="#5B3F27"/>
<rect x="4" y="212" width="14" height="42" fill="#5B3F27"/>
<rect x="34.3545" y="118.376" width="93.4574" height="71.2039" rx="4" fill="#272727"/>
<rect x="43.2947" y="127.095" width="58.5125" height="48.6802" rx="4" fill="#686767"/>
<rect x="43.2947" y="127.095" width="58.5125" height="48.6802" rx="4" fill="#686767"/>
<rect x="108.308" y="126.368" width="13.8154" height="48.6802" rx="4" fill="#686767"/>
<rect x="108.308" y="126.368" width="13.8154" height="48.6802" rx="4" fill="#686767"/>
<rect x="87.5767" y="80" width="3" height="42" rx="1.5" transform="rotate(16 87.5767 80)" fill="#FCFCFC"/>
<rect x="87.5767" y="80" width="3" height="42" rx="1.5" transform="rotate(16 87.5767 80)" fill="#686767"/>
<rect x="63.7473" y="81.1836" width="3" height="42" rx="1.5" transform="rotate(-16 63.7473 81.1836)" fill="#FCFCFC"/>
<rect x="63.7473" y="81.1836" width="3" height="42" rx="1.5" transform="rotate(-16 63.7473 81.1836)" fill="#686767"/>
<rect x="72" y="119" width="11" height="5" rx="2.5" fill="#686767"/>
<rect x="150" y="212" width="13" height="42" fill="#5B3F27"/>
<rect x="70" y="244" width="168" height="75" rx="15" fill="#EBEBEB"/>
<rect x="70" y="244" width="168" height="75" rx="15" fill="#E29A34"/>
<rect x="60" y="275" width="24" height="66" rx="12" fill="#EBEBEB"/>
<rect x="60" y="275" width="24" height="66" rx="12" fill="#D4D4D4"/>
<rect x="60" y="275" width="24" height="66" rx="12" fill="#AB772D"/>
<rect x="226" y="275" width="24" height="66" rx="12" fill="#EBEBEB"/>
<rect x="226" y="275" width="24" height="66" rx="12" fill="#D4D4D4"/>
<rect x="226" y="275" width="24" height="66" rx="12" fill="#AB772D"/>
<path d="M278 162.984C279.919 162.984 281.838 162.984 283.757 162.984C284.53 162.984 287.186 162.648 287.51 162" stroke="#E29A34" stroke-width="6" stroke-linecap="round"/>
</g>
<defs>
<clipPath id="clip0_1853_4775">
<rect width="290" height="367" fill="white"/>
</clipPath>
</defs>
</svg>
