<svg width="112" height="254" viewBox="0 0 112 254" fill="none" xmlns="http://www.w3.org/2000/svg">
<path fill-rule="evenodd" clip-rule="evenodd" d="M27 244.5H88C88 244.5 94.8947 239.215 97.5 234.5C98.6987 232.331 99.1615 230.663 99.7071 228.697C99.9365 227.871 100.181 226.992 100.5 226C101.808 221.941 103.5 215.5 103.5 215.5V111.5C103.5 111.5 100.986 99.7482 97.5 93C95.7756 89.6614 93.8389 87.4605 91.881 85.2356C90.054 83.1594 88.2085 81.0622 86.5 78C83.3019 72.268 81.7398 68.8291 80 62.5C77.5071 53.4313 78 38.5 78 38.5C78 38.5 83.25 36.2501 83 33.5C82.8814 32.1955 82.3734 31.4762 81.5 30.5C80.4503 29.3268 78 28.5 78 28.5C78 28.5 75.1016 23.8951 76 21C76.3343 19.9227 77.1936 19.3794 78.0331 18.8485C78.9436 18.2727 79.8309 17.7116 80 16.5C80.2629 14.6162 79.4148 13.4493 78.3454 11.9778C78.2324 11.8224 78.1169 11.6635 78 11.5C75.98 8.6748 73.3175 7.49475 70.2482 7C69.0556 6.80775 67.836 6.19085 66.5 6C59.5 5 55.2518 4.53367 48 5C47.0044 5.06402 46.0606 5.10837 45.1563 5.15087C40.2627 5.38085 36.5254 5.55648 32 8.5C31.5827 8.77144 31.1814 9.01882 30.7971 9.2558C28.9402 10.4006 27.4773 11.3026 26.5 13.5C25.3098 16.1762 26.5 21 26.5 21C26.5 21 26.2841 22.8485 26.5 24C26.8705 25.9759 29 28.5 29 28.5C29 28.5 20.8951 30.3275 22 33.5C22.4329 34.743 23.4172 35.1104 24.5067 35.517C25.1655 35.7629 25.8628 36.0231 26.5 36.5C26.7716 36.7033 27.0168 36.8764 27.2471 37.039C27.8656 37.4755 28.3762 37.836 29 38.5C33.1444 42.9118 29 54 29 54C29 54 24.2368 66.0806 20.5 73.5C18.9841 76.5099 17.4559 78.8055 15.9799 81.0225C14.0086 83.9836 12.1307 86.8045 10.5 91C7.53068 98.6396 6 111.5 6 111.5V217.5C6 217.5 6.64532 223.816 8 227C9.50781 230.544 10.502 232.708 12.5 236C14.4114 239.15 15.4713 240.402 18.5 242.5C21.3034 244.442 27 244.5 27 244.5ZM89 234.5C87.1355 236.391 83.5 238.5 83.5 238.5H28.5C28.5 238.5 25.0907 237.093 23 236C22.3368 235.653 21.726 235.365 21.1506 235.093C19.4343 234.283 18.0332 233.622 16.5 232C14.1089 229.47 13.6555 226.992 13.1064 223.991C12.9344 223.051 12.7531 222.06 12.5 221C11.993 218.877 11.5 215.5 11.5 215.5V119C11.5 119 11.8117 107.868 13.5 101C15.1676 94.2162 17.9719 89.7632 20.943 85.0456C23.0783 81.655 25.2997 78.1277 27.2471 73.5C28.4212 70.71 29.6839 68.3096 30.8748 66.0456C33.6812 60.7103 36.0892 56.1326 36 49C35.9875 47.9998 36.0208 47.0517 36.0527 46.144C36.1311 43.909 36.201 41.9191 35.5574 40C35.2227 39.002 34.695 38.0232 33.8752 37.039C33.3265 36.3802 32.4565 35.836 31.5992 35.2997C30.1039 34.3643 28.6471 33.453 29 32C29.3326 30.6306 30.3938 29.9931 31.2879 29.4561C31.8063 29.1447 32.2686 28.867 32.5 28.5C32.6842 28.2078 32.9194 27.9962 33.143 27.7951C33.5262 27.4504 33.8752 27.1364 33.8752 26.5C33.8752 25.7025 33.3649 24.8139 32.7534 23.7491C31.9996 22.4365 31.092 20.8561 30.7971 18.8485C30.7493 18.5231 30.6988 18.2162 30.6505 17.9224C30.3921 16.3505 30.1953 15.1537 30.7971 13.5C31.5492 11.433 32.4246 9.98459 34.5 9.2558C39.5 7.5 46.6864 7.20649 54.5 7.75085C62.2732 8.2924 73 9.2558 74 11.9778C74.3217 12.8536 74.6408 13.4762 74.8931 13.9686C75.4251 15.0067 75.6606 15.4663 75 16.5C74.6601 17.032 74.1855 17.1975 73.6876 17.3712C73.2876 17.5108 72.8724 17.6556 72.5 18C71.0572 19.3341 70.6337 20.5731 70.2482 22.5C69.9665 23.9084 69.7485 25.1503 69.9597 26.3164C70.0957 27.0676 70.4099 27.7874 71 28.5C71.776 29.4372 72.8258 29.6247 73.8633 29.8099C74.6188 29.9448 75.3679 30.0786 76 30.5C76.9748 31.1499 77.7298 32.3512 77.5 33.5C77.2456 34.7719 75.911 35.6777 74.4865 36.6444C73.1111 37.5779 71.6518 38.5682 71 40C68.9786 44.4403 69.4536 48.8813 69.9597 53.6135C70.0613 54.5632 70.1641 55.5245 70.2482 56.5C70.5579 60.0901 71.1237 61.775 71.9576 64.2585C72.1273 64.7637 72.308 65.302 72.5 65.8962C72.659 66.3882 72.8256 66.9185 73 67.5C74.4808 72.4378 75.7874 75.1163 78.5 79.5C79.845 81.6736 81.1992 83.1381 82.5626 84.6125C83.8668 86.0229 85.1793 87.4423 86.5 89.5C89.6606 94.4243 91.0207 97.4936 93 103C94.5062 107.19 96 114 96 114V213C96 213 95.5565 216.993 95 219.5C94.7814 220.485 94.5926 221.423 94.4115 222.323C93.4598 227.053 92.721 230.725 89 234.5Z" fill="#C2C2C2"/>
<path d="M30.8748 66.0456C30.8748 66.0456 30.1376 70.7198 32 73C33.6089 74.9698 35.6036 75.313 37.9481 75.7164C38.4495 75.8027 38.9669 75.8917 39.5 76C44.4239 77.0002 47.3622 77.0001 52.3436 77H52.5C56.0147 77 58.129 76.9947 61.5 76C62.2999 75.764 63.0019 75.6225 63.6746 75.4869C64.7627 75.2676 65.7743 75.0637 67 74.5C67.846 74.1109 68.3487 73.5857 68.8929 73.0172C69.2093 72.6867 69.5397 72.3416 69.9597 72C71.9628 70.371 72.5 65.8962 72.5 65.8962C72.5 65.8962 67.8471 61.9742 64.5 61.5C55.0268 60.1577 48.4598 60.0663 39 61.5C35.5989 62.0154 30.8748 66.0456 30.8748 66.0456Z" fill="#E5E5E5"/>
<path fill-rule="evenodd" clip-rule="evenodd" d="M83.5 238.5C83.5 238.5 87.1355 236.391 89 234.5C92.721 230.725 93.4598 227.053 94.4115 222.323C94.5926 221.423 94.7814 220.485 95 219.5C95.5565 216.993 96 213 96 213V114C96 114 94.5062 107.19 93 103C91.0207 97.4936 89.6606 94.4243 86.5 89.5C85.1793 87.4423 83.8668 86.0229 82.5626 84.6125C81.1992 83.1381 79.845 81.6736 78.5 79.5C75.7874 75.1163 74.4808 72.4378 73 67.5C72.8256 66.9185 72.659 66.3882 72.5 65.8962C72.5 65.8962 71.9628 70.371 69.9597 72C69.5397 72.3416 69.2093 72.6867 68.8929 73.0172C68.3487 73.5857 67.846 74.1109 67 74.5C65.7743 75.0637 64.7627 75.2676 63.6746 75.4869C63.0019 75.6225 62.2999 75.764 61.5 76C58.129 76.9947 56.0147 77 52.5 77H52.3436C47.3622 77.0001 44.4239 77.0002 39.5 76C38.9669 75.8917 38.4495 75.8027 37.9481 75.7164C35.6036 75.313 33.6089 74.9698 32 73C30.1376 70.7198 30.8748 66.0456 30.8748 66.0456C29.6839 68.3096 28.4212 70.71 27.2471 73.5C25.2997 78.1277 23.0783 81.655 20.943 85.0456C17.9719 89.7632 15.1676 94.2162 13.5 101C11.8117 107.868 11.5 119 11.5 119V215.5C11.5 215.5 11.993 218.877 12.5 221C12.7531 222.06 12.9344 223.051 13.1064 223.991C13.6555 226.992 14.1089 229.47 16.5 232C18.0332 233.622 19.4343 234.283 21.1506 235.093C21.726 235.365 22.3368 235.653 23 236C25.0907 237.093 28.5 238.5 28.5 238.5H83.5Z" fill="white"/>
<path d="M77.5 33.5C77.7298 32.3512 76.9748 31.1499 76 30.5C75.3679 30.0786 74.6188 29.9448 73.8633 29.8099C72.8258 29.6247 71.776 29.4372 71 28.5C70.4099 27.7874 70.0957 27.0676 69.9597 26.3164C69.7485 25.1503 69.9665 23.9084 70.2482 22.5C70.6337 20.5731 71.0572 19.3341 72.5 18C72.8724 17.6556 73.2876 17.5108 73.6876 17.3712C74.1855 17.1975 74.6601 17.032 75 16.5C75.6606 15.4663 75.4251 15.0067 74.8931 13.9686C74.6408 13.4762 74.3217 12.8536 74 11.9778C73 9.2558 62.2732 8.2924 54.5 7.75085C46.6864 7.20649 39.5 7.5 34.5 9.2558C32.4246 9.98459 31.5492 11.433 30.7971 13.5C30.1953 15.1537 30.3921 16.3505 30.6505 17.9224C30.6988 18.2162 30.7493 18.5231 30.7971 18.8485C31.092 20.8561 31.9996 22.4365 32.7534 23.7491C33.3649 24.8139 33.8752 25.7025 33.8752 26.5C33.8752 27.1364 33.5262 27.4504 33.143 27.7951C32.9194 27.9962 32.6842 28.2078 32.5 28.5C32.2686 28.867 31.8063 29.1447 31.2879 29.4561C30.3938 29.9931 29.3326 30.6306 29 32C28.6471 33.453 30.1039 34.3643 31.5992 35.2997C32.4565 35.836 33.3265 36.3802 33.8752 37.039C34.695 38.0232 35.2227 39.002 35.5574 40C36.201 41.9191 36.1311 43.909 36.0527 46.144C36.0208 47.0517 35.9875 47.9998 36 49C36.0892 56.1326 33.6812 60.7103 30.8748 66.0456C30.8748 66.0456 35.5989 62.0154 39 61.5C48.4598 60.0663 55.0268 60.1577 64.5 61.5C67.8471 61.9742 72.5 65.8962 72.5 65.8962C72.308 65.302 72.1273 64.7637 71.9576 64.2585C71.1237 61.775 70.5579 60.0901 70.2482 56.5C70.1641 55.5245 70.0613 54.5632 69.9597 53.6135C69.4536 48.8813 68.9786 44.4403 71 40C71.6518 38.5682 73.1111 37.5779 74.4865 36.6444C75.911 35.6777 77.2456 34.7719 77.5 33.5Z" fill="#C2C2C2"/>
<rect x="64" y="97" width="17" height="133" rx="8.5" fill="#E9F1F3"/>
</svg>
