<svg width="330" height="199" viewBox="0 0 330 199" fill="none" xmlns="http://www.w3.org/2000/svg">
<ellipse cx="165" cy="103.225" rx="165" ry="95.5" fill="#5B3F27"/>
<ellipse cx="165.638" cy="88.5" rx="153.5" ry="88.5" fill="#BD5757"/>
<path fill-rule="evenodd" clip-rule="evenodd" d="M168.638 176.983C167.64 176.994 166.64 177 165.638 177C163.114 177 160.614 176.967 158.138 176.902V163.42C158.138 159.137 157.957 155.504 157.786 152.069C157.609 148.502 157.442 145.149 157.499 141.5C157.543 138.662 157.722 135.645 158.138 132.212C158.359 130.382 158.598 128.652 158.858 127C159.8 121.004 161.009 116.028 162.591 111C164.189 105.921 166.168 100.789 168.638 94.5C171.592 86.9759 174.884 81.3938 178.246 76C178.71 75.2561 179.175 74.5157 179.641 73.7744C183.207 68.0979 186.811 62.3616 190.138 54.5C191.506 51.2664 192.891 48.4244 194.197 45.7465C195.405 43.2668 196.546 40.9277 197.54 38.5486C199.514 33.8272 200.914 28.9483 201.138 22.5C201.165 21.7033 201.158 20.8647 201.124 20C200.97 16.1953 200.275 11.8873 199.593 8.43858C198.857 4.71122 198.138 1.9875 198.138 1.9875C201.685 2.42835 205.186 2.93988 208.638 3.5194C208.638 3.5194 209.296 6.13212 210.012 9.5C210.651 12.5053 211.335 16.112 211.638 19C211.673 19.3397 211.708 19.6728 211.742 20C212.439 26.7574 212.718 30.9682 211.638 37.9398C211.606 38.1447 211.573 38.3477 211.54 38.5486C210.316 45.857 207.866 50.5969 204.993 56.1564C203.764 58.533 202.458 61.0593 201.138 64C198.608 69.6339 196.436 73.8074 194.197 78.0886C194.129 78.2183 194.061 78.3481 193.993 78.4781C192.171 81.9604 190.295 85.5451 188.138 90.0712C187.553 91.2973 186.969 92.4708 186.388 93.6017C184.822 96.6475 183.277 99.3837 181.798 102.002C180.071 105.06 178.435 107.957 176.963 111C174.72 115.635 172.858 120.608 171.638 127C170.458 133.178 170.582 137.814 170.715 142.818C170.802 146.053 170.893 149.442 170.638 153.5C170.061 162.686 168.638 176.983 168.638 176.983ZM132.138 174.93C137.666 175.638 143.332 176.168 149.138 176.515C149.138 176.515 144.751 164.094 140.893 152.069C139.711 148.386 138.579 144.74 137.638 141.5C136.417 137.299 135.101 133.684 133.861 130.281C133.262 128.637 132.681 127.042 132.138 125.455C130.129 119.586 128.633 113.813 128.638 106C128.641 100.688 128.869 96.2146 129.554 92C130.535 85.9624 132.454 80.4556 135.992 73.7744C136.04 73.6831 136.089 73.5917 136.138 73.5C140.882 64.6081 147.541 60.4976 154.542 56.1753C155.435 55.6238 156.334 55.0688 157.235 54.5C161.784 51.6297 166.391 48.4074 170.638 43.5C172.64 41.1858 174.605 39.192 176.462 37.3068C181.74 31.9492 186.154 27.4682 188.138 19C188.903 15.7319 188.94 11.4838 188.768 7.9292C188.579 4.01644 188.138 0.943996 188.138 0.943996C183.697 0.567907 179.194 0.301464 174.638 0.149591C173.64 0.116341 172.64 0.0885827 171.638 0.0663673C169.647 0.0222572 167.647 0 165.638 0C164.97 0 164.303 0.00245769 163.638 0.00735823C163.638 0.00735823 158.116 4.15774 154.638 6.89417C150.371 10.251 146.677 12.4321 142.993 14.6066C140.911 15.8361 138.832 17.0634 136.655 18.5C134.898 19.6599 133.076 20.9561 131.138 22.5C128.348 24.7214 125.794 26.6597 123.393 28.4824C115.825 34.2254 109.772 38.8199 102.638 47.5C96.471 55.0033 93.3007 59.8173 90.1377 69C87.9567 75.332 87.307 79.7094 86.9066 85.5C86.8083 86.9219 86.725 88.429 86.6377 90.0712C86.4553 93.5029 86.3546 96.3579 86.3621 99C86.3779 104.627 86.8844 109.289 88.1377 116.5C88.2868 117.358 88.4415 118.19 88.6017 119C89.6915 124.511 91.0381 129.018 92.6377 133.928C93.0437 135.174 93.466 136.447 93.9045 137.768L93.9051 137.769C94.3026 138.967 94.7135 140.205 95.1377 141.5C95.7559 143.388 96.5001 145.42 97.3133 147.5C101.541 158.315 107.638 170.441 107.638 170.441C112.668 171.659 117.835 172.715 123.138 173.603L116.138 160C116.138 160 114.122 155.382 111.641 149C109.983 144.733 108.117 139.678 106.506 134.687C105.368 131.159 104.357 127.663 103.638 124.5C103.267 122.871 102.923 121.107 102.605 119.275C101.565 113.284 100.806 106.572 100.315 101.5C99.8607 96.7947 99.6377 93.5 99.6377 93.5C99.6377 93.5 99.6635 91.0533 99.9144 87.5C100.314 81.8355 101.286 73.3588 103.638 67.5C106.992 59.1413 110.877 54.2913 116.299 48.7737C117.931 47.1141 119.701 45.3941 121.638 43.5C125.751 39.4775 131.749 35.1554 136.655 31.8759C141.408 28.6987 145.138 26.5 145.138 26.5L156.522 18.5L163.638 13.5L168.228 7.9292L172.818 2.35839C173.719 4.25264 174.784 6.87608 174.638 8.43858C174.244 12.6304 173.736 15.6203 172.802 18.5C171.902 21.2763 170.606 23.9502 168.638 27.5C167.038 30.3844 165.166 32.8428 163.102 35C158.167 40.1597 152.14 43.5962 146.142 47.0163C145.267 47.5153 144.392 48.0139 143.522 48.5174C135.598 53.1017 128.013 58.0963 123.393 67.5C123.039 68.2198 122.693 68.9214 122.355 69.6071C118.539 77.3428 115.721 83.0547 114.262 90.0712C113.558 93.4534 113.17 97.1387 113.138 101.5C113.126 103.079 113.154 104.573 113.217 106C113.479 111.897 114.35 116.652 115.578 121.5C116.242 124.118 117.009 126.763 117.841 129.629C118.566 132.13 119.341 134.8 120.138 137.768C121.307 142.121 122.833 147.147 124.403 152.069C128.146 163.798 132.138 174.93 132.138 174.93ZM178.138 176.711C183.555 176.459 188.894 176.045 194.138 175.477C194.138 175.477 201.9 160.41 208.638 152C212.884 146.7 216.815 142.991 220.919 139.589C222.917 137.931 224.957 136.347 227.094 134.687C230.041 132.398 233.173 129.965 236.638 127C238.792 125.156 240.976 123.646 243.138 122.307C244.905 121.213 246.657 120.232 248.365 119.275C254.996 115.563 261.138 108 263.638 103.5C263.923 102.987 264.189 102.488 264.438 102.002C267.144 96.7206 267.788 92.8726 268.138 86.5C268.502 79.8627 268.416 75.8778 266.797 69.6071C266.746 69.4071 266.692 69.2048 266.638 69C264.826 62.2272 262.013 58.2194 258.627 53.3966C257.369 51.6047 256.032 49.7004 254.638 47.5C252.348 43.8855 250.261 41.1956 248.208 38.5486C247.064 37.0741 245.93 35.6129 244.777 34.0125C243.595 32.3705 242.392 30.582 241.138 28.4824C240.275 27.039 239.375 25.41 238.484 23.7201C236.52 19.9984 234.597 15.9812 233.212 13C231.953 10.2918 231.138 8.43858 231.138 8.43858C225.642 6.94143 219.968 5.62683 214.138 4.50836C214.138 4.50836 215.245 7.61958 216.522 10.8046C217.054 12.1325 217.615 13.4732 218.138 14.6066C219.486 17.5302 220.794 19.9406 222.138 22.1547C223.714 24.7525 225.339 27.0803 227.133 29.6501C228.374 31.4277 229.695 33.3212 231.138 35.5C233.582 39.1925 238.764 46.5603 241.138 50C245.59 56.4524 246.844 58.4125 248.638 62C248.737 62.1981 248.839 62.4014 248.943 62.6096C249.92 64.556 251.114 66.9363 252.165 69.6071C253.84 73.8611 255.15 78.8519 254.638 84C254.262 87.7751 253.633 90.6851 252.549 93.5C251.621 95.9088 250.36 98.248 248.638 101C245.185 106.517 241.392 109.158 236.91 112.278C235.105 113.535 233.189 114.869 231.138 116.5C227.42 119.457 224.123 121.449 220.919 123.384C218.306 124.963 215.755 126.504 213.088 128.5C211.648 129.579 210.174 130.79 208.638 132.212C204.977 135.601 202.306 138.467 199.841 141.5C197.335 144.584 195.042 147.841 192.138 152C185.787 161.093 178.138 176.711 178.138 176.711ZM243.138 164.909C235.229 167.581 226.868 169.857 218.138 171.688C218.138 171.688 235.834 156.312 248.85 144.5C249.987 143.469 251.087 142.464 252.138 141.5C257.821 136.28 262.797 132.839 267.429 128.9C271.336 125.577 275 121.899 278.638 116.5C280.507 113.725 282.129 111.337 283.527 109C286.107 104.688 287.926 100.554 289.138 94.5C290.632 87.0328 290.506 81.4912 289.138 74C287.331 64.1119 280.638 58.5 276.638 54C271.023 47.684 266.845 42.1558 261.638 35.5C258.312 31.2494 255.154 25.3204 252.992 20.8637C251.24 17.2515 250.143 14.6066 250.143 14.6066C255.191 16.5295 260.031 18.6198 264.638 20.8637C264.638 20.8637 269.645 26.6915 274.346 32.5C275.869 34.3815 277.36 36.261 278.638 37.9398C280.412 40.2698 282.122 42.2086 283.774 44C287.907 48.483 291.672 52.0427 295.138 58.5C296.287 60.6416 297.331 62.4023 298.268 64C300.909 68.5041 302.704 71.7117 303.638 78.5C304.412 84.1297 304.088 89.407 302.964 94.5C301.295 102.056 297.864 109.206 293.638 116.5C292.602 118.287 291.535 119.882 290.436 121.333C284.111 129.68 276.718 133.283 268.138 141.5C258.478 150.751 243.138 164.909 243.138 164.909ZM77.6377 147.5C80.3051 154.21 84.6377 163.42 84.6377 163.42C80.1746 161.753 75.841 159.945 71.6377 158C71.6377 158 65.5437 146.217 62.0396 136.5C61.5004 135.005 61.0226 133.559 60.6377 132.212C60.4457 131.54 60.2596 130.892 60.0791 130.263L60.0707 130.234L60.0704 130.233C59.6597 128.802 59.2385 127.389 58.8192 125.982C58.3732 124.486 57.9293 122.997 57.5019 121.5C56.3139 117.337 55.2543 113.111 54.6377 108.5C54.3174 106.105 54.049 103.975 53.8365 102.002C53.0848 95.0269 53.03 90.0188 53.8365 82.2141C53.9262 81.3462 54.0265 80.4436 54.1377 79.5C54.2 78.9714 54.6377 76.5 54.6377 76.5C55.0885 72.6444 56.3905 68.6396 57.9316 65C59.7466 60.7136 61.8933 56.9336 63.3719 54.5C63.7949 53.8039 64.1933 53.1387 64.5718 52.5C65.4282 51.0546 66.1828 49.7446 66.8895 48.5174C69.5301 43.9328 71.5043 40.505 75.6377 35.5C76.3455 34.6429 77.006 33.8523 77.6377 33.1105C81.479 28.5997 84.2553 25.8929 90.1377 21C90.3234 20.8455 91.2182 20.0586 92.1183 19.2669L92.1203 19.2652C93.0287 18.4662 93.9422 17.6628 94.1377 17.5C99.7384 12.8355 106.138 6.89417 106.138 6.89417C114.765 4.8008 123.793 3.1489 133.138 1.9875C133.138 1.9875 124.767 7.83874 117.638 13.0448C116.232 14.0716 114.874 15.0733 113.638 16C111.239 17.7987 109.093 19.3173 107.078 20.7435C102.084 24.2784 97.8925 27.2452 92.6377 32.5C88.5398 36.5979 85.5677 39.87 82.8097 43.5C80.6042 46.4027 78.5356 49.5343 76.1377 53.5C75.2401 54.9844 74.4099 56.3619 73.6377 57.6763C70.67 62.7275 68.5591 66.8447 66.7766 72.5C66.3829 73.7494 66.0051 75.0738 65.6377 76.5C64.6451 80.3527 64.0228 83.3942 63.6796 86.5C63.3614 89.3789 63.283 92.3131 63.3719 96C63.4701 100.072 63.7031 103.095 64.134 106C64.6494 109.474 65.4479 112.777 66.6377 117.5C67.3969 120.514 68.3681 123.076 69.3546 125.68C70.1388 127.749 70.9328 129.844 71.6377 132.212C72.7955 136.1 74.0999 139.134 75.5079 142.408C76.1948 144.006 76.9064 145.661 77.6377 147.5ZM63.3719 22.5C54.4636 27.0915 46.4904 32.2737 39.6377 37.9398C39.6377 37.9398 32.6109 46.9169 29.6377 53.5C26.4082 60.6506 24.8047 65.5427 23.8034 71.5C23.3092 74.4406 22.9617 77.6407 22.6377 81.5C22.2709 85.87 22.2263 89.7156 22.4278 93.5C22.6748 98.1407 23.2917 102.689 24.1377 108C24.3537 109.356 24.6623 110.799 25.0339 112.278C27.3564 121.526 32.1377 132.212 32.1377 132.212C36.6464 136.779 41.8399 141.093 47.6377 145.106C47.6377 145.106 41.8206 131.066 37.9313 119C36.7499 115.335 35.7463 111.852 35.1377 109C34.7191 107.038 34.3646 105.48 34.0659 104.167C33.836 103.157 33.6391 102.292 33.4716 101.5C32.7688 98.1782 32.5812 96.1441 32.6293 90.0712L32.6377 89C32.6645 85.4826 32.8144 82.4191 33.1371 79.5C33.6969 74.4376 34.7769 69.8093 36.6377 64C38.7259 57.4807 41.2914 53.6268 44.522 48.7737C44.6439 48.5906 44.7672 48.4055 44.8909 48.2193C45.2613 47.6625 45.6402 47.0911 46.0279 46.5C46.5484 45.7065 47.0847 44.8774 47.6377 44C50.1884 39.9525 53.7201 35.0815 56.7913 31C60.3994 26.2051 63.3719 22.5 63.3719 22.5Z" fill="#C69178"/>
<path d="M71.6377 132.212C72.7955 136.1 74.0999 139.134 75.5079 142.408C75.5079 142.408 81.0305 144.206 84.6377 145.106C89.5254 146.326 97.3133 147.5 97.3133 147.5C96.5001 145.42 95.7559 143.388 95.1377 141.5C94.7135 140.205 94.3026 138.967 93.9051 137.769L93.9045 137.768C93.466 136.447 93.0437 135.174 92.6377 133.928C92.6377 133.928 85.4566 133.614 81.1377 132.212C76.1334 130.588 69.3546 125.68 69.3546 125.68C70.1388 127.749 70.9328 129.844 71.6377 132.212Z" fill="#B97F64"/>
<path d="M58.8192 125.982C58.3732 124.486 57.9293 122.997 57.5019 121.5C57.5019 121.5 52.7047 117.543 49.6377 115C43.3065 109.749 33.4716 101.5 33.4716 101.5C33.6391 102.292 33.836 103.157 34.0659 104.167C34.3646 105.48 34.7191 107.038 35.1377 109C35.7463 111.852 36.7499 115.335 37.9313 119C37.9313 119 46.9079 125.46 52.6377 129.629C56.3149 132.305 62.0396 136.5 62.0396 136.5C61.5004 135.005 61.0226 133.559 60.6377 132.212C60.4457 131.54 60.2596 130.892 60.0791 130.263L60.0707 130.234L60.0704 130.233C59.6597 128.802 59.2385 127.389 58.8192 125.982Z" fill="#B97F64"/>
<path d="M12.1377 88.5C12.1377 88.5 14.1085 95.4041 16.1377 99.5C18.837 104.948 25.0339 112.278 25.0339 112.278C24.6623 110.799 24.3537 109.356 24.1377 108C23.2917 102.689 22.6748 98.1407 22.4278 93.5C22.4278 93.5 20.7047 90.465 19.6377 88.5C17.129 83.88 13.5369 76.5 13.5369 76.5C12.6142 80.4241 12.1377 84.43 12.1377 88.5Z" fill="#B97F64"/>
<path d="M124.403 152.069C122.833 147.147 121.307 142.121 120.138 137.768L106.506 134.687C108.117 139.678 109.983 144.733 111.641 149L124.403 152.069Z" fill="#B97F64"/>
<path d="M137.638 141.5C138.579 144.74 139.711 148.386 140.893 152.069H157.786C157.609 148.502 157.442 145.149 157.499 141.5H137.638Z" fill="#B97F64"/>
<path d="M170.715 142.818C170.802 146.053 170.893 149.442 170.638 153.5L192.138 152C195.042 147.841 197.335 144.584 199.841 141.5L170.715 142.818Z" fill="#B97F64"/>
<path d="M268.138 141.5C268.138 141.5 279.941 139.842 286.638 136.5C291.533 134.057 293.728 131.738 298.138 128.5C302.516 125.286 309.138 119.988 309.138 119.988C314.128 112.433 317.374 104.383 318.594 96C318.594 96 316.526 98.6925 313.706 102.002C311.142 105.011 307.956 108.53 305.138 111C299.86 115.625 290.436 121.333 290.436 121.333C284.111 129.68 276.718 133.283 268.138 141.5Z" fill="#B97F64"/>
<path d="M208.638 152C208.638 152 223.172 152.543 232.138 150.5C238.899 148.959 248.85 144.5 248.85 144.5C249.987 143.469 251.087 142.464 252.138 141.5C257.821 136.28 262.797 132.839 267.429 128.9C267.429 128.9 248.925 133.952 236.91 136.5C230.688 137.819 220.919 139.589 220.919 139.589C216.815 142.991 212.884 146.7 208.638 152Z" fill="#B97F64"/>
<path d="M236.91 112.278C236.91 112.278 221.435 113.467 211.638 112.278C203.898 111.339 199.933 107.875 192.138 108C186.098 108.097 176.963 111 176.963 111C174.72 115.635 172.858 120.608 171.638 127C171.638 127 182.777 123.457 190.138 123.384C199.32 123.294 213.088 128.5 213.088 128.5C215.755 126.504 218.306 124.963 220.919 123.384C224.123 121.449 227.42 119.457 231.138 116.5C233.189 114.869 235.105 113.535 236.91 112.278Z" fill="#C69178"/>
<path d="M289.138 94.5C290.632 87.0328 290.506 81.4912 289.138 74C289.138 74 283.646 88.2708 276.638 94.5C272.457 98.2156 264.438 102.002 264.438 102.002C264.189 102.488 263.923 102.987 263.638 103.5C261.138 108 254.996 115.563 248.365 119.275C246.657 120.232 244.905 121.213 243.138 122.307C243.138 122.307 260.221 120.742 270.138 116.5C275.648 114.143 283.527 109 283.527 109C286.107 104.688 287.926 100.554 289.138 94.5Z" fill="#C69178"/>
<path d="M303.638 78.5C304.412 84.1297 304.088 89.407 302.964 94.5L312.379 76L315.632 69.6071C313 62.6286 308.94 55.9572 303.638 49.7L300.953 56.85L298.268 64C300.909 68.5041 302.704 71.7117 303.638 78.5Z" fill="#C69178"/>
<path d="M276.638 54C271.023 47.684 266.845 42.1558 261.638 35.5L258.627 53.3966C262.013 58.2194 264.826 62.2272 266.638 69C266.692 69.2048 266.746 69.4071 266.797 69.6071C266.797 69.6071 272.289 67.0419 274.346 64C276.591 60.6813 276.638 54 276.638 54Z" fill="#B97F64"/>
<path d="M264.638 20.8637C264.638 20.8637 269.645 26.6915 274.346 32.5L275.174 26.5C271.816 24.5287 268.301 22.6476 264.638 20.8637Z" fill="#B97F64"/>
<path d="M128.638 106C128.633 113.813 130.129 119.586 132.138 125.455C132.138 125.455 140.053 124.25 145.138 124.5L160.638 111C160.638 111 148.55 109.832 140.893 108.5C136.08 107.663 128.638 106 128.638 106Z" fill="#C69178"/>
<path d="M145.138 124.5C150.577 124.768 158.858 127 158.858 127C159.8 121.004 161.009 116.028 162.591 111H160.638L145.138 124.5Z" fill="#C69178"/>
<path d="M102.605 119.275L115.578 121.5C114.35 116.652 113.479 111.897 113.217 106L100.315 101.5C100.806 106.572 101.565 113.284 102.605 119.275Z" fill="#C69178"/>
<path d="M63.3719 96C63.4701 100.072 63.7031 103.095 64.134 106C64.134 106 68.4943 110.106 71.6377 112.278C75.1206 114.685 77.124 116.154 81.1377 117.5C83.9565 118.446 88.6017 119 88.6017 119C88.4415 118.19 88.2868 117.358 88.1377 116.5C86.8844 109.289 86.3779 104.627 86.3621 99C86.3621 99 77.8545 97.2408 73.1377 94.5C68.9549 92.0695 63.6796 86.5 63.6796 86.5C63.3614 89.3789 63.283 92.3131 63.3719 96Z" fill="#C69178"/>
<path d="M36.6377 64C34.7769 69.8093 33.6969 74.4376 33.1371 79.5C33.1371 79.5 38.0193 88.7748 42.6377 93.5C46.4758 97.4269 53.8365 102.002 53.8365 102.002C53.0848 95.0269 53.03 90.0188 53.8365 82.2141C53.8365 82.2141 46.2207 78.0717 42.6377 74C39.6291 70.581 36.6377 64 36.6377 64Z" fill="#C69178"/>
<path d="M23.8034 71.5C24.8047 65.5427 26.4082 60.6506 29.6377 53.5L27.3847 50C24.1512 53.8526 21.3879 57.8609 19.1378 62L23.8034 71.5Z" fill="#C69178"/>
<path d="M92.1183 19.2669L92.1203 19.2652C93.0287 18.4662 93.9422 17.6628 94.1377 17.5C94.1377 17.5 81.2482 21.5085 73.1377 24.5L56.7913 31C53.7201 35.0815 50.1884 39.9525 47.6377 44C47.6377 44 53.3735 41.1381 57.1377 39.5C57.9653 39.1398 58.7235 38.8032 59.4397 38.4852C59.5061 38.4557 59.5721 38.4264 59.6377 38.3973C62.6497 37.0602 64.9484 36.052 68.6377 35C72.0914 34.0152 77.6377 33.1105 77.6377 33.1105C81.479 28.5997 84.2553 25.8929 90.1377 21C90.3234 20.8455 91.2182 20.0586 92.1183 19.2669Z" fill="#B97F64"/>
<path d="M168.228 7.9292L163.638 13.5L156.522 18.5C156.522 18.5 162.991 17.83 167.138 18C169.357 18.091 172.802 18.5 172.802 18.5C173.736 15.6203 174.244 12.6304 174.638 8.43858L168.228 7.9292Z" fill="#B97F64"/>
<path d="M188.768 7.9292C188.94 11.4838 188.903 15.7319 188.138 19L201.124 20C200.97 16.1953 200.275 11.8873 199.593 8.43858L188.768 7.9292Z" fill="#B97F64"/>
<path d="M142.993 14.6066C146.677 12.4321 150.371 10.251 154.638 6.89417C154.638 6.89417 143.292 7.26505 136.138 8.43858C128.791 9.64374 117.638 13.0448 117.638 13.0448C116.232 14.0716 114.874 15.0733 113.638 16C111.239 17.7987 109.093 19.3173 107.078 20.7435C102.084 24.2784 97.8925 27.2452 92.6377 32.5C92.6377 32.5 109.684 26.956 120.638 23.5C126.887 21.5282 136.655 18.5 136.655 18.5C138.832 17.0634 140.911 15.8361 142.993 14.6066Z" fill="#B97F64"/>
<path d="M210.012 9.5C210.651 12.5053 211.335 16.112 211.638 19C211.673 19.3397 211.708 19.6728 211.742 20L222.138 22.1547C220.794 19.9406 219.486 17.5302 218.138 14.6066C217.615 13.4732 217.054 12.1325 216.522 10.8046L210.012 9.5Z" fill="#B97F64"/>
<path d="M278.638 37.9398C280.412 40.2698 282.122 42.2086 283.774 44L285.236 38.9126C279.656 35.1154 274.346 32.5 274.346 32.5C275.869 34.3815 277.36 36.261 278.638 37.9398Z" fill="#B97F64"/>
<path fill-rule="evenodd" clip-rule="evenodd" d="M252.992 20.8637L248.208 18.9442L237.396 14.6066L234.638 13.5L233.212 13C234.597 15.9812 236.52 19.9984 238.484 23.7201L246.224 27.658L248.208 28.6673L261.638 35.5C258.312 31.2494 255.154 25.3204 252.992 20.8637Z" fill="#B97F64"/>
<path d="M295.138 58.5C296.287 60.6416 297.331 62.4023 298.268 64L300.953 56.85C300.953 56.85 297.816 50.8636 295.138 47.5C292.668 44.3989 288.894 41.4018 285.236 38.9126L283.774 44C287.907 48.483 291.672 52.0427 295.138 58.5Z" fill="#B97F64"/>
<path d="M129.554 92C129.554 92 141.138 94.0014 148.638 94.5C156.431 95.0181 168.638 94.5 168.638 94.5C171.592 86.9759 174.884 81.3938 178.246 76C178.246 76 158.201 81.613 146.142 78.0886C142.008 76.8805 135.992 73.7744 135.992 73.7744C132.454 80.4556 130.535 85.9624 129.554 92Z" fill="#B97F64"/>
<path d="M266.797 69.6071C268.416 75.8778 268.502 79.8627 268.138 86.5C268.138 86.5 273.567 77.7917 274.346 71.5C274.706 68.5933 274.706 66.9067 274.346 64C272.289 67.0419 266.797 69.6071 266.797 69.6071Z" fill="#B97F64"/>
<path d="M193.993 78.4781C192.171 81.9604 190.295 85.5451 188.138 90.0712C187.553 91.2973 186.969 92.4708 186.388 93.6017L187.138 93.5C187.138 93.5 194.773 92.8477 199.593 93.5C205.059 94.2396 207.731 96.4126 213.138 97.5C217.958 98.4694 220.723 98.8777 225.638 99C234.113 99.2109 239.233 99.0641 247.138 96C249.308 95.1586 252.549 93.5 252.549 93.5C253.633 90.6851 254.262 87.7751 254.638 84C255.15 78.8519 253.84 73.8611 252.165 69.6071C252.165 69.6071 251.462 76.3113 248.943 79.5C245.234 84.1971 240.576 84.248 234.638 85C227.523 85.901 223.57 83.3207 216.522 82C209.885 80.7564 206.31 79.1772 199.593 78.4781C197.492 78.2593 194.197 78.0886 194.197 78.0886L193.993 78.4781Z" fill="#B97F64"/>
<path d="M103.638 67.5C101.286 73.3588 100.314 81.8355 99.9144 87.5L114.262 90.0712C115.721 83.0547 118.539 77.3428 122.355 69.6071C122.355 69.6071 115.797 71.7184 111.638 71C108.277 70.4195 103.638 67.5 103.638 67.5Z" fill="#B97F64"/>
<path d="M66.7766 72.5C66.7766 72.5 70.0897 78.8649 73.6377 81.5C77.9826 84.727 86.9066 85.5 86.9066 85.5C87.307 79.7094 87.9567 75.332 90.1377 69C90.1377 69 83.5061 68.704 80.1377 66.5C76.5563 64.1566 73.6377 57.6763 73.6377 57.6763C70.67 62.7275 68.5591 66.8447 66.7766 72.5Z" fill="#B97F64"/>
<path d="M57.1377 39.5C53.3735 41.1381 47.6377 44 47.6377 44C47.0847 44.8774 46.5484 45.7065 46.0279 46.5L46.1377 48.7737C46.1377 48.7737 46.9835 55.7179 49.6377 59C51.7809 61.6502 56.7913 64 56.7913 64L57.9316 65C59.7466 60.7136 61.8933 56.9336 63.3719 54.5C63.7949 53.8039 64.1933 53.1387 64.5718 52.5C64.5718 52.5 59.5109 51.2932 57.9316 48.7737C55.7505 45.2941 59.6377 38.3973 59.6377 38.3973L59.4397 38.4852C58.7235 38.8032 57.9653 39.1398 57.1377 39.5Z" fill="#B97F64"/>
<path d="M121.638 43.5C119.701 45.3941 117.931 47.1141 116.299 48.7737C116.299 48.7737 122.825 46.8234 127.138 46.5C133.566 46.0179 143.522 48.5174 143.522 48.5174C144.392 48.0139 145.267 47.5153 146.142 47.0163C152.14 43.5962 158.167 40.1597 163.102 35C163.102 35 150.396 37.6217 142.993 35C140.392 34.0787 136.655 31.8759 136.655 31.8759C131.749 35.1554 125.751 39.4775 121.638 43.5Z" fill="#B97F64"/>
<path d="M241.138 50C238.764 46.5603 233.582 39.1925 231.138 35.5C231.138 35.5 228.074 42.1817 224.138 43.5C219.125 45.1788 211.54 38.5486 211.54 38.5486C210.316 45.857 207.866 50.5969 204.993 56.1564C204.993 56.1564 216.681 58.4798 224.138 57.6763C229.888 57.0567 234.503 58.1956 238.484 54C239.774 52.64 241.138 50 241.138 50Z" fill="#B97F64"/>
<path d="M194.197 45.7465C195.405 43.2668 196.546 40.9277 197.54 38.5486L176.462 37.3068C174.605 39.192 172.64 41.1858 170.638 43.5C166.391 48.4074 161.784 51.6297 157.235 54.5C157.235 54.5 165.884 57.4055 171.638 57.6763C178.96 58.0209 190.138 54.5 190.138 54.5C191.506 51.2664 192.891 48.4244 194.197 45.7465Z" fill="#B97F64"/>
<path d="M241.138 28.4824C242.392 30.582 243.595 32.3705 244.777 34.0125L246.224 27.658L238.484 23.7201C239.375 25.41 240.275 27.039 241.138 28.4824Z" fill="#B97F64"/>
<path d="M248.208 18.9442L246.138 13.1318C243.863 12.3224 241.548 11.5463 239.197 10.8046L237.396 14.6066L248.208 18.9442Z" fill="#B97F64"/>
</svg>
