<svg width="87" height="69" viewBox="0 0 87 69" fill="none" xmlns="http://www.w3.org/2000/svg">
<path d="M57.5 8.0478C57.5 8.0478 59.2775 7.22245 60.5 7.0478C60.9169 6.98825 61.2715 7.04992 61.6125 7.1092C62.062 7.18736 62.4875 7.26135 63 7.0478C64.2997 6.50624 64.7798 5.43853 65 4.0478C65.2223 2.64377 64 0.547803 64 0.547803C64 0.547803 63.2399 0.181202 62.4528 0.0478026H61.5L58.5 1.5478L49.5 6.0478L46.5 9.5478C46.5 9.5478 44.4278 12.7014 42.5 14.0474C41.0491 15.0604 40.0063 15.3979 38.4245 15.9097L38.4232 15.9101C38.2864 15.9544 38.1455 16 38 16.0474C36.2884 16.6054 33.5 17.0474 33.5 17.0474C33.5 17.0474 35.6839 17.1301 37 17.5474C37.9297 17.8422 38.5025 18.1784 39.2078 18.5925C39.4497 18.7345 39.7072 18.8856 40 19.0474C40.9966 19.598 42.5 20.5474 42.5 20.5474C42.5 20.5474 43.9784 19.5501 45 19.0474C46.6621 18.2295 49.5 17.5474 49.5 17.5474H51.9158C51.0154 17.4683 49.9754 17.2227 49.5 16.5474C48.9268 15.7333 48.9376 15.0411 49 14.0474C49.1154 12.2089 50.1142 11.261 51.5 10.0474C53.3581 8.4202 57.5 8.0478 57.5 8.0478Z" fill="#789821"/>
<path fill-rule="evenodd" clip-rule="evenodd" d="M53.5 17.5474H51.9158C52.7709 17.6225 53.5 17.5474 53.5 17.5474Z" fill="#D9D9D9"/>
<path d="M41.5 64.0478C41.5 64.0478 44.1313 65.5937 46 66.0478C48.4666 66.6472 49.994 66.452 52.5 66.0478C55.3657 65.5856 57.0646 65.1274 59.5 63.5478C60.549 62.8674 62 61.5478 62 61.5478C62 61.5478 65.4294 61.6512 67.5 61.0478C70.3615 60.214 71.7678 59.0229 74 57.0478C76.0784 55.2088 77.1366 53.965 78.5 51.5478C79.8638 49.1298 80.2433 47.4306 80.8032 44.9238L80.8037 44.9217C80.8663 44.6412 80.9312 44.3506 81 44.0478C81.7834 40.5993 82.0228 38.5841 82 35.0478C81.9784 31.7055 81.7882 29.7959 81 26.5478L80.9953 26.5285C80.3137 23.7193 79.9147 22.0749 78.5 19.5478C76.8758 16.6463 75.5838 15.1409 73 13.0478C70.8922 11.3403 69.506 10.5864 67 9.5478C65.1167 8.76728 62 8.0478 62 8.0478H57.5C57.5 8.0478 53.3581 8.4202 51.5 10.0474C50.1142 11.261 49.1154 12.2089 49 14.0474C48.9376 15.0411 48.9268 15.7333 49.5 16.5474C49.9754 17.2227 51.0154 17.4683 51.9158 17.5474H53.5C53.5 17.5474 52.7709 17.6225 51.9158 17.5474H49.5C49.5 17.5474 46.6621 18.2295 45 19.0474C43.9784 19.5501 42.5 20.5474 42.5 20.5474C42.5 20.5474 40.9966 19.598 40 19.0474C39.7072 18.8856 39.4497 18.7345 39.2078 18.5925C38.5025 18.1784 37.9297 17.8422 37 17.5474C35.6839 17.1301 33.5 17.0474 33.5 17.0474C33.5 17.0474 36.2884 16.6054 38 16.0474C38.1455 16 38.2864 15.9544 38.4232 15.9101L38.4245 15.9097C40.0063 15.3979 41.0491 15.0604 42.5 14.0474C44.4278 12.7014 46.5 9.5478 46.5 9.5478L49.5 6.0478C48.1882 5.50025 47.4031 5.27595 46 5.0478L45.72 5.00205C43.9526 4.71255 42.7798 4.52044 41 5.0478C39.4906 5.49503 37.5 7.0478 37.5 7.0478C37.5 7.0478 34.8002 6.0478 33 6.0478C31.1998 6.0478 30.139 6.30306 28.5 7.0478C26.9708 7.74269 25 9.5478 25 9.5478C25 9.5478 21.4597 9.58585 19.5 10.5478C18.116 11.2272 17.3909 12.0186 16.508 12.9822C16.2022 13.3159 15.8775 13.6703 15.5 14.0478C15.2568 14.291 15.0284 14.5153 14.8116 14.7281C13.7205 15.7997 12.9231 16.5827 12 18.0478C11.5146 18.8182 11.2542 19.3972 10.9493 20.0749C10.8156 20.3721 10.6734 20.6882 10.5 21.0478C10.113 21.8501 9.7502 22.5544 9.40943 23.216C8.44555 25.0872 7.65814 26.6159 7 29.0478C6.0762 32.4614 5.84856 34.5147 6 38.0478C6.16236 41.8356 6.57407 44.0349 8 47.5478C9.38565 50.9615 10.4087 52.9289 13 55.5478C15.1715 57.7424 16.6761 58.7999 19.5 60.0478L19.6764 60.1258C21.4361 60.9042 22.5329 61.3894 24.5 61.5478C25.2785 61.6105 26.5 61.5478 26.5 61.5478C26.5 61.5478 27.6129 62.8896 28.5 63.5478C29.5519 64.3283 30.2481 64.6626 31.5 65.0478C33.4911 65.6605 34.8519 65.4519 36.7586 65.1597C36.9965 65.1232 37.2429 65.0854 37.5 65.0478C39.0932 64.8147 41.5 64.0478 41.5 64.0478Z" fill="#EB6E1C"/>
<path d="M57.524 8.5478L57.5035 8.54983C57.4747 8.55275 57.4314 8.55732 57.3752 8.56375C57.2627 8.57661 57.0986 8.59689 56.8953 8.62627C56.4883 8.68512 55.9271 8.78007 55.3106 8.92426C54.0528 9.21844 52.6591 9.69698 51.8294 10.4235C50.4418 11.6387 49.6003 12.4652 49.499 14.0787C49.4374 15.0608 49.4424 15.5971 49.9088 16.2595C50.0648 16.481 50.3375 16.6634 50.7181 16.8006C51.0883 16.934 51.5184 17.0093 51.938 17.0474H53.5L53.5512 18.0448L53.5 17.5474C53.5512 18.0448 53.5512 18.0448 53.5511 18.0448L53.551 18.0448L53.5507 18.0448L53.5498 18.0449L53.5474 18.0452L53.5393 18.0459L53.511 18.0485C53.4868 18.0507 53.4523 18.0535 53.4085 18.0567C53.3211 18.063 53.1967 18.0704 53.0448 18.0753C52.7469 18.085 52.3386 18.0853 51.8942 18.0474H49.5605L49.4963 18.0633C49.4171 18.0831 49.3016 18.1125 49.1577 18.1503C48.8696 18.226 48.4682 18.3354 48.0158 18.47C47.1034 18.7413 46.0121 19.1066 45.2208 19.496C44.7343 19.7354 44.1273 20.0989 43.6327 20.4094C43.3875 20.5633 43.1736 20.7019 43.0211 20.8018C42.945 20.8518 42.8842 20.8921 42.8427 20.9197L42.7953 20.9514L42.7833 20.9594L42.7804 20.9614L42.7797 20.9618L42.7796 20.9619L42.509 21.1444L42.233 20.9701L42.233 20.9701L42.2328 20.97L42.2321 20.9695L42.2289 20.9676L42.2164 20.9597L42.1676 20.929C42.1249 20.9022 42.0627 20.8632 41.9849 20.8147C41.8293 20.7177 41.6115 20.5825 41.3628 20.4304C40.8635 20.1249 40.2463 19.7547 39.7582 19.485C39.4597 19.3201 39.1975 19.1662 38.9564 19.0247L38.9546 19.0236C38.2526 18.6115 37.7211 18.3006 36.8489 18.024C36.2423 17.8317 35.41 17.7105 34.7055 17.6383C34.3581 17.6027 34.0506 17.5798 33.8302 17.5658C33.7201 17.5589 33.632 17.5541 33.5717 17.5512L33.5032 17.548L33.486 17.5472L33.482 17.5471L33.4812 17.547L33.4811 17.547L33.481 17.5464L33.4217 16.5537L33.4217 16.5536L33.4217 16.5536L33.422 16.5535L33.4234 16.5533L33.429 16.5524L33.4518 16.5487L33.5415 16.534C33.6199 16.5211 33.7341 16.5018 33.8767 16.477C34.162 16.4274 34.5602 16.3554 35.0111 16.2661C35.9186 16.0866 37.0192 15.8413 37.845 15.572C37.9911 15.5244 38.1325 15.4786 38.2693 15.4344L38.2705 15.434L38.2705 15.434C39.8473 14.9238 40.8283 14.6047 42.2138 13.6374C43.1146 13.0085 44.0772 11.9325 44.8312 10.9821C45.2039 10.5124 45.5176 10.0837 45.7381 9.77251C45.8483 9.61705 45.9349 9.49126 45.9937 9.40478C46.0111 9.37924 46.026 9.35715 46.0384 9.33873C46.047 9.32596 46.0544 9.31497 46.0605 9.30582L46.0772 9.28077L46.0811 9.27476L46.082 9.27342L46.0821 9.27323L46.0822 9.27318L46.0996 9.2466L46.1204 9.22241L46.1204 9.22238L46.1205 9.22231L46.1207 9.22202L46.1217 9.22086L46.1257 9.21625L46.1412 9.19812L46.2012 9.12808L46.4244 8.86774L47.181 7.98497L48.6664 6.25201C47.7442 5.9 47.04 5.72347 45.9198 5.54132L45.9194 5.54126L45.6394 5.49551L45.6392 5.49547C43.8758 5.20663 42.8032 5.03501 41.142 5.5272C40.46 5.72928 39.6353 6.1955 38.9556 6.6353C38.6216 6.85141 38.3331 7.0542 38.1283 7.20285C38.026 7.27709 37.9449 7.33759 37.8898 7.37921C37.8715 7.39301 37.8561 7.40472 37.8438 7.41417C37.8375 7.41896 37.832 7.42318 37.8273 7.42678L37.8118 7.43869L37.8083 7.44147L37.8075 7.44204L57.524 8.5478ZM57.524 8.5478H61.9422L62.0216 8.56661C62.1093 8.5875 62.237 8.61831 62.3962 8.65776C62.7149 8.73667 63.1593 8.84998 63.6619 8.9874C64.6728 9.26382 65.8975 9.63211 66.8086 10.0097C69.2795 11.0338 70.622 11.7648 72.6853 13.4363C75.2216 15.491 76.4716 16.9479 78.0637 19.792C79.4426 22.2554 79.829 23.8424 80.5094 26.6464L80.5141 26.6657C81.2919 29.871 81.4787 31.7415 81.5 35.051C81.5226 38.5466 81.2879 40.5236 80.5124 43.937C80.4434 44.2409 80.3783 44.5323 80.3157 44.8127L80.3152 44.8148L80.8032 44.9238L57.524 8.5478ZM37.3263 7.51667L37.3262 7.51664L37.3252 7.51624L37.3202 7.5144L37.2989 7.50666C37.2799 7.49976 37.2512 7.48946 37.2138 7.47624C37.139 7.44979 37.0294 7.41172 36.8919 7.36589C36.6167 7.27415 36.2313 7.15179 35.7913 7.02956C34.8986 6.78159 33.8284 6.5478 33 6.5478C31.277 6.5478 30.2864 6.78526 28.7068 7.50301C28 7.82422 27.1642 8.41744 26.4857 8.95131C26.1511 9.21467 25.8629 9.45703 25.6585 9.63341C25.5564 9.72152 25.4755 9.79296 25.4204 9.84206C25.3929 9.86661 25.3719 9.88556 25.3579 9.89821L25.3423 9.91236L25.3386 9.91572L25.3378 9.91644L25.3377 9.91651L37.3263 7.51667ZM37.3263 7.51667L37.3264 7.5167M37.3263 7.51667L37.3264 7.5167M37.3264 7.5167L37.5877 7.6135L37.8074 7.44211L37.3264 7.5167ZM26.8848 61.2286L26.8849 61.2286L26.8853 61.2291L26.8873 61.2315L26.896 61.2419L26.9311 61.2836C26.9621 61.3202 27.0076 61.3736 27.0652 61.4399C27.1806 61.5727 27.3435 61.7565 27.5332 61.9602C27.9186 62.374 28.393 62.8458 28.7979 63.1463C29.8002 63.8899 30.4443 64.1998 31.647 64.5699C33.5198 65.1461 34.78 64.9571 36.6829 64.6654C36.9205 64.629 37.1685 64.591 37.4276 64.5531C38.192 64.4412 39.1673 64.1982 39.9645 63.9784C40.3603 63.8692 40.707 63.7672 40.9547 63.6926C41.0785 63.6552 41.1774 63.6248 41.2451 63.6037L41.3224 63.5796L41.342 63.5734L41.3468 63.5718L41.348 63.5715L41.3482 63.5714L41.3482 63.5714L41.5609 63.5037L26.8848 61.2286ZM26.8848 61.2286L26.7248 61.0356L26.4744 61.0485L26.4743 61.0485L26.4738 61.0485L26.4715 61.0486L26.4618 61.0491L26.4232 61.0509C26.4084 61.0516 26.3906 61.0524 26.37 61.0532C26.3436 61.0544 26.3126 61.0556 26.2777 61.057C26.1534 61.0618 25.9797 61.0676 25.7822 61.0714C25.3826 61.0792 24.9033 61.0787 24.5401 61.0494C22.6637 60.8983 21.6334 60.4447 19.8787 59.6686L19.8787 59.6685L19.7022 59.5905L19.7021 59.5905C16.9376 58.3688 15.4845 57.3479 13.3554 55.1961C10.8275 52.6412 9.83515 50.7395 8.46329 47.3597C7.06159 43.9065 6.65978 41.7646 6.49954 38.0264C6.35029 34.5444 6.57226 32.5424 7.48264 29.1784C8.12591 26.8014 8.8917 25.313 9.85392 23.445L9.85485 23.4432C10.1952 22.7825 10.5605 22.0732 10.9503 21.265C11.1267 20.8993 11.2712 20.5781 11.4046 20.2816L11.4053 20.28C11.7092 19.6044 11.9576 19.053 12.423 18.3143C13.3129 16.902 14.074 16.1533 15.162 15.0849L15.1625 15.0844C15.379 14.8718 15.6087 14.6462 15.8536 14.4014C16.2388 14.0161 16.5697 13.655 16.8742 13.3226L16.8766 13.32C17.7567 12.3594 18.4277 11.6311 19.7203 10.9966C20.6186 10.5557 21.9208 10.3125 23.0419 10.1838C23.5941 10.1204 24.0871 10.0863 24.4418 10.0681C24.619 10.059 24.7612 10.0539 24.8585 10.0511C24.9072 10.0497 24.9446 10.0489 24.9695 10.0484L24.9973 10.0479L25.0038 10.0478L25.0052 10.0478L25.0054 10.0478L25.0055 10.0478L26.8848 61.2286ZM58.7236 1.99502L61.618 0.547803H61.6192H61.6211H61.6229H61.6247H61.6266H61.6284H61.6302H61.6321H61.6339H61.6358H61.6376H61.6394H61.6413H61.6431H61.645H61.6468H61.6486H61.6505H61.6523H61.6542H61.656H61.6578H61.6597H61.6615H61.6634H61.6652H61.667H61.6689H61.6707H61.6726H61.6744H61.6763H61.6781H61.6799H61.6818H61.6836H61.6855H61.6873H61.6891H61.691H61.6928H61.6947H61.6965H61.6984H61.7002H61.7021H61.7039H61.7057H61.7076H61.7094H61.7113H61.7131H61.715H61.7168H61.7186H61.7205H61.7223H61.7242H61.726H61.7279H61.7297H61.7316H61.7334H61.7353H61.7371H61.7389H61.7408H61.7426H61.7445H61.7463H61.7482H61.75H61.7519H61.7537H61.7556H61.7574H61.7593H61.7611H61.763H61.7648H61.7667H61.7685H61.7703H61.7722H61.774H61.7759H61.7777H61.7796H61.7814H61.7833H61.7851H61.787H61.7888H61.7907H61.7925H61.7944H61.7962H61.7981H61.7999H61.8018H61.8036H61.8055H61.8073H61.8092H61.811H61.8129H61.8147H61.8166H61.8184H61.8203H61.8221H61.824H61.8258H61.8277H61.8296H61.8314H61.8333H61.8351H61.837H61.8388H61.8407H61.8425H61.8444H61.8462H61.8481H61.8499H61.8518H61.8536H61.8555H61.8573H61.8592H61.8611H61.8629H61.8648H61.8666H61.8685H61.8703H61.8722H61.874H61.8759H61.8777H61.8796H61.8815H61.8833H61.8852H61.887H61.8889H61.8907H61.8926H61.8944H61.8963H61.8982H61.9H61.9019H61.9037H61.9056H61.9074H61.9093H61.9112H61.913H61.9149H61.9167H61.9186H61.9204H61.9223H61.9242H61.926H61.9279H61.9297H61.9316H61.9335H61.9353H61.9372H61.939H61.9409H61.9427H61.9446H61.9465H61.9483H61.9502H61.952H61.9539H61.9558H61.9576H61.9595H61.9613H61.9632H61.9651H61.9669H61.9688H61.9706H61.9725H61.9744H61.9762H61.9781H61.98H61.9818H61.9837H61.9855H61.9874H61.9893H61.9911H61.993H61.9949H61.9967H61.9986H62.0004H62.0023H62.0042H62.006H62.0079H62.0098H62.0116H62.0135H62.0154H62.0172H62.0191H62.0209H62.0228H62.0247H62.0265H62.0284H62.0303H62.0321H62.034H62.0359H62.0377H62.0396H62.0415H62.0433H62.0452H62.0471H62.0489H62.0508H62.0527H62.0545H62.0564H62.0583H62.0601H62.062H62.0639H62.0657H62.0676H62.0695H62.0713H62.0732H62.0751H62.0769H62.0788H62.0807H62.0825H62.0844H62.0863H62.0881H62.09H62.0919H62.0937H62.0956H62.0975H62.0993H62.1012H62.1031H62.105H62.1068H62.1087H62.1106H62.1124H62.1143H62.1162H62.118H62.1199H62.1218H62.1237H62.1255H62.1274H62.1293H62.1311H62.133H62.1349H62.1367H62.1386H62.1405H62.1424H62.1442H62.1461H62.148H62.1499H62.1517H62.1536H62.1555H62.1573H62.1592H62.1611H62.163H62.1648H62.1667H62.1686H62.1705H62.1723H62.1742H62.1761H62.178H62.1798H62.1817H62.1836H62.1854H62.1873H62.1892H62.1911H62.1929H62.1948H62.1967H62.1986H62.2004H62.2023H62.2042H62.2061H62.208H62.2098H62.2117H62.2136H62.2155H62.2173H62.2192H62.2211H62.223H62.2248H62.2267H62.2286H62.2305H62.2323H62.2342H62.2361H62.238H62.2399H62.2417H62.2436H62.2455H62.2474H62.2492H62.2511H62.253H62.2549H62.2568H62.2586H62.2605H62.2624H62.2643H62.2662H62.268H62.2699H62.2718H62.2737H62.2756H62.2774H62.2793H62.2812H62.2831H62.285H62.2868H62.2887H62.2906H62.2925H62.2944H62.2962H62.2981H62.3H62.3019H62.3038H62.3056H62.3075H62.3094H62.3113H62.3132H62.3151H62.3169H62.3188H62.3207H62.3226H62.3245H62.3264H62.3282H62.3301H62.332H62.3339H62.3358H62.3377H62.3395H62.3414H62.3433H62.3452H62.3471H62.349H62.3508H62.3527H62.3546H62.3565H62.3584H62.3603H62.3622H62.364H62.3659H62.3678H62.3697H62.3716H62.3735H62.3754H62.3772H62.3791H62.381H62.3829H62.3848H62.3867H62.3886H62.3904H62.3923H62.3942H62.3961H62.398H62.3999H62.4018H62.4037H62.4055H62.4074H62.4093C62.7461 0.608732 63.0834 0.717368 63.3458 0.815901C63.4662 0.861153 63.5681 0.903208 63.6434 0.935615C63.6706 0.986184 63.7041 1.04962 63.7419 1.12394C63.848 1.33248 63.9869 1.62395 64.1187 1.95584C64.3928 2.64602 64.5946 3.41103 64.5062 3.9696C64.2974 5.28797 63.8724 6.14263 62.8077 6.58626C62.4432 6.73811 62.151 6.69534 61.6981 6.61659L61.6799 6.61343C61.3456 6.55525 60.9249 6.48203 60.4293 6.55283C59.7598 6.64847 58.9663 6.91575 58.3631 7.14623C58.0565 7.26338 57.7894 7.37479 57.5988 7.45699C57.5034 7.49814 57.4269 7.53208 57.3739 7.55592L57.3682 7.5585C57.3393 7.56153 57.3036 7.56542 57.2616 7.57022C57.1404 7.58408 56.9663 7.60561 56.7522 7.63656C56.3246 7.69839 55.7341 7.79823 55.0829 7.95054C53.8052 8.24936 52.199 8.77061 51.1706 9.67125C49.7866 10.8833 48.6305 11.9527 48.501 14.0161C48.4379 15.0213 48.4112 15.8695 49.0912 16.8352C49.1538 16.9242 49.2228 17.0065 49.2969 17.0825L49.2533 17.0933C49.1708 17.114 49.0516 17.1443 48.9035 17.1832C48.6076 17.2609 48.1956 17.3732 47.7308 17.5114C46.8087 17.7856 45.65 18.1703 44.7792 18.5988C44.2441 18.8621 43.6011 19.2486 43.1011 19.5624C42.8594 19.7141 42.6476 19.8511 42.4925 19.9527C42.3368 19.8557 42.125 19.7244 41.8847 19.5774C41.3831 19.2705 40.7503 18.8906 40.2418 18.6097C39.9554 18.4515 39.7032 18.3035 39.4609 18.1613L39.4525 18.1563C38.7475 17.7425 38.1344 17.3825 37.1511 17.0708C36.9935 17.0208 36.8256 16.9756 36.652 16.9346C37.1775 16.8099 37.7009 16.6708 38.155 16.5228C38.2996 16.4756 38.4397 16.4303 38.5764 16.3861L38.5771 16.3858L38.5772 16.3858L38.5784 16.3854L38.5784 16.3854L38.5917 16.3811C40.1715 15.8699 41.274 15.5132 42.7862 14.4574C43.8132 13.7403 44.8506 12.5666 45.6146 11.6036C46.001 11.1166 46.3258 10.6729 46.5541 10.3507C46.6683 10.1894 46.7586 10.0583 46.8207 9.9671C46.8517 9.92148 46.8757 9.88579 46.892 9.86127L46.8996 9.84988L46.9004 9.84891L46.9605 9.77887L47.1836 9.51853L47.9403 8.63576L49.8139 6.44986L58.7236 1.99502Z" stroke="#974E25"/>
<ellipse cx="50.3827" cy="41.1648" rx="10.4523" ry="17.9639" transform="rotate(-9.00638 50.3827 41.1648)" fill="#F09119"/>
<path d="M56.7426 31.9437C57.5944 37.3178 51.1814 28.2142 46.2238 29C41.2661 29.7858 39.6413 40.1634 38.7895 34.7893C37.9377 29.4152 41.2661 24.4216 46.2238 23.6358C51.1814 22.85 55.8908 26.5696 56.7426 31.9437Z" fill="#FCBC38"/>
<path fill-rule="evenodd" clip-rule="evenodd" d="M69.5596 54.1306C76.9825 52.954 81.5642 42.9417 79.7931 31.7673C78.022 20.5929 70.5687 12.4881 63.1458 13.6646C60.4783 14.0874 58.1777 15.6513 56.407 18C56.407 18 59.8518 22.0483 61.5 25C64.4816 30.3397 66.2268 33.8903 66.5 40C66.5309 40.6909 66.4545 41.3799 66.5 42C66.6998 44.7249 66.4823 46.8471 65 49.5C64.4071 50.5611 64.0353 51.1715 63.1458 52C62.9044 52.2248 62.5 52.5445 62.5 52.5445C64.7252 53.9134 67.144 54.5134 69.5596 54.1306Z" fill="#F09119"/>
<path fill-rule="evenodd" clip-rule="evenodd" d="M71.7148 53.7889C75.4383 53.1988 77.021 43.6617 75.2498 32.4874C73.4787 21.313 69.0245 12.7328 65.301 13.323C63.963 13.5351 62.9014 14.9025 62.1725 17.0862C62.1725 17.0862 64.2545 21.3505 65.3288 24.3931C67.2724 29.8974 68.4427 33.5391 69.0539 39.5952C69.123 40.2801 69.1368 40.9547 69.208 41.5708C69.5206 44.2778 69.5724 46.3573 69.0152 48.8636C68.7923 49.8661 68.6482 50.4404 68.255 51.1902C68.1483 51.3937 67.9652 51.6783 67.9652 51.6783C69.214 53.2019 70.5031 53.981 71.7148 53.7889Z" fill="#FCBC38"/>
<path fill-rule="evenodd" clip-rule="evenodd" d="M23.8499 57.5957C15.0962 57.2312 8.38161 47.7719 8.85242 36.4678C9.32323 25.1638 16.8012 16.2956 25.5548 16.6602C28.7005 16.7912 31.5829 18.0967 33.9631 20.2402C33.9631 20.2402 30.5496 24.6396 29.0597 27.7536C26.3644 33.387 24.8469 37.1071 25.3938 43.2122C25.4556 43.9026 25.6413 44.5794 25.6762 45.2011C25.83 47.9324 26.3813 50.0192 28.4708 52.4964C29.3066 53.4873 29.823 54.0539 30.969 54.7812C31.28 54.9786 31.793 55.2527 31.793 55.2527C29.4121 56.8553 26.6985 57.7144 23.8499 57.5957Z" fill="#F09119"/>
<path fill-rule="evenodd" clip-rule="evenodd" d="M22.3488 57.5336C19.4273 57.4119 17.4407 48.1496 17.9115 36.8455C18.3823 25.5415 21.1323 16.4764 24.0537 16.598C25.1036 16.6418 26.0327 17.8659 26.7704 19.941C26.7704 19.941 25.5054 24.4299 24.9202 27.5816C23.8615 33.2831 23.2502 37.041 23.2643 43.1239C23.2658 43.8118 23.3093 44.4827 23.3038 45.1026C23.2796 47.8266 23.4064 49.8956 24.0376 52.3121C24.29 53.2787 24.4473 53.8304 24.8109 54.5251C24.9096 54.7137 25.0738 54.9732 25.0738 54.9732C24.232 56.6399 23.2995 57.5732 22.3488 57.5336Z" fill="#FCBC38"/>
<path fill-rule="evenodd" clip-rule="evenodd" d="M37.5 55C33.4596 54.8317 29.3261 48.5328 29.7341 38.737C30.1421 28.9411 33.7483 21.1364 37.7887 21.3047C39.2407 21.3651 40.5512 22.447 41.6154 24.2629C41.6154 24.2629 38.1054 28.2786 37.3643 31C36.0234 35.9232 35.85 38.7229 36 44C36.017 44.5968 36.4943 46.9624 36.5 47.5C37 50 37.6091 50.1756 38.5333 52.2854C38.9029 53.1293 39.1321 53.6113 39.6496 54.2218C39.7901 54.3874 40.0226 54.6161 40.0226 54.6161C38.895 56.0439 38.8149 55.0548 37.5 55Z" fill="#FCBC38"/>
<path d="M53 17.5C54.7539 17.5 55.8484 19.1446 56.9139 20.2101C57.988 21.2842 58.6152 22.78 59.3654 24.1136C61.2156 27.4028 62.1008 30.9834 62.7217 34.7086C63.4971 39.3614 63.2842 43.9749 62.8795 48.6284C62.7452 50.1725 62.1954 51.7577 62.1114 53.2684C62.0665 54.0782 61.5433 54.8346 61.5433 55.7304" stroke="#974E25" stroke-linecap="round"/>
<path d="M61.491 55.6299V61.4157" stroke="#974E25" stroke-linecap="round"/>
<path d="M41.8778 63.4744C41.8778 62.1814 41.8778 60.8884 41.8778 59.5954C41.8778 58.2308 41.7963 56.8943 41.3875 55.5802C41.0103 54.3681 40.8663 53.0897 40.4831 51.881C39.872 49.9537 39.6328 47.9196 39.0884 45.9753C38.9325 45.4187 38.6732 44.8615 38.549 44.3027C38.4793 43.9888 38.4999 42.3307 38.4999 42" stroke="#974E25" stroke-linecap="round"/>
<path d="M42.6624 20.6201C42.6624 21.6573 41.9133 22.3362 41.6817 23.2624C41.5584 23.7555 41.1717 24.3336 40.8972 24.7606C40.6036 25.2173 40.1361 25.9045 39.9928 26.406C39.8204 27.0094 39.4199 27.5873 39.181 28.1711C38.808 29.0831 38.7086 30.1746 38.6362 31.1512C38.5903 31.7713 38.4456 32.3486 38.4456 32.9763C38.4456 33.6301 38.4456 34.2839 38.4456 34.9376C38.4456 36.859 38.4456 38.7803 38.4456 40.7017C38.4456 41.281 38.4456 41.8603 38.4456 42.4396C38.4456 42.702 38.4999 43.5 38.4999 44" stroke="#974E25" stroke-linecap="round"/>
<path d="M33.8365 17.1885C31.2603 17.1885 28.4451 16.6974 25.9423 17.5317C22.5794 18.6527 19.4536 21.1548 17.8574 24.3472C16.8125 26.437 16.2263 28.6812 15.8361 30.9666C15.4725 33.0965 15.4723 35.2038 15.4984 37.3681C15.5209 39.2383 16.1184 40.9749 16.479 42.778C16.5715 43.2407 17.5 47.5 17.5 47.5" stroke="#974E25" stroke-linecap="round"/>
<path d="M26.7575 61.0179C24.6393 58.6644 22.7029 56.0816 20.4594 53.8381C19.2395 52.6182 18.6862 51.2336 18.0101 49.6884C17.8305 49.2777 17.8107 48.7737 17.6253 48.3657C17.4536 47.988 17.5644 47.5133 17.4083 47.1621" stroke="#974E25" stroke-linecap="round"/>
<path d="M36.7668 16.2566C36.7668 15.4282 35.5832 14.6214 35.0512 14.1262C34.2932 13.4204 33.233 12.9643 32.3194 12.4992C31.5775 12.1215 30.8537 11.8217 30.0538 11.5995C29.5376 11.4561 28.942 11.3658 28.4594 11.1379C27.7506 10.8032 26.6541 10.4225 25.8581 10.3827C25.5441 10.367 25.2762 10.286 24.9771 10.2196M24.9771 10.2196C24.9999 10 25.2995 10.2733 24.9771 10.2196Z" stroke="#974E25" stroke-linecap="round"/>
<path d="M38.0001 7.5C38.0001 8.62258 37.7388 9.23708 37.4009 10.299C37.1653 11.0397 37.2501 11.8851 37.0373 12.6299C36.8584 13.2562 37.0187 14.1308 37.0187 14.7836C37.0187 14.9997 37.1026 15.1238 37.1026 15.3337C37.1026 15.5497 37.1865 16.0656 37.1865 15.5016" stroke="#974E25" stroke-linecap="round"/>
<path d="M58.1503 8.29398C57.7287 8.29398 57.3732 8.23396 57.0227 8.49684C56.5527 8.84937 56.0744 9.20243 55.734 9.69011C55.305 10.3046 54.7507 10.8314 54.3378 11.4621C53.9034 12.1258 53.5938 12.8735 53.1565 13.5295C52.5879 14.3823 52.1615 15.4572 51.3308 16.1099C51.1109 16.2827 50.904 16.5009 50.7103 16.6946C50.627 16.7779 50.3643 17.0457 50.3643 16.8855" stroke="#974E25" stroke-linecap="round"/>
</svg>
