<svg width="119" height="115" viewBox="0 0 119 115" fill="none" xmlns="http://www.w3.org/2000/svg">
<rect y="1" width="119" height="114" rx="57" fill="#84623D"/>
<path d="M0 39.361C0 20.6495 14.0993 4.94445 32.7025 2.93412L53.4575 0.691254C57.7094 0.231772 61.9986 0.234515 66.25 0.699435L86.3242 2.89471C104.918 4.92813 119 20.6337 119 39.3387V39.3387C119 59.5862 102.586 76 82.3387 76H36.639C16.4038 76 0 59.5962 0 39.361V39.361Z" fill="#654C31"/>
<path d="M0 39.361C0 20.6495 14.0993 4.94445 32.7025 2.93412L53.4575 0.691254C57.7094 0.231772 61.9986 0.234515 66.25 0.699435L86.3242 2.89471C104.918 4.92813 119 20.6337 119 39.3387V39.3387C119 59.5862 102.586 76 82.3387 76H36.639C16.4038 76 0 59.5962 0 39.361V39.361Z" fill="#654C31"/>
<path d="M14 39.6053C14 25.5471 24.6413 13.7707 38.6277 12.3508L56.9821 10.4874C60.1742 10.1633 63.391 10.1652 66.5827 10.4931L84.391 12.3228C98.3711 13.7591 109 25.5359 109 39.5896V39.5896C109 54.7279 96.728 67 81.5896 67H41.3947C26.265 67 14 54.735 14 39.6053V39.6053Z" fill="#654C31"/>
<path d="M14 39.6053C14 25.5471 24.6413 13.7707 38.6277 12.3508L56.9821 10.4874C60.1742 10.1633 63.391 10.1652 66.5827 10.4931L84.391 12.3228C98.3711 13.7591 109 25.5359 109 39.5896V39.5896C109 54.7279 96.728 67 81.5896 67H41.3947C26.265 67 14 54.735 14 39.6053V39.6053Z" fill="#483826"/>
<path fill-rule="evenodd" clip-rule="evenodd" d="M61.5 13C42.5934 19.2219 23.9604 31.2057 21.3189 52.6939C21.3189 52.6939 23.6743 55.3348 25.4646 56.6567C27.198 57.9367 28.2343 58.655 30.248 59.3433C30.9949 59.5985 31.5371 59.702 32.1645 59.8218C32.4546 59.8771 32.7629 59.936 33.1181 60.0149C33.9896 60.2086 34.8495 60.4006 35.6986 60.5902C55.9805 65.119 70.1026 68.2723 89.8819 60.0149C90.4084 59.7951 90.8862 59.6054 91.3355 59.427C92.832 58.8327 94.012 58.3641 95.622 57.3284C97.5142 56.1111 98.6083 55.3746 100.087 53.6343C100.715 52.8944 101.558 51.6194 101.558 51.6194C98.5814 30.6498 80.9673 18.2016 61.5 13Z" fill="#DDDDDD"/>
<path fill-rule="evenodd" clip-rule="evenodd" d="M67.5 33C54.6622 36.8714 42.0102 44.328 40.2165 57.6984C40.2165 57.6984 41.8159 59.3417 43.0315 60.1642C44.2085 60.9606 44.9122 61.4076 46.2795 61.8358C46.7866 61.9946 47.1548 62.059 47.5808 62.1336C47.7778 62.168 47.9872 62.2046 48.2283 62.2537C48.8201 62.3742 49.404 62.4937 49.9805 62.6117C63.7522 65.4296 73.3412 67.3917 86.7717 62.2537C87.1292 62.117 87.4536 61.9989 87.7587 61.8879C88.7748 61.5181 89.576 61.2266 90.6693 60.5821C91.9541 59.8247 92.697 59.3664 93.7008 58.2836C94.1276 57.8232 94.7002 57.0299 94.7002 57.0299C92.6787 43.9821 80.7185 36.2365 67.5 33Z" fill="#F1EFEF"/>
</svg>
