<svg width="171" height="201" viewBox="0 0 171 201" fill="none" xmlns="http://www.w3.org/2000/svg">
<rect x="85" width="4" height="79" fill="#5F5E5E"/>
<path fill-rule="evenodd" clip-rule="evenodd" d="M19.7732 142.886C20.585 141.993 21.4314 141.062 22.1936 140.024C24.1365 137.377 25.8353 135.816 27.8431 133.972C28.6819 133.201 29.5747 132.381 30.5617 131.411C33.2112 128.809 37.4745 124.866 37.4745 124.866C37.4745 124.866 41.5787 121.819 44.3872 120.043C47.6617 117.972 50.5822 115.319 55.3021 113.842C58.9844 112.69 65.1255 112.464 65.1255 112.464C65.1255 112.464 65.0013 108.774 66.217 103.163C66.3889 102.369 66.5414 101.643 66.6853 100.957C67.2778 98.1352 67.7232 96.0136 68.7638 92.8278C69.0618 91.9156 69.279 91.0867 69.4836 90.3062C70.0178 88.268 70.4655 86.5598 72.0383 84.5598C73.5463 82.6422 74.8687 81.7853 76.7942 80.5374C77.0194 80.3915 77.2528 80.2403 77.4957 80.0813C79.1197 79.0189 81.8617 77.6699 81.8617 77.6699C81.8617 77.6699 80.4563 73.5324 81.4979 71.4689C82.1491 70.1786 82.0791 69.5322 83.317 68.7129C84.901 67.6646 86.4805 67.243 88.4106 67.3349C90.0716 67.4141 91.2133 67.9666 92.4128 69.0574C93.8696 70.3823 93.8681 71.8134 94.2319 72.5024C94.2319 72.5481 94.2319 73.4896 94.2319 73.5359C94.2319 75.4947 93.1404 77.6699 93.1404 77.6699C93.1404 77.6699 96.254 79.8484 97.8702 81.1148C99.7212 82.5653 100.458 83.9701 101.386 85.7391C101.645 86.2333 101.919 86.7558 102.236 87.3158C104.383 91.1035 105.154 93.4764 106.238 97.6507C107.165 101.217 107.483 103.285 107.694 106.952C107.817 109.102 107.694 112.464 107.694 112.464C107.694 112.464 113.835 112.69 117.517 113.842C120.914 114.905 122.929 116.303 125.336 117.972C126.274 118.623 127.271 119.314 128.432 120.043C131.344 121.871 133.423 123.439 135.563 125.054C137.339 126.394 139.157 127.766 141.53 129.344C143.181 130.444 144.634 131.243 146.021 132.007C148.155 133.182 150.134 134.272 152.445 136.234C153.214 136.888 153.984 137.433 154.716 137.951C156.692 139.349 158.384 140.547 158.994 143.124C159.366 144.7 159.402 145.691 158.994 147.258C158.263 150.062 155.657 151.601 153.172 152.77C152.204 153.226 151.621 153.534 150.626 154.148C144.338 158.029 139.445 158.707 132.984 160.059C131.554 160.358 130.047 160.673 128.432 161.038C119.493 163.062 114.056 163.432 105.315 164.028C104.786 164.064 104.246 164.101 103.691 164.139C91.8896 164.95 85.1682 164.659 73.4349 164.152L73.1298 164.139C72.8677 164.127 72.6085 164.116 72.3521 164.105C62.7178 163.689 57.0522 163.445 47.2979 162.072C45.2907 161.789 43.4329 161.584 41.6704 161.388C36.5111 160.817 32.1686 160.337 27.2872 158.282C26.2252 157.835 25.1542 157.466 24.1176 157.108C20.5138 155.866 17.3257 154.766 16.3723 151.048C15.4882 147.599 17.495 145.392 19.7732 142.886Z" fill="#2E2E2E"/>
<ellipse cx="85.5" cy="147" rx="65.5" ry="13" fill="#9B997E"/>
<path fill-rule="evenodd" clip-rule="evenodd" d="M86.5 157C98.2806 157 108.037 148.147 109.737 136.6C109.737 136.6 101.078 135.664 95.5083 135.4C88.3272 135.059 84.2805 135.046 77.1 135.4C71.683 135.667 63.2626 136.6 63.2626 136.6C64.9634 148.147 74.7194 157 86.5 157Z" fill="#FFEDA3"/>
</svg>
