<svg width="171" height="215" viewBox="0 0 171 215" fill="none" xmlns="http://www.w3.org/2000/svg">
<rect x="85" y="14" width="4" height="79" fill="#5F5E5E"/>
<ellipse cx="88.5" cy="12" rx="34.5" ry="12" fill="#5F5E5E"/>
<path fill-rule="evenodd" clip-rule="evenodd" d="M19.7732 156.886C20.585 155.993 21.4314 155.062 22.1936 154.024C24.1365 151.377 25.8353 149.816 27.8431 147.972C28.6819 147.201 29.5747 146.381 30.5617 145.411C33.2112 142.809 37.4745 138.866 37.4745 138.866C37.4745 138.866 41.5787 135.819 44.3872 134.043C47.6617 131.972 50.5822 129.319 55.3021 127.842C58.9844 126.69 65.1255 126.464 65.1255 126.464C65.1255 126.464 65.0013 122.774 66.217 117.163C66.3889 116.369 66.5414 115.643 66.6853 114.957C67.2778 112.135 67.7232 110.014 68.7638 106.828C69.0618 105.916 69.279 105.087 69.4836 104.306C70.0178 102.268 70.4655 100.56 72.0383 98.5598C73.5463 96.6422 74.8687 95.7853 76.7942 94.5374C77.0194 94.3915 77.2528 94.2403 77.4957 94.0813C79.1197 93.0189 81.8617 91.6699 81.8617 91.6699C81.8617 91.6699 80.4563 87.5324 81.4979 85.4689C82.1491 84.1786 82.0791 83.5322 83.317 82.7129C84.901 81.6646 86.4805 81.243 88.4106 81.3349C90.0716 81.4141 91.2133 81.9666 92.4128 83.0574C93.8696 84.3823 93.8681 85.8134 94.2319 86.5024C94.2319 86.5481 94.2319 87.4896 94.2319 87.5359C94.2319 89.4947 93.1404 91.6699 93.1404 91.6699C93.1404 91.6699 96.254 93.8484 97.8702 95.1148C99.7212 96.5653 100.458 97.9701 101.386 99.7391C101.645 100.233 101.919 100.756 102.236 101.316C104.383 105.103 105.154 107.476 106.238 111.651C107.165 115.217 107.483 117.285 107.694 120.952C107.817 123.102 107.694 126.464 107.694 126.464C107.694 126.464 113.835 126.69 117.517 127.842C120.914 128.905 122.929 130.303 125.336 131.972C126.274 132.623 127.271 133.314 128.432 134.043C131.344 135.871 133.423 137.439 135.563 139.054C137.339 140.394 139.157 141.766 141.53 143.345C143.181 144.444 144.634 145.243 146.021 146.007C148.155 147.182 150.134 148.272 152.445 150.234C153.214 150.888 153.984 151.433 154.716 151.951C156.692 153.349 158.384 154.547 158.994 157.124C159.366 158.7 159.402 159.691 158.994 161.258C158.263 164.062 155.657 165.601 153.172 166.77C152.204 167.226 151.621 167.534 150.626 168.148C144.338 172.029 139.445 172.707 132.984 174.059C131.554 174.358 130.047 174.673 128.432 175.038C119.493 177.062 114.056 177.432 105.315 178.028C104.786 178.064 104.246 178.101 103.691 178.139C91.8897 178.95 85.1682 178.659 73.4349 178.152L73.1298 178.139C72.8677 178.127 72.6085 178.116 72.3521 178.105C62.7178 177.689 57.0522 177.445 47.2979 176.072C45.2907 175.789 43.4329 175.584 41.6704 175.388C36.5111 174.817 32.1686 174.337 27.2872 172.282C26.2252 171.835 25.1542 171.466 24.1176 171.108C20.5138 169.866 17.3257 168.766 16.3723 165.048C15.4882 161.599 17.495 159.392 19.7732 156.886Z" fill="#2E2E2E"/>
<ellipse cx="85.5" cy="161" rx="65.5" ry="13" fill="#9B997E"/>
<path fill-rule="evenodd" clip-rule="evenodd" d="M86.5 171C98.2806 171 108.037 162.147 109.737 150.6C109.737 150.6 101.078 149.664 95.5083 149.4C88.3272 149.059 84.2805 149.046 77.1 149.4C71.683 149.667 63.2626 150.6 63.2626 150.6C64.9634 162.147 74.7194 171 86.5 171Z" fill="#FFEDA3"/>
</svg>
