<svg width="160" height="149" viewBox="0 0 160 149" fill="none" xmlns="http://www.w3.org/2000/svg">
<rect x="10.7576" y="0.826172" width="117.141" height="61.9506" rx="10" transform="rotate(10 10.7576 0.826172)" fill="#3F2F2F"/>
<rect x="52.7783" y="48.249" width="9" height="100" fill="#3F2F2F"/>
<rect x="11.7446" y="6.2832" width="113.172" height="17.0819" rx="5" transform="rotate(10 11.7446 6.2832)" fill="#513E3E"/>
<rect x="11.7446" y="6.2832" width="113.172" height="17.0819" rx="5" transform="rotate(10 11.7446 6.2832)" fill="#513E3E"/>
<rect x="4.74463" y="41.249" width="113.172" height="17.0819" rx="5" transform="rotate(10 4.74463 41.249)" fill="#513E3E"/>
<rect x="4.74463" y="41.249" width="113.172" height="17.0819" rx="5" transform="rotate(10 4.74463 41.249)" fill="#513E3E"/>
<rect x="7.57861" y="27.249" width="113.172" height="10.3666" rx="5" transform="rotate(10 7.57861 27.249)" fill="#513E3E"/>
<rect x="7.57861" y="27.249" width="113.172" height="10.3666" rx="5" transform="rotate(10 7.57861 27.249)" fill="#513E3E"/>
<path d="M34.4763 29.07C34.759 29.1199 35.0139 29.1083 35.241 29.0353C35.4691 28.9565 35.6671 28.8456 35.8351 28.7027C36.0031 28.5598 36.1356 28.3987 36.2327 28.2195C36.3355 28.0413 36.4006 27.8743 36.4281 27.7185L38.9815 28.1687C38.954 28.3245 38.8895 28.5214 38.7881 28.7593C38.6924 28.9983 38.5567 29.2451 38.3809 29.4997C38.2051 29.7543 37.9855 30.0041 37.7222 30.2492C37.4656 30.4896 37.1588 30.6943 36.8017 30.8634C36.4515 31.0277 36.0535 31.142 35.6079 31.2062C35.1612 31.2762 34.6609 31.2623 34.1069 31.1646C33.3856 31.0375 32.7673 30.8154 32.252 30.4984C31.7425 30.1825 31.3374 29.7809 31.0366 29.2935C30.7426 28.8014 30.5524 28.2264 30.4661 27.5686C30.3856 26.9118 30.416 26.1824 30.5574 25.3803C30.6989 24.5782 30.9279 23.8868 31.2445 23.306C31.5679 22.7205 31.96 22.2511 32.4209 21.8981C32.8828 21.5392 33.4043 21.298 33.9854 21.1744C34.5722 21.0518 35.2003 21.0495 35.8697 21.1675C36.1582 21.2184 36.4513 21.2938 36.749 21.3939C37.0525 21.495 37.344 21.6298 37.6237 21.7981C37.9045 21.9606 38.1647 22.1552 38.4043 22.3819C38.6498 22.6097 38.8553 22.8779 39.021 23.1868C39.1935 23.4909 39.3169 23.8369 39.3913 24.2249C39.4725 24.6081 39.4915 25.0398 39.4485 25.5201L36.8951 25.0699C36.8927 24.8136 36.8674 24.586 36.8192 24.3871C36.772 24.1825 36.6932 24.005 36.5828 23.8546C36.4793 23.6995 36.3379 23.5734 36.1587 23.4764C35.9862 23.3746 35.7673 23.3003 35.5019 23.2535C35.0922 23.1812 34.7465 23.2185 34.4648 23.3651C34.1888 23.5128 33.9591 23.7192 33.7755 23.9843C33.5919 24.2494 33.447 24.5482 33.3408 24.8805C33.2404 25.2138 33.1637 25.5305 33.1108 25.8306C33.0559 26.1422 33.0152 26.4741 32.9888 26.8264C32.9633 27.173 32.9887 27.5017 33.0648 27.8126C33.1418 28.1178 33.2882 28.3845 33.5037 28.6129C33.7193 28.8413 34.0435 28.9937 34.4763 29.07ZM42.7758 32.3094C42.2252 31.9565 41.7785 31.5208 41.4356 31.0022C41.0984 30.4846 40.8713 29.9001 40.7541 29.2488C40.6427 28.5985 40.6511 27.9098 40.7793 27.1827C40.9075 26.4556 41.1351 25.8056 41.4623 25.2326C41.7952 24.6606 42.208 24.192 42.7008 23.8267C43.2004 23.4567 43.7692 23.2 44.4073 23.0567C45.0454 22.9133 45.7366 22.9073 46.481 23.0386C47.2369 23.1718 47.8902 23.415 48.4408 23.7679C48.9972 24.1218 49.441 24.5571 49.7724 25.0736C50.1105 25.5854 50.3353 26.1665 50.4467 26.8168C50.5581 27.4671 50.5497 28.1558 50.4215 28.8829C50.2933 29.61 50.0657 30.26 49.7385 30.833C49.4114 31.406 49.001 31.878 48.5071 32.2491C48.0191 32.6211 47.4531 32.8783 46.8093 33.0206C46.1712 33.164 45.4742 33.169 44.7183 33.0357C43.9739 32.9045 43.3264 32.6624 42.7758 32.3094ZM43.2676 28.7103C43.2806 29.0755 43.3521 29.4124 43.4821 29.7209C43.6132 30.0236 43.8082 30.2841 44.0672 30.5023C44.3262 30.7205 44.6664 30.8668 45.0876 30.9411C45.5261 31.0184 45.9039 31.0017 46.2209 30.891C46.5447 30.7756 46.8166 30.6004 47.0365 30.3655C47.2574 30.1248 47.433 29.8374 47.5633 29.5034C47.7004 29.1647 47.802 28.8077 47.8682 28.4327C47.9333 28.0634 47.9594 27.6961 47.9464 27.3309C47.9392 26.9667 47.8725 26.6366 47.7462 26.3406C47.6209 26.0389 47.4253 25.7813 47.1595 25.5679C46.9005 25.3496 46.5518 25.2019 46.1132 25.1245C45.692 25.0503 45.3223 25.0714 45.0043 25.1878C44.6863 25.3043 44.4134 25.4852 44.1857 25.7307C43.959 25.9704 43.7742 26.2591 43.6314 26.5968C43.4953 26.9298 43.3957 27.2752 43.3327 27.6329C43.2696 27.9907 43.2479 28.3498 43.2676 28.7103ZM59.7202 22.3564C59.8661 22.3048 59.9635 22.2417 60.0124 22.167L62.2282 22.5577C62.1485 23.0434 61.9946 23.4268 61.7666 23.7079C61.5395 23.9832 61.265 24.1907 60.9429 24.3302C60.6276 24.465 60.2748 24.5426 59.8844 24.563C59.5009 24.5787 59.1104 24.5664 58.7129 24.526C58.4376 24.5013 58.1511 24.4894 57.8535 24.4905C57.5568 24.4858 57.2608 24.5109 56.9655 24.566C56.6713 24.6152 56.3853 24.7017 56.1077 24.8252C55.8311 24.9431 55.5733 25.1059 55.3344 25.3136C55.0954 25.5214 54.883 25.7814 54.697 26.0937C54.5111 26.406 54.364 26.7846 54.2558 27.2296C54.401 26.9459 54.598 26.6891 54.8468 26.4592C55.0966 26.2236 55.3888 26.0342 55.7234 25.8909C56.0649 25.7429 56.4448 25.6463 56.8633 25.6011C57.2829 25.5501 57.735 25.5673 58.2197 25.6528C58.866 25.7668 59.4295 25.9792 59.9101 26.29C60.3918 26.5951 60.7798 26.9759 61.0742 27.4324C61.3685 27.8888 61.5621 28.4108 61.6548 28.9984C61.7533 29.5869 61.7431 30.2188 61.624 30.8939C61.4917 31.644 61.2592 32.3051 60.9263 32.8771C60.5991 33.4501 60.1892 33.9192 59.6964 34.2845C59.2104 34.645 58.6488 34.8941 58.0117 35.0316C57.3757 35.1634 56.6855 35.1637 55.9411 35.0324C54.8563 34.8412 53.9981 34.4608 53.3667 33.8913C52.7353 33.3218 52.3177 32.5015 52.1139 31.4303C52.047 31.0675 52.0125 30.6895 52.0104 30.2965C52.0083 29.9034 52.0195 29.5365 52.0439 29.1957C52.074 28.856 52.1081 28.5615 52.1461 28.3124C52.184 28.0632 52.2102 27.8983 52.2244 27.8175C52.3831 26.9173 52.632 26.1133 52.971 25.4056C53.311 24.6921 53.7549 24.098 54.3026 23.6234C54.8562 23.1499 55.5178 22.8054 56.2876 22.5901C57.0632 22.3758 57.9669 22.3121 58.9987 22.3988C59.327 22.4269 59.5674 22.4128 59.7202 22.3564ZM57.3799 27.3789C56.9586 27.3046 56.5853 27.3132 56.2598 27.4045C55.9411 27.4911 55.6651 27.6388 55.432 27.8476C55.1988 28.0564 55.0105 28.3147 54.8669 28.6226C54.7244 28.9247 54.6216 29.2546 54.5585 29.6124C54.4955 29.9701 54.4704 30.3316 54.4833 30.6968C54.5031 31.0573 54.578 31.3918 54.708 31.7003C54.8391 32.0031 55.0341 32.2635 55.2931 32.4818C55.5521 32.7 55.8922 32.8462 56.3135 32.9205C56.7578 32.9988 57.1385 32.9827 57.4555 32.872C57.7793 32.7565 58.0511 32.5813 58.271 32.3464C58.492 32.1057 58.6676 31.8184 58.7979 31.4844C58.9292 31.1446 59.0279 30.7872 59.094 30.4121C59.1592 30.0428 59.1798 29.6894 59.156 29.3521C59.1322 29.0147 59.0546 28.7124 58.9232 28.4453C58.7928 28.1724 58.6009 27.9452 58.3473 27.7637C58.0947 27.5763 57.7722 27.4481 57.3799 27.3789ZM64.9771 36.3223C64.4567 36.0342 64.0244 35.6516 63.6802 35.1744C63.3427 34.6924 63.1127 34.1075 62.99 33.4195C62.8674 32.7315 62.8875 31.9258 63.0503 31.0026C63.1632 30.3621 63.3552 29.7623 63.6264 29.2032C63.9043 28.6394 64.2618 28.164 64.6989 27.777C65.1418 27.391 65.6665 27.1146 66.2731 26.9479C66.8864 26.7764 67.5883 26.7603 68.3788 26.8997C69.2155 27.0473 69.8951 27.3099 70.4175 27.6876C70.941 28.0595 71.3316 28.527 71.5893 29.0901C71.8527 29.6542 71.9969 30.3043 72.0218 31.0405C72.0467 31.7768 71.9828 32.5776 71.8302 33.4432L65.3645 32.3031C65.3492 32.3897 65.3375 32.5066 65.3294 32.6539C65.3213 32.8012 65.3284 32.9631 65.3509 33.1396C65.3733 33.3161 65.4183 33.4996 65.4859 33.69C65.5544 33.8746 65.6573 34.0504 65.7945 34.2174C65.9374 34.3854 66.1195 34.5335 66.3408 34.6618C66.5679 34.7911 66.8488 34.8852 67.1835 34.9443C67.3566 34.9748 67.5309 34.9817 67.7064 34.9651C67.8886 34.9437 68.06 34.8995 68.2206 34.8326C68.3821 34.76 68.5266 34.6664 68.6538 34.552C68.7879 34.4329 68.8933 34.2908 68.9699 34.1258L71.506 34.573C71.4755 34.7461 71.4029 34.9386 71.2882 35.1504C71.1745 35.3564 71.0194 35.5611 70.8229 35.7645C70.6332 35.9631 70.4036 36.1517 70.1341 36.3302C69.8647 36.5088 69.556 36.6567 69.2081 36.7738C68.8612 36.8852 68.4766 36.9572 68.0544 36.9899C67.6379 37.0235 67.1845 36.9971 66.694 36.9106C66.065 36.7997 65.4927 36.6036 64.9771 36.3223ZM66.6965 29.102C66.4765 29.2358 66.2787 29.4299 66.1029 29.6845C65.9329 29.9401 65.8112 30.2757 65.738 30.6911L69.5724 31.3672C69.6456 30.9518 69.6432 30.5944 69.5651 30.295C69.4928 29.9967 69.3756 29.7499 69.2137 29.5548C69.0585 29.3549 68.874 29.2033 68.6602 29.1002C68.4474 28.9913 68.2371 28.9185 68.0293 28.8819C67.8274 28.8462 67.6078 28.8432 67.3705 28.8728C67.1343 28.8966 66.9096 28.973 66.6965 29.102ZM78.2204 29.0367C78.4688 28.9436 78.7343 28.8893 79.0167 28.8736C79.3048 28.859 79.622 28.8822 79.9683 28.9433C80.2568 28.9941 80.5478 29.0812 80.8415 29.2043C81.1351 29.3275 81.4124 29.4924 81.6735 29.6991C81.9413 29.901 82.1832 30.1489 82.3991 30.4428C82.616 30.731 82.791 31.0712 82.9241 31.4636C83.0573 31.8559 83.1393 32.3018 83.1702 32.8011C83.2022 33.2946 83.1643 33.8472 83.0564 34.4588C82.9221 35.2205 82.7153 35.904 82.4361 36.5092C82.1626 37.1154 81.8183 37.617 81.4032 38.0138C80.994 38.4117 80.513 38.6928 79.9605 38.8572C79.4137 39.0225 78.7998 39.0452 78.1189 38.9251C77.8823 38.8834 77.6469 38.8181 77.4127 38.7292C77.1785 38.6403 76.9557 38.5207 76.7442 38.3704C76.5327 38.22 76.3394 38.0342 76.1642 37.813C75.9958 37.5869 75.8587 37.3188 75.7527 37.0086L75.7181 37.0025L74.868 41.8236L72.4185 41.3917L74.7261 28.3045L77.0631 28.7166L76.825 30.0669L76.8596 30.073C77.0768 29.8197 77.2956 29.6084 77.5158 29.439C77.7371 29.2638 77.972 29.1297 78.2204 29.0367ZM76.5977 35.9617C76.7261 36.1449 76.8912 36.305 77.0932 36.4417C77.2962 36.5727 77.5477 36.6647 77.8478 36.7176C78.1478 36.7705 78.4156 36.7701 78.6512 36.7164C78.8878 36.657 79.0977 36.5631 79.2809 36.4348C79.4642 36.3065 79.6227 36.15 79.7564 35.9653C79.8959 35.7817 80.0133 35.5882 80.1087 35.3848C80.205 35.1757 80.2802 34.9689 80.3341 34.7642C80.3948 34.5547 80.441 34.3606 80.4725 34.1817C80.5305 33.8528 80.5515 33.5144 80.5355 33.1665C80.5195 32.8186 80.4512 32.4971 80.3307 32.2022C80.2159 31.9083 80.0377 31.6537 79.796 31.4386C79.5543 31.2234 79.2401 31.0817 78.8535 31.0136C78.4612 30.9444 78.1146 30.9695 77.8139 31.0891C77.5189 31.2096 77.2644 31.3878 77.0503 31.6238C76.8419 31.8607 76.6707 32.1399 76.5367 32.4614C76.4026 32.7828 76.3066 33.108 76.2486 33.4369C76.2171 33.6158 76.1911 33.8135 76.1708 34.0301C76.1573 34.2419 76.16 34.4625 76.179 34.6919C76.1991 34.9156 76.2404 35.1371 76.3029 35.3563C76.3711 35.5766 76.4694 35.7784 76.5977 35.9617ZM90.3733 40.7914L91.376 35.1047L91.3327 35.0971L86.9976 40.1962L84.323 39.7246L85.9866 30.29L88.4361 30.722L87.4105 36.5385L87.4451 36.5446L91.907 31.334L94.4777 31.7873L92.8141 41.2218L90.3733 40.7914ZM30.966 49.0789L34.1217 42.4688L36.7444 42.9313L31.8624 51.6377C31.5821 52.1475 31.3319 52.5883 31.1116 52.96C30.8904 53.3375 30.6793 53.6572 30.4784 53.9193C30.2823 54.1882 30.0842 54.4002 29.8843 54.5553C29.6892 54.7172 29.4723 54.8337 29.2337 54.9047C28.9951 54.9756 28.7251 55.0054 28.4237 54.9939C28.1213 54.9881 27.7681 54.9497 27.3642 54.8785C27.2026 54.85 27.0507 54.8172 26.9085 54.7803C26.771 54.7501 26.6057 54.709 26.4125 54.6571L26.7621 52.675C26.8581 52.7038 26.9773 52.7367 27.1195 52.7737C27.2617 52.8107 27.3819 52.8378 27.48 52.8551C27.7396 52.9009 27.9675 52.8905 28.1637 52.824C28.3599 52.7574 28.5221 52.6641 28.6504 52.5439C28.7835 52.4305 28.8858 52.3057 28.9574 52.1696C29.029 52.0335 29.0734 51.9164 29.0907 51.8183L27.3877 41.2814L30.1315 41.7652L30.9314 49.0728L30.966 49.0789ZM41.9521 43.9656C42.2006 43.8725 42.466 43.8182 42.7484 43.8025C43.0365 43.7879 43.3537 43.8111 43.7 43.8721C43.9885 43.923 44.2796 44.01 44.5732 44.1332C44.8668 44.2564 45.1441 44.4213 45.4052 44.628C45.673 44.8299 45.9149 45.0778 46.1308 45.3717C46.3477 45.6599 46.5227 46.0001 46.6559 46.3925C46.789 46.7848 46.871 47.2306 46.902 47.7299C46.9339 48.2235 46.896 48.776 46.7881 49.3877C46.6538 50.1494 46.447 50.8328 46.1678 51.4381C45.8943 52.0443 45.55 52.5459 45.135 52.9427C44.7257 53.3406 44.2447 53.6217 43.6922 53.7861C43.1454 53.9514 42.5315 53.9741 41.8506 53.854C41.6141 53.8123 41.3787 53.747 41.1444 53.6581C40.9102 53.5692 40.6874 53.4496 40.4759 53.2993C40.2644 53.1489 40.0711 52.9631 39.8959 52.7418C39.7275 52.5158 39.5904 52.2477 39.4844 51.9375L39.4498 51.9314L38.5997 56.7525L36.1502 56.3206L38.4578 43.2334L40.7948 43.6455L40.5567 44.9957L40.5913 45.0018C40.8085 44.7486 41.0273 44.5373 41.2475 44.3679C41.4688 44.1927 41.7037 44.0586 41.9521 43.9656ZM40.3294 50.8906C40.4578 51.0738 40.6229 51.2338 40.8249 51.3706C41.0279 51.5016 41.2794 51.5935 41.5795 51.6464C41.8795 51.6994 42.1473 51.699 42.3829 51.6453C42.6195 51.5859 42.8294 51.492 43.0127 51.3637C43.1959 51.2353 43.3544 51.0789 43.4881 50.8942C43.6276 50.7105 43.745 50.517 43.8404 50.3137C43.9367 50.1046 44.0119 49.8977 44.0658 49.6931C44.1266 49.4836 44.1727 49.2895 44.2042 49.1106C44.2622 48.7817 44.2832 48.4433 44.2672 48.0954C44.2512 47.7474 44.183 47.426 44.0624 47.1311C43.9476 46.8372 43.7694 46.5826 43.5277 46.3674C43.286 46.1523 42.9719 46.0106 42.5852 45.9424C42.1929 45.8733 41.8463 45.8984 41.5456 46.0179C41.2507 46.1385 40.9961 46.3167 40.782 46.5526C40.5736 46.7896 40.4024 47.0688 40.2684 47.3902C40.1343 47.7117 40.0383 48.0369 39.9803 48.3658C39.9488 48.5447 39.9228 48.7424 39.9025 48.9589C39.889 49.1707 39.8917 49.3914 39.9108 49.6208C39.9308 49.8445 39.9721 50.066 40.0346 50.2852C40.1028 50.5055 40.2011 50.7073 40.3294 50.8906ZM50.3205 54.9637C49.7699 54.6108 49.3231 54.175 48.9802 53.6564C48.6431 53.1389 48.4159 52.5544 48.2988 51.9031C48.1873 51.2528 48.1957 50.5641 48.3239 49.837C48.4521 49.1099 48.6798 48.4599 49.0069 47.8869C49.3398 47.3149 49.7527 46.8463 50.2454 46.481C50.745 46.111 51.3139 45.8543 51.952 45.711C52.5901 45.5676 53.2813 45.5616 54.0257 45.6928C54.7816 45.8261 55.4348 46.0692 55.9854 46.4222C56.5418 46.7761 56.9857 47.2114 57.317 47.7279C57.6552 48.2397 57.8799 48.8208 57.9914 49.4711C58.1028 50.1214 58.0944 50.8101 57.9662 51.5372C57.838 52.2642 57.6103 52.9143 57.2832 53.4873C56.9561 54.0603 56.5456 54.5323 56.0518 54.9034C55.5638 55.2754 54.9978 55.5326 54.3539 55.6749C53.7158 55.8183 53.0188 55.8233 52.2629 55.69C51.5185 55.5587 50.871 55.3166 50.3205 54.9637ZM50.8123 51.3646C50.8252 51.7298 50.8967 52.0667 51.0268 52.3752C51.1578 52.6779 51.3529 52.9384 51.6119 53.1566C51.8709 53.3748 52.211 53.5211 52.6322 53.5953C53.0708 53.6727 53.4486 53.656 53.7656 53.5453C54.0894 53.4298 54.3612 53.2547 54.5811 53.0198C54.8021 52.7791 54.9777 52.4917 55.108 52.1577C55.2451 51.8189 55.3467 51.462 55.4128 51.087C55.4779 50.7177 55.504 50.3504 55.4911 49.9852C55.4839 49.621 55.4171 49.2909 55.2908 48.9949C55.1655 48.6932 54.97 48.4356 54.7042 48.2221C54.4452 48.0039 54.0964 47.8562 53.6579 47.7788C53.2366 47.7046 52.867 47.7256 52.549 47.8421C52.2309 47.9586 51.9581 48.1395 51.7304 48.385C51.5036 48.6246 51.3189 48.9133 51.176 49.2511C51.04 49.5841 50.9404 49.9295 50.8773 50.2872C50.8142 50.645 50.7925 51.0041 50.8123 51.3646ZM71.4434 49.0496L74.2391 49.5426L70.302 53.3464L72.74 59.0061L69.7798 58.4842L67.8984 54.0203L67.431 53.9379L66.7244 57.9454L64.2835 57.515L64.9902 53.5075L64.4535 53.4129L61.0896 56.9519L58.2333 56.4482L62.4774 51.9667L60.1133 47.0518L62.9177 47.5463L64.8275 51.7475L65.2863 51.8283L65.9471 48.0805L68.388 48.5109L67.7271 52.2587L68.1945 52.3412L71.4434 49.0496ZM79.7498 54.1734C79.8384 54.1771 79.9338 54.1761 80.0359 54.1703C80.1439 54.1655 80.2457 54.1448 80.3414 54.1081C80.4381 54.0657 80.5235 54.0034 80.5975 53.9213C80.6725 53.8333 80.7242 53.7086 80.7527 53.547C80.7802 53.3912 80.7791 53.2453 80.7496 53.1092C80.7268 52.9683 80.6659 52.8415 80.5667 52.7289C80.4686 52.6104 80.3261 52.5079 80.139 52.4214C79.9578 52.3359 79.7229 52.2677 79.4344 52.2168C79.1054 52.1588 78.8339 52.1466 78.6197 52.1803C78.4123 52.2092 78.2403 52.274 78.1035 52.3748C77.9677 52.4699 77.8597 52.5936 77.7792 52.746C77.6998 52.8927 77.6328 53.0534 77.5782 53.2282L75.1287 52.7963C75.149 52.6809 75.1943 52.5253 75.2645 52.3294C75.3416 52.1288 75.4505 51.916 75.5913 51.6909C75.7379 51.4669 75.9225 51.2466 76.1452 51.03C76.3736 50.8144 76.6527 50.6316 76.9826 50.4815C77.3193 50.3267 77.7129 50.2206 78.1633 50.1631C78.6137 50.1057 79.1366 50.1265 79.7319 50.2255C80.5744 50.3741 81.24 50.5807 81.7288 50.8454C82.2244 51.1053 82.5921 51.3992 82.8318 51.7271C83.0782 52.0502 83.2205 52.3906 83.2586 52.7483C83.3034 53.1013 83.2963 53.4452 83.2373 53.7799L82.3552 58.7828C82.3053 59.0655 82.2785 59.3017 82.2748 59.4915C82.2779 59.6765 82.2957 59.8284 82.3283 59.9472C82.362 60.0602 82.4059 60.1483 82.4603 60.2114C82.5214 60.2697 82.5874 60.3171 82.6583 60.3534L82.5896 60.7429L79.8805 60.2652C79.8536 60.1474 79.8271 59.994 79.801 59.8049C79.7816 59.6111 79.7948 59.3844 79.8406 59.1247C79.6156 59.2874 79.396 59.436 79.1818 59.5708C78.9734 59.7066 78.7455 59.8182 78.4981 59.9054C78.2517 59.9869 77.9752 60.0363 77.6687 60.0537C77.3612 60.0768 76.9997 60.0518 76.5843 59.9785C76.163 59.9042 75.7847 59.7721 75.4494 59.582C75.1187 59.3988 74.8449 59.1631 74.628 58.875C74.4111 58.5868 74.2625 58.2483 74.1824 57.8593C74.1022 57.4703 74.1044 57.0364 74.1888 56.5574C74.257 56.1708 74.3807 55.8237 74.5598 55.5162C74.74 55.2029 74.9616 54.9415 75.2247 54.732C75.4945 54.5178 75.8023 54.3579 76.1482 54.2523C76.5008 54.1419 76.8813 54.093 77.2896 54.1055L79.7498 54.1734ZM77.1975 58.2214C77.3394 58.294 77.4969 58.3456 77.67 58.3761C77.7624 58.3924 77.8822 58.4046 78.0295 58.4127C78.1778 58.4151 78.3379 58.4016 78.5096 58.3724C78.6813 58.3432 78.8567 58.2938 79.0355 58.2242C79.2154 58.1488 79.3831 58.0415 79.5385 57.9023C79.6939 57.7632 79.8324 57.5853 79.9539 57.3687C80.0764 57.1464 80.1656 56.8765 80.2216 56.5591L80.3895 55.607C80.2252 55.6614 80.0619 55.7099 79.8997 55.7527C79.7385 55.7897 79.5297 55.8094 79.2735 55.8119L78.6029 55.8186C78.311 55.8207 78.0522 55.8375 77.8265 55.8691C77.6008 55.9007 77.4056 55.9615 77.241 56.0514C77.0832 56.1367 76.9525 56.2534 76.849 56.4018C76.7513 56.5511 76.6811 56.747 76.6383 56.9894C76.6027 57.1913 76.6034 57.3729 76.6404 57.5341C76.6785 57.6896 76.7437 57.826 76.836 57.9434C76.9351 58.0561 77.0556 58.1488 77.1975 58.2214ZM87.7108 57.9154L87.7454 57.9215L92.2073 52.7109L94.778 53.1642L93.1144 62.5987L90.6736 62.1683L91.6763 56.4816L91.633 56.474L87.2979 61.5731L84.6234 61.1015L86.2869 51.667L88.7364 52.0989L87.7108 57.9154ZM90.0022 48.7165C90.0114 48.8669 90.0496 49.0045 90.1168 49.1294C90.1908 49.2495 90.2972 49.3546 90.4361 49.4445C90.5817 49.5297 90.7757 49.5936 91.018 49.6364C91.2546 49.6781 91.4549 49.6896 91.6188 49.6709C91.7896 49.6475 91.9297 49.5948 92.0394 49.513C92.149 49.4312 92.2338 49.3212 92.2939 49.1831C92.3539 49.0449 92.3984 48.8772 92.4272 48.68L94.1929 48.9914C94.1125 49.4472 93.9689 49.8235 93.7618 50.1202C93.5548 50.4169 93.3003 50.6457 92.9982 50.8066C92.703 50.9628 92.3649 51.0579 91.9841 51.0919C91.6043 51.1201 91.2009 51.0966 90.7738 51.0213C90.3411 50.9449 89.9511 50.8286 89.6038 50.6722C89.2576 50.51 88.9695 50.3045 88.7397 50.0557C88.5109 49.8012 88.35 49.4991 88.2569 49.1495C88.1696 48.8009 88.1662 48.3987 88.2466 47.9429L90.021 48.2557C89.9982 48.4183 89.992 48.5719 90.0022 48.7165Z" fill="white"/>
</svg>
